<svg width="10" height="10" viewBox="0 0 10 10" fill="none" xmlns="http://www.w3.org/2000/svg">
<g opacity="0.75">
<mask id="path-1-outside-1" maskUnits="userSpaceOnUse" x="0" y="0" width="10" height="10" fill="black">
<rect fill="white" width="10" height="10"/>
<path d="M8.07272 1.1591C8.28485 0.946969 8.62878 0.946969 8.8409 1.1591C9.05303 1.37122 9.05303 1.71515 8.8409 1.92728L1.92728 8.8409C1.71515 9.05303 1.37122 9.05303 1.1591 8.8409C0.946968 8.62878 0.946968 8.28485 1.1591 8.07272L8.07272 1.1591Z"/>
<path d="M8.8409 8.07272C9.05303 8.28485 9.05303 8.62878 8.8409 8.8409C8.62878 9.05303 8.28485 9.05303 8.07272 8.8409L1.1591 1.92728C0.946969 1.71515 0.946969 1.37122 1.1591 1.1591C1.37122 0.946968 1.71515 0.946968 1.92728 1.1591L8.8409 8.07272Z"/>
</mask>
<path d="M8.07272 1.1591C8.28485 0.946969 8.62878 0.946969 8.8409 1.1591C9.05303 1.37122 9.05303 1.71515 8.8409 1.92728L1.92728 8.8409C1.71515 9.05303 1.37122 9.05303 1.1591 8.8409C0.946968 8.62878 0.946968 8.28485 1.1591 8.07272L8.07272 1.1591Z" fill="white"/>
<path d="M8.8409 8.07272C9.05303 8.28485 9.05303 8.62878 8.8409 8.8409C8.62878 9.05303 8.28485 9.05303 8.07272 8.8409L1.1591 1.92728C0.946969 1.71515 0.946969 1.37122 1.1591 1.1591C1.37122 0.946968 1.71515 0.946968 1.92728 1.1591L8.8409 8.07272Z" fill="white"/>
<path d="M1.1591 8.07272L1.26516 8.17879L1.1591 8.07272ZM1.92728 8.8409L1.82121 8.73484L1.92728 8.8409ZM8.8409 1.92728L8.94697 2.03334L8.8409 1.92728ZM8.07272 1.1591L7.96666 1.05303L8.07272 1.1591ZM1.92728 1.1591L2.03334 1.05303L1.92728 1.1591ZM1.1591 1.92728L1.26516 1.82121L1.1591 1.92728ZM8.07272 8.8409L7.96666 8.94697L8.07272 8.8409ZM8.8409 8.07272L8.73484 8.17879L8.8409 8.07272ZM8.73484 1.82121L1.82121 8.73484L2.03334 8.94697L8.94697 2.03334L8.73484 1.82121ZM1.26516 8.17879L8.17879 1.26516L7.96666 1.05303L1.05303 7.96666L1.26516 8.17879ZM1.26516 8.73484C1.11161 8.58129 1.11161 8.33234 1.26516 8.17879L1.05303 7.96666C0.782324 8.23736 0.782324 8.67626 1.05303 8.94697L1.26516 8.73484ZM1.82121 8.73484C1.66766 8.88839 1.41871 8.88839 1.26516 8.73484L1.05303 8.94697C1.32374 9.21768 1.76264 9.21768 2.03334 8.94697L1.82121 8.73484ZM8.73484 1.26516C8.88839 1.41871 8.88839 1.66766 8.73484 1.82121L8.94697 2.03334C9.21768 1.76264 9.21768 1.32374 8.94697 1.05303L8.73484 1.26516ZM8.94697 1.05303C8.67626 0.782324 8.23736 0.782324 7.96666 1.05303L8.17879 1.26516C8.33234 1.11161 8.58129 1.11161 8.73484 1.26516L8.94697 1.05303ZM8.17879 8.73484L1.26516 1.82121L1.05303 2.03334L7.96666 8.94697L8.17879 8.73484ZM1.82121 1.26516L8.73484 8.17879L8.94697 7.96666L2.03334 1.05303L1.82121 1.26516ZM1.26516 1.26516C1.41871 1.11161 1.66766 1.11161 1.82121 1.26516L2.03334 1.05303C1.76264 0.782324 1.32374 0.782324 1.05303 1.05303L1.26516 1.26516ZM1.26516 1.82121C1.11161 1.66766 1.11161 1.41871 1.26516 1.26516L1.05303 1.05303C0.782324 1.32374 0.782324 1.76264 1.05303 2.03334L1.26516 1.82121ZM8.73484 8.73484C8.58129 8.88839 8.33234 8.88839 8.17879 8.73484L7.96666 8.94697C8.23736 9.21768 8.67626 9.21768 8.94697 8.94697L8.73484 8.73484ZM8.94697 8.94697C9.21768 8.67626 9.21768 8.23736 8.94697 7.96666L8.73484 8.17879C8.88839 8.33234 8.88839 8.58129 8.73484 8.73484L8.94697 8.94697Z" fill="white" mask="url(#path-1-outside-1)"/>
</g>
</svg>
