<?xml version="1.0" standalone="no"?>
<!DOCTYPE svg PUBLIC "-//W3C//DTD SVG 20010904//EN"
 "http://www.w3.org/TR/2001/REC-SVG-20010904/DTD/svg10.dtd">
<svg version="1.0" xmlns="http://www.w3.org/2000/svg"
 width="700.000000pt" height="700.000000pt" viewBox="0 0 700.000000 700.000000"
 preserveAspectRatio="xMidYMid meet">
<metadata>
Created by potrace 1.14, written by Peter Selinger 2001-2017
</metadata>
<g transform="translate(0.000000,700.000000) scale(0.100000,-0.100000)"
fill="#000000" stroke="none">
<path d="M221 6980 c-29 -11 -60 -25 -70 -32 -68 -51 -110 -107 -136 -180 -13
-38 -14 -434 -12 -3283 l2 -3240 22 -47 c30 -66 92 -129 160 -164 l58 -29
3255 0 3255 0 56 28 c66 32 132 99 162 165 l22 47 0 3255 0 3255 -28 57 c-32
65 -99 130 -167 162 l-45 21 -3240 2 c-3178 2 -3241 2 -3294 -17z"/>
</g>
</svg>
