<svg width="111" height="44" viewBox="0 0 111 44" fill="none" xmlns="http://www.w3.org/2000/svg">
<path fill-rule="evenodd" clip-rule="evenodd" d="M14.2149 27.6142V0C12.4668 1.17507 10.4886 2.00198 8.28051 2.48071C6.07238 2.95945 3.31221 3.24233 0 3.32938V4.76558C2.07013 4.76558 3.68023 4.9179 4.8303 5.22255C6.02637 5.5272 6.85442 6.18002 7.31445 7.18101C7.77448 8.182 8.0045 9.727 8.0045 11.816V27.6142C8.0045 29.7468 7.36046 31.183 6.07238 31.9228C4.7843 32.6192 2.99019 32.9674 0.690043 32.9674V34.3383C1.74811 34.2948 3.2432 34.2512 5.17532 34.2077C7.15344 34.1207 9.20057 34.0771 11.3167 34.0771C13.2028 34.0771 15.0199 34.1207 16.768 34.2077C18.5622 34.2512 19.9192 34.2948 20.8393 34.3383V32.9674C18.4471 32.9674 16.745 32.5974 15.733 31.8576C14.7209 31.1177 14.2149 29.7033 14.2149 27.6142ZM23.6766 0.652818C22.5725 0.609298 21.8134 0.544015 21.3994 0.456971C21.4914 1.45796 21.5604 2.6548 21.6064 4.04748C21.6524 5.44016 21.6754 7.28981 21.6754 9.59644H22.8485C23.0325 8.33432 23.3775 7.4639 23.8836 6.98516C24.3896 6.50643 25.5857 6.26706 27.4718 6.26706H43.8498C43.2927 7.19577 42.7096 8.13147 42.1007 9.07418C40.6286 11.3808 39.1105 13.7745 37.5464 16.2552C36.0283 18.6924 34.6252 21.2166 33.3372 23.8279C32.0491 26.3956 30.991 29.0504 30.163 31.7923C29.3809 34.5341 28.9899 37.3848 28.9899 40.3442C28.9899 41.3017 29.2429 42.1503 29.7489 42.8902C30.255 43.6301 31.037 44 32.0951 44C33.0611 44 33.8432 43.6736 34.4412 43.0208C35.0393 42.4115 35.3383 41.6281 35.3383 40.6706C35.3383 40.1919 35.3153 39.6914 35.2693 39.1691C35.2233 38.6469 35.1773 38.0811 35.1313 37.4718C35.0853 36.8625 35.0623 36.2097 35.0623 35.5134C35.0163 31.7705 35.4073 28.3541 36.2353 25.2641C37.1094 22.1306 38.1905 19.2364 39.4785 16.5816C40.8126 13.8833 42.1467 11.359 43.4808 9.0089C44.8609 6.65875 46.0339 4.37389 47 2.1543V0.783384H31.681H27.4718C26.0457 0.739861 24.7806 0.696339 23.6766 0.652818ZM74.0373 2.1353C71.5576 0.711765 68.6875 0 65.4271 0C61.9371 0 58.8833 0.79804 56.2658 2.39412C53.6483 3.9902 51.6048 6.14706 50.1353 8.86471C48.7118 11.5824 48 14.6451 48 18.0529C48 21.5039 48.7118 24.5235 50.1353 27.1118C51.6048 29.6569 53.6024 31.6412 56.1281 33.0647C58.6537 34.4451 61.5008 35.1353 64.6694 35.1353C68.1594 35.1353 71.1902 34.3588 73.7618 32.8059C76.3793 31.2098 78.4228 29.0529 79.8923 26.3353C81.3618 23.5745 82.0965 20.4686 82.0965 17.0176C82.0965 13.5667 81.3847 10.5686 79.9612 8.02353C78.5376 5.47843 76.563 3.51569 74.0373 2.1353ZM57.5057 5.56471C59.4344 2.63137 61.8682 1.16471 64.8072 1.16471C66.7359 1.16471 68.5038 1.70392 70.1111 2.78235C71.7183 3.81765 73.0041 5.52157 73.9685 7.89412C74.9328 10.2235 75.415 13.3294 75.415 17.2118C75.415 22.4745 74.4736 26.5941 72.5908 29.5706C70.7081 32.5039 68.2742 33.9706 65.2893 33.9706C63.4066 33.9706 61.6386 33.4314 59.9854 32.3529C58.3782 31.2745 57.0924 29.5706 56.1281 27.2412C55.1637 24.8686 54.6815 21.7412 54.6815 17.8588C54.6815 12.5961 55.6229 8.49804 57.5057 5.56471ZM103.699 0.905882C102.229 0.301961 100.53 0 98.6013 0C96.3511 0 94.3995 0.388235 92.7463 1.16471C91.1391 1.89804 89.7844 2.8902 88.6823 4.14118C87.5802 5.34902 86.6847 6.66471 85.9959 8.08824L87.1669 8.60588C88.2231 6.66471 89.5318 5.21961 91.0931 4.27059C92.7004 3.32157 94.4454 2.84706 96.3282 2.84706C98.165 2.84706 99.6115 3.32157 100.668 4.27059C101.77 5.17647 102.321 6.64314 102.321 8.67059C102.321 10.3098 101.908 11.949 101.081 13.5882C100.254 15.1843 98.8997 16.651 97.017 17.9882C96.5578 17.9451 96.1215 17.902 95.7082 17.8588C95.3409 17.7725 94.9735 17.7294 94.6061 17.7294C94.1469 17.7294 93.7336 17.8373 93.3662 18.0529C92.9989 18.2686 92.8152 18.5706 92.8152 18.9588C92.8152 19.2176 92.907 19.4333 93.0907 19.6059C93.2744 19.7353 93.5499 19.8 93.9173 19.8C94.3306 19.8 94.7898 19.7137 95.2949 19.5412C95.846 19.3255 96.4659 19.0882 97.1547 18.8294C99.4049 19.002 101.173 19.9294 102.459 21.6118C103.79 23.251 104.456 25.3431 104.456 27.8882C104.456 30.2608 103.905 32.3745 102.803 34.2294C101.747 36.0843 100.3 37.6372 98.4635 38.8882C96.6726 40.1392 94.652 41.0882 92.4019 41.7353C90.1518 42.4255 87.8557 42.7922 85.5137 42.8353V44C87.8557 44 90.2206 43.7627 92.6085 43.2882C95.0424 42.8137 97.3614 42.102 99.5656 41.1529C101.77 40.2471 103.721 39.1255 105.421 37.7882C107.166 36.4941 108.52 35.0274 109.485 33.3882C110.495 31.7059 111 29.8725 111 27.8882C111 25.6451 110.38 23.8118 109.14 22.3882C107.9 20.9647 106.316 19.9078 104.387 19.2176C102.459 18.4843 100.415 18.0961 98.2569 18.0529C100.002 17.449 101.655 16.651 103.216 15.6588C104.778 14.6235 106.04 13.4157 107.005 12.0353C108.015 10.6118 108.52 9.05882 108.52 7.37647C108.52 5.82353 108.084 4.50784 107.212 3.42941C106.385 2.30784 105.214 1.46667 103.699 0.905882Z" fill="#B0B9CD"/>
</svg>
