<svg width="8" height="14" viewBox="0 0 8 14" fill="none" xmlns="http://www.w3.org/2000/svg">
<path d="M0.15625 6.70368C0.15625 6.96735 0.254185 7.19336 0.465123 7.38923L6.32617 13.1297C6.49191 13.2955 6.70285 13.3859 6.95145 13.3859C7.44866 13.3859 7.84794 12.9941 7.84794 12.4894C7.84794 12.2408 7.74247 12.0223 7.57673 11.8491L2.29576 6.70368L7.57673 1.55831C7.74247 1.38504 7.84794 1.15904 7.84794 0.917969C7.84794 0.413225 7.44866 0.0214844 6.95145 0.0214844C6.70285 0.0214844 6.49191 0.111886 6.32617 0.277623L0.465123 6.0106C0.254185 6.21401 0.15625 6.44001 0.15625 6.70368Z" fill="#304C89"/>
</svg>
