<svg width="6" height="10" viewBox="0 0 6 10" fill="none" xmlns="http://www.w3.org/2000/svg">
<path opacity="0.9" d="M0.770508 4.80246C0.770508 4.97824 0.835798 5.12891 0.976423 5.25949L4.88379 9.0865C4.99428 9.19699 5.1349 9.25725 5.30064 9.25725C5.63211 9.25725 5.8983 8.99609 5.8983 8.6596C5.8983 8.49386 5.82799 8.34821 5.71749 8.2327L2.19685 4.80246L5.71749 1.37221C5.82799 1.2567 5.8983 1.10603 5.8983 0.945313C5.8983 0.608817 5.63211 0.347656 5.30064 0.347656C5.1349 0.347656 4.99428 0.407924 4.88379 0.518415L0.976423 4.3404C0.835798 4.476 0.770508 4.62667 0.770508 4.80246Z" fill="#304C89"/>
</svg>
