<svg width="390" height="157" viewBox="0 0 390 157" fill="none" xmlns="http://www.w3.org/2000/svg">
<g opacity="0.8">
<path d="M71.132 157C61.8307 157 52.9106 155.481 44.3717 152.443C35.8328 149.253 28.2088 144.467 21.4997 138.087C14.7906 131.707 9.53001 123.58 5.718 113.705C1.906 103.831 0 92.134 0 78.6139C0 65.0939 1.98224 53.3967 5.94672 43.5225C10.0637 33.4964 15.553 25.2932 22.4146 18.9129C29.2762 12.5327 36.9002 7.82342 45.2866 4.7852C53.673 1.59507 62.2881 0 71.132 0C77.6886 0 84.0928 0.6836 90.3445 2.0508C96.7486 3.418 102.695 5.77262 108.185 9.11466L110.701 45.5733H105.669L87.3711 6.1524L101.094 10.7097L102.009 15.4949C97.1298 11.8491 92.1742 9.34253 87.1424 7.97533C82.1105 6.60813 77.4599 5.92453 73.1904 5.92453C66.3288 5.92453 59.8484 8.50702 53.7492 13.672C47.8025 18.685 42.9994 26.5844 39.3399 37.3701C35.6803 48.0039 33.8506 61.8278 33.8506 78.8418C33.8506 95.8558 35.6041 109.68 39.1111 120.313C42.7707 130.947 47.5738 138.771 53.5205 143.784C59.4672 148.645 66.0239 151.075 73.1904 151.075C77.6124 151.075 82.3393 150.392 87.3711 149.025C92.5554 147.506 97.511 144.923 102.238 141.277L101.552 146.29L88.0573 150.62L106.126 109.148H111.158L108.871 147.885C103.534 150.924 97.5873 153.202 91.0306 154.721C84.474 156.24 77.8411 157 71.132 157Z" fill="#191919"/>
<path d="M137.325 153.354C137.63 147.43 137.859 140.442 138.011 132.39C138.316 124.339 138.469 115.984 138.469 107.325C138.469 98.6662 138.469 90.463 138.469 82.7155V72.6894C138.469 64.9419 138.469 56.8907 138.469 48.5356C138.469 40.1805 138.392 32.1292 138.24 24.3817C138.087 16.4823 137.859 9.5704 137.554 3.64587H171.633C171.328 9.5704 171.099 16.4823 170.947 24.3817C170.794 32.1292 170.642 40.1805 170.489 48.5356C170.489 56.8907 170.489 64.9419 170.489 72.6894V82.7155C170.489 90.463 170.489 98.6662 170.489 107.325C170.642 115.984 170.794 124.339 170.947 132.39C171.099 140.442 171.328 147.43 171.633 153.354H137.325ZM216.92 153.354C217.225 147.43 217.453 140.442 217.606 132.39C217.758 124.339 217.835 115.984 217.835 107.325C217.835 98.6662 217.835 90.463 217.835 82.7155V72.6894C217.835 64.9419 217.835 56.8907 217.835 48.5356C217.835 40.1805 217.758 32.1292 217.606 24.3817C217.453 16.4823 217.225 9.5704 216.92 3.64587H250.999C250.694 9.5704 250.465 16.4823 250.313 24.3817C250.16 32.1292 250.008 40.1805 249.855 48.5356C249.855 56.8907 249.855 64.9419 249.855 72.6894V82.7155C249.855 90.463 249.855 98.6662 249.855 107.325C250.008 115.984 250.16 124.339 250.313 132.39C250.465 140.442 250.694 147.43 250.999 153.354H216.92ZM122.687 153.354V148.341L146.474 145.151H162.713L186.5 148.341V153.354H122.687ZM202.053 153.354V148.341L225.84 145.151H242.079L265.866 148.341V153.354H202.053ZM122.687 8.43106V3.64587H163.628L162.713 11.8491H146.474L122.687 8.43106ZM225.84 11.8491L224.925 3.64587H265.866V8.43106L242.079 11.8491H225.84ZM154.936 9.79825V3.64587H233.616V9.79825H154.936Z" fill="#191919"/>
<path d="M273.581 153.354V148.341L297.368 145.151H313.607L314.522 153.354H273.581ZM288.448 153.354C288.753 147.43 288.982 140.442 289.134 132.39C289.439 124.339 289.592 115.984 289.592 107.325C289.592 98.6662 289.592 90.463 289.592 82.7155V72.6894C289.592 64.9419 289.592 56.8907 289.592 48.5356C289.592 40.1805 289.439 32.1292 289.134 24.3817C288.982 16.4823 288.753 9.5704 288.448 3.64587H322.756C322.451 9.5704 322.223 16.4823 322.07 24.3817C321.918 32.1292 321.765 40.1805 321.613 48.5356C321.613 56.8907 321.613 64.9419 321.613 72.6894V82.7155C321.613 90.463 321.613 98.6662 321.613 107.325C321.765 115.984 321.918 124.339 322.07 132.39C322.223 140.442 322.451 147.43 322.756 153.354H288.448ZM304.23 153.354V147.202H329.618C335.87 147.202 341.054 145.531 345.171 142.189C349.44 138.847 352.566 134.365 354.548 128.745C356.683 122.972 357.75 116.44 357.75 109.148C357.75 101.704 356.607 95.552 354.32 90.6909C352.185 85.6778 348.983 81.88 344.713 79.2975C340.596 76.715 335.641 75.4238 329.847 75.4238C325.272 75.4238 320.85 75.8036 316.581 76.5631C312.464 77.1708 308.347 77.9303 304.23 78.8418V72.6894C308.499 71.7779 313.303 70.9424 318.639 70.1829C324.129 69.2714 330.075 68.8157 336.479 68.8157C348.678 68.8157 358.665 70.4107 366.442 73.6009C374.371 76.791 380.241 81.4243 384.053 87.5007C388.018 93.5772 390 100.793 390 109.148C390 115.073 388.933 120.769 386.798 126.238C384.816 131.555 381.461 136.264 376.734 140.366C372.16 144.315 365.984 147.506 358.208 149.936C350.431 152.215 340.825 153.354 329.389 153.354H304.23ZM273.581 8.43106V3.64587H313.836L313.607 11.8491H297.368L273.581 8.43106ZM374.218 43.9782L356.607 6.38026L364.841 9.79825H305.602V3.64587H376.506L379.25 43.9782H374.218Z" fill="#191919"/>
</g>
</svg>
