<svg width="120" height="24" viewBox="0 0 120 24" fill="none" xmlns="http://www.w3.org/2000/svg">
<g clip-path="url(#clip0_686_902)">
<path fill-rule="evenodd" clip-rule="evenodd" d="M37.866 0.775309C38.2347 1.0923 38.2767 1.6482 37.9597 2.01694C33.6653 7.0124 31.1952 10.7041 30.0294 13.2255C29.4428 14.4944 29.2212 15.3941 29.2144 15.9768C29.2079 16.5296 29.3811 16.6428 29.4607 16.6836C29.6318 16.7711 30.0438 16.8318 30.8059 16.6055C31.5361 16.3886 32.4492 15.9478 33.4923 15.2665C35.5734 13.9072 38.0598 11.6645 40.4785 8.64104C40.7823 8.26133 41.3364 8.19976 41.7161 8.50353C42.0958 8.8073 42.1573 9.36137 41.8536 9.74108C39.8286 12.2723 38.9364 14.0045 38.7134 15.059C38.6038 15.5771 38.6805 15.8135 38.7288 15.8979C38.7612 15.9545 38.8361 16.0442 39.0976 16.0875C39.7005 16.1873 40.8156 15.9399 42.233 15.1692C43.6059 14.4227 45.1224 13.2597 46.4803 11.7592C46.5023 11.7348 46.5254 11.712 46.5494 11.6907C46.7138 11.5206 46.8909 11.3538 47.0806 11.1911C48.0973 10.3194 49.3699 9.56787 50.5744 9.11849C51.1774 8.89354 51.7905 8.73407 52.3654 8.68392C52.9289 8.63476 53.5359 8.68386 54.0589 8.96311C54.5861 9.24455 55.01 9.64875 55.2529 10.1852C55.4883 10.705 55.5176 11.2688 55.4082 11.8234C55.7375 11.4609 56.1066 11.0818 56.5171 10.6859C56.7056 10.5041 56.9544 10.4231 57.1965 10.4418C57.5955 10.4588 57.945 10.7475 58.023 11.1568C58.0766 11.4376 58.0031 11.675 57.942 11.817C57.8779 11.9659 57.7912 12.0938 57.7131 12.1948C57.5564 12.3971 57.3473 12.6002 57.1298 12.7912C56.9057 12.9879 56.6401 13.1997 56.3495 13.4192C56.0351 13.7896 55.7804 14.127 55.5788 14.4319C55.127 15.1153 54.99 15.5637 54.977 15.8094C54.9678 15.9822 55.0111 16.0089 55.0573 16.0375L55.0609 16.0397C55.1776 16.1122 55.4623 16.1986 55.9881 16.1621C57.0191 16.0904 58.5425 15.5744 60.1832 14.5559C60.8443 14.1454 61.5142 13.6596 62.1677 13.1004C62.1896 13.0697 62.2119 13.039 62.2344 13.0082C62.8595 12.154 63.7494 11.1779 64.9375 10.0761C64.9582 10.0569 64.9796 10.0388 65.0016 10.022C65.3021 9.77634 65.741 9.7517 66.0716 9.98872C66.4667 10.2721 66.5573 10.8222 66.274 11.2173C65.4313 12.3924 64.478 13.4176 63.4849 14.2889C63.0594 14.9111 62.8714 15.3637 62.8156 15.6613C62.7858 15.8204 62.7993 15.9062 62.8091 15.9412C62.8168 15.9686 62.8259 15.9818 62.8441 15.9978C62.9011 16.0478 63.1056 16.1575 63.593 16.1552C64.5489 16.1507 66.0501 15.7133 67.7403 14.766C68.6798 14.2394 69.6528 13.5688 70.5924 12.7607C71.0728 12.114 71.7672 11.3841 72.6865 10.5475C72.8624 10.3875 73.0853 10.3119 73.3056 10.3186C73.5237 10.3037 73.7476 10.3695 73.9288 10.5205C74.3025 10.8317 74.3531 11.3868 74.0419 11.7605C73.3683 12.5693 72.646 13.3018 71.9018 13.9557C71.5847 14.4123 71.5015 14.6901 71.4916 14.8333C71.4855 14.922 71.4978 14.9948 71.6354 15.1196C71.8103 15.2781 72.1304 15.4563 72.6573 15.6496C73.306 15.8875 73.865 16.2072 74.2485 16.6596C74.3645 16.7965 74.4602 16.9406 74.5363 17.0906L74.5432 17.0876C75.1303 16.8318 75.7379 16.567 76.3684 16.2776C78.3959 15.3471 80.8221 14.0967 83.9727 11.9285C83.9912 11.9158 84.0099 11.9039 84.029 11.8928C84.499 11.5255 85.0471 11.1745 85.6733 10.8483C87.4377 9.92942 89.0798 9.43027 90.4622 9.24702C91.8121 9.06808 93.0188 9.17771 93.8354 9.60447C94.4858 9.94439 94.9918 10.4409 95.2105 11.1059C95.3016 11.3828 95.3341 11.6623 95.32 11.9379C95.4851 11.9018 95.6623 11.9128 95.8312 11.9796C96.1834 12.1191 96.3957 12.4604 96.3876 12.8182C96.3865 12.9833 96.3393 13.1479 96.2467 13.2909C96.0753 13.606 95.8032 13.8628 95.5579 14.0614C95.5178 14.0939 95.4763 14.1265 95.4335 14.1591C95.1916 14.4567 95.0668 14.6887 95.0151 14.8576C94.9769 14.9823 94.9856 15.0493 94.9943 15.0828C95.0032 15.1173 95.0284 15.1779 95.1161 15.2643C95.3154 15.4605 95.741 15.6941 96.4993 15.9029C97.2352 16.1056 98.1879 16.2596 99.3385 16.3667C103.963 16.797 111.282 16.4289 119.062 15.9159C119.547 15.8839 119.966 16.2514 119.998 16.7366C120.03 17.2218 119.663 17.6411 119.177 17.673C111.436 18.1835 103.967 18.5658 99.1754 18.12C97.9719 18.0081 96.9062 17.8415 96.0317 17.6006C95.1797 17.366 94.403 17.0333 93.8808 16.5192C93.6077 16.2505 93.3922 15.92 93.2897 15.5248C93.2864 15.512 93.2833 15.4993 93.2802 15.4865C93.2765 15.471 93.273 15.4554 93.2697 15.4399C92.5715 15.7938 91.7719 16.1682 90.9022 16.5578C90.8557 16.5786 90.8084 16.5951 90.7607 16.6074C89.2627 17.3237 87.8051 17.7417 86.5256 17.8873C85.0947 18.05 83.7281 17.8877 82.8282 17.232C82.1861 16.7642 81.9042 16.079 81.9135 15.3492C80.0675 16.4546 78.4946 17.2393 77.103 17.878C76.3911 18.2048 75.7437 18.4866 75.1403 18.7492C74.9457 18.8339 74.7557 18.9166 74.5695 18.9982C74.4481 19.3146 74.2773 19.6204 74.0817 19.9116C73.7441 20.4143 73.2922 20.9328 72.7665 21.4622C71.9331 22.3014 71.092 22.8619 70.356 23.1639C69.9902 23.314 69.623 23.4115 69.2787 23.4311C68.9572 23.4494 68.5259 23.4056 68.1748 23.1199C67.7601 22.7825 67.6674 22.2885 67.7514 21.8685C67.8268 21.4915 68.0402 21.1438 68.2905 20.8411C68.8005 20.224 69.6891 19.5248 71.0033 18.777C71.618 18.4272 72.2536 18.114 72.9148 17.8098C72.9117 17.806 72.9085 17.8021 72.9052 17.7982C72.797 17.6705 72.5541 17.4874 72.0509 17.3028C71.4606 17.0862 70.8827 16.8141 70.4525 16.424C70.1818 16.1785 69.9674 15.8827 69.8445 15.5384C69.428 15.8171 69.0121 16.0718 68.6013 16.302C66.7792 17.3234 64.975 17.9097 63.6012 17.9161C62.9237 17.9192 62.2072 17.7812 61.6832 17.3219C61.3013 16.987 61.1028 16.5564 61.051 16.0896C59.2826 17.1771 57.5058 17.8218 56.1101 17.9188C55.4145 17.9671 54.6984 17.8873 54.1323 17.5359C53.4969 17.1416 53.1777 16.4839 53.2185 15.7161C53.2209 15.6701 53.2246 15.6238 53.2296 15.5774C52.6546 15.9617 52.132 16.3126 51.7234 16.6031C51.6602 16.648 51.5932 16.6834 51.5239 16.7095C50.7503 17.206 49.948 17.5586 49.1838 17.7475C47.9006 18.0646 46.3924 17.9738 45.5763 16.8168C45.2814 16.3988 45.1024 15.9368 45.0353 15.451C44.376 15.9437 43.7152 16.3676 43.0742 16.7162C41.5631 17.5379 40.0097 18.0233 38.8101 17.8248C38.1703 17.7189 37.5605 17.4018 37.2004 16.7724C36.8798 16.2123 36.8373 15.5419 36.9605 14.8488C36.095 15.5869 35.2532 16.2196 34.4552 16.7408C33.3247 17.4792 32.2539 18.0124 31.3072 18.2936C30.3923 18.5652 29.4341 18.648 28.6586 18.2512C27.7918 17.8077 27.4422 16.9305 27.4536 15.9562C27.4613 15.2925 27.6301 14.5204 27.9482 13.6474C26.8764 14.6271 25.769 15.4456 24.5206 16.1051C22.216 17.3226 19.506 17.9596 15.7797 18.1697C12.064 18.3793 7.28297 18.1665 0.810251 17.6484C0.325535 17.6095 -0.0359493 17.1852 0.00285344 16.7004C0.0416562 16.2157 0.466052 15.8542 0.950768 15.893C7.4144 16.4105 12.0933 16.6139 15.6806 16.4116C19.2574 16.2099 21.6936 15.6071 23.6981 14.5481C25.7079 13.4863 27.3584 11.9276 29.3119 9.67572C30.2149 8.63483 31.1701 7.46102 32.2531 6.13016L32.254 6.12899L32.5233 5.79808C33.7145 4.33469 35.0538 2.69611 36.6197 0.87436L36.6243 0.869017C36.9413 0.500273 37.4972 0.458318 37.866 0.775309ZM47.7744 12.9535C47.7178 13.0159 47.661 13.0778 47.6039 13.1392C46.5605 14.3315 46.6794 15.3257 47.0152 15.8017C47.1884 16.0473 47.7066 16.2986 48.7614 16.038C49.753 15.7929 50.9379 15.1366 51.9562 14.0996C53.0324 13.0037 53.5474 12.115 53.676 11.5048C53.7364 11.2182 53.7039 11.0332 53.6488 10.9117C53.5949 10.7927 53.482 10.6513 53.2296 10.5165C53.1237 10.46 52.9024 10.4047 52.5184 10.4382C52.1459 10.4707 51.6924 10.5809 51.1899 10.7683C50.1836 11.1438 49.0899 11.7879 48.2269 12.5279C48.059 12.6719 47.9087 12.8139 47.7744 12.9535ZM86.4867 12.4101C88.0903 11.5749 89.5368 11.146 90.6936 10.9927C91.8829 10.835 92.666 10.9802 93.0197 11.1651C93.3854 11.3562 93.5001 11.5416 93.5377 11.6561C93.5761 11.7727 93.5858 11.9719 93.4337 12.2895C93.1115 12.9622 92.1983 13.8591 90.6129 14.7086C89.0481 15.547 87.5515 15.9983 86.3265 16.1376C85.0587 16.2819 84.2345 16.0779 83.8652 15.8088C83.7311 15.7112 83.5261 15.4314 83.8205 14.7806C84.1187 14.1212 84.9094 13.2317 86.4867 12.4101Z" fill="#304C89"/>
</g>
<defs>
<clipPath id="clip0_686_902">
<rect width="120" height="24" fill="white"/>
</clipPath>
</defs>
</svg>
