<svg width="48" height="48" viewBox="0 0 48 48" fill="none" xmlns="http://www.w3.org/2000/svg">
<path d="M34.1406 30.7148H15.3521C10.4554 30.7148 6.67355 27.0084 6.67355 22.2472C6.67355 17.4107 10.591 13.7796 15.7589 13.8248C17.7026 9.92243 21.2433 7.72266 25.5374 7.72266C31.1724 7.72266 35.9035 12.0619 36.4308 17.7271C39.3689 18.5859 41.3125 21.072 41.3125 24.1306C41.3125 28.0179 38.3895 30.7148 34.1406 30.7148Z" fill="#9CC3F8"/>
<path d="M17.8434 38.1128C17.5722 38.595 16.9846 38.7758 16.5024 38.5046C15.9901 38.2183 15.8696 37.6307 16.1408 37.1636L18.0995 33.7735C18.4009 33.2763 18.9433 33.1106 19.4405 33.3818C19.9377 33.6831 20.0884 34.2557 19.787 34.7529L17.8434 38.1128Z" fill="#9DC4F9"/>
<path d="M26.1217 38.1128C25.8504 38.595 25.2628 38.7758 24.7807 38.5046C24.2684 38.2183 24.1479 37.6307 24.4191 37.1636L26.3778 33.7735C26.6791 33.2763 27.2215 33.1106 27.7188 33.3818C28.216 33.6831 28.3666 34.2557 28.0653 34.7529L26.1217 38.1128Z" fill="#9DC4F9"/>
<path d="M20.7664 42.3316C20.4801 42.8137 19.8925 42.9794 19.4103 42.7082C18.9131 42.422 18.7775 41.8494 19.0487 41.3823L21.0074 37.9923C21.3088 37.48 21.8512 37.3143 22.3635 37.6005C22.8456 37.8868 22.9963 38.4744 22.71 38.9566L20.7664 42.3316Z" fill="#9DC4F9"/>
<path d="M29.0446 42.3316C28.7584 42.8137 28.1708 42.9794 27.6886 42.7082C27.1914 42.422 27.0558 41.8494 27.327 41.3823L29.2857 37.9923C29.5871 37.48 30.1295 37.3143 30.6417 37.6005C31.1239 37.8868 31.2746 38.4744 30.9883 38.9566L29.0446 42.3316Z" fill="#9DC4F9"/>
</svg>
