<svg width="24" height="24" viewBox="0 0 24 24" fill="none" xmlns="http://www.w3.org/2000/svg">
<path d="M20.8074 10.7997H19.7528C19.3083 6.98019 15.9936 3.91406 12.0008 3.91406C9.7935 3.91406 7.78959 4.87835 6.40343 6.38504C6.03429 6.74665 6.04936 7.22879 6.3507 7.50753C6.65957 7.79381 7.10405 7.79381 7.48072 7.44727C8.60321 6.23438 10.2154 5.47349 12.0008 5.47349C15.1799 5.47349 17.7489 7.80134 18.1783 10.7997H17.0256C16.4456 10.7997 16.2874 11.2291 16.6264 11.6961L18.4269 14.2425C18.7056 14.6191 19.1275 14.6267 19.3987 14.2425L21.2067 11.7037C21.5457 11.2291 21.3951 10.7997 20.8074 10.7997ZM3.19417 12.6152H4.25639C4.70087 16.4347 8.0156 19.5008 12.0008 19.5008C14.2232 19.5008 16.2271 18.529 17.6133 17.0223C17.9749 16.6607 17.9598 16.1786 17.6585 15.8998C17.3496 15.6136 16.9126 15.6136 16.5284 15.9676C15.421 17.1805 13.8088 17.9414 12.0008 17.9414C8.82921 17.9414 6.2603 15.6136 5.83089 12.6152H6.97598C7.54852 12.6152 7.71426 12.1858 7.37525 11.7188L5.56722 9.17243C5.29601 8.79576 4.87414 8.78823 4.60293 9.17243L2.79489 11.7112C2.44835 12.1858 2.60656 12.6152 3.19417 12.6152Z" fill="#7F9C96"/>
</svg>
