<svg width="24" height="24" viewBox="0 0 24 24" fill="none" xmlns="http://www.w3.org/2000/svg">
<path fill-rule="evenodd" clip-rule="evenodd" d="M12 24C18.6274 24 24 18.6274 24 12C24 11.6116 23.4136 11.5585 23.2535 11.9124C21.9292 14.8389 18.9836 16.875 15.5625 16.875C10.9026 16.875 7.125 13.0974 7.125 8.4375C7.125 5.01637 9.16111 2.07081 12.0876 0.746491C12.4415 0.586358 12.3884 0 12 0C5.37258 0 0 5.37258 0 12C0 18.6274 5.37258 24 12 24ZM19.8879 0.218458C19.9157 0.143416 20.0218 0.143416 20.0496 0.218457C20.617 1.75199 21.8261 2.96108 23.3597 3.52854C23.4347 3.55631 23.4347 3.66244 23.3597 3.69021C21.8261 4.25767 20.617 5.46676 20.0496 7.00029C20.0218 7.07533 19.9157 7.07533 19.8879 7.00029C19.3205 5.46676 18.1114 4.25767 16.5778 3.69021C16.5028 3.66244 16.5028 3.55631 16.5778 3.52854C18.1114 2.96108 19.3205 1.75199 19.8879 0.218458ZM14.3998 4.68429C14.3644 4.58878 14.2293 4.58878 14.194 4.68429C13.4718 6.63605 11.9329 8.1749 9.98116 8.89712C9.88565 8.93246 9.88565 9.06754 9.98116 9.10288C11.9329 9.8251 13.4718 11.3639 14.194 13.3157C14.2293 13.4112 14.3644 13.4112 14.3998 13.3157C15.122 11.3639 16.6608 9.8251 18.6126 9.10288C18.7081 9.06754 18.7081 8.93246 18.6126 8.89712C16.6608 8.1749 15.122 6.63605 14.3998 4.68429Z" fill="#B0B9CD"/>
</svg>
