<svg xmlns="http://www.w3.org/2000/svg" xmlns:xlink="http://www.w3.org/1999/xlink" viewBox="0 0 113.61 27.87"><defs><style>.cls-1{fill:none;}.cls-2{fill-rule:evenodd;}.cls-3{clip-path:url(#clip-path);}.cls-4{fill:url(#linear-gradient);}</style><clipPath id="clip-path"><circle class="cls-1" cx="13.37" cy="14.01" r="13.37"/></clipPath><linearGradient id="linear-gradient" x1="13.37" y1="27.38" x2="13.37" y2="0.64" gradientUnits="userSpaceOnUse"><stop offset="0" stop-color="#f1be1a"/><stop offset="1" stop-color="#fee500"/></linearGradient></defs><title>Asset 1</title><g id="Layer_2" data-name="Layer 2"><g id="Ñëîé_1" data-name="Ñëîé 1"><path class="cls-2" d="M36.37,12.56a.89.89,0,0,1,0-.28q.07-.11.66-.13l.6-.1c.32-.06.51-.15.58-.29a1.91,1.91,0,0,0,.11-.74l0-.57A6,6,0,0,1,34.3,9.36a4,4,0,0,1-1.21-3.11,3.55,3.55,0,0,1,1.43-3,6.29,6.29,0,0,1,3.87-1.08q0-1-.26-1.07A5.84,5.84,0,0,0,37,.91a5.71,5.71,0,0,1-.62-.08,1.25,1.25,0,0,1,0-.28l2.9.06L42.12.55a1.3,1.3,0,0,1,0,.28,5.26,5.26,0,0,1-.62.08,5.9,5.9,0,0,0-1.12.18q-.26.09-.27,1.08a6.26,6.26,0,0,1,3.86,1.08,3.55,3.55,0,0,1,1.42,3,4.13,4.13,0,0,1-1.12,3q-1.12,1.13-4.17,1.17,0,.39,0,.59a1.61,1.61,0,0,0,.12.72.76.76,0,0,0,.48.28,3.09,3.09,0,0,0,.69.11q.59,0,.66.13a1.23,1.23,0,0,1,0,.29l-1.25,0-1.6,0-1.6,0-1.26,0Zm2-10q-3.63.27-3.63,3.8a5.12,5.12,0,0,0,.33,1.87,2.7,2.7,0,0,0,1,1.31A4.28,4.28,0,0,0,38.4,10V2.53Zm5.3,3.8q0-3.53-3.63-3.8V10a4,4,0,0,0,2.35-.55,2.78,2.78,0,0,0,1-1.37,5.45,5.45,0,0,0,.28-1.75ZM54.84,4.42Q56,3.11,57,1.89a1.76,1.76,0,0,0-.11-.72A1.87,1.87,0,0,0,56.14,1l-.3,0-.3,0a1,1,0,0,1,0-.32l.41,0,1.22.07q.22,0,1.22,0,.41,0,1.7-.09a1.62,1.62,0,0,1,0,.34,2.72,2.72,0,0,1-.85.18,1.11,1.11,0,0,0-.59.16,1.19,1.19,0,0,0-.11.68V4.08l0,.87V6.57l0,1.59,0,1.37a9.66,9.66,0,0,0,.11,2.23,1.53,1.53,0,0,0,.76.25,4.93,4.93,0,0,1,.81.23.25.25,0,0,1,.14.24.29.29,0,0,1,0,.11h0l-.12,0A11.66,11.66,0,0,0,58,12.4a19.14,19.14,0,0,0-2.81.23,1.31,1.31,0,0,1,0-.19,1.16,1.16,0,0,1,0-.17,2.3,2.3,0,0,1,.91-.23q.91-.09.91-.79V9.57l0-.4,0-6.56-3.56,4q-.45.54-1.14,1.3T50.85,9.67l-.77,1a3.63,3.63,0,0,0,.07.9.49.49,0,0,0,.18.31A3.1,3.1,0,0,0,51,12a4.69,4.69,0,0,1,.82.23.26.26,0,0,1,.14.24.36.36,0,0,1,0,.11h-.06l-.11,0a11.72,11.72,0,0,0-2.12-.19,19.13,19.13,0,0,0-2.81.23c0-.08,0-.14,0-.19s0-.09,0-.17A2.36,2.36,0,0,1,47.7,12q.92-.09.92-.79V9.92l0-.34v-.4l0-1V3.92q0-1.53,0-2a2.14,2.14,0,0,0-.06-.62.33.33,0,0,0-.11-.15A3.69,3.69,0,0,0,47.76,1l-.3,0-.3,0a1,1,0,0,1,0-.32l.4,0,1.22.07q.22,0,1.22,0,.41,0,1.7-.09a1.33,1.33,0,0,1,0,.34,2.82,2.82,0,0,1-.85.18q-.5,0-.6.16a1.43,1.43,0,0,0-.1.68V4.08l0,.87V8.16l0,1.76L51.8,7.84l1.31-1.48,1.73-1.95ZM67,2a1,1,0,0,0-.09-.18,39.85,39.85,0,0,0-2,5.47L64.5,8.39l-.93,2.9a1.43,1.43,0,0,0-.12.43.85.85,0,0,0,.08.28,4.79,4.79,0,0,0,1.1.16l.69.06a.2.2,0,0,1,.1.15.54.54,0,0,1,0,.14h-.64q-.76,0-1.73,0l-.65,0-.88,0h-.26l-.58,0a.6.6,0,0,1,0-.23.49.49,0,0,1,.23-.07,3,3,0,0,0,1.4-.22,2.49,2.49,0,0,0,.7-1.06q.37-.84,1.2-3.19l.45-1.17.88-2.45.62-1.63Q66.76.83,67,0h.59s.58,1.36,1.58,4,1.74,4.71,2.21,6.11q.38,1,.51,1.28a1,1,0,0,0,.24.34,2.25,2.25,0,0,0,.62.19l.38.12.38.13a.5.5,0,0,1,0,.16.53.53,0,0,1,0,.14h-.42l-1.68,0-1,0-1,0a2.39,2.39,0,0,1-.84-.08.69.69,0,0,1,0-.25,2.9,2.9,0,0,1,.95-.11,2.33,2.33,0,0,0,.81-.12.88.88,0,0,0,.06-.25,4.06,4.06,0,0,0-.24-.87q-.16-.46-.29-.9l-1-2.75q-1-2.61-1.61-4.25L67,2Zm10.6,4.23a4.82,4.82,0,0,0,1.86-.79,4.64,4.64,0,0,0,1-1.37,19.76,19.76,0,0,1,1.4-2.38,4.42,4.42,0,0,1,.91-.87,1.73,1.73,0,0,1,1-.36,1.25,1.25,0,0,1,.88.32A.94.94,0,0,1,85,1.5a1.11,1.11,0,0,1-.22.63.72.72,0,0,1-.63.32,1,1,0,0,1-1-.71Q83,1.4,82.89,1.4a1,1,0,0,0-.48.25A9.28,9.28,0,0,0,81.09,3.7a13,13,0,0,1-.94,1.53,2.9,2.9,0,0,1-1.34.92,3.23,3.23,0,0,1,1.31.23,3.75,3.75,0,0,1,1,.78,34,34,0,0,1,2.43,3.28,8.55,8.55,0,0,0,1,1.27,1.86,1.86,0,0,0,1.09.47,3,3,0,0,1,.53.1.13.13,0,0,1,.08.13v.12a.08.08,0,0,1-.09.08q-.49,0-1.22-.06c-.3,0-.56,0-.76,0a6.33,6.33,0,0,0-1,.1q-.87-1.41-2.14-3.21a9.83,9.83,0,0,0-1.89-2.22,3.06,3.06,0,0,0-1.63-.44V8.14q0,.56,0,1.3t0,2a.57.57,0,0,0,.28.55,2.46,2.46,0,0,0,.9.21,1.54,1.54,0,0,1,.32.06.52.52,0,0,1,.06.21.21.21,0,0,1-.11.18h-.3l-.9-.06q-.71-.06-1.05-.06a6.41,6.41,0,0,0-.75.06,14.28,14.28,0,0,1-1.54.07h-.27l0-.28a.18.18,0,0,1,.14-.1A4.55,4.55,0,0,0,75.88,12a.71.71,0,0,0,.19-.58V8.75l0-.75L76,5.4l0-1.69,0-1.35a2.21,2.21,0,0,0-.16-1.05,1,1,0,0,0-.52-.14l-.15,0-.64-.06a.27.27,0,0,1-.13-.22.42.42,0,0,1,0-.14l.48,0q2.57,0,3.54-.09a7.22,7.22,0,0,0,.73,0c.07,0,.1.08.1.13a.45.45,0,0,1,0,.12,1.13,1.13,0,0,1-.42.09,2,2,0,0,0-1,.31,1,1,0,0,0-.26.76v.18l0,3.51v.53Zm9.63.31a5.75,5.75,0,0,1,.23-1.69,7,7,0,0,1,.77-1.61,5.38,5.38,0,0,1,1.3-1.45,7.31,7.31,0,0,1,2.12-1A7.94,7.94,0,0,1,94,.47a7.09,7.09,0,0,1,1.92.26,6.69,6.69,0,0,1,1.7.73A6,6,0,0,1,99.15,2.9a5,5,0,0,1,.8,1.44,6.32,6.32,0,0,1,.35,2.1,7.39,7.39,0,0,1-.24,2,5.45,5.45,0,0,1-.8,1.6,7.13,7.13,0,0,1-1.5,1.42,5.67,5.67,0,0,1-1.76.87,7.54,7.54,0,0,1-2.27.33,7.75,7.75,0,0,1-2.21-.29,6.35,6.35,0,0,1-1.62-.7,6.14,6.14,0,0,1-1.33-1.23,5.81,5.81,0,0,1-1-1.79,6.23,6.23,0,0,1-.35-2.13Zm6.47,5.8a6.47,6.47,0,0,0,1.63-.22,4.06,4.06,0,0,0,1.5-.73,3.92,3.92,0,0,0,1-1.16,6,6,0,0,0,.59-1.66,9.42,9.42,0,0,0,.22-2,8.68,8.68,0,0,0-.37-2.51,4.54,4.54,0,0,0-.94-1.68,4.45,4.45,0,0,0-1.58-1.15,4.84,4.84,0,0,0-2-.41,5.06,5.06,0,0,0-1.66.28,4.22,4.22,0,0,0-1.33.71,4.32,4.32,0,0,0-1,1.23,6.87,6.87,0,0,0-.68,1.76,7.27,7.27,0,0,0-.23,1.7,7.63,7.63,0,0,0,.23,1.75,6.48,6.48,0,0,0,.64,1.7,5.31,5.31,0,0,0,1,1.27,4.17,4.17,0,0,0,2.9,1.14ZM112.27,1.11a9.61,9.61,0,0,1,.11,1.47q0,.15,0,.4l-.2,0L112,3a3.27,3.27,0,0,0-1.28-1.68,3.88,3.88,0,0,0-2.19-.59,3.72,3.72,0,0,0-1.17.16,4.88,4.88,0,0,0-1.47.8,4.76,4.76,0,0,0-1.07,1.21,6,6,0,0,0-.69,1.71,8.22,8.22,0,0,0-.26,2,7.81,7.81,0,0,0,.61,3.29,3.82,3.82,0,0,0,1.66,1.86,4.53,4.53,0,0,0,2.13.55h.44a6.92,6.92,0,0,0,1-.18,4.72,4.72,0,0,0,1.12-.46,3.7,3.7,0,0,0,.87-.75,4.71,4.71,0,0,0,.72-1.13l.11,0a.32.32,0,0,1,.14.06c0,.15,0,.25,0,.29q-.39,1.58-.57,2.15l-.37.11a9.28,9.28,0,0,1-2.92.37,9,9,0,0,1-2.2-.2,9.09,9.09,0,0,1-1.59-.62,5.19,5.19,0,0,1-1.51-1.12,5.26,5.26,0,0,1-1.05-1.77,6.57,6.57,0,0,1-.4-2.33,6.21,6.21,0,0,1,.32-2.08,7.27,7.27,0,0,1,1-1.8,6.2,6.2,0,0,1,1.56-1.52,5.92,5.92,0,0,1,2-.86A10.91,10.91,0,0,1,109.1.3,6.75,6.75,0,0,1,111,.57,3.72,3.72,0,0,1,112.27,1.11Z"/><path d="M35.1,21.88a2.57,2.57,0,0,0,1-.43,2.48,2.48,0,0,0,.56-.74,10.46,10.46,0,0,1,.75-1.28,2.38,2.38,0,0,1,.49-.47.93.93,0,0,1,.54-.19.67.67,0,0,1,.47.17.51.51,0,0,1,.19.38.6.6,0,0,1-.12.34.39.39,0,0,1-.34.17.54.54,0,0,1-.51-.38c-.06-.12-.11-.19-.17-.19a.54.54,0,0,0-.26.13,5,5,0,0,0-.71,1.1,7,7,0,0,1-.5.82,1.56,1.56,0,0,1-.72.49,1.73,1.73,0,0,1,.7.12,2,2,0,0,1,.55.42,18.18,18.18,0,0,1,1.3,1.76,4.56,4.56,0,0,0,.55.68,1,1,0,0,0,.59.25l.28.05a.07.07,0,0,1,0,.07v.06a0,0,0,0,1,0,0l-.66,0-.41,0a3.46,3.46,0,0,0-.53.05q-.46-.76-1.15-1.73a5.26,5.26,0,0,0-1-1.19,1.64,1.64,0,0,0-.88-.24v.74c0,.2,0,.43,0,.7s0,.67,0,1.08a.31.31,0,0,0,.15.3,1.32,1.32,0,0,0,.49.11l.17,0a.27.27,0,0,1,0,.11.11.11,0,0,1-.06.09h-.16l-.48,0-.57,0-.4,0a7.58,7.58,0,0,1-.83,0h-.15v-.15a.1.1,0,0,1,.08-.05,2.43,2.43,0,0,0,.8-.18.38.38,0,0,0,.1-.31V22.81l0-1.39V19.79a1.18,1.18,0,0,0-.09-.56.55.55,0,0,0-.28-.08h-.08l-.35,0a.14.14,0,0,1-.07-.12.22.22,0,0,1,0-.08h.26q1.38,0,1.9-.05l.39,0s.06,0,.06.07A.23.23,0,0,1,36,19a.61.61,0,0,1-.23,0,1.08,1.08,0,0,0-.56.17.52.52,0,0,0-.14.41v2.26Z"/><path d="M39.92,27.86s0-.07,0-.1a.44.44,0,0,1,0-.09l.5-.1a.64.64,0,0,0,.2-.14.68.68,0,0,0,0-.18q0-.77,0-2.93V22.48a2.13,2.13,0,0,0-.06-.55.21.21,0,0,0-.08-.09,1.26,1.26,0,0,0-.5-.16l0-.15a4.7,4.7,0,0,0,.72-.36,1.48,1.48,0,0,0,.35-.36h.06l.1,0c0,.21,0,.35,0,.42v.55a2.75,2.75,0,0,1,.77-.42,2.53,2.53,0,0,1,.83-.14,1.75,1.75,0,0,1,1.3.54,1.92,1.92,0,0,1,.53,1.4,2.21,2.21,0,0,1-.3,1.14,1.88,1.88,0,0,1-.82.76,2.42,2.42,0,0,1-1.05.25,2.72,2.72,0,0,1-1-.25L41.28,25q0,.4,0,.71a8.44,8.44,0,0,0,.09,1.74q0,.1.28.12a1.27,1.27,0,0,1,.53.12.25.25,0,0,1,.1.18H39.92Zm1.31-5.73a1,1,0,0,0,0,.13q0,1.79,0,2a.85.85,0,0,0,.28.55,1.47,1.47,0,0,0,.93.26,1.43,1.43,0,0,0,1.06-.43A1.52,1.52,0,0,0,44,23.51a1.85,1.85,0,0,0-.46-1.32,1.57,1.57,0,0,0-1.2-.49,1.6,1.6,0,0,0-.58.1A1.47,1.47,0,0,0,41.23,22.13Z"/><path d="M49,22.6H46.6l-.47,0a.88.88,0,0,0,0,.21v.35a2,2,0,0,0,.19.75,1.49,1.49,0,0,0,.55.68,1.69,1.69,0,0,0,.89.25,1.86,1.86,0,0,0,.46-.07,2.3,2.3,0,0,0,.48-.26l.36-.29,0,.2a.71.71,0,0,1,0,.08,2.2,2.2,0,0,1-.57.5,2.7,2.7,0,0,1-.7.32,2.43,2.43,0,0,1-.56,0,1.8,1.8,0,0,1-.7-.14,1.71,1.71,0,0,1-.8-.71,2.26,2.26,0,0,1-.29-1.18,2.54,2.54,0,0,1,.08-.57,3,3,0,0,1,.3-.74,1.45,1.45,0,0,1,.36-.44,2.36,2.36,0,0,1,.53-.33,2,2,0,0,1,.76-.14,1.49,1.49,0,0,1,1.36.75,1.36,1.36,0,0,1,.2.65Zm-2.79-.18h.24L48,22.34a.65.65,0,0,0,.25,0,.27.27,0,0,0,.09-.17.8.8,0,0,0-.1-.35.69.69,0,0,0-.31-.31,1,1,0,0,0-.48-.11,1.14,1.14,0,0,0-.93.44A1,1,0,0,0,46.2,22.42Z"/><path d="M54,26.29l-.05,0h-.06a.63.63,0,0,1-.11-.24q-.2-.67-.45-.74a3.47,3.47,0,0,0-.86-.07H50.52a1.62,1.62,0,0,0-.51,0,.52.52,0,0,0-.22.24,2.45,2.45,0,0,0-.19.49.66.66,0,0,1-.12.24h-.06l-.05,0a.54.54,0,0,1,0-.11l0-.29c0-.25,0-.42,0-.51v-.12a.33.33,0,0,1,0-.12.48.48,0,0,1,.23,0q.2,0,.32-.3l.21-.45q.76-1.65,1.17-2.73l.23-.57h.14q.29.71,1,2.23a13.48,13.48,0,0,0,.81,1.66.55.55,0,0,0,.23.17.35.35,0,0,1,.18.1.73.73,0,0,1,0,.29c0,.08,0,.23,0,.45l0,.29A.47.47,0,0,1,54,26.29Zm-2.53-4.38-.18.43a17,17,0,0,0-1,2.51.13.13,0,0,0,.08.14A2.52,2.52,0,0,0,51,25h1a4.05,4.05,0,0,0,.52,0q.15,0,.15-.09a.57.57,0,0,0,0-.13s-.09-.27-.24-.66-.29-.76-.44-1.11Z"/><path d="M55.78,24.18,58,21.92a.48.48,0,0,0-.08-.28,1.17,1.17,0,0,0-.36-.14l-.31-.11a.17.17,0,0,1,0-.06.13.13,0,0,1,0-.08l.5,0,.55,0a8.57,8.57,0,0,0,1.09,0l.08,0,.08,0a.11.11,0,0,1,0,.06c0,.08-.1.14-.31.18l-.17,0a1.18,1.18,0,0,0-.3.08.3.3,0,0,0-.09.17,2.36,2.36,0,0,0,0,.55l0,2.27a.35.35,0,0,0,.08.27,1.15,1.15,0,0,0,.37.15l.3.09a.17.17,0,0,1,0,.06.15.15,0,0,1,0,.08l-.5,0-.55,0a8.47,8.47,0,0,0-1.09,0h-.16a.09.09,0,0,1,0-.06c0-.07.1-.13.31-.17l.17,0a.89.89,0,0,0,.32-.11.5.5,0,0,0,.1-.28,8.88,8.88,0,0,0,0-1V22.21l-2.2,2.29a.81.81,0,0,0,.05.37.84.84,0,0,0,.39.17l.3.09a.16.16,0,0,1,0,.06.17.17,0,0,1,0,.08l-.5,0-.55,0a8.45,8.45,0,0,0-1.09,0h-.15a.09.09,0,0,1,0-.06c0-.07.1-.13.31-.17l.17,0a.79.79,0,0,0,.34-.13.66.66,0,0,0,.09-.37q0-.3,0-1.19V21.91a.34.34,0,0,0-.08-.27,1.19,1.19,0,0,0-.37-.15l-.3-.1a.16.16,0,0,1,0-.06.15.15,0,0,1,0-.08l.5,0,.55,0a8.44,8.44,0,0,0,1.09,0l.08,0,.08,0a.12.12,0,0,1,0,.06c0,.08-.1.13-.31.18l-.17,0a.64.64,0,0,0-.35.15,2.32,2.32,0,0,0-.08.79Z"/><path d="M63.83,21a.52.52,0,0,1,0,.11v.57a3,3,0,0,1,0,.56l-.07,0s-.06-.06-.09-.18q-.1-.42-.26-.5a2.59,2.59,0,0,0-.83-.08h-.39v.27l0,1.88v1.18a.21.21,0,0,0,.12.21,1.39,1.39,0,0,0,.38.1l.25.06v.1l-.47,0h-.71q-.42,0-.82,0h-.08a.23.23,0,0,1-.13,0c0-.06,0-.09,0-.09l.1,0,.25-.05q.36-.07.38-.17t0-1.16l0-2.26-.47,0a3.5,3.5,0,0,0-.54,0q-.19,0-.57.57c-.07.1-.13.15-.17.15h0a0,0,0,0,1,0,0,.36.36,0,0,1,0-.1l.1-.37.1-.39c0-.11,0-.18.06-.22s0-.13.08-.13.08,0,.13.14a.39.39,0,0,0,.11.14.48.48,0,0,0,.22,0h2.31l.54,0h.09a.11.11,0,0,0,.08,0,1.42,1.42,0,0,0,.12-.23c0-.06.07-.09.11-.09Z"/><path d="M64,21.39a.18.18,0,0,1,0-.07.17.17,0,0,1,0-.08l.5,0,.55,0a8.42,8.42,0,0,0,1.08,0h.15a.1.1,0,0,1,0,.06c0,.07-.1.13-.3.17l-.17,0a.79.79,0,0,0-.33.12.47.47,0,0,0-.08.27q0,.21,0,.91a3.48,3.48,0,0,1,.55,0,2.62,2.62,0,0,1,1.64.35A1.08,1.08,0,0,1,68,24a1,1,0,0,1-.43.84,1.79,1.79,0,0,1-.88.38q-.45.05-1.8.05H64a.64.64,0,0,1,0-.13l.29-.07a1,1,0,0,0,.44-.15,2.39,2.39,0,0,0,0-.69q0-2.36,0-2.48t-.45-.24Zm1.43,1.67v.82a5.6,5.6,0,0,0,0,.79.36.36,0,0,0,.2.26,1,1,0,0,0,.49.09,1.11,1.11,0,0,0,.81-.3,1,1,0,0,0,.31-.75q0-.93-1.42-.93A2.57,2.57,0,0,0,65.42,23.06ZM70,25.13a.16.16,0,0,1,0,.06.15.15,0,0,1,0,.08l-.5,0-.55,0a8.45,8.45,0,0,0-1.09,0h-.16a.09.09,0,0,1,0-.06c0-.07.1-.13.31-.17l.17,0a.77.77,0,0,0,.33-.13.68.68,0,0,0,.09-.38q0-.31,0-1.28V21.9a.35.35,0,0,0-.08-.27,1.12,1.12,0,0,0-.37-.15l-.3-.09a.2.2,0,0,1,0-.07.15.15,0,0,1,0-.08l.5,0,.55,0a8.45,8.45,0,0,0,1.09,0h.16a.09.09,0,0,1,0,.06c0,.07-.1.13-.3.17l-.18,0a.87.87,0,0,0-.32.11.32.32,0,0,0-.08.2c0,.1,0,.42,0,1l0,1.8a.35.35,0,0,0,.08.27,1.15,1.15,0,0,0,.37.15Z"/><path d="M78.28,21.26a.09.09,0,0,1,0,.06c0,.07-.1.13-.31.17l-.17,0a1,1,0,0,0-.31.1.33.33,0,0,0-.09.2,5.77,5.77,0,0,0,0,.79l0,2a.35.35,0,0,0,.08.27,1.15,1.15,0,0,0,.37.15l.3.09a.17.17,0,0,1,0,.06.15.15,0,0,1,0,.08l-.5,0-.55,0a8.47,8.47,0,0,0-1.09,0h-.16a.09.09,0,0,1,0-.06c0-.07.1-.13.31-.17l.17,0a.89.89,0,0,0,.32-.11.51.51,0,0,0,.1-.29,9.78,9.78,0,0,0,0-1V21.52H74.53l0,3.09a.34.34,0,0,0,.08.27A1.14,1.14,0,0,0,75,25l.3.09a.15.15,0,0,1,0,.06.17.17,0,0,1,0,.08l-.5,0-.55,0a8.44,8.44,0,0,0-1.09,0h-.16a.09.09,0,0,1,0-.06c0-.07.1-.13.31-.17l.17,0a.78.78,0,0,0,.34-.13.67.67,0,0,0,.08-.37q0-.3,0-1.2v-1.4a.34.34,0,0,0-.08-.27,1.13,1.13,0,0,0-.37-.15l-.3-.1a.14.14,0,0,1,0-.06.17.17,0,0,1,0-.08l.5,0q.69,0,2.19,0,1.92,0,2.32,0h.08Z"/><path d="M78.76,23.23a2.12,2.12,0,0,1,.14-.73,2.13,2.13,0,0,1,1-1.15,2.63,2.63,0,0,1,1.11-.21,2.17,2.17,0,0,1,2.19,2.18,1.93,1.93,0,0,1-.66,1.43,2.31,2.31,0,0,1-1.66.63A2.27,2.27,0,0,1,79.77,25a2.11,2.11,0,0,1-.71-.73A2.05,2.05,0,0,1,78.76,23.23Zm2.21,2a1.43,1.43,0,0,0,.73-.21,1.41,1.41,0,0,0,.56-.66,2.46,2.46,0,0,0,.21-1,3.07,3.07,0,0,0-.16-.91,1.51,1.51,0,0,0-.5-.77,1.27,1.27,0,0,0-.79-.26,1.62,1.62,0,0,0-.67.16,1.29,1.29,0,0,0-.58.6,2.68,2.68,0,0,0-.24,1.25,2,2,0,0,0,.41,1.38A1.32,1.32,0,0,0,81,25.18Z"/><path d="M88.32,26.29l-.05,0h-.06a.63.63,0,0,1-.11-.24q-.2-.67-.45-.74a3.48,3.48,0,0,0-.86-.07H84.86a1.64,1.64,0,0,0-.51,0,.52.52,0,0,0-.22.24,2.47,2.47,0,0,0-.19.49.65.65,0,0,1-.11.24h-.06l-.05,0a.59.59,0,0,1,0-.11l0-.29c0-.25,0-.42,0-.51v-.12a.34.34,0,0,1,0-.12.48.48,0,0,1,.23,0c.13,0,.24-.1.32-.3l.21-.45q.76-1.65,1.16-2.73l.23-.57h.14q.29.71,1,2.23a13.4,13.4,0,0,0,.81,1.66.55.55,0,0,0,.23.17.34.34,0,0,1,.18.1.71.71,0,0,1,0,.29c0,.08,0,.23,0,.45l0,.29A.51.51,0,0,1,88.32,26.29ZM85.8,21.91l-.18.43a17.09,17.09,0,0,0-1,2.51.13.13,0,0,0,.08.14,2.51,2.51,0,0,0,.56,0h1a4.06,4.06,0,0,0,.52,0c.1,0,.15,0,.15-.09a.57.57,0,0,0,0-.13s-.09-.27-.24-.66-.29-.76-.45-1.11Z"/><path d="M92.57,23.11a1.15,1.15,0,0,0,.74-.23,2,2,0,0,0,.52-.82q.36-.93,1-.93.47,0,.47.41t-.32.3a.35.35,0,0,1-.32-.21c-.05-.1-.1-.15-.15-.15s-.33.24-.51.71a1.72,1.72,0,0,1-.51.8,1.62,1.62,0,0,1,.52.31,2.32,2.32,0,0,1,.5.85,3,3,0,0,0,.35.7.49.49,0,0,0,.36.17c.14,0,.21,0,.23.06a.5.5,0,0,1,0,.11.26.26,0,0,1,0,.06l-.56,0a2.49,2.49,0,0,0-.47,0h-.08a.13.13,0,0,1-.12-.06,2.24,2.24,0,0,1-.13-.34,5.73,5.73,0,0,0-.43-1,1,1,0,0,0-.41-.4,1.59,1.59,0,0,0-.67-.11v1.2a.89.89,0,0,0,.06.4.33.33,0,0,0,.24.11.66.66,0,0,1,.26.07.21.21,0,0,1,.07.15l-.18,0H91.27v-.15s.14-.05.35-.06a.38.38,0,0,0,.23-.06.32.32,0,0,0,0-.21V21.84q0-.27-.31-.32a.76.76,0,0,1-.27-.07.19.19,0,0,1-.05-.14h1.83l0,.15a.39.39,0,0,1-.18.06.64.64,0,0,0-.25.05s0,.07,0,.16v1.4Z"/><path d="M97.9,21H98q0,.1.3.64l.83,1.81a12,12,0,0,0,.72,1.44,1,1,0,0,0,.43.2l.13.05v.1h-1.4a2.87,2.87,0,0,1-.7,0,.26.26,0,0,1,0-.09.73.73,0,0,1,.26,0A1,1,0,0,0,99,25a.11.11,0,0,0,.06-.11,19.31,19.31,0,0,0-1.25-3.16q0,.11-.34.78l-.14.35-.43,1a4.67,4.67,0,0,0-.35,1c0,.07,0,.11.06.13a4,4,0,0,0,.52.09s0,0,0,0a.31.31,0,0,1,0,0H95.48a.2.2,0,0,1,0-.08s.08,0,.23,0a.71.71,0,0,0,.38-.09s.27-.52.68-1.42L97.48,22q.19-.5.29-.7Z"/><path d="M103.62,23.06a2.2,2.2,0,0,1,.7-1.39,2.27,2.27,0,0,1,1.59-.54,2,2,0,0,1,1.6.67,2.17,2.17,0,0,1,.6,1.48,2,2,0,0,1-.64,1.45,2.29,2.29,0,0,1-1.68.64,2.12,2.12,0,0,1-1.51-.59,2.08,2.08,0,0,1-.66-1.5h-1.43v1.35a.37.37,0,0,0,.06.25,1.36,1.36,0,0,0,.43.17l.25.08a.15.15,0,0,1,0,.06.17.17,0,0,1,0,.08l-.5,0-.55,0a8.44,8.44,0,0,0-1.09,0h-.16a.09.09,0,0,1,0-.06c0-.08.1-.13.31-.17l.41-.08c.07,0,.12-.09.16-.2a10.07,10.07,0,0,0,0-1.44V21.9a.34.34,0,0,0-.08-.27,1.19,1.19,0,0,0-.37-.15l-.3-.09a.15.15,0,0,1,0-.06.14.14,0,0,1,0-.07l.5,0,.55,0a8.44,8.44,0,0,0,1.09,0l.08,0h.08a.12.12,0,0,1,0,.07.12.12,0,0,1-.07.1,2.29,2.29,0,0,1-.49.11c-.17,0-.27.08-.3.16a4,4,0,0,0-.05.92V23h1.44Zm.76.27a2.15,2.15,0,0,0,.39,1.34,1.26,1.26,0,0,0,1.06.5,1.34,1.34,0,0,0,1.08-.52,2.06,2.06,0,0,0,.43-1.36,2.55,2.55,0,0,0-.37-1.39,1.22,1.22,0,0,0-1.11-.58,1.34,1.34,0,0,0-1.06.48A2.3,2.3,0,0,0,104.38,23.33Z"/><path d="M108.54,21.39a.15.15,0,0,1,0-.06.15.15,0,0,1,0-.08l.5,0,.55,0a8,8,0,0,0,1,0h.16a.12.12,0,0,1,0,.07c0,.07-.1.13-.31.17l-.17,0a.94.94,0,0,0-.32.1.3.3,0,0,0-.06.23v.43a1.68,1.68,0,0,0,.06.53.62.62,0,0,0,.25.29,1,1,0,0,0,.55.13,1.71,1.71,0,0,0,1.19-.58V21.9a.36.36,0,0,0-.08-.27,1.1,1.1,0,0,0-.37-.15l-.3-.09a.13.13,0,0,1,0-.06.13.13,0,0,1,0-.08l.5,0,.55,0a8.46,8.46,0,0,0,1.09,0h.16a.11.11,0,0,1,0,.07c0,.07-.1.13-.31.17l-.17,0a.8.8,0,0,0-.33.12.37.37,0,0,0-.08.21c0,.1,0,.43,0,1l0,1.77a.35.35,0,0,0,.08.27,1.15,1.15,0,0,0,.37.15l.3.09a.16.16,0,0,1,0,.06.17.17,0,0,1,0,.08l-.5,0-.55,0a8.45,8.45,0,0,0-1.09,0h-.16a.09.09,0,0,1,0-.06c0-.07.1-.13.31-.17l.17,0a.87.87,0,0,0,.32-.11.54.54,0,0,0,.09-.3,8.89,8.89,0,0,0,0-.9v-.73a3.64,3.64,0,0,1-.67.56,1.48,1.48,0,0,1-.8.2,1.11,1.11,0,0,1-1.26-1.25V21.9a.36.36,0,0,0-.08-.27,1.13,1.13,0,0,0-.37-.15Z"/><g class="cls-3"><circle class="cls-4" cx="13.37" cy="14.01" r="13.37"/><path class="cls-2" d="M20.13,9.34l3.54-4L22.34,4,18.47,8.54a5.13,5.13,0,0,0-.49.63h-.05V1.39L15.78.82V12.48A7,7,0,0,0,11,10.81h-.31V8.51h-2v2.3H8.36a6.9,6.9,0,0,0-5.1,2,6.66,6.66,0,0,0-2,4.9,7.45,7.45,0,0,0,.78,3.44,7.43,7.43,0,0,0,.75,1.1c.48.59.89,1,.89,1l.42.35a6.81,6.81,0,0,0,4.22,1.34h.34v1.63l2,.58v-2.2H11a6.68,6.68,0,0,0,5.06-2.11,7.17,7.17,0,0,0,2-5.12c0-2.57-.14-5.23-.14-7.85H18a5,5,0,0,0,.49.64l7.43,8.38.65-2.24ZM8.68,23H8.34a4.5,4.5,0,0,1-3.5-1.44,5.52,5.52,0,0,1-1.32-3.87A5.19,5.19,0,0,1,4.86,14a4.57,4.57,0,0,1,3.51-1.43h.32Zm7.1-4.53a5.2,5.2,0,0,1-1.28,3.08A4.5,4.5,0,0,1,11,23h-.33V12.61H11A4.59,4.59,0,0,1,14.51,14a5,5,0,0,1,1.28,3Z"/></g></g></g></svg>