<svg width="32" height="32" viewBox="0 0 32 32" xmlns="http://www.w3.org/2000/svg" xmlns:xlink="http://www.w3.org/1999/xlink"><title>842738E2-840D-492D-A7F9-153EA077D761</title><defs><path id="a" d="M0 .009h31.995V32H0"/></defs><g fill="none" fill-rule="evenodd"><path d="M17.33 1.826a1.489 1.489 0 0 0-2.66 0L1.153 28.86a1.482 1.482 0 0 0 1.328 2.144h27.032a1.483 1.483 0 0 0 1.331-2.144L17.33 1.826z" fill="#FFF"/><mask id="b" fill="#fff"><use xlink:href="#a"/></mask><path d="M15.999 2a.49.49 0 0 0-.44.272L2.044 29.305a.495.495 0 0 0 .022.474c.088.14.247.23.416.23h27.032a.487.487 0 0 0 .441-.704L16.438 2.271a.493.493 0 0 0-.439-.27m13.515 30H2.482a2.465 2.465 0 0 1-2.108-1.172 2.464 2.464 0 0 1-.111-2.413L13.778 1.38A2.47 2.47 0 0 1 15.999.01c.946 0 1.797.524 2.22 1.37l13.516 27.036c.383.76.34 1.686-.113 2.413a2.465 2.465 0 0 1-2.108 1.172" fill="#F97807" mask="url(#b)"/><path d="M17.07 20.099c-.046.495-.495.906-1.035.906h-.073c-.54 0-.989-.411-1.034-.906l-.732-8.096a1.834 1.834 0 0 1 .467-1.397A1.81 1.81 0 0 1 16 10.01c.507 0 .993.213 1.336.589.343.377.511.896.465 1.403l-.732 8.097zm.662 4.926c0 .967-.776 1.75-1.733 1.75a1.742 1.742 0 0 1-1.735-1.75c0-.967.777-1.75 1.735-1.75.957 0 1.733.783 1.733 1.75" fill="#F97807"/></g></svg>