<svg width="55" height="44" viewBox="0 0 55 44" fill="none" xmlns="http://www.w3.org/2000/svg">
<path d="M48.5547 21.3225H48.4473V6.39674C48.4473 2.86958 45.5559 0 42.002 0H12.8906C9.33668 0 6.44531 2.86958 6.44531 6.39674V21.3225C2.89137 21.3225 0 24.192 0 27.7192V39.4466H4.29688V43.2846H8.59375V39.4466H46.4062V43.2846H50.7031V39.4466H55V27.7192C55 24.192 52.1086 21.3225 48.5547 21.3225ZM10.7422 6.39674C10.7422 5.22102 11.706 4.26449 12.8906 4.26449H42.002C43.1866 4.26449 44.1504 5.22102 44.1504 6.39674V21.3225H40.0684V18.1241C40.0684 14.5969 37.177 11.7274 33.623 11.7274H21.1621C17.6082 11.7274 14.7168 14.5969 14.7168 18.1241V21.3225H10.7422V6.39674ZM35.7715 18.1241V21.3225H19.0137V18.1241C19.0137 16.9484 19.9775 15.9918 21.1621 15.9918H33.623C34.8077 15.9918 35.7715 16.9484 35.7715 18.1241ZM50.7031 35.1821H4.29688V27.7192C4.29688 26.5435 5.26066 25.587 6.44531 25.587H48.5547C49.7393 25.587 50.7031 26.5435 50.7031 27.7192V35.1821Z" fill="#9C9C9C"/>
</svg>
