<svg width="37" height="55" viewBox="0 0 37 55" fill="none" xmlns="http://www.w3.org/2000/svg">
<path d="M27.9744 16.0868C23.9746 8.6525 18.5162 0 18.5162 0C18.5162 0 13.0583 8.6525 9.05849 16.0868C3.59718 26.2374 0.828125 33.3855 0.828125 37.3325C0.828125 47.0743 8.76308 55 18.5162 55C28.2698 55 36.2048 47.0743 36.2048 37.3325C36.2048 33.3855 33.4357 26.2374 27.9744 16.0868ZM18.5162 51.7811C10.5402 51.7811 4.05078 45.2993 4.05078 37.3325C4.05078 31.0684 13.4913 14.306 18.5162 6.07227C23.5416 14.3052 32.9821 31.0663 32.9821 37.3325C32.9821 45.2993 26.4927 51.7811 18.5162 51.7811Z" fill="#9C9C9C"/>
<path d="M20.1309 30.9009H16.9082V35.5146H12.2891V38.7334H16.9082V43.3471H20.1309V38.7334H24.75V35.5146H20.1309V30.9009Z" fill="#9C9C9C"/>
</svg>
