<svg width="53" height="55" viewBox="0 0 53 55" fill="none" xmlns="http://www.w3.org/2000/svg">
<path d="M13.3262 40.9231C12.9682 40.5404 12.6653 40.1418 12.4101 39.7419C11.2084 37.8624 11.0384 35.9679 11.0241 35.7761C11.0233 35.7732 11.0233 35.7698 11.0233 35.7677L9.40988 35.8722L7.79688 35.9679C7.80862 36.1672 7.94206 37.9778 8.93697 40.1049C10.297 43.0103 12.6158 45.0878 15.6441 46.1129L16.1624 44.5813L16.6806 43.0514C15.2182 42.5554 14.1322 41.7829 13.3262 40.9231Z" fill="#9C9C9C"/>
<path d="M44.9719 10.8379C41.1992 5.61993 37.4889 1.50097 37.3324 1.32767L36.1331 0L34.9339 1.32767C34.7971 1.48083 31.9122 4.68124 28.6535 8.997C25.1673 4.54025 22.3093 1.36879 22.2728 1.32767L21.0731 0L19.8738 1.32767C19.8256 1.38138 14.9673 6.77387 10.1794 13.3958C3.61662 22.473 0.289062 29.4777 0.289062 34.2147C0.289062 45.6753 9.61253 55 21.0731 55C29.1125 55 36.1008 50.4123 39.5568 43.7182C47.1141 42.1354 52.8083 35.4186 52.8083 27.3964C52.8083 23.6001 50.1714 18.0288 44.9719 10.8379ZM41.0674 39.9001C40.4619 40.1405 39.8358 40.3378 39.1913 40.4876C38.5921 40.6277 37.9782 40.728 37.3509 40.7838C36.9501 40.8207 36.5435 40.8388 36.1331 40.8388C28.7202 40.8388 22.6899 34.8085 22.6899 27.3964C22.6899 24.1657 25.4635 19.1559 28.716 14.4315C29.0404 13.9627 29.3677 13.4961 29.6987 13.0337C30.0294 12.5726 30.3626 12.1156 30.6953 11.6653C32.6524 9.02302 34.6171 6.61568 36.1331 4.85706C40.7649 10.2311 49.5756 21.6375 49.5756 27.3964C49.5756 33.0671 46.0453 37.9292 41.0674 39.9001ZM21.0731 51.7673C11.3951 51.7673 3.52179 43.8927 3.52179 34.2147C3.52179 26.6121 15.2434 11.5575 21.0744 4.85035C22.6316 6.64127 24.6088 9.02721 26.6716 11.7086C21.8838 18.4791 19.4567 23.7553 19.4567 27.3964C19.4567 36.411 26.6477 43.7786 35.5956 44.0631C32.4346 48.7099 27.1047 51.7673 21.0731 51.7673Z" fill="#9C9C9C"/>
<path d="M30.1027 28.0052L28.4893 28.1022L28.4884 28.1018V28.1022L26.875 28.1983C26.8901 28.4484 27.3093 34.3599 33.1747 36.3451L33.6921 34.8139H33.6925L33.6921 34.8135L34.2103 33.2823C30.4946 32.026 30.1241 28.278 30.1027 28.0052Z" fill="#9C9C9C"/>
</svg>
