<svg width="43" height="65" viewBox="0 0 43 65" fill="none" xmlns="http://www.w3.org/2000/svg">
<path d="M15.8505 0.391602V9.49122H12.0802V0.391602H8.31592V9.49122H4.54557V0.391602H0.78125V15.3307C0.78125 18.302 2.20078 21.0961 4.54858 22.862V64.636H15.8476V22.862C18.1953 21.0963 19.6148 18.3019 19.6148 15.3307V0.391602H15.8505ZM15.8506 15.3307C15.8506 17.3407 14.767 19.2164 13.0227 20.2258L12.0833 20.7694V60.8717H8.31291V20.7694L7.37346 20.2258C5.6292 19.2164 4.54557 17.3406 4.54557 15.3306V13.2555H15.8506V15.3307Z" fill="#9C9C9C"/>
<path d="M29.0345 0.391602H27.1523V64.636H38.4513V34.5201C40.8554 32.0644 42.2187 28.7486 42.2187 25.2939V13.5758C42.2187 6.30598 36.3043 0.391602 29.0345 0.391602ZM38.4543 25.2939C38.4543 27.969 37.3096 30.5281 35.3138 32.3148L34.687 32.8759V60.8717H30.9167V4.34477C35.2118 5.21947 38.4543 9.02621 38.4543 13.5758V25.2939Z" fill="#9C9C9C"/>
</svg>
