<svg width="65" height="57" viewBox="0 0 65 57" fill="none" xmlns="http://www.w3.org/2000/svg">
<path d="M57.4656 15.4677V9.62581C57.4656 4.43343 53.2413 0.208984 48.0488 0.208984H17.7074C12.5149 0.208984 8.29053 4.43343 8.29053 9.62581V15.4677C3.99682 16.3421 0.755859 20.1471 0.755859 24.6951V49.2827H8.29053V56.8189H12.0549V49.2827H53.7013V56.8189H57.4656V49.2827H65.0003V24.6951C65.0003 20.1471 61.7593 16.3421 57.4656 15.4677ZM12.0549 9.62581C12.0549 6.50896 14.5905 3.97331 17.7074 3.97331H48.0489C51.1658 3.97331 53.7014 6.50896 53.7014 9.62581V15.4677C49.4077 16.3421 46.1668 20.1472 46.1668 24.6951V34.2164H19.5895V24.6951C19.5895 20.1471 16.3486 16.3421 12.0549 15.4677V9.62581ZM61.236 45.5184H4.52018V24.6951C4.52018 21.5784 7.05583 19.0426 10.1727 19.0426C13.2895 19.0426 15.8252 21.5783 15.8252 24.6951V37.9807H49.9311V24.6951C49.9311 21.5784 52.4667 19.0426 55.5836 19.0426C58.7005 19.0426 61.236 21.5784 61.236 24.6951V45.5184Z" fill="#9C9C9C"/>
<path d="M12.0553 24.0669H8.29102V27.8337H12.0553V24.0669Z" fill="#9C9C9C"/>
<path d="M57.4655 24.0669H53.7012V27.8337H57.4655V24.0669Z" fill="#9C9C9C"/>
</svg>
