<svg width="55" height="55" viewBox="0 0 55 55" fill="none" xmlns="http://www.w3.org/2000/svg">
<g clip-path="url(#clip0)">
<path d="M46.0118 34.2982C48.3101 30.8078 49.6499 26.6331 49.6499 22.1503C49.6499 9.93652 39.7129 0 27.4992 0C15.2854 0 5.34885 9.93652 5.34885 22.1503C5.34885 26.6331 6.68869 30.8078 8.98651 34.2982L0.322266 46.9341L10.2365 45.0857L12.0854 55L20.2562 43.0833C22.5271 43.8713 24.9638 44.3006 27.4992 44.3006C30.0349 44.3006 32.4716 43.8713 34.7422 43.0833L42.9134 55L44.7618 45.0857L54.6761 46.9341L46.0118 34.2982ZM13.8373 46.7126L12.8289 41.3046L7.42134 42.3133L11.0703 36.9913C12.818 38.9241 14.9014 40.5471 17.2269 41.7699L13.8373 46.7126ZM8.59039 22.1503C8.59039 11.7241 17.0729 3.24154 27.4992 3.24154C37.9258 3.24154 46.4083 11.7241 46.4083 22.1503C46.4083 32.5769 37.9258 41.0595 27.4992 41.0595C17.0729 41.0595 8.59039 32.5769 8.59039 22.1503ZM42.1694 41.3046L41.161 46.7126L37.7718 41.7699C40.0973 40.5471 42.1807 38.9241 43.9284 36.9913L47.5774 42.3129L42.1694 41.3046Z" fill="#9C9C9C"/>
<path d="M23.5506 27.0148L18.2802 21.7448L15.9883 24.0368L23.5506 31.5991L39.0106 16.1396L36.7186 13.8477L23.5506 27.0148Z" fill="#9C9C9C"/>
</g>
<defs>
<clipPath id="clip0">
<rect width="55" height="55" fill="white"/>
</clipPath>
</defs>
</svg>
