<svg width="55" height="45" viewBox="0 0 55 45" fill="none" xmlns="http://www.w3.org/2000/svg">
<path d="M51.7748 20.7976V13.2722H48.5497V12.6344C48.5497 5.87227 43.0485 0.371094 36.2864 0.371094H32.3394V1.98242C32.3394 4.65076 30.1683 6.82144 27.5 6.82144H14.5124C10.6188 6.82144 7.36134 9.59637 6.61274 13.2722H3.22517V20.7976H0V44.5337H55V20.7976H51.7748ZM14.5124 10.0441H27.5C31.3936 10.0441 34.6515 7.26959 35.4001 3.59375H36.2864C41.2714 3.59375 45.327 7.64935 45.327 12.6344V13.2722H9.94995C10.6155 11.3936 12.4089 10.0441 14.5124 10.0441ZM6.44783 16.4949H48.5522V20.7976H6.44783V16.4949ZM51.7773 41.311H3.22266V24.0203H51.7773V41.311Z" fill="#9C9C9C"/>
</svg>
