<svg width="49" height="55" viewBox="0 0 49 55" fill="none" xmlns="http://www.w3.org/2000/svg">
<path d="M43.7121 27.0037V19.2135C43.7121 8.61953 35.0926 0 24.4986 0C13.9047 0 5.28516 8.61953 5.28516 19.2135V27.0037C2.26445 27.6826 0 30.3875 0 33.6102C0 37.0219 2.5373 39.8535 5.82441 40.3154C6.77295 44.231 8.95147 47.7812 12.0463 50.4185C15.5149 53.3726 19.9364 55 24.4986 55C29.0608 55 33.4823 53.3726 36.951 50.4185C40.0458 47.7812 42.2243 44.231 43.1729 40.3154C46.46 39.8535 48.9973 37.0219 48.9973 33.6102C48.9973 30.3875 46.7328 27.6826 43.7121 27.0037ZM8.50781 19.2135C8.50781 10.3963 15.6814 3.22266 24.4986 3.22266C33.3158 3.22266 40.4895 10.3963 40.4895 19.2135V24.6404C37.8146 23.6951 35.431 22.3062 33.3749 20.4929C31.2866 18.6517 30.337 17.036 30.3306 17.0253L29.1403 14.9359L27.6611 16.8309C27.6031 16.905 22.0666 23.8165 8.50781 26.747V19.2135ZM42.2254 37.1594H40.4884L40.2596 38.4989C38.9458 46.1925 32.3168 51.7773 24.4986 51.7773C16.6805 51.7773 10.0515 46.1925 8.7377 38.4989L8.50889 37.1594H6.77188C4.81465 37.1594 3.22266 35.5674 3.22266 33.6102C3.22266 31.8796 4.46768 30.4348 6.11016 30.1243C6.32393 30.0835 6.54522 30.062 6.77188 30.062H8.39609C8.43369 30.0545 8.47021 30.047 8.50781 30.0395C19.7871 27.7535 26.1347 22.8551 28.7611 20.3489C30.511 22.4974 34.2171 26.1046 40.4895 28.0328V30.062H42.2254C44.1826 30.062 45.7746 31.654 45.7746 33.6102C45.7746 35.5674 44.1826 37.1594 42.2254 37.1594Z" fill="#9C9C9C"/>
<path d="M14.5547 41.8051H17.7773V45.0098H14.5547V41.8051Z" fill="#9C9C9C"/>
<path d="M11.2773 34.7152H14.5V37.9199H11.2773V34.7152Z" fill="#9C9C9C"/>
<path d="M17.6133 36.0938H20.8359V39.2985H17.6133V36.0938Z" fill="#9C9C9C"/>
<path d="M31.2227 41.8051H34.4453V45.0098H31.2227V41.8051Z" fill="#9C9C9C"/>
<path d="M34.5 34.7152H37.7227V37.9199H34.5V34.7152Z" fill="#9C9C9C"/>
<path d="M28.1602 36.0938H31.3828V39.2985H28.1602V36.0938Z" fill="#9C9C9C"/>
</svg>
