<svg width="55" height="55" viewBox="0 0 55 55" fill="none" xmlns="http://www.w3.org/2000/svg">
<path d="M46.9455 8.05449C41.7513 2.86054 34.8455 0 27.5 0C20.1545 0 13.2487 2.86054 8.05449 8.05449C2.86054 13.2487 0 20.1545 0 27.5C0 34.8455 2.86054 41.7513 8.05449 46.9455C13.2487 52.1395 20.1545 55 27.5 55C34.8455 55 41.7513 52.1395 46.9455 46.9455C52.1395 41.7513 55 34.8455 55 27.5C55 20.1545 52.1395 13.2487 46.9455 8.05449ZM44.6667 44.6667C40.0812 49.2521 33.9847 51.7773 27.5 51.7773C21.0153 51.7773 14.9187 49.2521 10.3333 44.6667C5.74793 40.0812 3.22266 33.9847 3.22266 27.5C3.22266 21.0153 5.74793 14.9187 10.3333 10.3333C14.9187 5.74793 21.0153 3.22266 27.5 3.22266C33.9847 3.22266 40.0812 5.74793 44.6667 10.3333C49.2521 14.9187 51.7773 21.0153 51.7773 27.5C51.7773 33.9847 49.2521 40.0812 44.6667 44.6667Z" fill="#9C9C9C"/>
<path d="M29.1133 8.59375H25.8906V15.0391H29.1133V8.59375Z" fill="#9C9C9C"/>
<path d="M16.6524 11.9331L19.875 17.5146L22.6657 15.9034L19.4431 10.3218L16.6524 11.9331Z" fill="#9C9C9C"/>
<path d="M10.3208 19.443L15.9023 22.6655L17.5137 19.8748L11.9321 16.6523L10.3208 19.443Z" fill="#9C9C9C"/>
<path d="M15.0391 25.8887H8.59375V29.1113H15.0391V25.8887Z" fill="#9C9C9C"/>
<path d="M46.4062 25.8887H39.9609V29.1113H46.4062V25.8887Z" fill="#9C9C9C"/>
<path d="M43.0659 16.6513L37.4844 19.874L39.0956 22.6648L44.6771 19.4421L43.0659 16.6513Z" fill="#9C9C9C"/>
<path d="M35.5585 10.3222L32.3359 15.9038L35.1267 17.5151L38.3492 11.9335L35.5585 10.3222Z" fill="#9C9C9C"/>
<path d="M29.1094 33.6854V20.5176H25.8867V33.6854C24.0112 34.3505 22.6641 36.1416 22.6641 38.2422C22.6641 40.9076 24.8326 43.0762 27.498 43.0762C30.1635 43.0762 32.332 40.9076 32.332 38.2422C32.332 36.1416 30.9849 34.3505 29.1094 33.6854ZM27.498 39.8535C26.6096 39.8535 25.8867 39.1307 25.8867 38.2422C25.8867 37.3537 26.6096 36.6309 27.498 36.6309C28.3865 36.6309 29.1094 37.3537 29.1094 38.2422C29.1094 39.1307 28.3865 39.8535 27.498 39.8535Z" fill="#9C9C9C"/>
</svg>
