<svg width="55" height="55" viewBox="0 0 55 55" fill="none" xmlns="http://www.w3.org/2000/svg">
<path d="M44.3652 50.321H35.7715V54.5855H44.3652V50.321Z" fill="#9C9C9C"/>
<path d="M46.9455 35.2865C43.9503 32.314 40.3851 30.1134 36.4954 28.7813C40.6614 25.9336 43.3984 21.1677 43.3984 15.7786C43.3984 15.0257 43.3451 14.2782 43.2393 13.5398H43.3984V0H11.6016V13.5398H11.7607C11.6548 14.2782 11.6016 15.0257 11.6016 15.7786C11.6016 21.1677 14.3386 25.9336 18.5047 28.7814C14.615 30.1134 11.0498 32.314 8.0546 35.2867C2.86054 40.4416 0 47.2954 0 54.5855H4.29688C4.29688 46.3769 8.64768 39.1589 15.1801 35.0803L25.3516 46.7864V54.5855H29.6484V46.7894L39.8531 35.1008C46.3669 39.1831 50.7031 46.3908 50.7031 54.5855H55C55 47.2954 52.1395 40.4416 46.9455 35.2865ZM15.8984 4.26449H39.1016V9.27527H15.8984V4.26449ZM15.8984 15.7786C15.8984 15.0218 15.973 14.2732 16.1184 13.5398H38.8815C39.0269 14.2732 39.1015 15.0218 39.1015 15.7786C39.1015 22.1275 33.8971 27.2928 27.4999 27.2928C21.1027 27.2928 15.8984 22.1275 15.8984 15.7786ZM27.504 42.7335L19.1379 33.1052C21.7336 32.1064 24.5532 31.5572 27.5 31.5572C30.4603 31.5572 33.2925 32.1113 35.898 33.1188L27.504 42.7335Z" fill="#9C9C9C"/>
</svg>
