<svg width="43" height="54" viewBox="0 0 43 54" fill="none" xmlns="http://www.w3.org/2000/svg">
<path d="M38.418 25.391V20.016H35.1953V25.391C33.0185 26.0473 31.4355 27.9964 31.4355 30.2929C31.4355 32.5894 33.0185 34.5385 35.1953 35.1948V41.1864C35.1953 46.0031 31.0992 49.9218 26.0645 49.9218C21.3563 49.9218 17.4697 46.4948 16.9853 42.1114H20.1562V35.9452H29.8242V7.58092H21.2305V6.03939C21.2305 2.92271 18.58 0.387085 15.3223 0.387085C12.0645 0.387085 9.41406 2.92271 9.41406 6.03939V7.58092H0.820312V35.9452H10.4883V42.1114H13.7486C14.2434 48.1974 19.5781 53.0049 26.0645 53.0049C32.8762 53.0049 38.418 47.7031 38.418 41.1864V35.1948C40.5948 34.5385 42.1777 32.5894 42.1777 30.2929C42.1777 27.9964 40.5948 26.0473 38.418 25.391ZM12.6367 6.03939C12.6367 4.62271 13.8415 3.47016 15.3223 3.47016C16.8031 3.47016 18.0078 4.62271 18.0078 6.03939V7.58092H12.6367V6.03939ZM4.04297 10.664H26.6016V25.8499C23.7907 28.493 19.2546 28.4807 16.461 25.8109C13.1029 22.6015 8.00533 22.0472 4.04297 24.1427V10.664ZM4.04297 32.8621V27.9532C6.85388 25.31 11.39 25.3224 14.1835 27.9921C16.2152 29.9338 18.8839 30.9047 21.5527 30.9047C23.2952 30.9047 25.0364 30.488 26.6016 29.6603V32.8621H4.04297ZM16.9336 39.0283H13.7109V35.9452H16.9336V39.0283ZM36.8066 32.3483C35.622 32.3483 34.6582 31.4262 34.6582 30.2929C34.6582 29.1596 35.622 28.2375 36.8066 28.2375C37.9913 28.2375 38.9551 29.1596 38.9551 30.2929C38.9551 31.4262 37.9913 32.3483 36.8066 32.3483Z" fill="#9C9C9C"/>
</svg>
