<svg width="65" height="37" viewBox="0 0 65 37" fill="none" xmlns="http://www.w3.org/2000/svg">
<path d="M56.7158 8.2749V0.740234H37.8821V12.8641H26.3622V0.740234H7.52865V8.2749H0V28.7522H7.52865V36.2869H26.3623V24.163H37.8823V36.2869H56.7158V28.7522H64.2444V8.2749H56.7158ZM7.52865 24.9879H3.76432V12.0392H7.52865V24.9879ZM15.0633 32.5225H11.293V4.50456H15.0633V32.5225ZM22.598 32.5227H18.8276V4.50456H22.598V32.5227ZM37.8823 20.3988H26.3623V16.6284H37.8823V20.3988ZM45.4168 32.5225H41.6465V4.50456H45.4168V32.5225ZM52.9515 32.5227H49.1811V4.50456H52.9515V32.5227ZM60.4801 24.988H56.7158V12.0392H60.4801V24.988Z" fill="#9C9C9C"/>
</svg>
