<svg width="25" height="19" viewBox="0 0 25 19" fill="none" xmlns="http://www.w3.org/2000/svg">
<path d="M17.8674 6.70303L12.5002 9.83399L7.13286 6.70308C6.66699 6.4314 6.06904 6.58863 5.79726 7.05455C5.52548 7.52041 5.68286 8.11836 6.14873 8.39014L12.0081 11.8081C12.3121 11.9854 12.6881 11.9855 12.9922 11.8081L18.8516 8.39009C19.3174 8.11836 19.4748 7.52037 19.203 7.0545C18.9313 6.58858 18.3332 6.43126 17.8674 6.70303Z" fill="#A8A9AD"/>
<path d="M22.0703 0.710938H2.92969C1.31426 0.710938 0 2.0252 0 3.64063V15.3594C0 16.9748 1.31426 18.2891 2.92969 18.2891H22.0703C23.6857 18.2891 25 16.9748 25 15.3594V3.64063C25 2.0252 23.6857 0.710938 22.0703 0.710938ZM23.0469 15.3594C23.0469 15.8979 22.6088 16.3359 22.0703 16.3359H2.92969C2.39121 16.3359 1.95312 15.8979 1.95312 15.3594V3.64063C1.95312 3.10215 2.39121 2.66406 2.92969 2.66406H22.0703C22.6088 2.66406 23.0469 3.10215 23.0469 3.64063V15.3594Z" fill="#A8A9AD"/>
</svg>
