<svg width="55" height="47" viewBox="0 0 55 47" fill="none" xmlns="http://www.w3.org/2000/svg">
<path d="M49.5954 21.2573C49.5023 20.1194 48.9499 19.0501 48.0794 18.3218L36.1011 8.12839C33.8047 6.17406 30.8797 5.09791 27.8643 5.09791H16.6673C15.6011 5.09791 14.585 4.6968 13.8062 3.9687L9.56194 0L7.35023 2.3651L11.5945 6.3338C12.9753 7.6249 14.7767 8.33603 16.6672 8.33603H27.8642C30.1113 8.33603 32.2912 9.13815 34.0024 10.5945L45.9863 20.7928L45.9997 20.8039C46.2108 20.9798 46.345 21.2414 46.368 21.5217C46.3801 21.6689 46.3692 21.952 46.1608 22.193C45.8263 22.5798 45.2345 22.628 44.841 22.3005L37.3919 16.0982C35.6672 14.6622 33.4814 13.8714 31.237 13.8714H22.4294C20.2141 13.8714 18.4117 15.6737 18.4117 17.8892C18.4117 20.1046 20.214 21.9069 22.4294 21.9069H30.8844C31.3143 21.9069 31.6642 22.2566 31.6642 22.6867C31.6642 23.1165 31.3145 23.4664 30.8844 23.4664H16.8478C14.7415 23.4664 12.7814 22.3318 11.7325 20.5052L10.6577 18.6335C9.83984 17.2094 8.82513 15.9098 7.64199 14.771L3.24565 10.5396L1 12.8723L5.39645 17.1038C6.35905 18.0301 7.18437 19.0873 7.84974 20.2459L8.9245 22.1175C10.5491 24.9467 13.5852 26.7042 16.8477 26.7042H30.8845C33.0998 26.7042 34.9023 24.9019 34.9023 22.6864C34.9023 20.4711 33.1 18.6687 30.8845 18.6687H22.4295C21.9996 18.6687 21.6498 18.3191 21.6498 17.8889C21.6498 17.4588 21.9994 17.1092 22.4295 17.1092H31.2372C32.726 17.1092 34.176 17.6337 35.3201 18.5863L42.7693 24.7886C44.5093 26.2373 47.1294 26.0229 48.6101 24.3109C49.3378 23.4696 49.6878 22.3851 49.5954 21.2573Z" fill="#9C9C9C"/>
<path d="M24.0322 32.6562C14.7604 35.1757 6.45024 38.8783 0 43.3637L1.84862 46.0223C7.9983 41.7458 15.9628 38.2045 24.8813 35.781C34.2821 33.2265 44.4154 31.9312 55.0001 31.9312V28.6932C44.1286 28.6932 33.7097 30.0267 24.0322 32.6562Z" fill="#9C9C9C"/>
</svg>
