<svg width="55" height="50" viewBox="0 0 55 50" fill="none" xmlns="http://www.w3.org/2000/svg">
<path d="M54.7893 41.5456C54.365 39.9577 53.3483 38.6305 51.9262 37.808C49.4727 36.3885 46.4368 36.8597 44.5141 38.766L36.0365 33.8624C36.3831 32.9035 36.5728 31.8704 36.5728 30.7937C36.5728 26.3491 33.3539 22.6451 29.1258 21.8827V12.0875C31.7392 11.3775 33.6669 8.98613 33.6669 6.15119C33.6669 2.75941 30.9075 0 27.5157 0C24.1236 0 21.3641 2.75941 21.3641 6.15119C21.3641 8.98613 23.2919 11.3775 25.9053 12.0875V21.8827C21.6768 22.6451 18.4583 26.3491 18.4583 30.7937C18.4583 31.8625 18.6459 32.888 18.987 33.8405L10.4985 38.7228C9.747 37.9709 8.81 37.4241 7.75633 37.14C6.16976 36.712 4.51184 36.9273 3.08724 37.7468C1.66305 38.5659 0.642962 39.8906 0.214951 41.4768C-0.21306 43.0633 0.00262436 44.7213 0.82172 46.1459C1.64081 47.57 2.96597 48.5901 4.55213 49.0181C5.08546 49.1621 5.62635 49.233 6.16388 49.233C7.22636 49.233 8.2754 48.9552 9.2208 48.4114C10.6454 47.5923 11.6655 46.2675 12.0935 44.681C12.3776 43.6273 12.3763 42.5422 12.1044 41.5149L20.5975 36.6302C22.26 38.5978 24.7437 39.8507 27.5157 39.8507C30.2794 39.8507 32.7564 38.6049 34.4189 36.6474L42.8998 41.5531C42.6254 42.5799 42.6216 43.6651 42.9032 44.7196C43.327 46.307 44.3437 47.6347 45.7662 48.4571C46.7334 49.0169 47.7913 49.2825 48.8357 49.2825C50.9615 49.2825 53.0319 48.181 54.1707 46.2126C54.9936 44.7905 55.2131 43.133 54.7893 41.5456ZM8.9833 43.8422C8.77936 44.5979 8.29345 45.229 7.61492 45.6192C6.9364 46.0099 6.14668 46.1127 5.39094 45.9084C4.63479 45.7048 4.00369 45.2185 3.61344 44.54C3.2232 43.8615 3.12081 43.0713 3.32474 42.316C3.52826 41.5603 4.01418 40.9287 4.69312 40.5385C5.14379 40.2796 5.64314 40.1474 6.1492 40.1474C6.40558 40.1474 6.66323 40.181 6.9171 40.2498C7.67283 40.4533 8.30394 40.9392 8.69418 41.6182C9.08443 42.2967 9.18723 43.0864 8.9833 43.8422ZM24.5847 6.15119C24.5847 4.53524 25.8994 3.22057 27.5153 3.22057C29.1313 3.22057 30.4459 4.53524 30.4459 6.15119C30.4459 7.76714 29.1313 9.0818 27.5153 9.0818C25.8994 9.0818 24.5847 7.76714 24.5847 6.15119ZM27.5153 36.6298C24.2973 36.6298 21.6789 34.0118 21.6789 30.7937C21.6789 27.5752 24.2973 24.9572 27.5153 24.9572C30.7334 24.9572 33.3518 27.5752 33.3518 30.7937C33.3518 34.0118 30.7338 36.6298 27.5153 36.6298ZM51.3828 44.6C50.5738 45.9986 48.7774 46.4786 47.3788 45.6692C46.7011 45.2772 46.2169 44.6449 46.0146 43.8887C45.8128 43.1326 45.9173 42.3429 46.3092 41.6652C46.8518 40.7273 47.8383 40.2028 48.8508 40.2028C49.3485 40.2028 49.8529 40.3291 50.3136 40.596C50.9909 40.9879 51.4755 41.6203 51.6774 42.3764C51.8792 43.1326 51.7747 43.9223 51.3828 44.6Z" fill="#9C9C9C"/>
</svg>
