<svg width="55" height="55" viewBox="0 0 55 55" fill="none" xmlns="http://www.w3.org/2000/svg">
<path d="M52.5257 3.2231C52.4576 3.23355 45.6523 4.26449 41.0359 4.26449C39.2036 4.26449 36.2204 3.55883 32.7662 2.74164C27.6026 1.52019 21.1762 0 14.9326 0C6.69927 0 0.000976562 6.64781 0.000976562 14.819C0.000976562 19.418 2.12288 23.5343 5.44619 26.2546C5.60077 26.6203 5.78887 26.9713 6.01102 27.3043C6.93108 29.1728 10.8507 38.8844 10.8507 48.1888C10.8507 51.7159 13.7421 54.5855 17.296 54.5855C20.85 54.5855 23.7413 51.7159 23.7413 48.1888C23.7413 44.5532 23.2986 40.9742 22.6781 37.7405H24.8155V33.4761H21.7218C21.3713 32.1074 21.0079 30.8494 20.661 29.7352C20.6138 29.5837 20.5656 29.4326 20.5175 29.2813C24.8894 28.7589 29.1395 27.7543 32.7663 26.8964C36.2205 26.0792 39.2037 25.3735 41.036 25.3735C45.6461 25.3735 52.4576 26.4045 52.5258 26.4149L55.0008 26.7925V2.84527L52.5257 3.2231ZM11.1729 24.6917C7.15903 23.181 4.29785 19.3257 4.29785 14.8191C4.29785 10.3124 7.15893 6.45708 11.1729 4.94649V24.6917ZM17.296 50.321C16.1114 50.321 15.1476 49.3645 15.1476 48.1888C15.1476 41.0068 13.0569 33.6951 11.4297 29.2251C12.5538 29.4943 13.7266 29.638 14.9327 29.638C15.3254 29.638 15.7187 29.6319 16.1124 29.6204C16.2638 30.0751 16.4124 30.5341 16.5557 30.9944C17.8735 35.2267 19.4444 41.6452 19.4444 48.1888C19.4443 49.3645 18.4807 50.321 17.296 50.321ZM38.0282 21.4007C36.1967 21.7012 34.0815 22.2014 31.7699 22.7482C26.979 23.8815 21.0532 25.2833 15.4697 25.3695V4.26865C21.0532 4.35479 26.9791 5.75664 31.7699 6.88993C34.0815 7.43674 36.1967 7.93686 38.0282 8.23719V21.4007ZM50.7039 21.8596C48.5128 21.5813 45.2264 21.2207 42.325 21.1305V8.50766C45.2264 8.41747 48.5128 8.0568 50.7039 7.77854V21.8596Z" fill="#9C9C9C"/>
</svg>
