<svg width="62" height="55" viewBox="0 0 62 55" fill="none" xmlns="http://www.w3.org/2000/svg">
<path d="M61.8777 16.7601C61.4512 7.72384 54.4788 0.0703807 45.5852 0.000486099C40.4262 -0.0396561 35.9373 2.40713 32.615 7.07684C31.9543 8.00484 31.4032 8.93283 30.9503 9.79423C30.4974 8.93283 29.9462 8.00484 29.2855 7.07684C25.9901 2.44491 21.5508 1.38377e-05 16.441 1.38377e-05C16.3994 1.38377e-05 16.3574 1.38377e-05 16.3154 0.000486099C7.42363 0.0699085 0.449282 7.72148 0.0228306 16.7601C-0.513658 28.1454 8.45127 35.7695 22.0212 47.3106C24.4883 49.4089 27.0395 51.5785 29.7564 53.9554L30.9503 55L32.1446 53.9554C34.861 51.5785 37.4122 49.4089 39.8793 47.3106C53.4497 35.7695 62.4146 28.1454 61.8777 16.7601ZM37.5298 44.5474C35.4164 46.3444 33.2421 48.1938 30.9503 50.1848C28.6584 48.1938 26.4841 46.3444 24.3712 44.5474C17.2783 38.5153 11.6471 33.7308 8.0149 29.0153H17.7496L20.2243 21.5913L27.1396 38.8789L32.0714 29.0153H53.8856C50.2501 33.7355 44.6062 38.5294 37.5298 44.5474ZM56.263 25.3883H29.8296L27.5075 30.033L19.9145 11.0509L15.1352 25.3883H5.63754C4.1367 22.5769 3.50812 19.8487 3.64602 16.931C3.99549 9.5241 9.57289 3.68034 16.3437 3.62698H16.4419C20.3513 3.62698 23.6581 5.46691 26.2716 9.09718C28.349 11.9827 29.193 14.956 29.2024 14.9905L30.9503 21.3637L32.699 14.9872C32.7302 14.8734 35.9255 3.62698 45.4614 3.62698C45.4931 3.62698 45.5252 3.62698 45.5568 3.62745C52.3276 3.68034 57.9055 9.5241 58.2545 16.931C58.3924 19.8487 57.7638 22.5769 56.263 25.3883Z" fill="#9C9C9C"/>
</svg>
