<svg width="55" height="55" viewBox="0 0 55 55" fill="none" xmlns="http://www.w3.org/2000/svg">
<path d="M50.166 6.01562C47.5006 6.01562 45.332 8.18415 45.332 10.8496V23.158C43.6313 22.5597 41.6602 22.9391 40.3026 24.2968L28.2439 36.3553C27.9737 36.6256 27.7261 36.9126 27.5 37.2128C27.2738 36.9125 27.0263 36.6256 26.7559 36.3552L14.6975 24.2968C13.3398 22.9391 11.3688 22.5597 9.66797 23.158V10.8496C9.66797 8.18415 7.49944 6.01562 4.83398 6.01562C2.16853 6.01562 0 8.18415 0 10.8496V31.4964L9.66797 47.3949V55H45.332V47.3949L55 31.4964V10.8496C55 8.18415 52.8315 6.01562 50.166 6.01562ZM3.22266 30.5934V10.8496C3.22266 9.96112 3.9455 9.23828 4.83398 9.23828C5.72247 9.23828 6.44531 9.96112 6.44531 10.8496V27.7686C6.46229 28.9884 6.93247 30.2042 7.86113 31.1329L19.9148 43.1867L22.1936 40.908L10.14 28.8542C9.51178 28.2258 9.51178 27.2037 10.14 26.5754C10.7683 25.9472 11.7905 25.9472 12.4188 26.5754L24.4771 38.6337C25.3873 39.5444 25.8887 40.7596 25.8887 42.0557V51.7773H12.8906V46.4919L3.22266 30.5934ZM51.7773 30.5934L42.1094 46.4919V51.7773H29.1113V42.0557C29.1113 40.7596 29.6127 39.5444 30.5229 38.6338L42.5814 26.5754C42.8857 26.2711 43.2904 26.1034 43.7207 26.1034C44.151 26.1034 44.5557 26.2711 44.86 26.5754C45.1643 26.8797 45.332 27.2844 45.332 27.7148C45.332 28.1453 45.1643 28.5498 44.86 28.8542L32.8059 40.9085L35.0846 43.1872L47.1389 31.1329C48.0393 30.2326 48.5396 29.0396 48.5534 27.7686C48.5547 27.7686 48.5547 10.8496 48.5547 10.8496C48.5547 9.96112 49.2775 9.23828 50.166 9.23828C51.0545 9.23828 51.7773 9.96112 51.7773 10.8496V30.5934Z" fill="#9C9C9C"/>
<path d="M21.0527 26.8555H33.9434V19.873H40.9258V6.98242H33.9434V0H21.0527V6.98242H14.0703V19.873H21.0527V26.8555ZM17.293 16.6504V10.2051H24.2754V3.22266H30.7207V10.2051H37.7031V16.6504H30.7207V23.6328H24.2754V16.6504H17.293Z" fill="#9C9C9C"/>
</svg>
