<svg width="65" height="57" viewBox="0 0 65 57" fill="none" xmlns="http://www.w3.org/2000/svg">
<path d="M26.4697 4.51001V0.742676H7.43328V4.50988H0V56.1965H64.2444V4.51001H26.4697ZM11.1976 4.507H22.7054V44.8977H11.1976V4.507ZM30.2401 52.4322H3.76432V8.27433H7.43328V48.662H26.4697V8.27433H30.2401V52.4322ZM60.4801 52.4322H34.0044V8.27433H60.4801V52.4322Z" fill="#9C9C9C"/>
<path d="M37.001 12.0381V26.0573H55.9481V12.0381H37.001ZM52.1837 22.293H40.7653V15.8022H52.1837V22.293Z" fill="#9C9C9C"/>
<path d="M40.7668 44.897H37V48.6613H40.7668V44.897Z" fill="#9C9C9C"/>
<path d="M48.3586 44.897H44.5918V48.6613H48.3586V44.897Z" fill="#9C9C9C"/>
<path d="M55.9495 44.897H52.1826V48.6613H55.9495V44.897Z" fill="#9C9C9C"/>
<path d="M40.7668 37.3633H37V41.1276H40.7668V37.3633Z" fill="#9C9C9C"/>
<path d="M48.3586 37.3633H44.5918V41.1276H48.3586V37.3633Z" fill="#9C9C9C"/>
<path d="M55.9495 37.3633H52.1826V41.1276H55.9495V37.3633Z" fill="#9C9C9C"/>
<path d="M40.7668 29.8281H37V33.5924H40.7668V29.8281Z" fill="#9C9C9C"/>
<path d="M48.3586 29.8281H44.5918V33.5924H48.3586V29.8281Z" fill="#9C9C9C"/>
<path d="M55.9495 29.8281H52.1826V33.5924H55.9495V29.8281Z" fill="#9C9C9C"/>
</svg>
