<svg width="30" height="30" viewBox="0 0 30 30" fill="none" xmlns="http://www.w3.org/2000/svg">
<path d="M29.9132 1.69537C29.7632 1.37701 29.4428 1.17395 29.0908 1.17395H0.90929C0.557355 1.17395 0.237061 1.37701 0.0868545 1.69537C-0.0632304 2.01372 -0.0161924 2.39003 0.207723 2.66158L11.0411 15.8012V27.9171C11.0411 28.2317 11.2037 28.5238 11.4709 28.6897C11.6173 28.7805 11.7835 28.8263 11.9503 28.8263C12.0882 28.8263 12.2265 28.7949 12.354 28.7317L18.4408 25.7149C18.7501 25.5616 18.9458 25.2466 18.9463 24.9014L18.9581 15.8015L29.7921 2.66146C30.0162 2.39003 30.0633 2.0136 29.9132 1.69537ZM17.3479 14.8962C17.214 15.0586 17.1405 15.2627 17.1403 15.4734L17.1286 24.3358L12.8597 26.4516V15.4746C12.8597 15.2635 12.7864 15.059 12.652 14.8962L2.83736 2.9923H27.1626L17.3479 14.8962Z" fill="#9C9C9C" stroke="#9C9C9C"/>
</svg>
