<svg width="55" height="45" viewBox="0 0 55 45" fill="none" xmlns="http://www.w3.org/2000/svg">
<path d="M55 20.757H0V23.9796H3.22517V31.3997C3.22517 38.4795 8.98483 44.2391 16.0646 44.2391H38.9354C46.0147 44.2391 51.7748 38.4795 51.7748 31.3997V23.9796H55V20.757ZM48.5522 31.3997C48.5522 36.7024 44.2381 41.0165 38.9354 41.0165H16.0646C10.7619 41.0165 6.44783 36.7024 6.44783 31.3997V23.9796H48.5522V31.3997Z" fill="#9C9C9C"/>
<path d="M16.4297 17.5305H19.6523C19.6523 16.5817 19.8865 16.1995 20.2742 15.5663C20.7626 14.7686 21.3711 13.7757 21.3711 11.9185C21.3711 10.0613 20.7631 9.06849 20.2742 8.2708C19.8865 7.6376 19.6523 7.25491 19.6523 6.30615C19.6523 5.35698 19.8865 4.97471 20.2742 4.34109C20.7631 3.5434 21.3711 2.55058 21.3711 0.693359H18.1484C18.1484 1.64211 17.9143 2.0248 17.5261 2.658C17.0377 3.4557 16.4297 4.44851 16.4297 6.30615C16.4297 8.16338 17.0377 9.15619 17.5261 9.95388C17.9139 10.5871 18.1484 10.9698 18.1484 11.9185C18.1484 12.8673 17.9143 13.2495 17.5261 13.8828C17.0377 14.6809 16.4297 15.6733 16.4297 17.5305Z" fill="#9C9C9C"/>
<path d="M25.0312 17.5305H28.2539C28.2539 16.5817 28.4881 16.1995 28.8758 15.5663C29.3646 14.7686 29.9727 13.7757 29.9727 11.9185C29.9727 10.0613 29.3646 9.06849 28.8762 8.2708C28.4881 7.6376 28.2539 7.25491 28.2539 6.30615C28.2539 5.35698 28.4881 4.97471 28.8762 4.34109C29.3646 3.54382 29.9727 2.551 29.9727 0.693359H26.75C26.75 1.64253 26.5159 2.0248 26.1277 2.658C25.6393 3.45612 25.0312 4.44893 25.0312 6.30615C25.0312 8.16338 25.6393 9.15619 26.1277 9.95388C26.5159 10.5875 26.75 10.9698 26.75 11.9185C26.75 12.8673 26.5159 13.2495 26.1281 13.8832C25.6393 14.6809 25.0312 15.6733 25.0312 17.5305Z" fill="#9C9C9C"/>
<path d="M33.6289 17.5305H36.8516C36.8516 16.5817 37.0857 16.1995 37.4739 15.5663C37.9623 14.7686 38.5703 13.7757 38.5703 11.9185C38.5703 10.0613 37.9623 9.06849 37.4739 8.2708C37.0861 7.6376 36.8516 7.25491 36.8516 6.30615C36.8516 5.35698 37.0857 4.97471 37.4739 4.34109C37.9623 3.5434 38.5703 2.55058 38.5703 0.693359H35.3477C35.3477 1.64211 35.1135 2.0248 34.7258 2.658C34.2369 3.4557 33.6289 4.44851 33.6289 6.30615C33.6289 8.16338 34.2369 9.15619 34.7258 9.95388C35.1135 10.5871 35.3477 10.9698 35.3477 11.9185C35.3477 12.8673 35.1135 13.2495 34.7258 13.8828C34.2374 14.6809 33.6289 15.6733 33.6289 17.5305Z" fill="#9C9C9C"/>
</svg>
