<svg width="36" height="29" viewBox="0 0 36 29" fill="none" xmlns="http://www.w3.org/2000/svg">
<path d="M33.66 10.6856L27.5073 3.92419C26.2899 2.70673 24.3066 2.70512 23.0777 3.93401C22.6883 4.32344 22.4232 4.7898 22.2857 5.28731C21.0617 4.34967 19.2961 4.44294 18.1686 5.57042C17.7808 5.95985 17.5157 6.42622 17.3749 6.92204C16.151 5.9877 14.3853 6.07928 13.2595 7.20676C12.8782 7.58806 12.6164 8.04292 12.474 8.52731L9.57438 5.62765C8.35693 4.41019 6.37365 4.40858 5.14477 5.63746C3.9257 6.85492 3.9257 8.83819 5.14477 10.0573L16.2851 21.1976L9.67747 22.235C7.89217 22.4903 6.54547 24.0416 6.54547 25.8465C6.54547 27.1998 7.64672 28.3011 9.00002 28.3011H24.4293C26.8331 28.3011 29.0929 27.365 30.7931 25.6649L33.3671 23.0909C35.0656 21.394 36 19.1358 36 16.7352C36 14.4934 35.1687 12.3449 33.66 10.6856ZM32.2101 21.934L29.6362 24.5079C28.2453 25.8988 26.3962 26.6646 24.4292 26.6646H8.99994C8.54831 26.6646 8.18173 26.2981 8.18173 25.8464C8.18173 24.8515 8.92462 23.9957 9.92116 23.8533L18.1276 22.5639C18.4319 22.5164 18.6823 22.3021 18.7789 22.0091C18.8737 21.7179 18.7969 21.3955 18.5792 21.1779L6.30163 8.90032C5.72074 8.31944 5.72074 7.3736 6.30983 6.78289C6.60108 6.49326 6.98238 6.3476 7.36368 6.3476C7.74498 6.3476 8.1262 6.49326 8.41752 6.7845L16.6043 14.9713C16.9234 15.2904 17.4421 15.2904 17.7612 14.9713C17.9199 14.8109 18.0002 14.6015 18.0002 14.392C18.0002 14.1825 17.92 13.9731 17.7596 13.8127L14.4165 10.4696C13.8356 9.88874 13.8356 8.94451 14.4263 8.3538C15.0056 7.77453 15.9531 7.77453 16.5323 8.3538L19.877 11.6985C20.1961 12.0176 20.7149 12.0176 21.034 11.6985C21.1927 11.5381 21.2729 11.3287 21.2729 11.1192C21.2729 10.9098 21.1928 10.7004 21.0324 10.54L19.3256 8.83321C18.7447 8.25232 18.7447 7.30809 19.3354 6.71739C19.9147 6.13812 20.8622 6.13812 21.4414 6.71739L23.1563 8.43227C23.1596 8.43388 23.1579 8.43388 23.1579 8.43388L23.1595 8.43549C23.1611 8.4371 23.1611 8.43711 23.1611 8.43711C23.1628 8.43872 23.1628 8.43872 23.1628 8.43872H23.1644C23.166 8.43872 23.166 8.44033 23.166 8.44033C23.4867 8.74469 23.994 8.73817 24.3065 8.42399C24.6256 8.1049 24.6256 7.58614 24.3065 7.26705L24.2362 7.19671C23.9547 6.91529 23.7993 6.54051 23.7993 6.14287C23.7993 5.74523 23.953 5.37214 24.2444 5.0809C24.8269 4.50162 25.7695 4.50323 26.3242 5.05305L32.4508 11.7867C33.6829 13.1434 34.3636 14.9008 34.3636 16.7352C34.3636 18.6989 33.5994 20.5447 32.2101 21.934Z" fill="#9C9C9C"/>
<path d="M14.0662 4.82375C12.8749 2.18757 10.2437 0.482422 7.36364 0.482422C3.30382 0.482422 0 3.78624 0 7.84606C0 10.7261 1.70507 13.3574 4.34125 14.5503C4.45086 14.5994 4.56546 14.6223 4.67837 14.6223C4.98925 14.6223 5.28709 14.4423 5.42455 14.1412C5.60948 13.7288 5.42616 13.2445 5.01548 13.0579C2.96348 12.1301 1.63642 10.0846 1.63642 7.84606C1.63642 4.68791 4.20548 2.11876 7.36372 2.11876C9.60227 2.11876 11.6477 3.44583 12.5756 5.49783C12.7605 5.91019 13.2465 6.09513 13.6572 5.9069C14.0695 5.72043 14.2527 5.23611 14.0662 4.82375Z" fill="#9C9C9C"/>
</svg>
