<svg width="55" height="54" viewBox="0 0 55 54" fill="none" xmlns="http://www.w3.org/2000/svg">
<path d="M44.1662 28.0908H10.8329C6.85057 28.0908 3.61068 24.9912 3.61068 21.1813C3.61068 17.3715 6.85057 14.2719 10.8329 14.2719H17.4996V16.1542L25.1474 17.3736C27.0755 21.79 31.6368 24.9018 36.944 24.9018C43.4249 24.9018 48.7939 20.2618 49.6131 14.2719H53.0551V11.083H49.6131C48.7939 5.09316 43.4249 0.453125 36.944 0.453125C31.6368 0.453125 27.0755 3.56491 25.1474 7.9813L17.4996 9.20075V11.083H10.8329C5.01257 11.083 0.277344 15.6131 0.277344 21.1813C0.277344 26.7496 5.01257 31.2797 10.8329 31.2797H44.1662C48.1486 31.2797 51.3885 34.3793 51.3885 38.1891C51.3885 41.999 48.1486 45.0985 44.1662 45.0985H26.733C25.991 42.3508 23.378 40.3151 20.2773 40.3151H0.277344V53.0709H20.2773C23.378 53.0709 25.9911 51.0352 26.733 48.2875H44.1662C49.9866 48.2875 54.7218 43.7574 54.7218 38.1891C54.7218 32.6209 49.9866 28.0908 44.1662 28.0908ZM36.944 3.64208C42.1517 3.64208 46.3885 7.69535 46.3885 12.6775C46.3885 17.6596 42.1517 21.7128 36.944 21.7128C31.7364 21.7128 27.4996 17.6596 27.4996 12.6775C27.4996 7.69535 31.7364 3.64208 36.944 3.64208ZM20.8329 11.9022L24.2408 11.3588C24.192 11.7921 24.1662 12.232 24.1662 12.6775C24.1662 13.123 24.192 13.5628 24.2408 13.9961L20.8329 13.4527V11.9022ZM6.94401 49.882H3.61068V43.5041H6.94401V49.882ZM14.5076 49.882H10.2773V43.5041H14.5076C13.9383 44.443 13.6107 45.5317 13.6107 46.693C13.6107 47.8543 13.9383 48.943 14.5076 49.882ZM20.2773 49.882C18.4393 49.882 16.944 48.4514 16.944 46.693C16.944 44.9346 18.4393 43.5041 20.2773 43.5041C22.1153 43.5041 23.6107 44.9346 23.6107 46.693C23.6107 48.4514 22.1153 49.882 20.2773 49.882Z" fill="#9C9C9C"/>
<path d="M36.9431 18.5239C40.3128 18.5239 43.0543 15.9012 43.0543 12.6775C43.0543 9.45377 40.3128 6.83105 36.9431 6.83105C33.5735 6.83105 30.832 9.45377 30.832 12.6775C30.832 15.9012 33.5735 18.5239 36.9431 18.5239ZM36.9431 10.02C38.4748 10.02 39.7209 11.2122 39.7209 12.6775C39.7209 14.1428 38.4748 15.335 36.9431 15.335C35.4115 15.335 34.1654 14.1428 34.1654 12.6775C34.1654 11.2122 35.4115 10.02 36.9431 10.02Z" fill="#9C9C9C"/>
</svg>
