<svg width="65" height="47" viewBox="0 0 65 47" fill="none" xmlns="http://www.w3.org/2000/svg">
<path d="M0.377441 0.866211V42.3038H4.14478V46.0726H7.9091V42.3038H57.0902V46.0726H60.8546V42.3038H64.6219V0.866211H0.377441ZM60.8576 38.5396H4.14176V4.63053H60.8576V38.5396Z" fill="#9C9C9C"/>
<path d="M49.5032 8.40088H45.7363V12.1652H49.5032V8.40088Z" fill="#9C9C9C"/>
<path d="M57.094 8.40088H53.3271V12.1652H57.094V8.40088Z" fill="#9C9C9C"/>
<path d="M49.5032 15.936H45.7363V19.7004H49.5032V15.936Z" fill="#9C9C9C"/>
<path d="M57.094 15.936H53.3271V19.7004H57.094V15.936Z" fill="#9C9C9C"/>
<path d="M49.5032 23.4707H45.7363V27.235H49.5032V23.4707Z" fill="#9C9C9C"/>
<path d="M57.094 23.4707H53.3271V27.235H57.094V23.4707Z" fill="#9C9C9C"/>
<path d="M57.0945 31.0044H45.7363V34.7687H57.0945V31.0044Z" fill="#9C9C9C"/>
<path d="M7.90625 8.39453V34.7688H41.9734V8.39453H7.90625ZM38.209 31.0046H11.6706V12.1589H38.209V31.0046Z" fill="#9C9C9C"/>
</svg>
