<svg width="55" height="55" viewBox="0 0 55 55" fill="none" xmlns="http://www.w3.org/2000/svg">
<path d="M46.9232 8.07678C41.7149 2.8685 34.8169 0 27.5 0C20.1831 0 13.2851 2.8685 8.07678 8.07678C2.8685 13.2851 0 20.1831 0 27.5C0 34.8169 2.8685 41.7149 8.07678 46.9232C13.2851 52.1315 20.1831 55 27.5 55C34.8169 55 41.7149 52.1315 46.9232 46.9232C52.1315 41.7149 55 34.8169 55 27.5C55 20.1831 52.1315 13.2851 46.9232 8.07678ZM27.5 51.7773C14.1134 51.7773 3.22266 40.8866 3.22266 27.5C3.22266 23.3727 4.25911 19.4832 6.0836 16.0764L7.79732 17.3616C8.69362 18.0339 8.98064 19.2491 8.47961 20.2507C7.1104 22.9891 8.21819 26.3133 10.9566 27.6825L17.6029 31.0059C16.8258 31.3873 16.1024 31.8967 15.4696 32.5295C12.3283 35.6708 12.3283 40.7817 15.4696 43.9234L21.327 49.7804L28.7849 43.5659L27.2327 42.0137C27.2701 42.0141 27.3074 42.015 27.3443 42.015C28.257 42.015 29.1739 41.9281 30.0832 41.7527C32.9256 41.2055 35.5101 39.8342 37.5565 37.7873L38.8477 36.4966C42.7489 32.595 43.5642 26.5722 40.9592 21.8008C41.6444 20.5969 42.002 19.2445 42.002 17.832C42.002 13.3895 38.3878 9.77539 33.9453 9.77539C29.5028 9.77539 25.8887 13.3895 25.8887 17.832C25.8887 19.0846 26.1761 20.2717 26.6885 21.3304L24.4053 23.5997L17.8094 20.2633L14.5905 25.8962L12.398 24.8002C11.2554 24.2287 10.7909 22.8347 11.362 21.6921C12.56 19.2961 11.8739 16.3906 9.73133 14.7835L7.79732 13.3329C12.2092 7.21405 19.3968 3.22266 27.5 3.22266C40.8866 3.22266 51.7773 14.1134 51.7773 27.5C51.7773 40.8866 40.8866 51.7773 27.5 51.7773ZM29.1113 17.832C29.1113 15.1666 31.2799 12.998 33.9453 12.998C36.6107 12.998 38.7793 15.1666 38.7793 17.832C38.7793 19.693 37.8704 20.6586 37.0727 21.6938L37.7139 22.6555C40.1284 26.2772 39.6466 31.1402 36.5688 34.2176L35.278 35.5088C32.0893 38.6975 27.3846 39.6571 23.2153 37.9963L22.306 37.087L20.027 39.3655L24.0109 43.3489L21.5247 45.4206L17.7485 41.6444C15.8636 39.7595 15.8636 36.693 17.7485 34.808C19.1765 33.3801 21.3665 32.9903 23.1977 33.8379L23.2035 33.8257L26.2709 35.377L32.1863 29.4852L29.912 27.2017L25.6466 31.4499L17.4775 27.3397L19.0879 24.5216L25.0272 27.5256L28.6653 23.9093C30.0802 25.1405 31.9265 25.8887 33.9453 25.8887V22.666C31.2799 22.666 29.1113 20.4974 29.1113 17.832Z" fill="#9C9C9C"/>
</svg>
