<svg width="40" height="50" viewBox="0 0 40 50" fill="none" xmlns="http://www.w3.org/2000/svg">
<path d="M0.688669 26.7507C0.383317 24.1043 0.637777 21.5495 1.32991 19.1881C3.63023 11.3406 10.8467 5.56942 19.4068 5.46764V0.337718C19.4068 0.0527224 19.763 -0.0999537 19.9971 0.0730793L30.5521 7.82903C30.7251 7.96135 30.7251 8.22598 30.5521 8.34812L20.0073 16.1041C19.763 16.2771 19.4169 16.1244 19.4169 15.8394V10.7197C13.7883 10.8113 8.98407 14.2821 6.91785 19.1881C6.13412 21.0406 5.73716 23.0865 5.84912 25.2341C6.0018 28.1858 7.11124 30.9035 8.86193 33.102C9.79834 34.2725 9.57442 35.9825 8.36319 36.868C7.21303 37.7128 5.60484 37.4787 4.71932 36.3591C2.55132 33.6516 1.10598 30.3538 0.688669 26.7507ZM31.1628 16.898C32.9237 19.0863 34.0331 21.8142 34.1756 24.7659C34.2876 26.9237 33.8805 28.9696 33.1069 30.8119C31.0407 35.7179 26.2365 39.1989 20.6078 39.2803V34.1606C20.6078 33.8756 20.2516 33.7229 20.0175 33.8959L9.46245 41.6519C9.28942 41.7842 9.28942 42.0488 9.46245 42.171L20.0073 49.9269C20.2516 50.0999 20.5976 49.9473 20.5976 49.6623V44.5324C29.1577 44.4408 36.3843 38.6696 38.6745 30.8119C39.3666 28.4505 39.6109 25.8957 39.3157 23.2493C38.9086 19.6462 37.4632 16.3484 35.2952 13.6409C34.3996 12.5213 32.8015 12.2872 31.6514 13.132C30.4503 14.0175 30.2264 15.7275 31.1628 16.898Z" fill="#9C9C9C"/>
</svg>
