<svg width="40" height="55" viewBox="0 0 40 55" fill="none" xmlns="http://www.w3.org/2000/svg">
<path d="M17.7246 6.44531C15.0591 6.44531 12.8906 8.61383 12.8906 11.2793C12.8906 13.9447 15.0591 16.1133 17.7246 16.1133C20.3901 16.1133 22.5586 13.9447 22.5586 11.2793C22.5586 8.61383 20.3901 6.44531 17.7246 6.44531ZM17.7246 12.8906C16.8361 12.8906 16.1133 12.1678 16.1133 11.2793C16.1133 10.3908 16.8361 9.66796 17.7246 9.66796C18.6131 9.66796 19.3359 10.3908 19.3359 11.2793C19.3359 12.1678 18.6131 12.8906 17.7246 12.8906Z" fill="#9C9C9C"/>
<path d="M35.2659 44.9864L23.9013 41.4594V33.2089C23.9294 33.1143 23.9558 33.0191 23.9796 32.9225L28.6726 14.0021C28.8879 13.1294 29.0038 12.2177 29.0038 11.2793C29.0038 5.05988 23.944 0 17.7246 0C12.002 0 7.26149 4.28376 6.54048 9.81308C2.82068 10.5246 0 13.8006 0 17.7247V41.5723C0 46.0147 3.6142 49.6289 8.05663 49.6289H11.5478V55H39.4775V50.7031C39.4775 48.2304 37.6276 45.7193 35.2659 44.9864ZM17.7246 3.22276C22.167 3.22276 25.7812 6.83696 25.7812 11.2794C25.7812 15.7218 22.167 19.336 17.7246 19.336C13.2822 19.336 9.66795 15.7218 9.66795 11.2794C9.66795 6.83696 13.2823 3.22276 17.7246 3.22276ZM8.05663 46.4063C5.39117 46.4063 3.22265 44.2378 3.22265 41.5723V17.7247C3.22265 15.5682 4.64223 13.7376 6.5958 13.1168C6.645 13.4159 6.7059 13.711 6.7782 14.0017C6.77648 14.0021 11.4694 32.9225 11.4694 32.9225C11.4934 33.019 11.5197 33.1143 11.5477 33.2089V46.4063H8.05663ZM14.5975 32.1467L11.8013 20.8741C13.524 21.9414 15.5534 22.5587 17.7246 22.5587C19.8958 22.5587 21.9252 21.9414 23.6478 20.8741L20.8518 32.1467C20.8186 32.2804 20.7749 32.4089 20.7263 32.5347H20.6786V32.6576C20.1748 33.8174 19.0261 34.5899 17.7246 34.5899C16.4231 34.5899 15.2743 33.8174 14.7705 32.6574V32.5346H14.7229C14.6742 32.4089 14.6306 32.2803 14.5975 32.1467ZM20.6787 37.0981V41.0352H14.7705V37.098C15.6611 37.5564 16.6673 37.8125 17.7246 37.8125C18.7818 37.8125 19.7881 37.5564 20.6787 37.0981ZM36.255 51.7774H36.2549H14.7706V44.2578H22.0458L34.3108 48.0643C35.3284 48.38 36.255 49.6378 36.255 50.7031V51.7774Z" fill="#9C9C9C"/>
</svg>
