<svg width="48" height="55" viewBox="0 0 48 55" fill="none" xmlns="http://www.w3.org/2000/svg">
<path d="M42.0324 7.54349C35.7455 7.54349 29.7018 5.23617 25.0145 1.04672L23.8436 0L22.6728 1.04672C17.9855 5.23628 11.9417 7.54359 5.6548 7.54359H0V19.9327C0 27.107 2.03887 34.0968 5.89628 40.146C9.75369 46.1953 15.2308 50.9925 21.7356 54.0192L23.8436 55L25.9515 54.0192C32.4562 50.9925 37.9335 46.1954 41.7909 40.146C45.6483 34.0968 47.6871 27.107 47.6871 19.9327V7.54349H42.0324ZM44.4632 19.9326C44.4632 26.4917 42.5991 32.8819 39.0726 38.4126C35.546 43.9431 30.5385 48.329 24.5914 51.0962L23.8436 51.4441L23.0956 51.0961C17.1485 48.3289 12.1411 43.9431 8.61448 38.4124C5.08793 32.8818 3.22395 26.4916 3.22395 19.9325V10.7673H5.6549C12.3058 10.7673 18.7149 8.47483 23.8437 4.2857C28.9723 8.47462 35.3814 10.7673 42.0325 10.7673H44.4634V19.9326H44.4632Z" fill="#9C9C9C"/>
<path d="M28.7505 22.5956V17.0697H18.936V22.5956H13.4102V32.4101H18.936V37.936H28.7505V32.4102H34.2764V22.5957H28.7505V22.5956ZM31.0526 29.1864H25.5267V34.7123H22.1599V29.1864H16.634V25.8195H22.1599V20.2936H25.5267V25.8195H31.0526V29.1864Z" fill="#9C9C9C"/>
</svg>
