<svg width="33" height="55" viewBox="0 0 33 55" fill="none" xmlns="http://www.w3.org/2000/svg">
<path d="M28.7113 13.0744C28.0684 9.91974 25.578 7.42847 22.4229 6.78604V0H10.5993V6.78604C7.44425 7.42847 4.95341 9.91932 4.31097 13.0744H0.923828V22.7478H32.0984V13.0744H28.7113ZM19.2002 3.22266V6.62407H13.822V3.22266H19.2002ZM12.2107 9.84673H20.8116C22.9151 9.84673 24.7081 11.1962 25.3736 13.0744H7.64861C8.3137 11.1962 10.1071 9.84673 12.2107 9.84673ZM28.8758 19.5252H4.14648V16.2971H28.8758V19.5252Z" fill="#9C9C9C"/>
<path d="M5.22266 51.7773H8.44783V55H5.22266V51.7773Z" fill="#9C9C9C"/>
<path d="M11.6738 51.7773H14.899V55H11.6738V51.7773Z" fill="#9C9C9C"/>
<path d="M18.123 51.7773H21.3486V55H18.123V51.7773Z" fill="#9C9C9C"/>
<path d="M24.5742 51.7773H27.7994V55H24.5742V51.7773Z" fill="#9C9C9C"/>
<path d="M5.22266 45.3269H8.44783V48.5496H5.22266V45.3269Z" fill="#9C9C9C"/>
<path d="M11.6738 45.3269H14.899V48.5496H11.6738V45.3269Z" fill="#9C9C9C"/>
<path d="M18.123 45.3269H21.3486V48.5496H18.123V45.3269Z" fill="#9C9C9C"/>
<path d="M24.5742 45.3269H27.7994V48.5496H24.5742V45.3269Z" fill="#9C9C9C"/>
<path d="M5.22266 38.8762H8.44783V42.0989H5.22266V38.8762Z" fill="#9C9C9C"/>
<path d="M11.6738 38.8762H14.899V42.0989H11.6738V38.8762Z" fill="#9C9C9C"/>
<path d="M18.123 38.8762H21.3486V42.0989H18.123V38.8762Z" fill="#9C9C9C"/>
<path d="M24.5742 38.8762H27.7994V42.0989H24.5742V38.8762Z" fill="#9C9C9C"/>
<path d="M5.22266 32.4258H8.44783V35.6484H5.22266V32.4258Z" fill="#9C9C9C"/>
<path d="M11.6738 32.4258H14.899V35.6484H11.6738V32.4258Z" fill="#9C9C9C"/>
<path d="M18.123 32.4258H21.3486V35.6484H18.123V32.4258Z" fill="#9C9C9C"/>
<path d="M24.5742 32.4258H27.7994V35.6484H24.5742V32.4258Z" fill="#9C9C9C"/>
<path d="M5.22266 25.9756H8.44783V29.1982H5.22266V25.9756Z" fill="#9C9C9C"/>
<path d="M11.6738 25.9756H14.899V29.1982H11.6738V25.9756Z" fill="#9C9C9C"/>
<path d="M18.123 25.9756H21.3486V29.1982H18.123V25.9756Z" fill="#9C9C9C"/>
<path d="M24.5742 25.9756H27.7994V29.1982H24.5742V25.9756Z" fill="#9C9C9C"/>
</svg>
