<svg width="55" height="50" viewBox="0 0 55 50" fill="none" xmlns="http://www.w3.org/2000/svg">
<path d="M55 16.0338C55 7.19275 47.8072 0 38.9662 0C36.4018 0 33.9508 0.587876 31.6815 1.74741C30.1367 2.53658 28.7177 3.58509 27.5 4.82923C26.2824 3.58509 24.8634 2.53669 23.3185 1.74741C21.0491 0.587876 18.5982 0 16.0338 0C7.19275 0 0 7.19275 0 16.0338C0 22.2956 3.30714 28.9464 9.82946 35.8013C15.2754 41.5249 21.9426 46.2959 26.5768 49.2904L27.5 49.887L28.4232 49.2904C29.4571 48.6224 30.486 47.9344 31.494 47.2373C33.7803 48.7085 36.4995 49.5627 39.4145 49.5627C47.5078 49.5627 54.0921 42.9784 54.0921 34.8851C54.0921 32.0032 53.2567 29.313 51.816 27.0429C53.9289 23.2737 55 19.5747 55 16.0338ZM27.5 45.8302C23.0895 42.9198 17.1611 38.5714 12.2941 33.4562C6.39372 27.2552 3.40206 21.3934 3.40206 16.0338C3.40206 9.06865 9.06865 3.40206 16.0338 3.40206C20.0438 3.40206 23.7273 5.24405 26.14 8.4556L27.5 10.2661L28.86 8.4556C31.2727 5.24405 34.9563 3.40206 38.9663 3.40206C45.9315 3.40206 51.5981 9.06865 51.5981 16.0338C51.5981 18.6282 50.8832 21.3686 49.4709 24.2044C46.842 21.7279 43.3027 20.2077 39.4146 20.2077C31.3213 20.2077 24.7371 26.792 24.7371 34.8853C24.7371 38.7921 26.2716 42.3469 28.7693 44.9797C28.3484 45.2653 27.9254 45.5495 27.5 45.8302ZM39.4145 46.1608C33.1971 46.1608 28.139 41.1026 28.139 34.8852C28.139 28.6678 33.1972 23.6096 39.4145 23.6096C45.6317 23.6096 50.69 28.6678 50.69 34.8852C50.69 41.1026 45.6319 46.1608 39.4145 46.1608Z" fill="#9C9C9C"/>
<path d="M41.1181 27.8979H37.716V33.1843H32.4297V36.5864H37.716V41.8726H41.1181V36.5864H46.4044V33.1843H41.1181V27.8979Z" fill="#9C9C9C"/>
</svg>
