<svg width="55" height="55" viewBox="0 0 55 55" fill="none" xmlns="http://www.w3.org/2000/svg">
<g clip-path="url(#clip0)">
<path d="M55 15.123C55 10.341 51.1093 6.45035 46.3274 6.45035C41.5454 6.45035 37.6547 10.341 37.6547 15.123C37.6547 19.3544 40.7016 22.8851 44.716 23.6429V38.8317C44.716 45.9698 38.9085 51.7773 31.7704 51.7773C24.6323 51.7773 18.8248 45.9698 18.8248 38.8317V33.6948C27.5638 32.8795 34.427 25.5051 34.427 16.5572V0H27.9779V3.22266H31.2044V16.5572C31.2044 19.3317 30.3924 21.9204 28.9938 24.0977H5.4332C4.03461 21.9204 3.22266 19.3317 3.22266 16.5572V3.22266H6.44909V0H0V16.5572C0 25.5056 6.86367 32.8795 15.6022 33.6948V38.8317C15.6022 47.7469 22.8553 55 31.7704 55C40.6856 55 47.9387 47.7469 47.9387 38.8317V23.6429C51.9532 22.8851 55 19.3544 55 15.123ZM17.2135 30.5481C13.8222 30.5481 10.7095 29.335 8.28491 27.3204H26.1421C23.7176 29.335 20.6049 30.5481 17.2135 30.5481ZM46.3274 20.573C43.3225 20.573 40.8774 18.1279 40.8774 15.123C40.8774 12.1181 43.3225 9.67342 46.3274 9.67342C49.3327 9.67342 51.7773 12.1181 51.7773 15.123C51.7773 18.1279 49.3327 20.573 46.3274 20.573Z" fill="#9C9C9C"/>
<path d="M44.7148 13.5117H47.94V16.7343H44.7148V13.5117Z" fill="#9C9C9C"/>
</g>
<defs>
<clipPath id="clip0">
<rect width="55" height="55" fill="white"/>
</clipPath>
</defs>
</svg>
