<svg width="55" height="55" viewBox="0 0 55 55" fill="none" xmlns="http://www.w3.org/2000/svg">
<path d="M27.5 0C12.2916 0 0 12.2879 0 27.5C0 42.7088 12.2883 55 27.5 55C42.7084 55 55 42.7121 55 27.5C55 12.2912 42.7117 0 27.5 0ZM3.22266 27.5C3.22266 21.3853 5.49592 15.7922 9.24043 11.5192L18.1877 20.4666L16.6178 22.7481C14.2828 25.397 12.998 28.797 12.998 32.334C12.998 40.3304 19.5036 46.8359 27.5 46.8359C32.148 46.8359 36.2918 44.6376 38.9475 41.2264L43.4808 45.7597C39.2077 49.5042 33.6147 51.7773 27.5 51.7773C14.1134 51.7773 3.22266 40.8866 3.22266 27.5ZM38.1957 35.9169L22.3628 20.084L27.5 12.618L35.8417 24.7412L35.9101 24.8176C37.7603 26.8861 38.7793 29.5555 38.7793 32.334C38.7793 33.586 38.5739 34.7907 38.1957 35.9169ZM36.647 38.9257C34.5964 41.763 31.2604 43.6133 27.5 43.6133C21.2806 43.6133 16.2207 38.5534 16.2207 32.334C16.2207 29.5555 17.2397 26.8861 19.0898 24.8176L19.1582 24.7412L20.505 22.7837L36.647 38.9257ZM45.7596 43.4808L40.6731 38.3944C41.5254 36.5492 42.002 34.4964 42.002 32.334C42.002 28.797 40.7172 25.397 38.3822 22.748L27.5 6.93279L20.0455 17.7666L11.5192 9.24032C15.7923 5.49581 21.3853 3.22266 27.5 3.22266C40.8866 3.22266 51.7773 14.1134 51.7773 27.5C51.7773 33.6147 49.5041 39.2078 45.7596 43.4808Z" fill="#9C9C9C"/>
</svg>
