<svg width="55" height="55" viewBox="0 0 55 55" fill="none" xmlns="http://www.w3.org/2000/svg">
<path d="M52.7214 13.6807L54.9999 11.4022L43.5977 0L41.3192 2.27851L43.6002 4.55997L37.5174 10.6431L33.7157 6.84142L31.4368 9.11993L33.7182 11.4014L15.4079 29.7117L15.0932 37.6282L0 52.7214L2.27851 54.9999L17.3717 39.9067L25.2882 39.592L43.5985 21.2817L45.88 23.5631L48.1585 21.2846L44.3568 17.4829L50.4399 11.3997L52.7214 13.6807ZM23.9009 36.4222L18.3574 36.6425L18.5777 31.0994L31.4359 18.2411L36.7592 23.5639L23.9009 36.4222ZM39.0377 21.2854L33.7145 15.9622L35.9967 13.6799L41.32 19.0031L39.0377 21.2854ZM42.0782 15.2039L39.796 12.9217L45.8791 6.83848L48.1614 9.12077L42.0782 15.2039Z" fill="#9C9C9C"/>
</svg>
