<svg width="15" height="25" viewBox="0 0 15 25" fill="none" xmlns="http://www.w3.org/2000/svg">
<path d="M12.5 0C12.0314 0 2.81904 0 2.5 0C1.1215 0 0 1.31426 0 2.92969V22.0703C0 23.6857 1.1215 25 2.5 25H12.5C13.8785 25 15 23.6857 15 22.0703V2.92969C15 1.31426 13.8785 0 12.5 0ZM13.3333 22.0703C13.3333 22.6088 12.9595 23.0469 12.5 23.0469H2.5C2.0405 23.0469 1.66667 22.6088 1.66667 22.0703V2.92969C1.66667 2.39121 2.0405 1.95312 2.5 1.95312H3.98454L4.15812 2.55757C4.27221 2.95498 4.59013 3.22266 4.94792 3.22266H10.0521C10.4099 3.22266 10.7278 2.95498 10.8419 2.55757L11.0155 1.95312H12.5C12.9595 1.95312 13.3333 2.39121 13.3333 2.92969V22.0703Z" fill="#9C9C9C"/>
</svg>
