<svg width="55" height="55" viewBox="0 0 55 55" fill="none" xmlns="http://www.w3.org/2000/svg">
<path d="M27.4291 4.26448C32.5653 4.26448 37.394 6.24949 41.0258 9.85394L44.0641 6.83863C39.6208 2.42862 33.713 0 27.4291 0C21.1453 0 15.2376 2.42862 10.7942 6.83863L13.8325 9.85394C17.4643 6.24949 22.2931 4.26448 27.4291 4.26448Z" fill="#9C9C9C"/>
<path d="M38.025 12.8317C35.1947 10.0228 31.4315 8.47571 27.4287 8.47571C23.426 8.47571 19.6629 10.0228 16.8325 12.8318L19.8708 15.8471C21.8896 13.8435 24.5738 12.7401 27.4287 12.7401C30.2838 12.7401 32.9678 13.8436 34.9866 15.8472L38.025 12.8317Z" fill="#9C9C9C"/>
<path d="M49.2579 7.71484L44.9999 11.9405H48.5547C49.7393 11.9405 50.7031 12.8971 50.7031 14.0728V39.6599C50.7031 40.8356 49.7393 41.7921 48.5547 41.7921H6.44531C5.26066 41.7921 4.29688 40.8356 4.29688 39.6599V14.0728C4.29688 12.8971 5.26066 11.9405 6.44531 11.9405H9.85821L5.61623 7.73073C2.45276 8.13596 0 10.8245 0 14.0728V39.6599C0 43.187 2.89137 46.0566 6.44531 46.0566H25.3516V50.3211H14.1797V54.5856H40.8203V50.3211H29.6484V46.0566H48.5547C52.1086 46.0566 55 43.187 55 39.6599V14.0728C55 10.7815 52.4821 8.06368 49.2579 7.71484Z" fill="#9C9C9C"/>
<path d="M22.8713 18.8249L25.9097 21.8405C26.3155 21.4377 26.855 21.2159 27.4288 21.2159C28.0028 21.2159 28.5423 21.4377 28.948 21.8403L31.9865 18.825C30.769 17.6168 29.1505 16.9514 27.4288 16.9514C25.7073 16.9514 24.0888 17.6168 22.8713 18.8249Z" fill="#9C9C9C"/>
</svg>
