<svg width="25" height="24" viewBox="0 0 25 24" fill="none" xmlns="http://www.w3.org/2000/svg">
<g clip-path="url(#clip0)">
<path d="M21.9141 20.2734H17.3992C16.5756 20.2734 15.8001 19.953 15.2153 19.3708L13.6463 17.8019C13.3444 17.4984 12.9274 17.3256 12.5 17.3256C12.0724 17.3256 11.6554 17.4984 11.356 17.7994L9.78584 19.3695C9.19991 19.953 8.42438 20.2734 7.60078 20.2734H3.0859C1.40858 20.2734 0 18.9177 0 17.1875V7.7734C0 6.05011 1.40228 4.6875 3.0859 4.6875H21.9141C23.5914 4.6875 25 6.04343 25 7.7734V17.1875C25 18.911 23.5977 20.2734 21.9141 20.2734ZM12.5 15.8607C13.3146 15.8607 14.11 16.1909 14.6824 16.7662L16.2502 18.3342C16.5571 18.6396 16.9655 18.8086 17.3992 18.8086H21.9141C22.7949 18.8086 23.5352 18.0956 23.5352 17.1875V7.7734C23.5352 6.86493 22.7943 6.15234 21.9141 6.15234H3.0859C2.20509 6.15234 1.46484 6.86531 1.46484 7.7734V17.1875C1.46484 18.0962 2.20566 18.8086 3.0859 18.8086H7.60078C8.03432 18.8086 8.44288 18.6396 8.75111 18.3327L10.3201 16.7639C10.89 16.1909 11.6854 15.8607 12.5 15.8607Z" fill="#9C9C9C"/>
<path d="M7.00826 15.5664C5.30672 15.5664 3.92236 14.1821 3.92236 12.4805C3.92236 10.779 5.30672 9.39445 7.00826 9.39445C8.71 9.39445 10.0944 10.779 10.0944 12.4805C10.0944 14.1821 8.71 15.5664 7.00826 15.5664ZM7.00826 10.8593C6.11448 10.8593 5.38721 11.5866 5.38721 12.4805C5.38721 13.3743 6.11448 14.1016 7.00826 14.1016C7.90224 14.1016 8.62951 13.3743 8.62951 12.4805C8.62951 11.5866 7.90224 10.8593 7.00826 10.8593Z" fill="#9C9C9C"/>
<path d="M17.9916 15.5664C16.2899 15.5664 14.9055 14.1821 14.9055 12.4805C14.9055 10.779 16.2899 9.39445 17.9916 9.39445C19.6932 9.39445 21.0775 10.779 21.0775 12.4805C21.0775 14.1821 19.6932 15.5664 17.9916 15.5664ZM17.9916 10.8593C17.0976 10.8593 16.3704 11.5866 16.3704 12.4805C16.3704 13.3743 17.0976 14.1016 17.9916 14.1016C18.8854 14.1016 19.6127 13.3743 19.6127 12.4805C19.6127 11.5866 18.8854 10.8593 17.9916 10.8593Z" fill="#9C9C9C"/>
</g>
<defs>
<clipPath id="clip0">
<rect width="25" height="25" fill="white"/>
</clipPath>
</defs>
</svg>
