<svg width="65" height="65" viewBox="0 0 65 65" fill="none" xmlns="http://www.w3.org/2000/svg">
<path d="M56.7098 41.9906V16.7847H52.9455V41.9906H11.299V16.7847H7.53467V41.9906H0V64.5916H64.2444V41.9906H56.7098ZM60.4801 60.8272H3.76432V45.7549H60.4801V60.8272Z" fill="#9C9C9C"/>
<path d="M11.3 49.5254H7.5332V53.2897H11.3V49.5254Z" fill="#9C9C9C"/>
<path d="M18.8342 49.5254H15.0674V53.2897H18.8342V49.5254Z" fill="#9C9C9C"/>
<path d="M26.3694 49.5254H22.6025V53.2897H26.3694V49.5254Z" fill="#9C9C9C"/>
<path d="M56.7107 53.2925H37.874V57.0568H56.7107V53.2925Z" fill="#9C9C9C"/>
<path d="M24.5195 21.2155L27.1813 23.8773C29.9057 21.153 34.3385 21.153 37.0629 23.8773L39.7247 21.2155C35.5327 17.0232 28.7115 17.0232 24.5195 21.2155Z" fill="#9C9C9C"/>
<path d="M18.25 14.9462L20.9118 17.608C27.093 11.4269 37.1503 11.4269 43.3316 17.608L45.9933 14.9462C38.3445 7.29723 25.8989 7.29723 18.25 14.9462Z" fill="#9C9C9C"/>
<path d="M32.1222 0.347168C24.506 0.347168 17.3531 3.30555 11.9814 8.67736L14.6432 11.3391C24.2811 1.70107 39.9633 1.70107 49.6012 11.3391L52.263 8.67736C46.8913 3.30555 39.7384 0.347168 32.1222 0.347168Z" fill="#9C9C9C"/>
</svg>
