<?xml version="1.0" standalone="no"?>
<!DOCTYPE svg PUBLIC "-//W3C//DTD SVG 1.1//EN" "http://www.w3.org/Graphics/SVG/1.1/DTD/svg11.dtd" >
<svg>
<metadata>
Created by FontForge 20090914 at Sat Aug 26 15:19:39 2017
 By www-data
Copyright 1993-1995 AG Fonts, Tilde Ltd. Created by Andrejs Grinbergs.
</metadata>
<defs>
<font id="AGPalatialRoman" horiz-adv-x="500" >
  <font-face 
    font-family="AGPalatial"
    font-weight="400"
    font-stretch="normal"
    units-per-em="1000"
    panose-1="0 0 0 0 0 0 0 0 0 0"
    ascent="800"
    descent="-200"
    x-height="459"
    cap-height="693.999"
    bbox="-13.999 -283.002 1147 921.999"
    underline-thickness="20"
    underline-position="-176"
    unicode-range="U+0020-U+2122"
  />
<missing-glyph horiz-adv-x="800" 
d="M50 0v800h700v-800h-700zM700 50v700h-600v-700h600z" />
    <glyph glyph-name=".notdef" horiz-adv-x="800" 
d="M50 0v800h700v-800h-700zM700 50v700h-600v-700h600z" />
    <glyph glyph-name="space" unicode=" " horiz-adv-x="250" 
 />
    <glyph glyph-name="exclam" unicode="!" horiz-adv-x="278" 
d="M196 669l-36 -420.999v-25l-28 -23l-10 5l-2 40l-30 331c0 13.333 -0.333008 26.666 -1 39.999l-2 40c9.33301 6 18.833 11.333 28.5 16s19.5 9.66699 29.5 15l17 7h32zM197 52.001c0 -15.333 -5.66797 -28.667 -17.001 -40s-24.666 -17 -39.999 -17
c-14.667 0 -28.167 5.33301 -40.5 16s-18.5 23.667 -18.5 39c0 18 5.33301 32.667 16 44s24.667 17 42 17c15.333 0 28.833 -5.83301 40.5 -17.5s17.5 -25.5 17.5 -41.5z" />
    <glyph glyph-name="quotedbl" unicode="&#x22;" horiz-adv-x="371" 
d="M319 650l-33 -196h-20l-33 196c-2 10 1.5 19.833 10.5 29.5s19.833 14.5 32.5 14.5c12 0 22.667 -4.66699 32 -14s13 -19.333 11 -30zM138 650l-33 -196h-20l-33 196c-2 10 1.5 19.833 10.5 29.5s19.833 14.5 32.5 14.5c12 0 22.667 -4.66699 32 -14s13 -19.333 11 -30z
" />
    <glyph glyph-name="numbersign" unicode="#" 
d="M495 418h-105l-20 -138h100v-57h-109l-31 -223h-58l31 223h-134l-33 -223h-58l33 223h-107v57h116l21 138h-110v57h118l31 209h58l-31 -209h133l30 209h58l-30 -209h97v-57zM332 418h-133l-21 -138h134z" />
    <glyph glyph-name="dollar" unicode="$" 
d="M471 208c0 -52 -16.332 -98.166 -48.999 -138.499s-74.334 -66.166 -125.001 -77.499l-37 -8l4 -100h-45l4 98c-27.333 0 -57.333 3.16699 -90 9.5s-67 17.166 -103 32.499c4 24.667 7.33301 49.667 10 75s4 49.666 4 72.999h30l1 -64c0 -14 0.666992 -22.667 2 -26
c16.667 -20 38.334 -35.5 65.001 -46.5s53.667 -16.5 81 -16.5v278c-64.667 7.33301 -110.334 19.666 -137.001 36.999c-37.333 24.667 -56 66 -56 124s17.333 105.167 52 141.5s81.667 58.5 141 66.5l-4 65h45l-4 -62c30 0 58.667 -3.16699 86 -9.5
s53.333 -16.833 78 -31.5c1.33301 -7.33301 0.5 -15.666 -2.5 -24.999s-5.16699 -24 -6.5 -44s-2 -39.667 -2 -59h-32v42v18l-3 18c-5.33301 16 -20.5 29.167 -45.5 39.5s-49.167 15.5 -72.5 15.5v-260c68.667 -6.66699 117.667 -18.667 147 -36
c42.667 -25.333 64 -68.333 64 -129zM223.001 379.001v250.999c-37.333 0 -66.333 -13 -87 -39s-31 -58.667 -31 -98c0 -37.333 10 -64.666 30 -81.999s49.333 -28 88 -32zM392.001 171c0 40 -12.333 69.667 -37 89c-20 16 -51.667 26.667 -95 32v-272
c36 3.33301 67 19.333 93 48s39 63 39 103z" />
    <glyph glyph-name="percent" unicode="%" horiz-adv-x="840" 
d="M761 207c0 -59.333 -16.5 -112.001 -49.5 -158.001s-72.167 -69 -117.5 -69c-39.333 0 -70.5 13.167 -93.5 39.5s-34.5 59.5 -34.5 99.5c0 54.667 19 103.834 57 147.501s80 65.5 126 65.5c36 0 63.667 -11.667 83 -35s29 -53.333 29 -90zM637 688.999l-388 -709h-46
l339 621c-16 -7.33301 -32.833 -12.333 -50.5 -15s-36.5 -4 -56.5 -4c-10.667 0 -20.667 1.33301 -30 4s-21 6.66699 -35 12c0.666992 -6.66699 1.5 -14.334 2.5 -23.001s1.5 -19 1.5 -31c0 -53.333 -16.667 -102.666 -50 -147.999c-35.333 -48 -76 -72 -122 -72
c-36.667 0 -66.334 13.667 -89.001 41s-34 61 -34 101c0 51.333 17.667 99 53 143c38 47.333 81.667 71 131 71c17.333 0 53.666 -16 108.999 -48c26.667 -15.333 52.334 -23 77.001 -23c31.333 0 61.333 7 90 21s50.334 33.667 65.001 59h33zM731 196.999
c0 40.667 -7 68.999 -21 84.999c-11.333 13.333 -28.333 20 -51 20c-36 0 -67.333 -28 -94 -84c-22.667 -47.333 -34 -91.333 -34 -132c0 -21.333 6 -39.333 18 -54s28.333 -22 49 -22c36 0 68 22.667 96 68c24.667 40.667 37 80.334 37 119.001zM345 544.998
c0 40.667 -7 68.999 -21 84.999c-11.333 13.333 -28.333 20 -51 20c-36 0 -67.333 -28 -94 -84c-22.667 -47.333 -34 -91.333 -34 -132c0 -21.333 6 -39.333 18 -54s28.333 -22 49 -22c36 0 68 22.667 96 68c24.667 40.667 37 80.334 37 119.001z" />
    <glyph glyph-name="ampersand" unicode="&#x26;" horiz-adv-x="778" 
d="M753 49c-14 -8.66699 -26.3359 -16.6709 -37.0029 -24.0039c-14 -10 -30 -23.333 -48 -40c-13.333 -2.66699 -28.666 -4 -45.999 -4c-22.667 0 -51.167 7.66699 -85.5 23s-62.833 33 -85.5 53c-29.333 -24.667 -60.833 -43.667 -94.5 -57s-68.5 -20 -104.5 -20
c-62.667 0 -113.167 18.167 -151.5 54.5s-57.5 82.5 -57.5 138.5c0 46.667 15.333 89 46 127c26.667 32.667 63 61.667 109 87c-20 46 -30 88.667 -30 128c0 18 2.83301 34.833 8.5 50.5s14.167 29.167 25.5 40.5l47 46c16.667 13.333 25.667 20.333 27 21
c16 10.667 33.667 16 53 16c30 0 53.333 -7.83301 70 -23.5s25 -38.5 25 -68.5c0 -38 -16 -76.333 -48 -115c-24 -29.333 -56 -57.666 -96 -84.999c28 -46 59.333 -90.667 94 -134c30.667 -38 67.334 -78.667 110.001 -122c16.667 20.667 29.167 42.834 37.5 66.501
s12.5 44.834 12.5 63.501c0 22 -5 39.667 -15 53c-3.33301 4.66699 -7.16602 7.5 -11.499 8.5s-11.166 1.5 -20.499 1.5l-63 4l-3 6l30 45l97 -2l194 3c-8 -22 -12 -44.667 -12 -68c-35.333 7.33301 -69.333 11 -102 11h-24c-6.66699 -1.33301 -11.334 -2 -14.001 -2
c2 -4.66699 3.33301 -11.167 4 -19.5s1 -16.166 1 -23.499c0 -30.667 -8 -61.334 -24 -92.001c-13.333 -25.333 -32.333 -51.333 -57 -78c36.667 -21.333 64.667 -36 84 -44c30.667 -12.667 59 -19 85 -19c12.667 0 24 1.66699 34 5
c1.33301 0.666992 11.333 5.33398 30 14.001zM356.997 565.996c0 17.333 -4.33105 32.667 -12.998 46c-10.667 16 -24.334 24 -41.001 24c-26.667 0 -44.167 -8 -52.5 -24s-12.5 -37.333 -12.5 -64c0 -14.667 2.83301 -33.5 8.5 -56.5s11.5 -43.167 17.5 -60.5
c21.333 14 42.166 34.5 62.499 61.5s30.5 51.5 30.5 73.5zM419.999 81.9971c-49.333 55.333 -86.332 98.333 -110.999 129c-39.333 49.333 -71.333 96.333 -96 141c-28 -20.667 -48.333 -41.334 -61 -62.001c-14.667 -23.333 -22 -51 -22 -83
c0 -45.333 16.5 -85.166 49.5 -119.499s72.167 -51.5 117.5 -51.5c21.333 0 42.166 4 62.499 12s40.5 19.333 60.5 34z" />
    <glyph glyph-name="quotesingle" unicode="'" horiz-adv-x="208" 
d="M147 650l-33 -196h-20l-33 196c-2 10 1.5 19.833 10.5 29.5s19.833 14.5 32.5 14.5c12 0 22.667 -4.66699 32 -14s13 -19.333 11 -30z" />
    <glyph glyph-name="parenleft" unicode="(" horiz-adv-x="333" 
d="M301 -97l-25.002 -19.001c-71.333 56.667 -125.166 121.334 -161.499 194.001s-54.5 149.667 -54.5 231c0 171.333 74 312 222 422l19 -23c-55.333 -54 -95.666 -114.333 -120.999 -181c-22.667 -60.667 -34 -130.667 -34 -210c0 -34 2.33301 -69.833 7 -107.5
s12 -71.667 22 -102s24 -60.5 42 -90.5c16 -26 36 -53.667 60 -83z" />
    <glyph glyph-name="parenright" unicode=")" horiz-adv-x="333" 
d="M273 309c0 -82 -19.668 -159.333 -59.001 -232c-36.667 -68.667 -91 -133 -163 -193l-19 19c103.333 113.333 155 251.333 155 414c0 70 -11.333 136.667 -34 200c-26 73.333 -66.333 137 -121 191l25 23c66.667 -51.333 119.334 -114 158.001 -188s58 -152 58 -234z" />
    <glyph glyph-name="asterisk" unicode="*" horiz-adv-x="389" 
d="M369 482l-8 -5l-149 23l68 -122v-10l-59 -31l-18 5l-19 146l-104 -99l-15 4l-33 58l5 9l131 54l-131 64l-7 7l38 61h15l100 -104l26 143l9 4l62 -19l3 -15l-69 -125l139 24l6 -4z" />
    <glyph glyph-name="plus" unicode="+" horiz-adv-x="606" 
d="M555 233h-224v-226h-56v226h-224v56h224v223h56v-223h224v-56z" />
    <glyph glyph-name="comma" unicode="," horiz-adv-x="250" 
d="M218 109c-11.333 -32 -26.333 -64.333 -45 -97c-22.667 -40.667 -56.667 -90 -102 -148l-41 -19l-14 11c36 58.667 60 105.334 72 140.001s18 67 18 97c22.667 5.33301 36 8.66602 40 9.99902s15.333 5.33301 34 12l24 8z" />
    <glyph glyph-name="hyphen" unicode="-" horiz-adv-x="333" 
d="M312 282l-30 -67h-260l-5 5l27 67h263z" />
    <glyph glyph-name="period" unicode="." horiz-adv-x="250" 
d="M183 53c0 -16 -5.66699 -29.667 -17 -41s-25.333 -17 -42 -17c-15.333 0 -28.666 5.66699 -39.999 17s-17 25 -17 41c0 14.667 5.66699 28 17 40s24.666 18 39.999 18s29 -5.66699 41 -17s18 -25 18 -41z" />
    <glyph glyph-name="slash" unicode="/" horiz-adv-x="606" 
d="M519 731l-372 -847h-60l372 847h60z" />
    <glyph glyph-name="zero" unicode="0" 
d="M465 377c0 -69.333 -4.00195 -126.332 -12.002 -170.999c-12 -66.667 -33.333 -119 -64 -157c-37.333 -46 -87.666 -69 -150.999 -69c-70 0 -122.333 27.333 -157 82s-52 140.667 -52 258c0 137.333 23.333 235.666 70 294.999c38.667 49.333 94.334 74 167.001 74
c68.667 0 119.667 -28.667 153 -86c30.667 -52.667 46 -128 46 -226zM380.998 313.001c0 110 -8.00195 190.668 -24.002 242.001c-20.667 66 -57 99 -109 99c-43.333 0 -75.666 -18.333 -96.999 -55c-25.333 -43.333 -38 -127 -38 -251c0 -108 9 -188 27 -240
c22 -63.333 59 -95 111 -95c40.667 0 71.334 18.667 92.001 56c25.333 45.333 38 126.666 38 243.999z" />
    <glyph glyph-name="one" unicode="1" 
d="M395 -5c-20.667 0 -37.667 0.331055 -51 0.998047c-52 2.66699 -81 4 -87 4c-20 0 -46.333 -0.833008 -79 -2.5s-52 -2.5 -58 -2.5v30c27.333 0 48 1.5 62 4.5s22.333 8.16699 25 15.5s4.66699 16.5 6 27.5s2 25.167 2 42.5v466c0.666992 8.66699 1 15 1 19
c0 10.667 -3.33301 15 -10 13l-132 -59l-8 2l-6 42l7 3l98 37l127 46h19c-4 -29.333 -6.83301 -80.5 -8.5 -153.5s-2.5 -211.5 -2.5 -415.5c0 -11.333 0.166992 -22.666 0.5 -33.999s2.33301 -21.666 6 -30.999s13.167 -15.833 28.5 -19.5s35.333 -5.5 60 -5.5v-30z" />
    <glyph glyph-name="two" unicode="2" 
d="M468 3l-4 -8.00195c-34 0 -61.667 0.333008 -83 1c-84.667 2.66699 -131.667 4 -141 4c-34.667 0 -78.834 -0.833008 -132.501 -2.5s-84.167 -2.5 -91.5 -2.5v28l21 24c2 2 14.333 15 37 39l184 200c55.333 68.667 83 130.334 83 185.001c0 42 -12 76 -36 102
s-56.667 39 -98 39c-24.667 0 -47.667 -3.5 -69 -10.5s-36 -19.833 -44 -38.5c-2.66699 -3.33301 -5 -8.66602 -7 -15.999s-4 -13.333 -6 -18l-13 -46h-29l6 41l11 95c21.333 24 46.333 41.667 75 53s60.334 17 95.001 17c68.667 0 121 -18.667 157 -56
c32 -33.333 48 -77 48 -131c0 -38 -10.667 -76.667 -32 -116c-17.333 -32.667 -42 -65 -74 -97l-42 -44l-96 -95l-65 -73h211c30 0 56.167 0.666992 78.5 2s39.833 3.66602 52.5 6.99902l4 -8c-2 -12 -3 -24.667 -3 -38s1 -25.666 3 -36.999z" />
    <glyph glyph-name="three" unicode="3" 
d="M462 223c0 -61.333 -29.168 -116.501 -87.501 -165.501s-123.833 -73.5 -196.5 -73.5c-37.333 0 -80 8.66699 -128 26c-4 42.667 -15.667 91.334 -35 146.001l27 10c15.333 -48.667 36.833 -84.334 64.5 -107.001s66.167 -34 115.5 -34
c44.667 0 80.334 16.167 107.001 48.5s40 71.5 40 117.5c0 45.333 -11 80.833 -33 106.5s-55.333 38.5 -100 38.5c-34.667 0 -62 -7.33301 -82 -22l-7 6l12 53l44 -3c40 0 72.667 14.333 98 43c23.333 26 35 57.333 35 94c0 33.333 -11.5 60.833 -34.5 82.5
s-51.833 32.5 -86.5 32.5c-39.333 0 -72 -11.667 -98 -35c-23.333 -21.333 -38 -49 -44 -83h-30l29 118c20.667 22.667 44.667 39.5 72 50.5s57.333 16.5 90 16.5c56 0 100.667 -13.667 134 -41s50 -64 50 -110c0 -29.333 -10.667 -58.666 -32 -87.999
c-18.667 -25.333 -44.667 -50 -78 -74c50.667 -7.33301 89 -23.333 115 -48s39 -59.667 39 -105z" />
    <glyph glyph-name="four" unicode="4" 
d="M472 177c-24 2.66699 -55.668 3.99805 -95.001 3.99805h-15c0 -69.333 4.83301 -112.666 14.5 -129.999s37.5 -26 83.5 -26v-30c-19.333 0 -45.666 0.833008 -78.999 2.5s-53.666 2.5 -60.999 2.5c-21.333 0 -48.833 -0.833008 -82.5 -2.5s-52.834 -2.5 -57.501 -2.5v30
c47.333 0 76 9.33301 86 28c8 14.667 12 57.334 12 128.001h-265l-8 23l45 82l49 84l137 217l11 16l42 64l70 22l13 -7l-6 -98l-4 -341h30h11c28 0 51 1.33301 69 4v-70zM277.999 242.998v349l-145 -238l-65 -111h24h186z" />
    <glyph glyph-name="five" unicode="5" 
d="M459 252c0 -75.333 -29.833 -139.496 -89.5 -192.496s-126.834 -79.5 -201.501 -79.5c-17.333 0 -35.333 2.16699 -54 6.5s-36.667 12.166 -54 23.499l-47 127l24 14c0.666992 -1.33301 10 -18.333 28 -51c8 -14.667 14 -25 18 -31c10 -13.333 27.167 -24 51.5 -32
s46.5 -12 66.5 -12c56.667 0 99.667 15.5 129 46.5s44 73.833 44 128.5c0 54 -13.667 97 -41 129s-65.666 48 -114.999 48c-25.333 0 -45.5 -3.33301 -60.5 -10s-31.5 -19.334 -49.5 -38.001l-13 -13l-20 6c2.66699 20 4 78.333 4 175v187l5 5
c26.667 0 60.667 -0.833008 102 -2.5s65.333 -2.5 72 -2.5c27.333 0 49.333 0.333008 66 1c66.667 2.66699 102.667 4 108 4l5 -5c-2.66699 -12.667 -4 -26.334 -4 -41.001s1.33301 -27.334 4 -38.001l-11 -5l-192 3h-107c-3.33301 -21.333 -5.66602 -49.5 -6.99902 -84.5
s-2 -67.5 -2 -97.5v-25c24.667 16 46.667 27.667 66 35c25.333 10 50 15 74 15c59.333 0 107.666 -17.333 144.999 -52s56 -82 56 -142z" />
    <glyph glyph-name="six" unicode="6" 
d="M468 218c0 -68.667 -21.5 -125.5 -64.5 -170.5s-96.833 -67.5 -161.5 -67.5c-71.333 0 -125.333 27.333 -162 82c-32 48 -48 109.333 -48 184c0 110 32.333 204.5 97 283.5s150.667 132.167 258 159.5l35 -19c-91.333 -28.667 -160.333 -69.667 -207 -123
s-74.667 -125.333 -84 -216c50 38 80.333 59.333 91 64c20.667 9.33301 44 14 70 14c55.333 0 98.5 -17.5 129.5 -52.5s46.5 -81.167 46.5 -138.5zM382 185c0 46 -9.99902 83.667 -29.999 113c-23.333 34 -57 51 -101 51c-24 0 -47.833 -6.66699 -71.5 -20
s-39.834 -30.333 -48.501 -51c-2.66699 -6 -4.66699 -14.333 -6 -25s-2 -19.667 -2 -27v-18c0 -52 8.66699 -95 26 -129c22.667 -44 57.667 -66 105 -66c42.667 0 75.667 18.667 99 56c19.333 31.333 29 70 29 116z" />
    <glyph glyph-name="seven" unicode="7" 
d="M497 659l-121 -216c-53.333 -96 -93.666 -171.333 -120.999 -226c-40.667 -82 -73.334 -156 -98.001 -222l-29 3c-6.66699 0.666992 -13 1 -19 1c-8 0 -14.833 -0.333008 -20.5 -1s-13.5 -1.66699 -23.5 -3l-9 15c8 12 24 37.667 48 77l29 47l160 256l54 91l62 122h-87
h-180c-26.667 0 -43.334 -4.66699 -50.001 -14c-4 -5.33301 -7.66699 -24 -11 -56l-4 -25l-3 -31h-30v207l10 5c31.333 0 73.333 -0.833008 126 -2.5s84.334 -2.5 95.001 -2.5c34.667 0 62.667 0.333008 84 1c85.333 2.66699 131.333 4 138 4v-30z" />
    <glyph glyph-name="eight" unicode="8" 
d="M464 206c0 -63.333 -23.5 -116.833 -70.5 -160.5s-102.167 -65.5 -165.5 -65.5c-56.667 0 -103.834 16.333 -141.501 49s-56.5 77 -56.5 133c0 41.333 13 78.166 39 110.499s59 56.5 99 72.5c-38 23.333 -65.667 46 -83 68c-21.333 26.667 -32 57 -32 91
c0 57.333 19.667 102.5 59 135.5s88.333 49.5 147 49.5c50 0 91 -11.667 123 -35c36 -26 54 -63 54 -111c0 -33.333 -13.333 -65 -40 -95c-17.333 -19.333 -45 -41.666 -83 -66.999c62.667 -28 104.334 -56.333 125.001 -85c17.333 -24.667 26 -54.667 26 -90zM368 532
c0 37.333 -10.667 67.3311 -32 89.998s-50.333 34 -87 34c-37.333 0 -66.833 -10.167 -88.5 -30.5s-32.5 -48.833 -32.5 -85.5c0 -26 10 -49.667 30 -71c16 -17.333 37.667 -32.666 65 -45.999l55 -27c28 16.667 49.333 35.334 64 56.001c17.333 24 26 50.667 26 80z
M385 163.998c0 32 -9.66699 58.666 -29 79.999c-13.333 14.667 -37.333 31.667 -72 51c-24.667 14 -51.334 26 -80.001 36c-68.667 -38 -103 -94 -103 -168c0 -46 13 -82.333 39 -109s61.667 -40 107 -40c38.667 0 71.334 15.333 98.001 46s40 65.334 40 104.001z" />
    <glyph glyph-name="nine" unicode="9" 
d="M461 421c0 -105.333 -28.999 -195.332 -86.999 -269.999c-63.333 -81.333 -156 -138.333 -278 -171l-32 17v8c87.333 19.333 158.666 58 213.999 116c58.667 62 88 135.333 88 220c-44 -36.667 -68 -56.334 -72 -59.001c-26.667 -17.333 -56.334 -26 -89.001 -26
c-56.667 0 -101.667 19.667 -135 59c-30.667 36.667 -46 84 -46 142c0 65.333 20.667 120.333 62 165s94.333 67 159 67c66.667 0 119.334 -24.167 158.001 -72.5s58 -113.5 58 -195.5zM372.001 466.001c0 48.667 -9.33398 90.334 -28.001 125.001
c-23.333 43.333 -57.666 65 -102.999 65c-48 0 -83 -17.667 -105 -53c-18 -28.667 -27 -67.334 -27 -116.001c0 -46 10.333 -84.667 31 -116c24 -36 58 -54 102 -54c38.667 0 70 14.667 94 44s36 64.333 36 105z" />
    <glyph glyph-name="colon" unicode=":" horiz-adv-x="250" 
d="M182 397c0 -14.667 -5.33398 -27.665 -16.001 -38.998s-23.667 -17 -39 -17s-29.333 5.5 -42 16.5s-19 24.167 -19 39.5s5.5 29.166 16.5 41.499s24.167 18.5 39.5 18.5c16.667 0 30.834 -5.83301 42.501 -17.5s17.5 -25.834 17.5 -42.501zM181.999 51.002
c0 -14.667 -5.33398 -27.665 -16.001 -38.998s-23.667 -17 -39 -17s-29.333 5.5 -42 16.5s-19 24.167 -19 39.5s5.5 29.166 16.5 41.499s24.167 18.5 39.5 18.5c16.667 0 30.834 -5.83301 42.501 -17.5s17.5 -25.834 17.5 -42.501z" />
    <glyph glyph-name="semicolon" unicode=";" horiz-adv-x="250" 
d="M207 397c0 -14.667 -5.66797 -27.665 -17.001 -38.998s-24.666 -17 -39.999 -17s-29.333 5.5 -42 16.5s-19 24.167 -19 39.5s5.5 29.166 16.5 41.499s24.167 18.5 39.5 18.5c16.667 0 31.167 -5.83301 43.5 -17.5s18.5 -25.834 18.5 -42.501zM217.999 111.002
c-11.333 -32 -26.333 -64.333 -45 -97c-22.667 -40.667 -56.667 -90 -102 -148l-41 -19l-14 11c36 58.667 60 105.334 72 140.001s18 67 18 97c22.667 5.33301 36 8.66602 40 9.99902s15.333 5.33301 34 12l24 8z" />
    <glyph glyph-name="less" unicode="&#x3c;" horiz-adv-x="606" 
d="M558 2l-501 234v54l501 234v-60l-432 -203l432 -199v-60z" />
    <glyph glyph-name="equal" unicode="=" horiz-adv-x="606" 
d="M555 331h-504v55h504v-55zM555 136h-504v55h504v-55z" />
    <glyph glyph-name="greater" unicode="&#x3e;" horiz-adv-x="606" 
d="M549 234l-501 -234v60l432 199l-432 203v60l501 -234v-54z" />
    <glyph glyph-name="question" unicode="?" horiz-adv-x="444" 
d="M395 538c0 -38.667 -17.333 -77.333 -52 -116l-98 -92c-36 -34 -54 -62.667 -54 -86c0 -10 2.33301 -19.333 7 -28c2.66699 -5.33301 7.66699 -12.333 15 -21l-21 -14c-29.333 16.667 -44 41 -44 73c0 28.667 25.667 71.334 77 128.001s77 102 77 136
c0 31.333 -11.167 57.5 -33.5 78.5s-50.833 31.5 -85.5 31.5c-33.333 0 -55.666 -4.66699 -66.999 -14c-6 -4.66699 -17.667 -24.334 -35 -59.001l-9 -17l-29 8l38 113c21.333 10.667 42.166 19.167 62.499 25.5s41.166 9.5 62.499 9.5c52.667 0 96.334 -13 131.001 -39
c38.667 -28.667 58 -67.667 58 -117zM257 53.001c0 -16 -5.66699 -29.667 -17 -41s-25.333 -17 -42 -17c-16 0 -29.833 5.83301 -41.5 17.5s-17.5 25.167 -17.5 40.5c0 17.333 5.66699 31.333 17 42s25.333 16 42 16c16 0 29.833 -5.5 41.5 -16.5s17.5 -24.833 17.5 -41.5z
" />
    <glyph glyph-name="at" unicode="@" horiz-adv-x="747" 
d="M729 409c0 -72.667 -25.668 -137.332 -77.001 -193.999c-48.667 -54 -100.667 -81 -156 -81c-24 0 -42.667 8.16699 -56 24.5s-20 36.166 -20 59.499c-21.333 -27.333 -39 -46 -53 -56c-20.667 -15.333 -43.667 -23 -69 -23c-38.667 0 -70.667 13.667 -96 41
s-38 62 -38 104c0 55.333 22 106.666 66 153.999s94 71 150 71c24.667 0 44.5 -6.5 59.5 -19.5s24.833 -31.833 29.5 -56.5l18 66h88l-77 -279c-2.66699 -10.667 -4 -19.667 -4 -27c0 -9.33301 2 -16.666 6 -21.999s11 -8 21 -8c32.667 0 65.667 23.333 99 70
c37.333 52 56 110 56 174c0 64.667 -24.667 119.667 -74 165c-52 48 -118 72 -198 72c-91.333 0 -167.5 -28.833 -228.5 -86.5s-91.5 -131.5 -91.5 -221.5s31.167 -163.5 93.5 -220.5s139.833 -85.5 232.5 -85.5c52.667 0 100.5 12.5 143.5 37.5s79.5 59.5 109.5 103.5h61
c-30.667 -58 -74.667 -104.333 -132 -139s-119.666 -52 -186.999 -52c-104.667 0 -193 32.333 -265 97c-74 66.667 -111 150.667 -111 252c0 102.667 35.167 189.167 105.5 259.5s157.833 105.5 262.5 105.5c88 0 164.333 -25.667 229 -77c68.667 -54.667 103 -124 103 -208
zM449.999 408.002c0 18.667 -3.66699 34.666 -11 47.999c-10 17.333 -24 26 -42 26c-40 0 -75 -29 -105 -87c-26 -50 -39 -97 -39 -141c0 -24 4 -43.333 12 -58c10.667 -20 27 -30 49 -30c39.333 0 73 32 101 96c23.333 52.667 35 101.334 35 146.001z" />
    <glyph glyph-name="A" unicode="A" horiz-adv-x="778" 
d="M756 -5c-18.667 0 -43.8301 0.833008 -75.4971 2.5s-50.834 2.5 -57.501 2.5c-20.667 0 -47 -0.833008 -79 -2.5s-50 -2.5 -54 -2.5v30c17.333 0 31.5 0.833008 42.5 2.5s21.167 5 30.5 10s14 12.5 14 22.5c0 5.33301 -1.66699 12 -5 20l-61 146h-284
c-22.667 -50.667 -35.334 -79.334 -38.001 -86.001c-19.333 -46 -29 -73.333 -29 -82c0 -16 14 -25.667 42 -29l43 -4v-30c-16 0 -37.667 0.833008 -65 2.5s-44 2.5 -50 2.5c-17.333 0 -39.833 -0.833008 -67.5 -2.5s-43.5 -2.5 -47.5 -2.5v30l45 8c16 4 30 19.333 42 46
l49 103l135 302c29.333 64.667 45.333 100.334 48 107.001c15.333 36 29.666 72.333 42.999 109h32l241 -569c8 -20 15 -35.667 21 -47c9.33301 -17.333 19.833 -31.5 31.5 -42.5s29.5 -16.5 53.5 -16.5v-30zM493.004 269l-125 298l-125 -298h250z" />
    <glyph glyph-name="B" unicode="B" horiz-adv-x="611" 
d="M577 227c0 -66.667 -28.832 -122 -86.499 -166s-126.834 -66 -207.501 -66c-15.333 0 -35.833 0.833008 -61.5 2.5s-41.167 2.5 -46.5 2.5c-16.667 0 -38.167 -0.833008 -64.5 -2.5s-41.166 -2.5 -44.499 -2.5v30c20 5.33301 33 13 39 23s9 25.667 9 47v479
c0 40 -5.33301 65 -16 75s-34.667 15 -72 15v30c23.333 0 55.333 -0.833008 96 -2.5s65.334 -2.5 74.001 -2.5c26.667 0 48 0.333008 64 1c65.333 2.66699 100.666 4 105.999 4c52 0 93 -10 123 -30c36 -24 54 -60.667 54 -110c0 -43.333 -17.333 -80.333 -52 -111
c-30.667 -27.333 -69 -45 -115 -53c57.333 0 103.666 -12.333 138.999 -37c41.333 -28.667 62 -70.667 62 -126zM444.001 534c0 44.667 -14.668 76.667 -44.001 96c-24 16 -59.667 24 -107 24c-12 0 -24.5 -0.5 -37.5 -1.5s-26.833 -4.16699 -41.5 -9.5
c-2 -10 -3.33301 -21 -4 -33s-1 -25.667 -1 -41v-165c9.33301 -1.33301 20.333 -2.33301 33 -3s25.334 -1 38.001 -1c48.667 0 87 9.66699 115 29c32.667 22.667 49 57.667 49 105zM474 210c0 54 -16.5 93 -49.5 117s-82.5 36 -148.5 36h-67v-317c11.333 -2 25 -4 41 -6
s32.333 -3 49 -3c53.333 0 95.833 15.5 127.5 46.5s47.5 73.167 47.5 126.5z" />
    <glyph glyph-name="C" unicode="C" horiz-adv-x="709" 
d="M673 84l-19.999 -44.999c-30 -17.333 -66.833 -31.5 -110.5 -42.5s-82.167 -16.5 -115.5 -16.5c-116 0 -211 31.333 -285 94c-80 67.333 -120 158.333 -120 273c0 111.333 39.333 200.666 118 267.999c72.667 62.667 161.667 94 267 94c34.667 0 69.5 -2.66699 104.5 -8
s86.833 -17.666 155.5 -36.999c-3.33301 -16.667 -7.33301 -41.667 -12 -75s-8 -58.333 -10 -75h-29v24.5c0 7.66699 0.333008 15.167 1 22.5c0 17.333 -2.66699 30.666 -8 39.999s-18.333 19 -39 29c-24 12 -46.667 20.667 -68 26c-28 7.33301 -59 11 -93 11
c-82.667 0 -149.834 -27.167 -201.501 -81.5s-77.5 -126.5 -77.5 -216.5c0 -100.667 30.167 -182.167 90.5 -244.5s140.5 -93.5 240.5 -93.5c72 0 139.667 21 203 63z" />
    <glyph glyph-name="D" unicode="D" horiz-adv-x="774" 
d="M751 387c0 -118 -40.165 -212.833 -120.498 -284.5s-181.833 -107.5 -304.5 -107.5c-18.667 0 -43.834 0.833008 -75.501 2.5s-50.834 2.5 -57.501 2.5c-20.667 0 -47 -0.833008 -79 -2.5s-50 -2.5 -54 -2.5v30c20 4 33.833 9.83301 41.5 17.5s11.5 21.834 11.5 42.501
v477c0 46.667 -4.5 75.167 -13.5 85.5s-33.833 15.5 -74.5 15.5v31c29.333 0 67 -0.833008 113 -2.5s73 -2.5 81 -2.5c28.667 0 66 0.833008 112 2.5s73.333 2.5 82 2.5c97.333 0 177 -26.667 239 -80c66 -56.667 99 -132.334 99 -227.001zM646.002 357
c0 100.667 -28.6689 175.667 -86.002 225c-52 44.667 -124 67 -216 67c-14.667 0 -36.667 -1 -66 -3s-51.666 -3 -66.999 -3c-2.66699 -20.667 -4 -49 -4 -85v-427c0 -14.667 0.166992 -29 0.5 -43s1.5 -28 3.5 -42c14 -2 28.667 -3.66699 44 -5s32 -2 50 -2
c120.667 0 209.334 30 266.001 90c50 53.333 75 129.333 75 228z" />
    <glyph glyph-name="E" unicode="E" horiz-adv-x="611" 
d="M572 164c-2 -12 -4.16504 -26.6689 -6.49805 -44.002s-3.5 -29.666 -3.5 -36.999v-83c-14 -2 -37 -3.33301 -69 -4s-64.333 -1 -97 -1c-24.667 0 -58.5 0.833008 -101.5 2.5s-69.167 2.5 -78.5 2.5c-28 0 -63.5 -0.833008 -106.5 -2.5s-67.833 -2.5 -74.5 -2.5v30
c27.333 0 48.5 6.83301 63.5 20.5s22.5 36.834 22.5 69.501v459c0 41.333 -3.66699 66 -11 74c-10 10.667 -38 16 -84 16v30c26 0 60.667 -0.833008 104 -2.5s69.666 -2.5 78.999 -2.5c28.667 0 51.667 0.333008 69 1c70 2.66699 108 4 114 4c31.333 0 62 -0.166992 92 -0.5
s54.667 -1.83301 74 -4.5c-10.667 -32 -16 -64.333 -16 -97l-3 -59h-31c0 18.667 -0.833008 33.167 -2.5 43.5s-5.5 28.5 -11.5 54.5c-22 6.66699 -45 11.167 -69 13.5s-50.667 3.5 -80 3.5c-22 0 -43.5 -0.166992 -64.5 -0.5s-40.833 -1.83301 -59.5 -4.5
c-3.33301 -20.667 -5 -48.334 -5 -83.001v-187c20 0 39.333 -0.166992 58 -0.5s36.667 -0.5 54 -0.5c56 0 90.167 4.33301 102.5 13s18.5 32.667 18.5 72h33v-231h-33c0 47.333 -6.16699 75.833 -18.5 85.5s-50.5 14.5 -114.5 14.5c-19.333 0 -37.333 -0.166992 -54 -0.5
s-32 -0.5 -46 -0.5v-193c0 -35.333 1.66699 -64 5 -86c13.333 -2 33.166 -3.33301 59.499 -4s51.833 -1 76.5 -1c38.667 0 68.5 0.833008 89.5 2.5s44.833 6.5 71.5 14.5c2.66699 8 5.16699 16.333 7.5 25s3.83301 17.334 4.5 26.001l9 55h33z" />
    <glyph glyph-name="F" unicode="F" horiz-adv-x="556" 
d="M558 689c-10.667 -32 -15.999 -64.3311 -15.999 -96.998l-3 -59h-31c0 18.667 -0.833008 33.167 -2.5 43.5s-5.5 28.5 -11.5 54.5c-22 6.66699 -45 11.167 -69 13.5s-50.667 3.5 -80 3.5c-22 0 -43.5 -0.166992 -64.5 -0.5s-40.833 -1.83301 -59.5 -4.5
c-2 -10.667 -3.33301 -19.834 -4 -27.501s-1 -20.167 -1 -37.5v-205c20 0 39.333 -0.166992 58 -0.5s36.667 -0.5 54 -0.5c56 0 90.167 4.33301 102.5 13s18.5 32.667 18.5 72h33v-231h-33c0 47.333 -6.16699 75.833 -18.5 85.5s-50.5 14.5 -114.5 14.5
c-19.333 0 -37.333 -0.166992 -54 -0.5s-32 -0.5 -46 -0.5v-210c0 -41.333 3.66699 -66 11 -74c10 -10.667 38 -16 84 -16v-30c-22 0 -40 0.333008 -54 1c-54.667 2.66699 -84.667 4 -90 4c-22.667 0 -51 -0.833008 -85 -2.5s-52.667 -2.5 -56 -2.5v30
c46 0 73.333 4.66699 82 14s13 34.666 13 75.999v459c0 41.333 -3.66699 66 -11 74c-10 10.667 -38 16 -84 16v30c26 0 60.667 -0.833008 104 -2.5s69.666 -2.5 78.999 -2.5c28.667 0 51.667 0.333008 69 1c70 2.66699 108 4 114 4c31.333 0 62 -0.166992 92 -0.5
s54.667 -1.83301 74 -4.5z" />
    <glyph glyph-name="G" unicode="G" horiz-adv-x="763" 
d="M723 246c-16 -2.66699 -26.332 -9.00195 -30.999 -19.002s-7 -25.667 -7 -47v-27c0 -9.33301 0.333008 -18.666 1 -27.999l4 -94l-47 -13c-34 -10 -71.167 -18.833 -111.5 -26.5s-75.833 -11.5 -106.5 -11.5c-118.667 0 -213.667 29.333 -285 88
c-78.667 64.667 -118 156.334 -118 275.001c0 112 37.833 201 113.5 267s174.5 99 296.5 99c34.667 0 69.5 -2.66699 104.5 -8s86.833 -17.666 155.5 -36.999c-3.33301 -16.667 -7.33301 -41.667 -12 -75s-8 -58.333 -10 -75h-29v24.5c0 7.66699 0.333008 15.167 1 22.5
c0 17.333 -2.66699 30.666 -8 39.999s-18.333 19 -39 29c-24 12 -46.667 20.667 -68 26c-28 7.33301 -59 11 -93 11c-94 0 -168.333 -27.667 -223 -83s-82 -128 -82 -218c0 -103.333 27.667 -185.666 83 -246.999c58 -64 137.667 -96 239 -96c40 0 72.5 3.5 97.5 10.5
s39.5 16.833 43.5 29.5c2 6 3.33301 17.667 4 35s1 27.666 1 30.999c0 24 -0.333008 41.167 -1 51.5s-1.83398 23 -3.50098 38s-39.5 22.5 -113.5 22.5v30h244v-25z" />
    <glyph glyph-name="H" unicode="H" horiz-adv-x="832" 
d="M806 -5c-22 0 -39.998 0.333008 -53.998 1c-54.667 2.66699 -84.667 4 -90 4c-22.667 0 -51 -0.833008 -85 -2.5s-52.667 -2.5 -56 -2.5v30c46 0 73.333 4.66699 82 14s13 34.666 13 75.999v232h-400v-232c0 -41.333 3.66699 -66 11 -74c10 -10.667 38 -16 84 -16v-30
c-22 0 -40 0.333008 -54 1c-54.667 2.66699 -84.667 4 -90 4c-22.667 0 -51 -0.833008 -85 -2.5s-52.667 -2.5 -56 -2.5v30c46 0 73.333 4.66699 82 14s13 34.666 13 75.999v459c0 41.333 -3.66699 66 -11 74c-10 10.667 -38 16 -84 16v30
c19.333 0 45.666 -0.833008 78.999 -2.5s54 -2.5 62 -2.5c22 0 40 0.333008 54 1c54.667 2.66699 84.667 4 90 4v-30c-46 0 -73.333 -4.66699 -82 -14s-13 -34.666 -13 -75.999v-185h400v185c0 41.333 -3.66699 66 -11 74c-10 10.667 -38 16 -84 16v30
c19.333 0 45.666 -0.833008 78.999 -2.5s54 -2.5 62 -2.5c22 0 40 0.333008 54 1c54.667 2.66699 84.667 4 90 4v-30c-46 0 -73.333 -4.66699 -82 -14s-13 -34.666 -13 -75.999v-459c0 -41.333 3.66699 -66 11 -74c10 -10.667 38 -16 84 -16v-30z" />
    <glyph glyph-name="I" unicode="I" horiz-adv-x="337" 
d="M311 -5c-22 0 -39.999 0.333008 -53.999 1c-54.667 2.66699 -84.667 4 -90 4c-22.667 0 -51 -0.833008 -85 -2.5s-52.667 -2.5 -56 -2.5v30c46 0 73.333 4.66699 82 14s13 34.666 13 75.999v459c0 41.333 -3.66699 66 -11 74c-10 10.667 -38 16 -84 16v30
c19.333 0 45.666 -0.833008 78.999 -2.5s54 -2.5 62 -2.5c22 0 40 0.333008 54 1c54.667 2.66699 84.667 4 90 4v-30c-46 0 -73.333 -4.66699 -82 -14s-13 -34.666 -13 -75.999v-459c0 -41.333 3.66699 -66 11 -74c10 -10.667 38 -16 84 -16v-30z" />
    <glyph glyph-name="J" unicode="J" horiz-adv-x="333" 
d="M307 664c-46 0 -73.333 -4.66797 -82 -14.001s-13 -34.666 -13 -75.999v-457v-25c0 -42.667 -2.66699 -75.667 -8 -99c-8.66699 -38 -26.667 -73.667 -54 -107c-23.333 -28 -50.666 -49 -81.999 -63c-26 -11.333 -53 -17 -81 -17v78l11 6c18.667 -12.667 38 -19 58 -19
c21.333 0 37.333 9.66699 48 29c8.66699 16 13 37 13 63v611c0 41.333 -3.66699 66 -11 74c-10 10.667 -38 16 -84 16v30c19.333 0 45.666 -0.833008 78.999 -2.5s54 -2.5 62 -2.5c22 0 40 0.333008 54 1c54.667 2.66699 84.667 4 90 4v-30z" />
    <glyph glyph-name="K" unicode="K" horiz-adv-x="726" 
d="M723 -5c-25.333 3.33301 -48.665 5 -69.998 5c-14.667 0 -25.834 -0.333008 -33.501 -1s-20.167 -2 -37.5 -4c-4 6.66699 -11.667 15 -23 25l-16 14l-317 298l-10 -7v-210c0 -41.333 3.66699 -66 11 -74c10 -10.667 38 -16 84 -16v-30c-22 0 -40 0.333008 -54 1
c-54.667 2.66699 -84.667 4 -90 4c-22.667 0 -51 -0.833008 -85 -2.5s-52.667 -2.5 -56 -2.5v30c46 0 73.333 4.66699 82 14s13 34.666 13 75.999v459c0 41.333 -3.66699 66 -11 74c-10 10.667 -38 16 -84 16v30c19.333 0 45.666 -0.833008 78.999 -2.5s54 -2.5 62 -2.5
c22 0 40 0.333008 54 1c54.667 2.66699 84.667 4 90 4v-30c-46 0 -73.333 -4.66699 -82 -14s-13 -34.666 -13 -75.999v-219c24 16.667 47.667 36.667 71 60l223 221c5.33301 5.33301 9.5 12.333 12.5 21s4.5 21 4.5 37c18.667 -2 32.667 -3.33301 42 -4s23.666 -1 42.999 -1
c10 0 19.5 0.166992 28.5 0.5s27.5 1.83301 55.5 4.5v-30c-29.333 0 -50.166 -2.33301 -62.499 -7s-30.833 -16.667 -55.5 -36l-267 -241l328 -309l28 -26c16 -13.333 34.667 -20 56 -20v-30z" />
    <glyph glyph-name="L" unicode="L" horiz-adv-x="611" 
d="M586 172l-9.99707 -67l-11 -105c-12 -2 -33 -3.33301 -63 -4s-60.667 -1 -92 -1c-23.333 0 -55.333 0.833008 -96 2.5s-65.667 2.5 -75 2.5c-24.667 0 -57.334 -0.833008 -98.001 -2.5s-65.334 -2.5 -74.001 -2.5v30c22 4 36.5 14.167 43.5 30.5s10.5 45.166 10.5 86.499
v432c0 41.333 -3.66699 66 -11 74c-10 10.667 -38 16 -84 16v30c19.333 0 45.666 -0.833008 78.999 -2.5s54 -2.5 62 -2.5c22 0 40 0.333008 54 1c54.667 2.66699 84.667 4 90 4v-30c-46 0 -73.333 -4.66699 -82 -14s-13 -34.666 -13 -75.999v-491l3 -37
c15.333 -2 36.5 -3.33301 63.5 -4s52.833 -1 77.5 -1c38.667 0 68.5 0.833008 89.5 2.5s44.833 6.5 71.5 14.5l10 32l23 84z" />
    <glyph glyph-name="M" unicode="M" horiz-adv-x="946" 
d="M922 -5c-22 0 -39.9971 0.334961 -53.9971 1.00195c-54.667 2.66699 -84.667 4 -90 4c-22.667 0 -51 -0.833008 -85 -2.5s-52.667 -2.5 -56 -2.5v30c46 0 73.333 4.66699 82 14s13 34.666 13 75.999v459l-276 -587h-20l-279 587v-481c0 -28 5.5 -46.167 16.5 -54.5
s32.833 -12.5 65.5 -12.5l16 -1v-30c-16.667 0 -39.167 0.833008 -67.5 2.5s-45.5 2.5 -51.5 2.5c-18.667 0 -42.334 -0.833008 -71.001 -2.5s-45 -2.5 -49 -2.5v30l16 1c32 0 53.167 4 63.5 12s15.5 26.333 15.5 55v503c0 28 -5.16699 46.167 -15.5 54.5
s-31.5 12.5 -63.5 12.5l-16 1v30c29.333 -2.66699 49.333 -4.16699 60 -4.5s22.334 -0.5 35.001 -0.5c19.333 0 34.166 0.333008 44.499 1s27.166 2 50.499 4l264 -557l206 424c10.667 22.667 20.834 45.667 30.501 69s17.5 44.666 23.5 63.999
c29.333 -2.66699 49.333 -4.16699 60 -4.5s22.334 -0.5 35.001 -0.5c19.333 0 34.166 0.333008 44.499 1s27.166 2 50.499 4v-30h-15c-30.667 0 -51.334 -4.33301 -62.001 -13s-16 -27 -16 -55v-481c0 -41.333 3.66699 -66 11 -74c10 -10.667 38 -16 84 -16v-30z" />
    <glyph glyph-name="N" unicode="N" horiz-adv-x="831" 
d="M809 664l-16.002 -1c-32.667 0 -54.5 -4.16699 -65.5 -12.5s-16.5 -26.5 -16.5 -54.5v-579l3 -37l-79 14l-483 587v-488c0 -28 5.5 -46.167 16.5 -54.5s32.833 -12.5 65.5 -12.5l16 -1v-30c-16.667 0 -39.167 0.833008 -67.5 2.5s-45.5 2.5 -51.5 2.5
c-18.667 0 -42.334 -0.833008 -71.001 -2.5s-45 -2.5 -49 -2.5v30l16 1c32 0 53.167 4 63.5 12s15.5 26.333 15.5 55v503c0 28.667 -4.66699 47.167 -14 55.5s-28.666 12.5 -57.999 12.5h-14v30c28.667 -2.66699 47.5 -4.16699 56.5 -4.5s19.167 -0.5 30.5 -0.5
c25.333 0 54 1.66699 86 5l472 -595v497c0 28 -5.16699 46.167 -15.5 54.5s-31.5 12.5 -63.5 12.5l-16 1v30c18.667 0 42.334 -0.833008 71.001 -2.5s45 -2.5 49 -2.5c17.333 0 40.333 0.833008 69 2.5s45.334 2.5 50.001 2.5v-30z" />
    <glyph glyph-name="O" unicode="O" horiz-adv-x="786" 
d="M764 367c0 -108 -37.168 -199.5 -111.501 -274.5s-166.166 -112.5 -275.499 -112.5c-104 0 -188.667 32.667 -254 98c-67.333 67.333 -101 157.333 -101 270c0 104 34.167 190.167 102.5 258.5s159.5 102.5 273.5 102.5c110 0 197.667 -29 263 -87
c68.667 -61.333 103 -146.333 103 -255zM656.999 336c0 102.667 -22.333 182.335 -67 239.002c-48 60.667 -117.333 91 -208 91c-84 0 -148 -27 -192 -81c-40.667 -49.333 -61 -117.333 -61 -204c0 -98.667 21.667 -180.334 65 -245.001c50 -75.333 121.667 -113 215 -113
c80.667 0 142.667 29 186 87c41.333 55.333 62 130.666 62 225.999z" />
    <glyph glyph-name="P" unicode="P" horiz-adv-x="604" 
d="M584 539c0 -61.333 -22.6641 -111.998 -67.9971 -151.998s-100.333 -60 -165 -60c-29.333 0 -51 2 -65 6l-11 37c8.66699 -2.66699 18.5 -4.83398 29.5 -6.50098s22.5 -2.5 34.5 -2.5c41.333 0 75.833 13.5 103.5 40.5s41.5 61.5 41.5 103.5
c0 50.667 -14.333 88.667 -43 114s-68.667 38 -120 38c-16.667 0 -33.334 -1.33301 -50.001 -4c-22 -4.66699 -38.333 -8 -49 -10c-2.66699 -7.33301 -4.33398 -15.333 -5.00098 -24s-1 -20 -1 -34v-11v-459c0 -41.333 3.66699 -66 11 -74c10 -10.667 38 -16 84 -16v-30
c-22 0 -40 0.333008 -54 1c-54.667 2.66699 -84.667 4 -90 4c-22.667 0 -51 -0.833008 -85 -2.5s-52.667 -2.5 -56 -2.5v30c46 0 73.333 4.66699 82 14s13 34.666 13 75.999v459c0 41.333 -3.66699 66 -11 74c-10 10.667 -38 16 -84 16v30
c26.667 0 60.667 -0.833008 102 -2.5s66 -2.5 74 -2.5c27.333 0 49.333 0.333008 66 1c67.333 2.66699 103.666 4 108.999 4c55.333 0 102 -11.667 140 -35c44.667 -27.333 67 -67.333 67 -120z" />
    <glyph glyph-name="Q" unicode="Q" horiz-adv-x="786" 
d="M764 364c0 -106 -38.332 -196.333 -114.999 -271s-167.334 -112 -272.001 -112c-106.667 0 -192.5 32.5 -257.5 97.5s-97.5 153.833 -97.5 266.5c0 105.333 34.667 192.333 104 261s160 103 272 103c109.333 0 197 -29.667 263 -89c68.667 -62 103 -147.333 103 -256z
M762.001 -123c-24 -13.333 -47.668 -28.666 -71.001 -45.999l-9 -7c-4.66699 -4 -30.834 1.33301 -78.501 16l-142.5 44c-58.667 17.333 -97 26 -115 26c-7.33301 0 -13.666 -1.33301 -18.999 -4l-7 -4l-59 -32l2 32c28.667 22 46.667 35.333 54 40
c22.667 16 42.334 27.333 59.001 34l14 6h12c11.333 -2.66699 24.5 -6.33398 39.5 -11.001l34.5 -11l80 -31c59.333 -23.333 110 -35 152 -35c18 0 36 2 54 6v-23zM660 333c0 100 -23.334 179.334 -70.001 238.001c-49.333 62 -118.666 93 -207.999 93
c-84 0 -148.667 -27 -194 -81c-42.667 -50.667 -64 -119 -64 -205c0 -97.333 22.667 -178.333 68 -243c51.333 -74 123.666 -111 216.999 -111c82.667 0 146.334 30.667 191.001 92c40 55.333 60 127.666 60 216.999z" />
    <glyph glyph-name="R" unicode="R" horiz-adv-x="668" 
d="M665 -5c-15.333 2 -26.4961 3.33398 -33.4961 4.00098s-18.5 1 -34.5 1c-20 0 -42.667 -1.66699 -68 -5l-41 56l-238 306l4 15h35h35c10 2 17.333 3.33301 22 4c36.667 6 67.5 21.833 92.5 47.5s37.5 56.5 37.5 92.5c0 49.333 -16.333 86 -49 110
c-27.333 20 -62.333 30 -105 30c-37.333 0 -70.666 -4.33301 -99.999 -13c-2.66699 -7.33301 -4.33398 -15.333 -5.00098 -24s-1 -20 -1 -34v-11v-459c0 -41.333 3.66699 -66 11 -74c10 -10.667 38 -16 84 -16v-30c-22 0 -40 0.333008 -54 1
c-54.667 2.66699 -84.667 4 -90 4c-22.667 0 -51 -0.833008 -85 -2.5s-52.667 -2.5 -56 -2.5v30c46 0 73.333 4.66699 82 14s13 34.666 13 75.999v459c0 41.333 -3.66699 66 -11 74c-10 10.667 -38 16 -84 16v30c23.333 0 55.666 -0.833008 96.999 -2.5
s66.666 -2.5 75.999 -2.5c27.333 0 49.333 0.333008 66 1c67.333 2.66699 103.666 4 108.999 4c66.667 0 117.667 -14.667 153 -44c32.667 -26.667 49 -62.667 49 -108c0 -50.667 -20.333 -94 -61 -130c-36 -31.333 -80.667 -52.333 -134 -63l227 -296
c7.33301 -8.66699 15.666 -15 24.999 -19s20 -7 32 -9v-30z" />
    <glyph glyph-name="S" unicode="S" horiz-adv-x="525" 
d="M503 233c0 -80 -31.6689 -143.333 -95.002 -190c-57.333 -42 -126.333 -63 -207 -63c-29.333 0 -57.666 3.16699 -84.999 9.5s-56 15.833 -86 28.5c2 18 3.66699 38.333 5 61s2 44 2 64v28h34v-47c0 -14 0.833008 -24.833 2.5 -32.5s5.5 -14.167 11.5 -19.5
c18.667 -16 41.834 -27.667 69.501 -35s56.167 -11 85.5 -11c48 0 89 13 123 39c36.667 28 55 65.667 55 113c0 66 -34 106.667 -102 122l-191 30c-68.667 22 -103 73.667 -103 155c0 66 24.167 119.833 72.5 161.5s105.833 62.5 172.5 62.5c24 0 49.833 -3 77.5 -9
s66.5 -18.333 116.5 -37c-2.66699 -10.667 -4.66699 -19.667 -6 -27s-2 -14.333 -2 -21c0 -10 -0.666992 -21 -2 -33c-3.33301 -30 -5 -48.667 -5 -56h-34v14c0 10 -0.166992 21.167 -0.5 33.5s-3.5 23.166 -9.5 32.499c-12.667 19.333 -33 33.833 -61 43.5
s-56 14.5 -84 14.5c-42.667 0 -78.667 -13.167 -108 -39.5s-44 -60.833 -44 -103.5c0 -59.333 34.333 -97.666 103 -114.999l191 -35c69.333 -22 104 -68 104 -138z" />
    <glyph glyph-name="T" unicode="T" horiz-adv-x="613" 
d="M595 694c0 -15.333 -0.833008 -35.832 -2.5 -61.499s-2.5 -40.834 -2.5 -45.501l-1 -56h-30c0 10.667 -1.5 24.167 -4.5 40.5s-5.16699 28.5 -6.5 36.5c0 12.667 -2.66699 20.834 -8 24.501s-14.333 5.5 -27 5.5l-156 5c-2.66699 -26.667 -4 -60 -4 -100v-428
c0 -41.333 3.66699 -66 11 -74c10 -10.667 38 -16 84 -16v-30c-22 0 -40 0.333008 -54 1c-54.667 2.66699 -84.667 4 -90 4c-22.667 0 -51 -0.833008 -85 -2.5s-52.667 -2.5 -56 -2.5v30c46 0 73.333 4.66699 82 14s13 34.666 13 75.999v428v14v12v47
c-2 12.667 -3.33301 21.667 -4 27l-154 -5c-12 0 -20.833 -2 -26.5 -6s-8.5 -12 -8.5 -24c-3.33301 -16.667 -6 -31 -8 -43s-3 -23.333 -3 -34h-30l-1 56c0 14.667 -0.833008 34.5 -2.5 59.5s-2.5 40.833 -2.5 47.5c43.333 0 99 -0.833008 167 -2.5s108.333 -2.5 121 -2.5
c44.667 0 80.667 0.333008 108 1c110 2.66699 170.333 4 181 4z" />
    <glyph glyph-name="U" unicode="U" horiz-adv-x="778" 
d="M765 664l-16.001 -0.999023c-32.667 0 -54.5 -4.16699 -65.5 -12.5s-16.5 -26.5 -16.5 -54.5v-369c0 -50.667 -14.667 -99.334 -44 -146.001c-9.33301 -15.333 -24.666 -31 -45.999 -47s-40.666 -27 -57.999 -33s-39.166 -11 -65.499 -15s-49.5 -6 -69.5 -6
c-56.667 0 -103.334 6 -140.001 18c-50 16 -86 44.333 -108 85c-11.333 20.667 -18.333 39.667 -21 57s-4 42 -4 74v360c0 41.333 -3.66699 66 -11 74c-10 10.667 -38 16 -84 16v30c19.333 0 45.666 -0.833008 78.999 -2.5s54 -2.5 62 -2.5c22 0 40 0.333008 54 1
c54.667 2.66699 84.667 4 90 4v-30c-46 0 -73.333 -4.66699 -82 -14s-13 -34.666 -13 -75.999v-349c0 -68 17.667 -116.333 53 -145c31.333 -25.333 82 -38 152 -38c35.333 0 66.666 4.66699 93.999 14c33.333 11.333 58.666 29.666 75.999 54.999
c14 20 24.167 44.833 30.5 74.5s9.5 60.5 9.5 92.5v318c0 28 -5.16699 46.167 -15.5 54.5s-31.5 12.5 -63.5 12.5l-16 1v30c18.667 0 42.334 -0.833008 71.001 -2.5s45 -2.5 49 -2.5c17.333 0 40.333 0.833008 69 2.5s45.334 2.5 50.001 2.5v-30z" />
    <glyph glyph-name="V" unicode="V" horiz-adv-x="722" 
d="M706 664c-28 0 -47.6719 -7.33398 -59.0049 -22.001c-3.33301 -4.66699 -11.666 -23 -24.999 -55l-167 -411l-71 -185h-50l-22 65l-35 91l-181 450c-12.667 30.667 -20 47.334 -22 50.001c-6 6.66699 -21.667 12 -47 16l-19 1v30c18.667 0 43.834 -0.833008 75.501 -2.5
s50.834 -2.5 57.501 -2.5c20.667 0 37.334 0.333008 50.001 1c51.333 2.66699 79 4 83 4v-30c-34.667 0 -57.667 -1.83301 -69 -5.5s-17 -9.5 -17 -17.5c0 -4 1 -8.66699 3 -14l38 -111l156 -395l131 326l43 121c2 6.66699 5.66699 17 11 31s8 24 8 30
c0 12 -6.33301 20.833 -19 26.5s-35.667 8.5 -69 8.5v30c14.667 0 34.834 -0.833008 60.501 -2.5s41.5 -2.5 47.5 -2.5c15.333 0 35.833 0.833008 61.5 2.5s41.167 2.5 46.5 2.5v-30z" />
    <glyph glyph-name="W" unicode="W" horiz-adv-x="1000" 
d="M984 664c-22.667 0 -37.1689 -1.5 -43.502 -4.5s-12.833 -14.167 -19.5 -33.5l-147 -480l-39 -155h-51l-71 206l-125 339l-174 -442l-36 -103h-50l-23 103l-113 492l-6 23c-6 23.333 -12.833 38.166 -20.5 44.499s-23.5 9.5 -47.5 9.5l-10 1v30
c19.333 0 43.833 -0.833008 73.5 -2.5s47.167 -2.5 52.5 -2.5c20 0 36 0.333008 48 1c48 2.66699 74 4 78 4v-30c-31.333 0 -52.666 -3.16699 -63.999 -9.5s-17 -15.833 -17 -28.5c0 -4.66699 0.833008 -10.5 2.5 -17.5s2.83398 -12.167 3.50098 -15.5l21 -99l79 -347
l124 312l90 241h32l30 -93l167 -467l79 282l46 178c1.33301 6 2.83301 12.333 4.5 19s2.5 11.334 2.5 14.001c0 10.667 -5.83301 18.5 -17.5 23.5s-34.5 7.5 -68.5 7.5v30c33.333 -2.66699 55.833 -4.16699 67.5 -4.5s24.167 -0.5 37.5 -0.5c31.333 0 66.333 1.66699 105 5
v-30z" />
    <glyph glyph-name="X" unicode="X" horiz-adv-x="667" 
d="M648 -5c-26.667 3.33301 -50.666 4.99805 -71.999 4.99805c-22 0 -46.333 -1.66699 -73 -5l-16 26l-168 282l-45 -64l-75 -112l-82 -132c-12 2 -20.667 3.33301 -26 4s-13.666 1 -24.999 1c-16 0 -33.333 -1.66699 -52 -5v30c28.667 0 49.667 7.66699 63 23
c10.667 15.333 20 28 28 38l29 38l160 217l-81 137l-43 67c-17.333 26.667 -30 45 -38 55c-24.667 30.667 -53.334 46 -86.001 46c-7.33301 0 -13 -0.333008 -17 -1l-2 28l144 21c10.667 -4.66699 21 -13 31 -25c6 -7.33301 13.667 -18.666 23 -33.999l39 -63l89 -153
l185 270h101v-30c-24.667 0 -42.667 -4 -54 -12c-4 -2.66699 -12.333 -12 -25 -28l-82 -101l-102 -138l191 -305c13.333 -19.333 20.666 -29.666 21.999 -30.999c10 -12 26.667 -18 50 -18l9 -1v-30z" />
    <glyph glyph-name="Y" unicode="Y" horiz-adv-x="667" 
d="M654 679c-45.333 -52 -91.668 -111.998 -139.001 -179.998c-51.333 -73.333 -87 -131.666 -107 -174.999c-5.33301 -10.667 -9 -22.834 -11 -36.501s-3 -26.5 -3 -38.5v-134c0 -41.333 3.66699 -66 11 -74c10 -10.667 38 -16 84 -16v-30c-22 0 -40 0.333008 -54 1
c-54.667 2.66699 -84.667 4 -90 4c-22.667 0 -51 -0.833008 -85 -2.5s-52.667 -2.5 -56 -2.5v30c46 0 73.333 4.66699 82 14s13 34.666 13 75.999v147c0 13.333 -1.66699 23.666 -5 30.999l-120 210c-25.333 43.333 -48 76 -68 98c-33.333 36 -65.666 52.333 -96.999 49v29
l106 21c13.333 2.66699 25 0.666992 35 -6c6 -4 14.667 -13 26 -27c14.667 -19.333 29.334 -41 44.001 -65l143 -261l103 163c45.333 76.667 68.666 116 69.999 118c6 10.667 18.667 34.667 38 72h80v-15z" />
    <glyph glyph-name="Z" unicode="Z" horiz-adv-x="667" 
d="M638 -5c-47.333 0 -85.666 0.331055 -114.999 0.998047c-118 2.66699 -183.333 4 -196 4c-48.667 0 -110.334 -0.833008 -185.001 -2.5s-117 -2.5 -127 -2.5v29l97 118l339 434l25 34l24 37l-65 1c-26 0 -69 -0.666992 -129 -2s-92 -2 -96 -2
c-46 0 -73.333 -3.66699 -82 -11c-4.66699 -4 -8.66699 -19 -12 -45l-7 -58h-31c2 18.667 3.33301 32.334 4 41.001s1 22.334 1 41.001c0 10 -0.166992 19.5 -0.5 28.5s-1.83301 26.833 -4.5 53.5h559v-31l-15 -16l-470 -602l260 -3h37h15c27.333 0 48.5 1 63.5 3
s27.5 4.66699 37.5 8s16.833 9.33301 20.5 18s7.16699 23.667 10.5 45l9 58h32l-3 -25z" />
    <glyph glyph-name="bracketleft" unicode="[" horiz-adv-x="333" 
d="M286 -112l-5.00391 -4c-28.667 2.66699 -61 4 -97 4h-61c-16 -2 -28 -3.33301 -36 -4l-5 4l6 178v483l-6 178l5 4c28.667 -2.66699 61 -4 97 -4h12h53c14.667 2 25.334 3.33301 32.001 4l5 -4v-25l-5 -5h-35c-21.333 0 -38.166 -2.33301 -50.499 -7s-19 -13 -20 -25
s-1.83301 -29.833 -2.5 -53.5s-1 -44.5 -1 -62.5v-483v-53.5c0 -16.333 1.33301 -37.833 4 -64.5c0.666992 -10 7.33398 -17.5 20.001 -22.5s29.334 -7.5 50.001 -7.5h35l5 -5v-25z" />
    <glyph glyph-name="backslash" unicode="\" horiz-adv-x="606" 
d="M525 0h-72l-372 731h72z" />
    <glyph glyph-name="bracketright" unicode="]" horiz-adv-x="333" 
d="M251 -112l-5 -4c-28.667 2.66699 -61 4 -97 4h-61c-16 -2 -28 -3.33301 -36 -4l-5 4v25l5 5h35c21.333 0 38.166 2.33301 50.499 7s19 13 20 25s1.83301 29.833 2.5 53.5s1 44.5 1 62.5v483v13v12v12c0 10 -0.166992 21.667 -0.5 35s-1.16602 26.833 -2.49902 40.5
s-8.33301 23 -21 28s-29.334 7.5 -50.001 7.5h-35l-5 5v25l5 4c28.667 -2.66699 61 -4 97 -4h12h53c14.667 2 25.334 3.33301 32.001 4l5 -4l-6 -178v-483z" />
    <glyph glyph-name="asciicircum" unicode="^" horiz-adv-x="606" 
d="M554 325h-68l-183 338l-184 -338h-68l219 406h66z" />
    <glyph glyph-name="underscore" unicode="_" 
d="M500 -160h-500v38h500v-38z" />
    <glyph glyph-name="grave" unicode="`" horiz-adv-x="333" 
d="M238 524l-40 0.00195312l-144 90l-18 11c-6 4 -11 9 -15 15c-4.66699 3.33301 -7 10 -7 20c0 12.667 5.33301 23 16 31c6 2 10.5 3.16699 13.5 3.5s6.5 0.166016 10.5 -0.500977c8 -1.33301 16.333 -5.33301 25 -12c3.33301 -2.66699 10.333 -9.33398 21 -20.001z" />
    <glyph glyph-name="a" unicode="a" 
d="M469 -5c-17.333 2 -29.999 3.33203 -37.999 3.99902s-20.333 1 -37 1h-24.5c-6.33301 0 -24.833 -1.66699 -55.5 -5c1.33301 6 2.33301 14.667 3 26s1 19 1 23v38l-108 -80c-11.333 -8 -20.5 -13.667 -27.5 -17s-15.833 -5 -26.5 -5c-40 0 -71 11.333 -93 34
s-33 54.334 -33 95.001c0 40 12 72 36 96c28.667 28.667 81 49.667 157 63l95 18c0 42 -9.33301 74.167 -28 96.5s-48.334 33.5 -89.001 33.5c-16 0 -29.333 -1.16699 -40 -3.5s-21.667 -7.16602 -33 -14.499c-4 -6 -9 -15.333 -15 -28s-11.667 -25.667 -17 -39l-26 7v32
c-0.666992 7.33301 -1 12.666 -1 15.999c0 10.667 3 18 9 22c27.333 18 51 31.333 71 40c32 14 62 21 90 21c63.333 0 107.333 -18.333 132 -55c20.667 -30.667 31 -78.667 31 -144v-183c0 -26.667 4.66699 -43.667 14 -51s27 -11 53 -11v-30zM318.001 121.999
l-0.000976562 131.997c-48.667 -7.33301 -89.667 -16.666 -123 -27.999s-55.666 -28.666 -66.999 -51.999c-8 -16 -12 -37.333 -12 -64c0 -21.333 7.66699 -38.666 23 -51.999s33.666 -20 54.999 -20c20.667 0 42.334 8.66699 65.001 26l35 28
c6 6.66699 10.333 11.667 13 15c5.33301 6.66699 9 11.667 11 15z" />
    <glyph glyph-name="b" unicode="b" horiz-adv-x="553" 
d="M521 265c0 -32 -6.33203 -64.1689 -18.999 -96.502s-30.334 -59.833 -53.001 -82.5l-105 -75c-2 -1.33301 -9.66699 -4.66602 -23 -9.99902s-22.666 -8.5 -27.999 -9.5s-11.333 -1.83301 -18 -2.5s-14.667 -1 -24 -1c-24 0 -46.167 2.83301 -66.5 8.5
s-39.5 14.834 -57.5 27.501l-40 -36l-16 6l4 43l4 116v453c0 18.667 -8 32.167 -24 40.5s-35 12.5 -57 12.5v30c40 6 67.333 10.333 82 13c26 5.33301 53.667 12.333 83 21c3.33301 -3.33301 5 -10 5 -20l-5 -153v-181c28.667 34 54 58 76 72
c29.333 18.667 62.666 28 99.999 28c56.667 0 101.667 -20 135 -60c31.333 -37.333 47 -85.333 47 -144zM434.001 232.998c0 48 -10.666 87.335 -31.999 118.002c-24.667 35.333 -60.334 53 -107.001 53c-27.333 0 -53.333 -7.83301 -78 -23.5s-41.667 -35.834 -51 -60.501
l-3 -12v-215c10 -16.667 27.333 -29.834 52 -39.501s48 -14.5 70 -14.5c51.333 0 90 20.333 116 61c22 34 33 78.333 33 133z" />
    <glyph glyph-name="c" unicode="c" horiz-adv-x="444" 
d="M419 49l-20.001 -33.001c-53.333 -24 -100 -36 -140 -36c-63.333 0 -116 19.667 -158 59c-46 42.667 -69 100 -69 172c0 41.333 7.66699 80 23 116c8 20 17 35.167 27 45.5s24.333 21.333 43 33s38.334 22.834 59.001 33.501c26.667 14 46.667 22.167 60 24.5
s23.833 3.83301 31.5 4.5s15.5 1 23.5 1c22 0 41.333 -2.16699 58 -6.5s37.334 -11.833 62.001 -22.5c-2.66699 -12.667 -5 -27 -7 -43s-3 -30.333 -3 -43l-4 -43h-28l-3 33c0 9.33301 -2.16699 20.333 -6.5 33s-16.5 22.667 -36.5 30s-42 11 -66 11
c-52 0 -89.167 -14 -111.5 -42s-33.5 -68.667 -33.5 -122c0 -74 19 -130.667 57 -170c33.333 -34.667 76.666 -52 129.999 -52c18.667 0 39 4 61 12l41 17z" />
    <glyph glyph-name="d" unicode="d" horiz-adv-x="611" 
d="M574 -5c-31.333 3.33301 -59.666 4.99707 -84.999 4.99707c-17.333 0 -31 -0.333008 -41 -1s-24.333 -2 -43 -4c1.33301 6.66699 2.33301 16 3 28s1 20.667 1 26v41l-108 -93c-21.333 -2.66699 -42.333 -5.66699 -63 -9c-67.333 0 -118.5 21.333 -153.5 64
s-52.5 98.334 -52.5 167.001c0 24 3.5 48.333 10.5 73s17 45.834 30 63.501s31.167 33.834 54.5 48.501c12.667 8 34.667 19.667 66 35c11.333 5.33301 22.666 11 33.999 17c18.667 8.66699 39 13 61 13c20 0 39.167 -2.66699 57.5 -8s39.5 -13.333 63.5 -24v169
c0 18.667 -8 32.167 -24 40.5s-35 12.5 -57 12.5v30c40 6 67.333 10.333 82 13c26 5.33301 53.667 12.333 83 21c3.33301 -3.33301 5 -10 5 -20l-5 -153v-462c-0.666992 -8.66699 -1 -15 -1 -19c0 -8 1.16699 -15 3.5 -21s6.83301 -11 13.5 -15c14 -4.66699 29.667 -7 47 -7
l18 -1v-30zM409 220.997v129c-20.667 22 -43 39.667 -67 53s-48.667 20 -74 20c-99.333 0 -149 -61.333 -149 -184c0 -50.667 13 -94 39 -130c28.667 -40 67.667 -60 117 -60c21.333 0 41 5.16699 59 15.5s33.333 24.5 46 42.5s20.667 35 24 51s5 37 5 63z" />
    <glyph glyph-name="e" unicode="e" horiz-adv-x="479" 
d="M454 286l0.00195312 -16v-13c-1.33301 -6 -2 -10.333 -2 -13c-30 -5.33301 -59 -9 -87 -11s-59.333 -3 -94 -3h-146c0 -60.667 15.167 -108.667 45.5 -144s75.5 -53 135.5 -53c25.333 0 52 7 80 21c7.33301 3.33301 22.333 11.666 45 24.999l10 -11l-17 -34
c-24.667 -16.667 -50.834 -29.834 -78.501 -39.501s-55.5 -14.5 -83.5 -14.5c-73.333 0 -130 21.333 -170 64s-60 99.667 -60 171c0 38.667 3.33301 69.334 10 92.001c12.667 42.667 38 78.334 76 107.001c20.667 15.333 44.167 28.333 70.5 39s51.166 16 74.499 16
c56 0 101.833 -16.5 137.5 -49.5s53.5 -77.5 53.5 -133.5zM364.002 267c0 49.333 -7.33398 87.667 -22.001 115c-19.333 35.333 -51.333 53 -96 53c-41.333 0 -72.666 -17.667 -93.999 -53c-18 -30 -27 -67.333 -27 -112c22 -2.66699 47 -4 75 -4l107 -2z" />
    <glyph glyph-name="f" unicode="f" horiz-adv-x="333" 
d="M341 640l-12 -6c-16.667 16 -38.667 24 -66 24c-30 0 -50.667 -11 -62 -33c-7.33301 -14.667 -11 -38.667 -11 -72v-34v-85h131l-7 -49h-124v-235c0 -54 4.16699 -88.333 12.5 -103s31.833 -22 70.5 -22v-30c-17.333 0 -41 0.833008 -71 2.5s-48 2.5 -54 2.5
c-19.333 0 -44 -0.833008 -74 -2.5s-47 -2.5 -51 -2.5v30c38.667 0 62.667 8.33301 72 25c7.33301 13.333 11 46.666 11 99.999v235l-69 -6v20l69 35v42c0 43.333 5.33301 76.5 16 99.5s32.334 51.167 65.001 84.5c21.333 22 37.333 36.667 48 44c18.667 12.667 39 19 61 19
c7.33301 0 14.666 -0.166992 21.999 -0.5s15 -2.16602 23 -5.49902v-77z" />
    <glyph glyph-name="g" unicode="g" horiz-adv-x="556" 
d="M544 419l-25 -41.002h-92c7.33301 -16.667 11 -35.334 11 -56.001c0 -28 -7.83301 -54.167 -23.5 -78.5s-39.167 -45.166 -70.5 -62.499c-36.667 -20 -73.667 -30 -111 -30c-10 0 -17.667 0.333008 -23 1c-12.667 -10.667 -22 -19 -28 -25c-12 -12 -18 -22.333 -18 -31
c0 -18 8.33301 -30 25 -36c10.667 -4 26.667 -6 48 -6l137 3c40 0 65.333 -1.66699 76 -5c23.333 -7.33301 41 -25 53 -53c6.66699 -16 10.834 -28.5 12.501 -37.5s2.5 -18.833 2.5 -29.5c0 -57.333 -26 -107.5 -78 -150.5s-116.333 -64.5 -193 -64.5
c-63.333 0 -114.333 12.333 -153 37c-41.333 26.667 -62 64.334 -62 113.001c0 12 2.83301 27 8.5 45s12.5 30 20.5 36l86 48c-22 8 -35 13 -39 15c-12.667 6.66699 -21.334 17 -26.001 31c0 12.667 0.5 22.167 1.5 28.5s4.16699 12.833 9.5 19.5
c9.33301 10 22 21.333 38 34c10 8 24 18.333 42 31c-34 4.66699 -62.167 19.5 -84.5 44.5s-33.5 55.167 -33.5 90.5c0 48 16.167 86.833 48.5 116.5s75.5 48.834 129.5 57.501c5.33301 0.666992 12.666 1.66699 21.999 3s16.333 2 21 2c22.667 0 44.834 -3.5 66.501 -10.5
s40.167 -17.5 55.5 -31.5h142zM354 289.998c0 40 -8.33301 72.667 -25 98c-19.333 29.333 -48.333 44 -87 44c-39.333 -4.66699 -66.5 -16 -81.5 -34s-22.5 -45 -22.5 -81c0 -42.667 10.167 -75.5 30.5 -98.5s47.5 -34.5 81.5 -34.5c30.667 0 55.667 10 75 30
s29 45.333 29 76zM439 -104.002c0 32.667 -6.66699 55.332 -20 67.999c-16 14.667 -46.667 22 -92 22h-128c-24.667 0 -46 -10.333 -64 -31s-27 -46.667 -27 -78c0 -41.333 14.333 -73.666 43 -96.999c26 -21.333 60.333 -32 103 -32c54 0 98.333 14.333 133 43
s52 63.667 52 105z" />
    <glyph glyph-name="h" unicode="h" horiz-adv-x="582" 
d="M566 -5c-30 3.33301 -56.665 5.00195 -79.998 5.00195c-10 0 -19.667 -0.166992 -29 -0.5s-26 -1.83301 -50 -4.5v269c0 45.333 -8.5 80.166 -25.5 104.499s-39.833 36.5 -68.5 36.5c-52.667 0 -88.334 -17 -107.001 -51c-10.667 -20 -16 -48.333 -16 -85v-119
c0 -54 4.16699 -88.333 12.5 -103s31.833 -22 70.5 -22v-30c-17.333 0 -41 0.833008 -71 2.5s-48 2.5 -54 2.5c-19.333 0 -44 -0.833008 -74 -2.5s-47 -2.5 -51 -2.5v30c38.667 0 62.667 8.33301 72 25c7.33301 13.333 11 46.666 11 99.999v456c0 18.667 -8 32.167 -24 40.5
s-35 12.5 -57 12.5v30c40 6 67.333 10.333 82 13c26 5.33301 53.667 12.333 83 21c3.33301 -3.33301 5 -10 5 -20l-5 -153v-175l76 67c11.333 10 23.5 17 36.5 21s27.833 6 44.5 6c41.333 0 75.666 -14.333 102.999 -43s41 -69 41 -121v-155c0 -45.333 1 -73 3 -83
c6 -28 30 -42 72 -42v-30z" />
    <glyph glyph-name="i" unicode="i" horiz-adv-x="291" 
d="M199 631c0 -14 -5.66699 -26.667 -17 -38s-24.333 -17 -39 -17s-27.5 5.5 -38.5 16.5s-16.5 23.833 -16.5 38.5s5.33301 27.667 16 39s23.667 17 39 17c14.667 0 27.667 -5.66699 39 -17s17 -24.333 17 -39zM273 -5c-17.333 0 -41 0.833984 -71 2.50098s-48 2.5 -54 2.5
c-19.333 0 -44 -0.833008 -74 -2.5s-47 -2.5 -51 -2.5v30c38.667 0 62.667 8.33301 72 25c7.33301 13.333 11 46.666 11 99.999v202c0 18.667 -8 32.167 -24 40.5s-35 12.5 -57 12.5v30c40 6 67.333 10.333 82 13c26 5.33301 53.667 12.333 83 21
c3.33301 -3.33301 5 -10 5 -20l-5 -153v-146c0 -54 4.16699 -88.333 12.5 -103s31.833 -22 70.5 -22v-30z" />
    <glyph glyph-name="j" unicode="j" horiz-adv-x="234" 
d="M194 634c0 -14.667 -5.33301 -27.667 -16 -39s-23.667 -17 -39 -17c-14.667 0 -27.667 5.66699 -39 17s-17 24.333 -17 39c0 14 5.66699 26.667 17 38s24.333 17 39 17s27.5 -5.5 38.5 -16.5s16.5 -23.833 16.5 -38.5zM191 449l-4.99902 -152.999v-315
c0 -30 -2.83301 -58.167 -8.5 -84.5s-15.167 -51.5 -28.5 -75.5c-15.333 -34.667 -38.333 -61.334 -69 -80.001c-26.667 -16 -54.667 -24 -84 -24l-10 34c48 0 80.333 22.667 97 68c7.33301 20 13.666 60.667 18.999 122v411c0 18.667 -8 32.167 -24 40.5s-35 12.5 -57 12.5
v30c40 6 67.333 10.333 82 13c26 5.33301 53.667 12.333 83 21c3.33301 -3.33301 5 -10 5 -20z" />
    <glyph glyph-name="k" unicode="k" horiz-adv-x="556" 
d="M551 17l-94 -28.998c-13.333 10.667 -25.833 21.167 -37.5 31.5s-24.834 22.833 -39.501 37.5l-190 183v-90c0 -54 4.16699 -88.333 12.5 -103s31.833 -22 70.5 -22v-30c-17.333 0 -41 0.833008 -71 2.5s-48 2.5 -54 2.5c-19.333 0 -44 -0.833008 -74 -2.5
s-47 -2.5 -51 -2.5v30c38.667 0 62.667 8.33301 72 25c7.33301 13.333 11 46.666 11 99.999v456c0 18.667 -8 32.167 -24 40.5s-35 12.5 -57 12.5v30c40 6 67.333 10.333 82 13c26 5.33301 53.667 12.333 83 21c3.33301 -3.33301 5 -10 5 -20l-5 -153v-289l73 59l152 139h98
v-30c-18 0 -37 -5 -57 -15c-14 -6.66699 -31 -17.334 -51 -32.001l-55 -41l-54 -44l-20 -16c10 -12 20.333 -23.667 31 -35s21.667 -22.333 33 -33l101 -99c25.333 -23.333 42.333 -38.333 51 -45c24.667 -19.333 44.334 -29 59.001 -29v-23z" />
    <glyph glyph-name="l" unicode="l" horiz-adv-x="291" 
d="M273 -5c-17.333 0 -41 0.833984 -71 2.50098s-48 2.5 -54 2.5c-19.333 0 -44 -0.833008 -74 -2.5s-47 -2.5 -51 -2.5v30c38.667 0 62.667 8.33301 72 25c7.33301 13.333 11 46.666 11 99.999v456c0 18.667 -8 32.167 -24 40.5s-35 12.5 -57 12.5v30
c40 6 67.333 10.333 82 13c26 5.33301 53.667 12.333 83 21c3.33301 -3.33301 5 -10 5 -20l-5 -153v-400c0 -54 4.16699 -88.333 12.5 -103s31.833 -22 70.5 -22v-30z" />
    <glyph glyph-name="m" unicode="m" horiz-adv-x="883" 
d="M867 -5c-30 3.33301 -56.6621 5.00391 -79.9951 5.00391c-10 0 -19.667 -0.166992 -29 -0.5s-26 -1.83301 -50 -4.5v269c0 45.333 -8.5 80.166 -25.5 104.499s-39.833 36.5 -68.5 36.5c-52.667 0 -88.334 -17 -107.001 -51c-10.667 -20 -16 -48.333 -16 -85v-119
c0 -54 4.16699 -88.333 12.5 -103s31.833 -22 70.5 -22v-30c-17.333 0 -41 0.833008 -71 2.5s-48 2.5 -54 2.5c-19.333 0 -44 -0.833008 -74 -2.5s-47 -2.5 -51 -2.5v30c38.667 0 62.667 8.33301 72 25c7.33301 13.333 11 46.666 11 99.999v68v13
c0 30.667 -1.83301 59.834 -5.5 87.501s-13.834 49 -30.501 64s-38.334 22.5 -65.001 22.5c-50 0 -83.667 -17 -101 -51c-10 -19.333 -15 -47.666 -15 -84.999v-119c0 -54 4.16699 -88.333 12.5 -103s31.833 -22 70.5 -22v-30c-17.333 0 -41 0.833008 -71 2.5
s-48 2.5 -54 2.5c-19.333 0 -44 -0.833008 -74 -2.5s-47 -2.5 -51 -2.5v30c38.667 0 62.667 8.33301 72 25c7.33301 13.333 11 46.666 11 99.999v202c0 18.667 -8.16699 32.167 -24.5 40.5s-35.833 12.5 -58.5 12.5v30c44.667 7.33301 69.667 11.666 75 12.999
c26 5.33301 53.667 12.333 83 21c3.33301 -3.33301 5 -10 5 -20v-70l68 63c10.667 9.33301 22.667 16.166 36 20.499s28.666 6.5 45.999 6.5c36 0 66.167 -7.33301 90.5 -22s43.5 -38.334 57.5 -71.001l70 62c14 12.667 27.167 21 39.5 25s30.5 6 54.5 6
c41.333 0 75.666 -14.333 102.999 -43s41 -69 41 -121v-155c0 -45.333 1 -73 3 -83c6 -28 30 -42 72 -42v-30z" />
    <glyph glyph-name="n" unicode="n" horiz-adv-x="582" 
d="M566 -5c-30 3.33301 -56.6641 5.00293 -79.9971 5.00293c-10 0 -19.667 -0.166992 -29 -0.5s-26 -1.83301 -50 -4.5v269c0 45.333 -8.5 80.166 -25.5 104.499s-39.833 36.5 -68.5 36.5c-52.667 0 -88.334 -17 -107.001 -51c-10.667 -20 -16 -48.333 -16 -85v-119
c0 -54 4.16699 -88.333 12.5 -103s31.833 -22 70.5 -22v-30c-17.333 0 -41 0.833008 -71 2.5s-48 2.5 -54 2.5c-19.333 0 -44 -0.833008 -74 -2.5s-47 -2.5 -51 -2.5v30c38.667 0 62.667 8.33301 72 25c7.33301 13.333 11 46.666 11 99.999v202
c0 18.667 -8.16699 32.167 -24.5 40.5s-35.833 12.5 -58.5 12.5v30c44.667 7.33301 69.667 11.666 75 12.999c26 5.33301 53.667 12.333 83 21c3.33301 -3.33301 5 -10 5 -20v-70l95 74c5.33301 4.66699 15.166 8.5 29.499 11.5s26.5 4.5 36.5 4.5
c41.333 0 75.666 -14.333 102.999 -43s41 -69 41 -121v-155c0 -45.333 1 -73 3 -83c6 -28 30 -42 72 -42v-30z" />
    <glyph glyph-name="o" unicode="o" horiz-adv-x="546" 
d="M514 241c0 -76.667 -24.332 -139.335 -72.999 -188.002s-111.667 -73 -189 -73c-63.333 0 -115.833 21.833 -157.5 65.5s-62.5 99.834 -62.5 168.501c0 76.667 22.667 138.334 68 185.001s107.666 70 186.999 70c63.333 0 117 -22 161 -66s66 -98 66 -162z
M419.001 196.999c0 67.333 -14.002 124.002 -42.002 170.002s-65.667 69 -113 69c-49.333 0 -85.666 -18 -108.999 -54c-20 -30.667 -30 -72.334 -30 -125.001c0 -64 11.667 -117.667 35 -161c29.333 -54.667 73 -82 131 -82c42.667 0 75.334 18.667 98.001 56
c20 33.333 30 75.666 30 126.999z" />
    <glyph glyph-name="p" unicode="p" horiz-adv-x="601" 
d="M569 271c0 -32 -6.49902 -63.4971 -19.499 -94.4971s-30.833 -59.833 -53.5 -86.5c-2 -3.33301 -5.66699 -6.66602 -11 -9.99902s-9.33301 -5.66602 -12 -6.99902l-36 -23l-65 -43c-10.667 -6.66699 -22.5 -11.5 -35.5 -14.5s-26.5 -4.5 -40.5 -4.5
c-16.667 0 -32.334 2.16699 -47.001 6.5s-34.334 12.166 -59.001 23.499v-146c0 -54 4.16699 -88.333 12.5 -103s31.833 -22 70.5 -22v-30c-17.333 0 -41 0.833008 -71 2.5s-48 2.5 -54 2.5c-19.333 0 -44 -0.833008 -74 -2.5s-47 -2.5 -51 -2.5v30
c38.667 0 62.667 8.33301 72 25c7.33301 13.333 11 46.666 11 99.999v480c0 18.667 -8.16699 32.167 -24.5 40.5s-35.833 12.5 -58.5 12.5v30c44.667 7.33301 69.667 11.666 75 12.999c26 5.33301 53.667 12.333 83 21c3.33301 -3.33301 5 -10 5 -20v-70l105 75
c12 5.33301 24.833 9.16602 38.5 11.499s28.834 3.5 45.501 3.5c58.667 0 105.667 -18.333 141 -55s53 -84.334 53 -143.001zM481.001 232.003c0 51.333 -12.667 92.667 -38 124c-27.333 34 -66.333 51 -117 51c-26 0 -51.167 -7.33301 -75.5 -22s-42.833 -33.667 -55.5 -57
c-3.33301 -6 -5 -15 -5 -27v-203c36.667 -38 81.667 -57 135 -57c46 0 83.5 18.167 112.5 54.5s43.5 81.833 43.5 136.5z" />
    <glyph glyph-name="q" unicode="q" horiz-adv-x="560" 
d="M557 -283c-17.333 0 -41.002 0.835938 -71.002 2.50293s-48 2.5 -54 2.5c-19.333 0 -44 -0.833008 -74 -2.5s-47 -2.5 -51 -2.5v30c38.667 0 62.667 8.33301 72 25c7.33301 13.333 11 46.666 11 99.999v198l-119 -75c-4.66699 -2.66699 -11.167 -4.5 -19.5 -5.5
s-17.166 -1.5 -26.499 -1.5c-60 0 -108 23 -144 69c-32.667 42 -49 94 -49 156c0 40 6 74.333 18 103c15.333 36.667 40 65 74 85l63 37c18.667 10.667 36.167 18.5 52.5 23.5s34.5 7.5 54.5 7.5c24.667 0 44.167 -1.5 58.5 -4.5s33.833 -9.83301 58.5 -20.5l18 -8l49 31
l19 -11c-5.33301 -10.667 -9.16602 -20.834 -11.499 -30.501s-4.83301 -30.834 -7.5 -63.501l-4 -44v-446c0 -54 4.16699 -88.333 12.5 -103s31.833 -22 70.5 -22v-30zM389.998 113.003v268c-40.667 32 -81.667 48 -123 48c-46 0 -82.167 -17.333 -108.5 -52
s-39.5 -76 -39.5 -124c0 -57.333 11 -104 33 -140c27.333 -44 68 -66 122 -66c20.667 0 42.5 6.5 65.5 19.5s39.833 28.5 50.5 46.5z" />
    <glyph glyph-name="r" unicode="r" horiz-adv-x="395" 
d="M378 447l-7.00098 -106.999h-22c-6.66699 14 -15.5 25 -26.5 33s-23.833 12 -38.5 12c-32.667 0 -56.5 -13 -71.5 -39s-22.5 -58.667 -22.5 -98v-98c0 -54 4.16699 -88.333 12.5 -103s31.833 -22 70.5 -22v-30c-17.333 0 -41 0.833008 -71 2.5s-48 2.5 -54 2.5
c-19.333 0 -44 -0.833008 -74 -2.5s-47 -2.5 -51 -2.5v30c38.667 0 62.667 8.33301 72 25c7.33301 13.333 11 46.666 11 99.999v202c0 18.667 -8.16699 32.167 -24.5 40.5s-35.833 12.5 -58.5 12.5v30c44.667 7.33301 69.667 11.666 75 12.999
c26 5.33301 53.667 12.333 83 21c3.33301 -3.33301 5 -10 5 -20v-70l56 49c13.333 12 26.333 21.333 39 28c16.667 8.66699 32.334 13 47.001 13c12 0 21 -0.5 27 -1.5s13 -3.5 21 -7.5c3.33301 -1.33301 4 -5.66602 2 -12.999z" />
    <glyph glyph-name="s" unicode="s" horiz-adv-x="424" 
d="M391 148c0 -52 -22.666 -93.668 -67.999 -125.001c-41.333 -28.667 -92 -43 -152 -43c-24.667 0 -47.334 2 -68.001 6s-44 11.667 -70 23c6 42 9 86.667 9 134h30v-26c0 -26.667 1.33301 -43.167 4 -49.5s14.334 -15.5 35.001 -27.5
c11.333 -6.66699 24.833 -12.167 40.5 -16.5s32.167 -6.5 49.5 -6.5c32 0 59.5 8.5 82.5 25.5s34.5 38.833 34.5 65.5c0 32 -16 54 -48 66l-147 40c-56.667 21.333 -85 57.666 -85 108.999c0 50 19.333 87.667 58 113c33.333 22 76.666 33 129.999 33
c22 0 43.667 -2.16699 65 -6.5s43 -11.166 65 -20.499c-4 -22 -6 -59 -6 -111h-28c0 18 -2 33.333 -6 46s-12 23.334 -24 32.001s-25.833 15.334 -41.5 20.001s-30.5 7 -44.5 7c-31.333 0 -55.5 -8.16699 -72.5 -24.5s-25.5 -34.833 -25.5 -55.5
c0 -12.667 3.66699 -24.334 11 -35.001c12.667 -16 65.667 -35 159 -57c75.333 -18 113 -56.667 113 -116z" />
    <glyph glyph-name="t" unicode="t" horiz-adv-x="326" 
d="M314 434l-6.99902 -48.998h-132v-225c0 -40 1.66699 -64.667 5 -74c8 -22.667 28 -34 60 -34c10.667 0 20.667 2.5 30 7.5s15.666 8.5 18.999 10.5l17 -17l-27 -29l-22 -24c-2 -3.33301 -6 -5 -12 -5c-17.333 -4.66699 -32.666 -7 -45.999 -7
c-36.667 0 -63.834 9.16699 -81.501 27.5s-26.5 44.5 -26.5 78.5v291l-67 -6v20l71 35l1 70l-7 79c15.333 4.66699 32 11 50 19c12 5.33301 24.333 11.666 37 18.999l13 -10c-2.66699 -8 -4.66699 -14.833 -6 -20.5s-2 -10.834 -2 -15.501l-6 -141h139z" />
    <glyph glyph-name="u" unicode="u" horiz-adv-x="603" 
d="M581 -5c-31.333 3.33301 -59.666 5.00293 -84.999 5.00293c-17.333 0 -31 -0.333008 -41 -1s-24.333 -2 -43 -4c1.33301 6 2.33301 14.667 3 26s1 19 1 23v38c-6.66699 -4.66699 -16.667 -12.834 -30 -24.501s-24 -21.5 -32 -29.5
c-10.667 -10.667 -16.334 -16 -17.001 -16c-10 -8 -23.167 -14 -39.5 -18s-36.5 -6 -60.5 -6c-62 0 -103 18.333 -123 55c-12 22 -18 60.667 -18 116v193c0 18.667 -8 32.167 -24 40.5s-35 12.5 -57 12.5v30c40 6 67.333 10.333 82 13c26 5.33301 53.667 12.333 83 21
c3.33301 -3.33301 5 -10 5 -20l-5 -153v-126c0 -43.333 6.33301 -74 19 -92c16 -22 45 -33 87 -33c23.333 0 49 9.5 77 28.5s44.333 39.5 49 61.5c0.666992 5.33301 1.5 10.666 2.5 15.999s1.5 11.666 1.5 18.999v182c0 18.667 -8 32.167 -24 40.5s-35 12.5 -57 12.5v30
c40 6 67.333 10.333 82 13c26 5.33301 53.667 12.333 83 21c3.33301 -3.33301 5 -10 5 -20l-5 -153v-208c-0.666992 -8.66699 -1 -15 -1 -19c0 -8 1.16699 -15 3.5 -21s6.83301 -11 13.5 -15c14 -4.66699 29.667 -7 47 -7l18 -1v-30z" />
    <glyph glyph-name="v" unicode="v" horiz-adv-x="565" 
d="M549 429c-18 0 -34 -7.33301 -48 -22c-18 -19.333 -38.333 -53.666 -61 -102.999l-94 -208l-30 -74l-13 -29h-51l-163 383c-8.66699 20.667 -17.834 34.667 -27.501 42s-24.834 11 -45.501 11v30h233v-30c-26 0 -44 -2.66699 -54 -8s-15 -13.666 -15 -24.999
c0 -8 3.33301 -20 10 -36l12 -27l101 -249c10.667 23.333 18.334 40.666 23.001 51.999c21.333 46.667 34.333 76 39 88l42 106c7.33301 16.667 12.333 28.667 15 36c5.33301 13.333 8 23.666 8 30.999c0 10.667 -5.16699 18.667 -15.5 24s-28.166 8 -53.499 8v30h188v-30z
" />
    <glyph glyph-name="w" unicode="w" horiz-adv-x="834" 
d="M818 429c-24.667 0 -44.335 -8.99707 -59.002 -26.9971c-7.33301 -9.33301 -17.666 -29.333 -30.999 -60l-43 -98l-42 -105l-52 -146h-46l-136 342l-52 -112l-18 -38l-58 -135l-22 -57h-47l-102 336c-11.333 38 -21.333 62.667 -30 74
c-13.333 17.333 -34.666 26 -63.999 26v30h238v-30c-30 0 -50.5 -2.66699 -61.5 -8s-16.5 -13.333 -16.5 -24c0 -8 1.66699 -16.833 5 -26.5s6.33301 -17.834 9 -24.501l74 -242l36 81l123 279h23l29 -76l115 -290l48 124l34 94c4 10.667 7.66699 21 11 31
c6.66699 19.333 10 33.666 10 42.999c0 13.333 -5.33301 23.166 -16 29.499s-29 9.5 -55 9.5v30h196v-30z" />
    <glyph glyph-name="x" unicode="x" horiz-adv-x="516" 
d="M496 -5c-22 3.33301 -42.334 4.99902 -61.001 4.99902c-12 0 -21.667 -0.333008 -29 -1s-18.333 -2 -33 -4c-6 6 -10.667 11.333 -14 16c-5.33301 8.66699 -9.33301 15 -12 19l-106 155l-37 -48c-19.333 -24.667 -31.666 -41 -36.999 -49l-61 -93
c-13.333 2.66699 -23 4.16699 -29 4.5s-10.667 0.5 -14 0.5c-13.333 0 -27.666 -1.66699 -42.999 -5v30c16 0 30.5 4.16699 43.5 12.5s27.167 22.166 42.5 41.499l113 136c-14.667 25.333 -30.667 49.333 -48 72l-69 96c-22 26 -44 39 -66 39
c-4.66699 0 -8.33398 -0.333008 -11.001 -1l-5 28l116 19c10.667 -10.667 21 -21.667 31 -33c6 -7.33301 15.333 -19.666 28 -36.999l79 -119l48 65l81 115h75v-30c-16.667 1.33301 -31 -3 -43 -13c-2.66699 -2 -8.66699 -8.66699 -18 -20l-124 -148l135 -182
c13.333 -17.333 22.333 -27.666 27 -30.999c9.33301 -6.66699 23 -10 41 -10v-30z" />
    <glyph glyph-name="y" unicode="y" horiz-adv-x="556" 
d="M544 429c-23.333 0 -41.3311 -6.66602 -53.998 -19.999c-8.66699 -8.66699 -18.334 -25.334 -29.001 -50.001l-232 -519c-20 -42 -38.667 -71.333 -56 -88c-24.667 -23.333 -56.667 -35 -96 -35c-7.33301 0 -16 1.66699 -26 5s-18 6.66602 -24 9.99902l24 75h13
c7.33301 -7.33301 15.833 -13.666 25.5 -18.999s18.167 -7.33301 25.5 -6c25.333 2.66699 48.333 20 69 52c8.66699 13.333 22 40.333 40 81l25 61l-172 422c-4.66699 12 -11.5 20.167 -20.5 24.5s-23.833 6.5 -44.5 6.5v30h232v-30c-26.667 0 -45 -2.5 -55 -7.5
s-15 -12.167 -15 -21.5c0 -4 1.66699 -10.167 5 -18.5s5.66602 -14.5 6.99902 -18.5l111 -277l104 254l13 31.5c4.66699 11 7 19.833 7 26.5c0 10 -4.83301 17.667 -14.5 23s-27.167 8 -52.5 8v30h190v-30z" />
    <glyph glyph-name="z" unicode="z" 
d="M466 139l-9 -68.999l-6 -75c-48 0 -86.667 0.333008 -116 1c-118 2.66699 -182.667 4 -194 4c-16.667 0 -39.167 -0.833008 -67.5 -2.5s-45.5 -2.5 -51.5 -2.5l-6 22l92 105l128 161l113 142h-156c-22.667 0 -42.167 -1.83301 -58.5 -5.5s-25.833 -10.167 -28.5 -19.5
l-8 -25l-5 -52h-28c2 18 3.16699 29.5 3.5 34.5s0.5 15.167 0.5 30.5v76c43.333 0 98.333 -0.833008 165 -2.5s105 -2.5 115 -2.5c32 0 67.333 1.66699 106 5v-36l-36 -42l-175 -218l-103 -134h186c12 0 24.333 0.5 37 1.5s27.667 4.16699 45 9.5
c6 1.33301 9.66699 7.66602 11 18.999l15 75h31z" />
    <glyph glyph-name="braceleft" unicode="{" horiz-adv-x="333" 
d="M289 -116c-59.333 0 -99.332 9.00293 -119.999 27.0029c-23.333 20.667 -35 61 -35 121v159c0 36 -4.66699 62 -14 78s-30 28.333 -62 37c30 8.66699 50.167 21.334 60.5 38.001s15.5 41.667 15.5 75v175c0 55.333 13.333 93 40 113c21.333 16 59.666 24 114.999 24
c-31.333 -8 -53 -21.333 -65 -40s-18 -46.334 -18 -83.001v-174c0 -39.333 -4.66699 -67.333 -14 -84c-11.333 -20.667 -33.666 -35.334 -66.999 -44.001c33.333 -8.66699 55.666 -24.334 66.999 -47.001c9.33301 -18.667 14 -48.334 14 -89.001v-164
c0 -36 6.16699 -63.667 18.5 -83s33.833 -32.333 64.5 -39z" />
    <glyph glyph-name="bar" unicode="|" horiz-adv-x="606" 
d="M331 0h-56v731h56v-731z" />
    <glyph glyph-name="braceright" unicode="}" horiz-adv-x="333" 
d="M275 306c-31.333 -8.66699 -51.832 -20.998 -61.499 -36.998s-14.5 -42 -14.5 -78v-159c0 -59.333 -11.167 -98.833 -33.5 -118.5s-62.833 -29.5 -121.5 -29.5c30.667 6 52.167 19 64.5 39s18.5 47.667 18.5 83v164c0 41.333 4.33301 70.666 13 87.999
c11.333 23.333 34 39.333 68 48c-32 8.66699 -53.5 22.667 -64.5 42s-16.5 48 -16.5 86v174c0 36 -6 63.5 -18 82.5s-33.667 32.5 -65 40.5c55.333 0 93.666 -8 114.999 -24c26.667 -20 40 -57.667 40 -113v-175c0 -33.333 5 -58.333 15 -75s30.333 -29.334 61 -38.001z" />
    <glyph glyph-name="asciitilde" unicode="~" horiz-adv-x="606" 
d="M555 307c-16.667 -31.333 -35.332 -55.999 -55.999 -73.999c-26.667 -23.333 -55 -35 -85 -35c-12 0 -28.333 3.33301 -49 10c-10.667 3.33301 -39.334 14.666 -86.001 33.999c-26.667 10.667 -40.667 16.334 -42 17.001c-17.333 6 -32.333 9 -45 9
c-24 0 -45.333 -10 -64 -30c-10 -10.667 -24 -31.334 -42 -62.001l-35 40c20 36 38.667 62.333 56 79c25.333 24.667 54 37 86 37c24.667 0 64 -11.833 118 -35.5s88.667 -35.5 104 -35.5c21.333 0 42.333 9.33301 63 28c16 14.667 30 34 42 58z" />
    <glyph glyph-name="c128" horiz-adv-x="834" 
d="M785 116l0.000976562 -24.9971c0 -42 -2.66699 -74.667 -8 -98c-8.66699 -38 -26.667 -73.667 -54 -107c-23.333 -28 -50.666 -49 -81.999 -63c-26 -11.333 -53 -17 -81 -17v78l11 6c18.667 -12.667 38 -19 58 -19c21.333 0 37.333 9.66699 48 29c8.66699 16 13 37 13 63
v246c0 62 -9.33301 105.333 -28 130c-22.667 29.333 -65.334 44 -128.001 44c-34 0 -66.167 -6.16699 -96.5 -18.5s-56.5 -29.5 -78.5 -51.5c-2.66699 -2.66699 -4.33398 -8.83398 -5.00098 -18.501s-1 -17.834 -1 -24.501v-155c0 -41.333 3.66699 -66 11 -74
c10 -10.667 38 -16 84 -16v-30c-22 0 -40 0.333008 -54 1c-54.667 2.66699 -84.667 4 -90 4c-22.667 0 -51 -0.833008 -85 -2.5s-52.667 -2.5 -56 -2.5v30c46 0 73.333 4.66699 82 14s13 34.666 13 75.999v428v14v12v47c-2 12.667 -3.33301 21.667 -4 27l-154 -5
c-12 0 -20.833 -2 -26.5 -6s-8.5 -12 -8.5 -24c-3.33301 -16.667 -6 -31 -8 -43s-3 -23.333 -3 -34h-30l-1 56c0 14.667 -0.833008 34.5 -2.5 59.5s-2.5 40.833 -2.5 47.5c43.333 0 99 -0.833008 167 -2.5s108.333 -2.5 121 -2.5c44.667 0 80.667 0.333008 108 1
c110 2.66699 170.333 4 181 4c0 -15.333 -0.833008 -35.833 -2.5 -61.5s-2.5 -40.834 -2.5 -45.501l-1 -56h-30c0 10.667 -1.5 24.167 -4.5 40.5s-5.16699 28.5 -6.5 36.5c0 12.667 -2.66699 20.834 -8 24.501s-14.333 5.5 -27 5.5l-156 5c-2.66699 -26.667 -4 -60 -4 -100
v-170c40.667 22 71.667 38 93 48c38.667 18 86.667 27 144 27c80 0 134.667 -23.333 164 -70c20.667 -32.667 31 -84 31 -154v-108z" />
    <glyph glyph-name="c128" unicode="&#x402;" horiz-adv-x="834" 
d="M785 116l0.000976562 -24.9971c0 -42 -2.66699 -74.667 -8 -98c-8.66699 -38 -26.667 -73.667 -54 -107c-23.333 -28 -50.666 -49 -81.999 -63c-26 -11.333 -53 -17 -81 -17v78l11 6c18.667 -12.667 38 -19 58 -19c21.333 0 37.333 9.66699 48 29c8.66699 16 13 37 13 63
v246c0 62 -9.33301 105.333 -28 130c-22.667 29.333 -65.334 44 -128.001 44c-34 0 -66.167 -6.16699 -96.5 -18.5s-56.5 -29.5 -78.5 -51.5c-2.66699 -2.66699 -4.33398 -8.83398 -5.00098 -18.501s-1 -17.834 -1 -24.501v-155c0 -41.333 3.66699 -66 11 -74
c10 -10.667 38 -16 84 -16v-30c-22 0 -40 0.333008 -54 1c-54.667 2.66699 -84.667 4 -90 4c-22.667 0 -51 -0.833008 -85 -2.5s-52.667 -2.5 -56 -2.5v30c46 0 73.333 4.66699 82 14s13 34.666 13 75.999v428v14v12v47c-2 12.667 -3.33301 21.667 -4 27l-154 -5
c-12 0 -20.833 -2 -26.5 -6s-8.5 -12 -8.5 -24c-3.33301 -16.667 -6 -31 -8 -43s-3 -23.333 -3 -34h-30l-1 56c0 14.667 -0.833008 34.5 -2.5 59.5s-2.5 40.833 -2.5 47.5c43.333 0 99 -0.833008 167 -2.5s108.333 -2.5 121 -2.5c44.667 0 80.667 0.333008 108 1
c110 2.66699 170.333 4 181 4c0 -15.333 -0.833008 -35.833 -2.5 -61.5s-2.5 -40.834 -2.5 -45.501l-1 -56h-30c0 10.667 -1.5 24.167 -4.5 40.5s-5.16699 28.5 -6.5 36.5c0 12.667 -2.66699 20.834 -8 24.501s-14.333 5.5 -27 5.5l-156 5c-2.66699 -26.667 -4 -60 -4 -100
v-170c40.667 22 71.667 38 93 48c38.667 18 86.667 27 144 27c80 0 134.667 -23.333 164 -70c20.667 -32.667 31 -84 31 -154v-108z" />
    <glyph glyph-name="c129" horiz-adv-x="573" 
d="M450 899c1.33301 -2.66699 1.99902 -6.66895 1.99902 -12.002c0 -9.33301 -4.66699 -18.333 -14 -27c-6 -5.33301 -15 -11.666 -27 -18.999l-144 -91h-40l138 139l15 14.5c5.33301 5 11.333 9.5 18 13.5l12 3.5c3.33301 1 6 1.5 8 1.5
c4.66699 0 10.334 -1.33301 17.001 -4c9.33301 -5.33301 14.333 -11.666 15 -18.999zM557.999 688.998c-10.667 -32 -15.999 -64.332 -15.999 -96.999l-3 -62h-31c0 18.667 -1 34.334 -3 47.001s-5.66699 30.667 -11 54c-22 6.66699 -45 11.167 -69 13.5
s-50.667 3.5 -80 3.5c-22 0 -43.5 -0.166992 -64.5 -0.5s-40.833 -1.83301 -59.5 -4.5c-2 -10.667 -3.33301 -19.834 -4 -27.501s-1 -20.167 -1 -37.5v-463c0 -41.333 3.66699 -66 11 -74c10 -10.667 38 -16 84 -16v-30c-22 0 -40 0.333008 -54 1
c-54.667 2.66699 -84.667 4 -90 4c-22.667 0 -51 -0.833008 -85 -2.5s-52.667 -2.5 -56 -2.5v30c46 0 73.333 4.66699 82 14s13 34.666 13 75.999v459c0 41.333 -3.66699 66 -11 74c-10 10.667 -38 16 -84 16v30c26 0 60.667 -0.833008 104 -2.5s69.666 -2.5 78.999 -2.5
c28.667 0 51.667 0.333008 69 1c70 2.66699 108 4 114 4c31.333 0 62 -0.166992 92 -0.5s54.667 -1.83301 74 -4.5z" />
    <glyph glyph-name="c129" unicode="&#x403;" horiz-adv-x="573" 
d="M450 899c1.33301 -2.66699 1.99902 -6.66895 1.99902 -12.002c0 -9.33301 -4.66699 -18.333 -14 -27c-6 -5.33301 -15 -11.666 -27 -18.999l-144 -91h-40l138 139l15 14.5c5.33301 5 11.333 9.5 18 13.5l12 3.5c3.33301 1 6 1.5 8 1.5
c4.66699 0 10.334 -1.33301 17.001 -4c9.33301 -5.33301 14.333 -11.666 15 -18.999zM557.999 688.998c-10.667 -32 -15.999 -64.332 -15.999 -96.999l-3 -62h-31c0 18.667 -1 34.334 -3 47.001s-5.66699 30.667 -11 54c-22 6.66699 -45 11.167 -69 13.5
s-50.667 3.5 -80 3.5c-22 0 -43.5 -0.166992 -64.5 -0.5s-40.833 -1.83301 -59.5 -4.5c-2 -10.667 -3.33301 -19.834 -4 -27.501s-1 -20.167 -1 -37.5v-463c0 -41.333 3.66699 -66 11 -74c10 -10.667 38 -16 84 -16v-30c-22 0 -40 0.333008 -54 1
c-54.667 2.66699 -84.667 4 -90 4c-22.667 0 -51 -0.833008 -85 -2.5s-52.667 -2.5 -56 -2.5v30c46 0 73.333 4.66699 82 14s13 34.666 13 75.999v459c0 41.333 -3.66699 66 -11 74c-10 10.667 -38 16 -84 16v30c26 0 60.667 -0.833008 104 -2.5s69.666 -2.5 78.999 -2.5
c28.667 0 51.667 0.333008 69 1c70 2.66699 108 4 114 4c31.333 0 62 -0.166992 92 -0.5s54.667 -1.83301 74 -4.5z" />
    <glyph glyph-name="c141" horiz-adv-x="726" 
d="M535 899c1.33301 -2.66699 1.99902 -6.66895 1.99902 -12.002c0 -9.33301 -4.66699 -18.333 -14 -27c-6 -5.33301 -15 -11.666 -27 -18.999l-144 -91h-40l138 139l15 14.5c5.33301 5 11.333 9.5 18 13.5l12 3.5c3.33301 1 6 1.5 8 1.5
c4.66699 0 10.334 -1.33301 17.001 -4c9.33301 -5.33301 14.333 -11.666 15 -18.999zM722.999 -5.00195c-25.333 3.33301 -48.665 5 -69.998 5c-14.667 0 -25.834 -0.333008 -33.501 -1s-20.167 -2 -37.5 -4c-4 6.66699 -11.667 15 -23 25l-16 14l-317 298l-10 -7v-210
c0 -41.333 3.66699 -66 11 -74c10 -10.667 38 -16 84 -16v-30c-22 0 -40 0.333008 -54 1c-54.667 2.66699 -84.667 4 -90 4c-22.667 0 -51 -0.833008 -85 -2.5s-52.667 -2.5 -56 -2.5v30c46 0 73.333 4.66699 82 14s13 34.666 13 75.999v459c0 41.333 -3.66699 66 -11 74
c-10 10.667 -38 16 -84 16v30c19.333 0 45.666 -0.833008 78.999 -2.5s54 -2.5 62 -2.5c22 0 40 0.333008 54 1c54.667 2.66699 84.667 4 90 4v-30c-46 0 -73.333 -4.66699 -82 -14s-13 -34.666 -13 -75.999v-219c24 16.667 47.667 36.667 71 60l223 221
c5.33301 5.33301 9.5 12.333 12.5 21s4.5 21 4.5 37c18.667 -2 32.667 -3.33301 42 -4s23.666 -1 42.999 -1c10 0 19.5 0.166992 28.5 0.5s27.5 1.83301 55.5 4.5v-30c-29.333 0 -50.166 -2.33301 -62.499 -7s-30.833 -16.667 -55.5 -36l-267 -241l328 -309l28 -26
c16 -13.333 34.667 -20 56 -20v-30z" />
    <glyph glyph-name="c141" unicode="&#x40c;" horiz-adv-x="726" 
d="M535 899c1.33301 -2.66699 1.99902 -6.66895 1.99902 -12.002c0 -9.33301 -4.66699 -18.333 -14 -27c-6 -5.33301 -15 -11.666 -27 -18.999l-144 -91h-40l138 139l15 14.5c5.33301 5 11.333 9.5 18 13.5l12 3.5c3.33301 1 6 1.5 8 1.5
c4.66699 0 10.334 -1.33301 17.001 -4c9.33301 -5.33301 14.333 -11.666 15 -18.999zM722.999 -5.00195c-25.333 3.33301 -48.665 5 -69.998 5c-14.667 0 -25.834 -0.333008 -33.501 -1s-20.167 -2 -37.5 -4c-4 6.66699 -11.667 15 -23 25l-16 14l-317 298l-10 -7v-210
c0 -41.333 3.66699 -66 11 -74c10 -10.667 38 -16 84 -16v-30c-22 0 -40 0.333008 -54 1c-54.667 2.66699 -84.667 4 -90 4c-22.667 0 -51 -0.833008 -85 -2.5s-52.667 -2.5 -56 -2.5v30c46 0 73.333 4.66699 82 14s13 34.666 13 75.999v459c0 41.333 -3.66699 66 -11 74
c-10 10.667 -38 16 -84 16v30c19.333 0 45.666 -0.833008 78.999 -2.5s54 -2.5 62 -2.5c22 0 40 0.333008 54 1c54.667 2.66699 84.667 4 90 4v-30c-46 0 -73.333 -4.66699 -82 -14s-13 -34.666 -13 -75.999v-219c24 16.667 47.667 36.667 71 60l223 221
c5.33301 5.33301 9.5 12.333 12.5 21s4.5 21 4.5 37c18.667 -2 32.667 -3.33301 42 -4s23.666 -1 42.999 -1c10 0 19.5 0.166992 28.5 0.5s27.5 1.83301 55.5 4.5v-30c-29.333 0 -50.166 -2.33301 -62.499 -7s-30.833 -16.667 -55.5 -36l-267 -241l328 -309l28 -26
c16 -13.333 34.667 -20 56 -20v-30z" />
    <glyph glyph-name="c142" horiz-adv-x="888" 
d="M880 -5c-19.333 0 -45.666 0.836914 -78.999 2.50391s-54 2.5 -62 2.5c-22 0 -50.167 -0.833008 -84.5 -2.5s-54.166 -2.5 -59.499 -2.5v30c46 0 73.333 4.66699 82 14s13 34.666 13 75.999v94c0 62 -9.33301 105.333 -28 130c-22.667 29.333 -65.334 44 -128.001 44
c-34 0 -66.167 -6.16699 -96.5 -18.5s-56.5 -29.5 -78.5 -51.5c-2.66699 -2.66699 -4.33398 -8.83398 -5.00098 -18.501s-1 -17.834 -1 -24.501v-155c0 -41.333 3.66699 -66 11 -74c10 -10.667 38 -16 84 -16v-30c-22 0 -40 0.333008 -54 1c-54.667 2.66699 -84.667 4 -90 4
c-22.667 0 -51 -0.833008 -85 -2.5s-52.667 -2.5 -56 -2.5v30c46 0 73.333 4.66699 82 14s13 34.666 13 75.999v428v14v12v47c-2 12.667 -3.33301 21.667 -4 27l-154 -5c-12 0 -20.833 -2 -26.5 -6s-8.5 -12 -8.5 -24c-3.33301 -16.667 -6 -31 -8 -43s-3 -23.333 -3 -34h-30
l-1 56c0 14.667 -0.833008 34.5 -2.5 59.5s-2.5 40.833 -2.5 47.5c43.333 0 99 -0.833008 167 -2.5s108.333 -2.5 121 -2.5c44.667 0 80.667 0.333008 108 1c110 2.66699 170.333 4 181 4c0 -15.333 -0.833008 -35.833 -2.5 -61.5s-2.5 -40.834 -2.5 -45.501l-1 -56h-30
c0 10.667 -1.5 24.167 -4.5 40.5s-5.16699 28.5 -6.5 36.5c0 12.667 -2.66699 20.834 -8 24.501s-14.333 5.5 -27 5.5l-156 5c-2.66699 -26.667 -4 -60 -4 -100v-170c40.667 22 71.667 38 93 48c38.667 18 86.667 27 144 27c80 0 134.667 -23.333 164 -70
c20.667 -32.667 31 -84 31 -154v-109c0 -41.333 3.66699 -66 11 -74c10 -10.667 38 -16 84 -16v-30z" />
    <glyph glyph-name="c142" unicode="&#x40b;" horiz-adv-x="888" 
d="M880 -5c-19.333 0 -45.666 0.836914 -78.999 2.50391s-54 2.5 -62 2.5c-22 0 -50.167 -0.833008 -84.5 -2.5s-54.166 -2.5 -59.499 -2.5v30c46 0 73.333 4.66699 82 14s13 34.666 13 75.999v94c0 62 -9.33301 105.333 -28 130c-22.667 29.333 -65.334 44 -128.001 44
c-34 0 -66.167 -6.16699 -96.5 -18.5s-56.5 -29.5 -78.5 -51.5c-2.66699 -2.66699 -4.33398 -8.83398 -5.00098 -18.501s-1 -17.834 -1 -24.501v-155c0 -41.333 3.66699 -66 11 -74c10 -10.667 38 -16 84 -16v-30c-22 0 -40 0.333008 -54 1c-54.667 2.66699 -84.667 4 -90 4
c-22.667 0 -51 -0.833008 -85 -2.5s-52.667 -2.5 -56 -2.5v30c46 0 73.333 4.66699 82 14s13 34.666 13 75.999v428v14v12v47c-2 12.667 -3.33301 21.667 -4 27l-154 -5c-12 0 -20.833 -2 -26.5 -6s-8.5 -12 -8.5 -24c-3.33301 -16.667 -6 -31 -8 -43s-3 -23.333 -3 -34h-30
l-1 56c0 14.667 -0.833008 34.5 -2.5 59.5s-2.5 40.833 -2.5 47.5c43.333 0 99 -0.833008 167 -2.5s108.333 -2.5 121 -2.5c44.667 0 80.667 0.333008 108 1c110 2.66699 170.333 4 181 4c0 -15.333 -0.833008 -35.833 -2.5 -61.5s-2.5 -40.834 -2.5 -45.501l-1 -56h-30
c0 10.667 -1.5 24.167 -4.5 40.5s-5.16699 28.5 -6.5 36.5c0 12.667 -2.66699 20.834 -8 24.501s-14.333 5.5 -27 5.5l-156 5c-2.66699 -26.667 -4 -60 -4 -100v-170c40.667 22 71.667 38 93 48c38.667 18 86.667 27 144 27c80 0 134.667 -23.333 164 -70
c20.667 -32.667 31 -84 31 -154v-109c0 -41.333 3.66699 -66 11 -74c10 -10.667 38 -16 84 -16v-30z" />
    <glyph glyph-name="c143" horiz-adv-x="832" 
d="M806 -5c-24.667 0 -61.998 0.832031 -111.998 2.49902s-82.333 2.5 -97 2.5c-68.667 0 -119 -5.66699 -151 -17c-4.66699 -22 -8.16699 -40.333 -10.5 -55s-3.5 -31.667 -3.5 -51h-31c0 19.333 -1.16699 36.333 -3.5 51s-5.83301 33 -10.5 55
c-33.333 11.333 -84 17 -152 17c-34 0 -76 -0.833008 -126 -2.5s-77.667 -2.5 -83 -2.5v30c46 0 73.333 4.66699 82 14s13 34.666 13 75.999v459c0 41.333 -3.66699 66 -11 74c-10 10.667 -38 16 -84 16v30c19.333 0 45.666 -0.833008 78.999 -2.5s54 -2.5 62 -2.5
c22 0 40 0.333008 54 1c54.667 2.66699 84.667 4 90 4v-30c-46 0 -73.333 -4.66699 -82 -14s-13 -34.666 -13 -75.999v-441c0 -36 1.66699 -65 5 -87c14 -2 32.667 -3.33301 56 -4s47 -1 71 -1h136h31h26c13.333 0 26.333 0.333008 39 1s23 2 31 4c2 12 3.33301 27 4 45
s1 32 1 42v441c0 41.333 -3.66699 66 -11 74c-10 10.667 -38 16 -84 16v30c19.333 0 45.666 -0.833008 78.999 -2.5s54 -2.5 62 -2.5c22 0 40 0.333008 54 1c54.667 2.66699 84.667 4 90 4v-30c-46 0 -73.333 -4.66699 -82 -14s-13 -34.666 -13 -75.999v-458
c0 -40 4.83301 -65.167 14.5 -75.5s36.5 -15.5 80.5 -15.5v-30z" />
    <glyph glyph-name="c143" unicode="&#x40f;" horiz-adv-x="832" 
d="M806 -5c-24.667 0 -61.998 0.832031 -111.998 2.49902s-82.333 2.5 -97 2.5c-68.667 0 -119 -5.66699 -151 -17c-4.66699 -22 -8.16699 -40.333 -10.5 -55s-3.5 -31.667 -3.5 -51h-31c0 19.333 -1.16699 36.333 -3.5 51s-5.83301 33 -10.5 55
c-33.333 11.333 -84 17 -152 17c-34 0 -76 -0.833008 -126 -2.5s-77.667 -2.5 -83 -2.5v30c46 0 73.333 4.66699 82 14s13 34.666 13 75.999v459c0 41.333 -3.66699 66 -11 74c-10 10.667 -38 16 -84 16v30c19.333 0 45.666 -0.833008 78.999 -2.5s54 -2.5 62 -2.5
c22 0 40 0.333008 54 1c54.667 2.66699 84.667 4 90 4v-30c-46 0 -73.333 -4.66699 -82 -14s-13 -34.666 -13 -75.999v-441c0 -36 1.66699 -65 5 -87c14 -2 32.667 -3.33301 56 -4s47 -1 71 -1h136h31h26c13.333 0 26.333 0.333008 39 1s23 2 31 4c2 12 3.33301 27 4 45
s1 32 1 42v441c0 41.333 -3.66699 66 -11 74c-10 10.667 -38 16 -84 16v30c19.333 0 45.666 -0.833008 78.999 -2.5s54 -2.5 62 -2.5c22 0 40 0.333008 54 1c54.667 2.66699 84.667 4 90 4v-30c-46 0 -73.333 -4.66699 -82 -14s-13 -34.666 -13 -75.999v-458
c0 -40 4.83301 -65.167 14.5 -75.5s36.5 -15.5 80.5 -15.5v-30z" />
    <glyph glyph-name="c144" horiz-adv-x="536" 
d="M491 1c0 -32 -2.99902 -64.165 -8.99902 -96.498s-15.333 -60.166 -28 -83.499c-15.333 -34.667 -38.333 -61.334 -69 -80.001c-26.667 -16 -54.667 -24 -84 -24l-10 34c48 0 81 24.333 99 73c11.333 30.667 17 73 17 127v313c0 45.333 -8.5 80.166 -25.5 104.499
s-39.833 36.5 -68.5 36.5c-52.667 0 -88.334 -17 -107.001 -51c-10.667 -20 -16 -48.333 -16 -85v-119c0 -54 4.16699 -88.333 12.5 -103s31.833 -22 70.5 -22v-30c-17.333 0 -41 0.833008 -71 2.5s-48 2.5 -54 2.5c-19.333 0 -44 -0.833008 -74 -2.5s-47 -2.5 -51 -2.5v30
c38.667 0 62.667 8.33301 72 25c7.33301 13.333 11 46.666 11 99.999v380l-82 -6v20l71 35c5.33301 2 8.33301 6 9 12s1.33398 11 2.00098 15c0 18.667 -8 32.167 -24 40.5s-35 12.5 -57 12.5v30c40 6 67.333 10.333 82 13c26 5.33301 53.667 12.333 83 21
c3.33301 -3.33301 5 -10 5 -20l-4 -124h182l-7 -49h-176v-155l76 67c11.333 10 23.5 17 36.5 21s27.833 6 44.5 6c41.333 0 75.666 -14.333 102.999 -43s41 -69 41 -121v-304z" />
    <glyph glyph-name="c144" unicode="&#x452;" horiz-adv-x="536" 
d="M491 1c0 -32 -2.99902 -64.165 -8.99902 -96.498s-15.333 -60.166 -28 -83.499c-15.333 -34.667 -38.333 -61.334 -69 -80.001c-26.667 -16 -54.667 -24 -84 -24l-10 34c48 0 81 24.333 99 73c11.333 30.667 17 73 17 127v313c0 45.333 -8.5 80.166 -25.5 104.499
s-39.833 36.5 -68.5 36.5c-52.667 0 -88.334 -17 -107.001 -51c-10.667 -20 -16 -48.333 -16 -85v-119c0 -54 4.16699 -88.333 12.5 -103s31.833 -22 70.5 -22v-30c-17.333 0 -41 0.833008 -71 2.5s-48 2.5 -54 2.5c-19.333 0 -44 -0.833008 -74 -2.5s-47 -2.5 -51 -2.5v30
c38.667 0 62.667 8.33301 72 25c7.33301 13.333 11 46.666 11 99.999v380l-82 -6v20l71 35c5.33301 2 8.33301 6 9 12s1.33398 11 2.00098 15c0 18.667 -8 32.167 -24 40.5s-35 12.5 -57 12.5v30c40 6 67.333 10.333 82 13c26 5.33301 53.667 12.333 83 21
c3.33301 -3.33301 5 -10 5 -20l-4 -124h182l-7 -49h-176v-155l76 67c11.333 10 23.5 17 36.5 21s27.833 6 44.5 6c41.333 0 75.666 -14.333 102.999 -43s41 -69 41 -121v-304z" />
    <glyph glyph-name="c157" horiz-adv-x="556" 
d="M423 673c1.33301 -2.66699 1.99902 -6.66895 1.99902 -12.002c0 -9.33301 -4.66699 -18.333 -14 -27c-6 -5.33301 -15 -11.666 -27 -18.999l-144 -91h-40l138 139l15 14.5c5.33301 5 11.333 9.5 18 13.5l12 3.5c3.33301 1 6 1.5 8 1.5
c4.66699 0 10.334 -1.33301 17.001 -4c9.33301 -5.33301 14.333 -11.666 15 -18.999zM550.999 16.998l-94 -28.998l-77 67l-190 178v-83c0 -54 4.16699 -88.333 12.5 -103s31.833 -22 70.5 -22v-30c-17.333 0 -41 0.833008 -71 2.5s-48 2.5 -54 2.5
c-19.333 0 -44 -0.833008 -74 -2.5s-47 -2.5 -51 -2.5v30c38.667 0 62.667 8.33301 72 25c7.33301 13.333 11 46.666 11 99.999v159c0 53.333 -3.33301 85.666 -10 96.999c-9.33301 15.333 -33.666 23 -72.999 23v30h250v-30c-38 0 -61.333 -6.83301 -70 -20.5
s-13 -46.834 -13 -99.501v-55l73 62l99 91l53 52h98v-30c-18.667 0 -37.667 -5 -57 -15c-14.667 -7.33301 -31.667 -18.666 -51 -33.999l-64 -52c-38.667 -32 -61 -50.667 -67 -56c13.333 -15.333 52.666 -53.333 117.999 -114l50 -45l69 -58c14.667 -10 28 -15 40 -15v-23z
" />
    <glyph glyph-name="c157" unicode="&#x45c;" horiz-adv-x="556" 
d="M423 673c1.33301 -2.66699 1.99902 -6.66895 1.99902 -12.002c0 -9.33301 -4.66699 -18.333 -14 -27c-6 -5.33301 -15 -11.666 -27 -18.999l-144 -91h-40l138 139l15 14.5c5.33301 5 11.333 9.5 18 13.5l12 3.5c3.33301 1 6 1.5 8 1.5
c4.66699 0 10.334 -1.33301 17.001 -4c9.33301 -5.33301 14.333 -11.666 15 -18.999zM550.999 16.998l-94 -28.998l-77 67l-190 178v-83c0 -54 4.16699 -88.333 12.5 -103s31.833 -22 70.5 -22v-30c-17.333 0 -41 0.833008 -71 2.5s-48 2.5 -54 2.5
c-19.333 0 -44 -0.833008 -74 -2.5s-47 -2.5 -51 -2.5v30c38.667 0 62.667 8.33301 72 25c7.33301 13.333 11 46.666 11 99.999v159c0 53.333 -3.33301 85.666 -10 96.999c-9.33301 15.333 -33.666 23 -72.999 23v30h250v-30c-38 0 -61.333 -6.83301 -70 -20.5
s-13 -46.834 -13 -99.501v-55l73 62l99 91l53 52h98v-30c-18.667 0 -37.667 -5 -57 -15c-14.667 -7.33301 -31.667 -18.666 -51 -33.999l-64 -52c-38.667 -32 -61 -50.667 -67 -56c13.333 -15.333 52.666 -53.333 117.999 -114l50 -45l69 -58c14.667 -10 28 -15 40 -15v-23z
" />
    <glyph glyph-name="c158" horiz-adv-x="573" 
d="M566 -5c-30 3.33301 -56.666 5.00195 -79.999 5.00195c-10 0 -19.667 -0.166992 -29 -0.5s-26 -1.83301 -50 -4.5v269c0 45.333 -8.5 80.166 -25.5 104.499s-39.833 36.5 -68.5 36.5c-52.667 0 -88.334 -17 -107.001 -51c-10.667 -20 -16 -48.333 -16 -85v-119
c0 -54 4.16699 -88.333 12.5 -103s31.833 -22 70.5 -22v-30c-17.333 0 -41 0.833008 -71 2.5s-48 2.5 -54 2.5c-19.333 0 -44 -0.833008 -74 -2.5s-47 -2.5 -51 -2.5v30c38.667 0 62.667 8.33301 72 25c7.33301 13.333 11 46.666 11 99.999v380l-82 -6v20l71 35
c5.33301 2 8.33301 6 9 12s1.33398 11 2.00098 15c0 18.667 -8 32.167 -24 40.5s-35 12.5 -57 12.5v30c40 6 67.333 10.333 82 13c26 5.33301 53.667 12.333 83 21c3.33301 -3.33301 5 -10 5 -20l-4 -124h182l-7 -49h-176v-155l76 67c11.333 10 23.5 17 36.5 21
s27.833 6 44.5 6c41.333 0 75.666 -14.333 102.999 -43s41 -69 41 -121v-155c0 -45.333 1 -73 3 -83c6 -28 30 -42 72 -42v-30z" />
    <glyph glyph-name="c158" unicode="&#x45b;" horiz-adv-x="573" 
d="M566 -5c-30 3.33301 -56.666 5.00195 -79.999 5.00195c-10 0 -19.667 -0.166992 -29 -0.5s-26 -1.83301 -50 -4.5v269c0 45.333 -8.5 80.166 -25.5 104.499s-39.833 36.5 -68.5 36.5c-52.667 0 -88.334 -17 -107.001 -51c-10.667 -20 -16 -48.333 -16 -85v-119
c0 -54 4.16699 -88.333 12.5 -103s31.833 -22 70.5 -22v-30c-17.333 0 -41 0.833008 -71 2.5s-48 2.5 -54 2.5c-19.333 0 -44 -0.833008 -74 -2.5s-47 -2.5 -51 -2.5v30c38.667 0 62.667 8.33301 72 25c7.33301 13.333 11 46.666 11 99.999v380l-82 -6v20l71 35
c5.33301 2 8.33301 6 9 12s1.33398 11 2.00098 15c0 18.667 -8 32.167 -24 40.5s-35 12.5 -57 12.5v30c40 6 67.333 10.333 82 13c26 5.33301 53.667 12.333 83 21c3.33301 -3.33301 5 -10 5 -20l-4 -124h182l-7 -49h-176v-155l76 67c11.333 10 23.5 17 36.5 21
s27.833 6 44.5 6c41.333 0 75.666 -14.333 102.999 -43s41 -69 41 -121v-155c0 -45.333 1 -73 3 -83c6 -28 30 -42 72 -42v-30z" />
    <glyph glyph-name="nonbreakingspace" unicode="&#xa0;" 
 />
    <glyph glyph-name="exclamdown" unicode="&#xa1;" horiz-adv-x="667" 
d="M510 907c0 -45.333 -12.001 -82.333 -36.001 -111c-26 -31.333 -61.667 -47 -107 -47c-43.333 0 -77.333 15.167 -102 45.5s-37 67.833 -37 112.5h30c0 -4 1.33301 -9.83301 4 -17.5s4 -12.167 4 -13.5c8 -22.667 21.333 -39.5 40 -50.5s40.667 -16.5 66 -16.5
c28.667 0 52.334 9.16699 71.001 27.5s31 41.833 37 70.5h30zM658.999 679c-12 -15.333 -25.335 -36.9971 -40.002 -64.9971c-12 -22.667 -30.333 -60.334 -55 -113.001l-82 -177c-51.333 -109.333 -84 -177.333 -98 -204c-28 -53.333 -53.5 -89.833 -76.5 -109.5
s-53.167 -29.5 -90.5 -29.5c-7.33301 0 -16 1.66699 -26 5s-18 6.66602 -24 9.99902l24 75h13c5.33301 -6 13.333 -11.667 24 -17s19.667 -8 27 -8c16.667 0 32.334 8 47.001 24s32 42.667 52 80c4 9.33301 6 16.333 6 21c0 4 -0.666992 7 -2 9l-184 323
c-23.333 41.333 -46.333 74 -69 98c-34 36 -66 52.333 -96 49v29l106 21c2.66699 0.666992 6 1 10 1c10 0 18.833 -3 26.5 -9s15.834 -14.333 24.501 -25c16 -20 30.667 -41.667 44 -65l187 -342c11.333 25.333 27.333 63.666 48 114.999l56 144l65 175h83v-15z" />
    <glyph glyph-name="exclamdown" unicode="&#x40e;" horiz-adv-x="667" 
d="M510 907c0 -45.333 -12.001 -82.333 -36.001 -111c-26 -31.333 -61.667 -47 -107 -47c-43.333 0 -77.333 15.167 -102 45.5s-37 67.833 -37 112.5h30c0 -4 1.33301 -9.83301 4 -17.5s4 -12.167 4 -13.5c8 -22.667 21.333 -39.5 40 -50.5s40.667 -16.5 66 -16.5
c28.667 0 52.334 9.16699 71.001 27.5s31 41.833 37 70.5h30zM658.999 679c-12 -15.333 -25.335 -36.9971 -40.002 -64.9971c-12 -22.667 -30.333 -60.334 -55 -113.001l-82 -177c-51.333 -109.333 -84 -177.333 -98 -204c-28 -53.333 -53.5 -89.833 -76.5 -109.5
s-53.167 -29.5 -90.5 -29.5c-7.33301 0 -16 1.66699 -26 5s-18 6.66602 -24 9.99902l24 75h13c5.33301 -6 13.333 -11.667 24 -17s19.667 -8 27 -8c16.667 0 32.334 8 47.001 24s32 42.667 52 80c4 9.33301 6 16.333 6 21c0 4 -0.666992 7 -2 9l-184 323
c-23.333 41.333 -46.333 74 -69 98c-34 36 -66 52.333 -96 49v29l106 21c2.66699 0.666992 6 1 10 1c10 0 18.833 -3 26.5 -9s15.834 -14.333 24.501 -25c16 -20 30.667 -41.667 44 -65l187 -342c11.333 25.333 27.333 63.666 48 114.999l56 144l65 175h83v-15z" />
    <glyph glyph-name="cent" unicode="&#xa2;" horiz-adv-x="556" 
d="M420 681c0 -45.333 -12.001 -82.333 -36.001 -111c-26 -31.333 -61.667 -47 -107 -47c-43.333 0 -77.333 15.167 -102 45.5s-37 67.833 -37 112.5h30c0 -4 1.33301 -9.83301 4 -17.5s4 -12.167 4 -13.5c8 -22.667 21.333 -39.5 40 -50.5s40.667 -16.5 66 -16.5
c28.667 0 52.334 9.16699 71.001 27.5s31 41.833 37 70.5h30zM543.999 429c-23.333 0 -41.3311 -6.66602 -53.998 -19.999c-8.66699 -8.66699 -18.334 -25.334 -29.001 -50.001l-232 -519c-20 -42 -38.667 -71.333 -56 -88c-24.667 -23.333 -56.667 -35 -96 -35
c-7.33301 0 -16 1.66699 -26 5s-18 6.66602 -24 9.99902l24 75h13c7.33301 -7.33301 15.833 -13.666 25.5 -18.999s18.167 -7.33301 25.5 -6c25.333 2.66699 48.333 20 69 52c8.66699 13.333 22 40.333 40 81l25 61l-172 422c-4.66699 12 -11.5 20.167 -20.5 24.5
s-23.833 6.5 -44.5 6.5v30h232v-30c-26.667 0 -45 -2.5 -55 -7.5s-15 -12.167 -15 -21.5c0 -4 1.66699 -10.167 5 -18.5s5.66602 -14.5 6.99902 -18.5l111 -277l104 254l13 31.5c4.66699 11 7 19.833 7 26.5c0 10 -4.83301 17.667 -14.5 23s-27.167 8 -52.5 8v30h190v-30z
" />
    <glyph glyph-name="cent" unicode="&#x45e;" horiz-adv-x="556" 
d="M420 681c0 -45.333 -12.001 -82.333 -36.001 -111c-26 -31.333 -61.667 -47 -107 -47c-43.333 0 -77.333 15.167 -102 45.5s-37 67.833 -37 112.5h30c0 -4 1.33301 -9.83301 4 -17.5s4 -12.167 4 -13.5c8 -22.667 21.333 -39.5 40 -50.5s40.667 -16.5 66 -16.5
c28.667 0 52.334 9.16699 71.001 27.5s31 41.833 37 70.5h30zM543.999 429c-23.333 0 -41.3311 -6.66602 -53.998 -19.999c-8.66699 -8.66699 -18.334 -25.334 -29.001 -50.001l-232 -519c-20 -42 -38.667 -71.333 -56 -88c-24.667 -23.333 -56.667 -35 -96 -35
c-7.33301 0 -16 1.66699 -26 5s-18 6.66602 -24 9.99902l24 75h13c7.33301 -7.33301 15.833 -13.666 25.5 -18.999s18.167 -7.33301 25.5 -6c25.333 2.66699 48.333 20 69 52c8.66699 13.333 22 40.333 40 81l25 61l-172 422c-4.66699 12 -11.5 20.167 -20.5 24.5
s-23.833 6.5 -44.5 6.5v30h232v-30c-26.667 0 -45 -2.5 -55 -7.5s-15 -12.167 -15 -21.5c0 -4 1.66699 -10.167 5 -18.5s5.66602 -14.5 6.99902 -18.5l111 -277l104 254l13 31.5c4.66699 11 7 19.833 7 26.5c0 10 -4.83301 17.667 -14.5 23s-27.167 8 -52.5 8v30h190v-30z
" />
    <glyph glyph-name="sterling" unicode="&#xa3;" horiz-adv-x="333" 
d="M307 664c-46 0 -73.333 -4.66797 -82 -14.001s-13 -34.666 -13 -75.999v-457v-25c0 -42.667 -2.66699 -75.667 -8 -99c-8.66699 -38 -26.667 -73.667 -54 -107c-23.333 -28 -50.666 -49 -81.999 -63c-26 -11.333 -53 -17 -81 -17v78l11 6c18.667 -12.667 38 -19 58 -19
c21.333 0 37.333 9.66699 48 29c8.66699 16 13 37 13 63v611c0 41.333 -3.66699 66 -11 74c-10 10.667 -38 16 -84 16v30c19.333 0 45.666 -0.833008 78.999 -2.5s54 -2.5 62 -2.5c22 0 40 0.333008 54 1c54.667 2.66699 84.667 4 90 4v-30z" />
    <glyph glyph-name="sterling" unicode="&#x408;" horiz-adv-x="333" 
d="M307 664c-46 0 -73.333 -4.66797 -82 -14.001s-13 -34.666 -13 -75.999v-457v-25c0 -42.667 -2.66699 -75.667 -8 -99c-8.66699 -38 -26.667 -73.667 -54 -107c-23.333 -28 -50.666 -49 -81.999 -63c-26 -11.333 -53 -17 -81 -17v78l11 6c18.667 -12.667 38 -19 58 -19
c21.333 0 37.333 9.66699 48 29c8.66699 16 13 37 13 63v611c0 41.333 -3.66699 66 -11 74c-10 10.667 -38 16 -84 16v30c19.333 0 45.666 -0.833008 78.999 -2.5s54 -2.5 62 -2.5c22 0 40 0.333008 54 1c54.667 2.66699 84.667 4 90 4v-30z" />
    <glyph glyph-name="currency" unicode="&#xa4;" 
d="M483 160l-46.001 -47.0029l-49 49c-17.333 -16 -38 -28 -62 -36s-48.333 -12 -73 -12c-26.667 0 -51.667 3.83301 -75 11.5s-45 19.834 -65 36.501l-49 -49l-47 47l49 49c-29.333 39.333 -44 83.333 -44 132c0 26.667 3.5 51.334 10.5 74.001s18.5 43.334 34.5 62.001
l-50 50l47 48l50 -51c18.667 14.667 40.334 26.167 65.001 34.5s49.667 12.5 75 12.5c50.667 0 94.667 -15 132 -45l49 49l47 -48l-50 -48c16 -18 28 -38.833 36 -62.5s12 -48.167 12 -73.5c0 -24.667 -3.83301 -48.667 -11.5 -72s-19.167 -44 -34.5 -62zM406.999 342.997
c0 41.333 -15.168 77.499 -45.501 108.499s-66.166 46.5 -107.499 46.5c-44 0 -81.333 -15 -112 -45s-46 -67.333 -46 -112c0 -42.667 15.333 -79 46 -109s67.667 -45 111 -45c42.667 0 79 15.333 109 46s45 67.334 45 110.001z" />
    <glyph glyph-name="yen" unicode="&#xa5;" horiz-adv-x="573" 
d="M571 787l-23.998 -128l-5 -67l-3 -62h-31c0 18.667 -1 34.334 -3 47.001s-5.66699 30.667 -11 54c-22 6.66699 -45 11.167 -69 13.5s-50.667 3.5 -80 3.5c-22 0 -43.5 -0.166992 -64.5 -0.5s-40.833 -1.83301 -59.5 -4.5c-2 -10.667 -3.33301 -19.834 -4 -27.501
s-1 -20.167 -1 -37.5v-463c0 -41.333 3.66699 -66 11 -74c10 -10.667 38 -16 84 -16v-30c-22 0 -40 0.333008 -54 1c-54.667 2.66699 -84.667 4 -90 4c-22.667 0 -51 -0.833008 -85 -2.5s-52.667 -2.5 -56 -2.5v30c46 0 73.333 4.66699 82 14s13 34.666 13 75.999v459
c0 41.333 -3.66699 66 -11 74c-10 10.667 -38 16 -84 16v30c26 0 60.667 -0.833008 104 -2.5s69.666 -2.5 78.999 -2.5c42.667 0 73 0.333008 91 1c89.333 3.33301 156.666 5 201.999 5c15.333 28.667 28 59.334 38 92.001h31z" />
    <glyph glyph-name="yen" unicode="&#x490;" horiz-adv-x="573" 
d="M571 787l-23.998 -128l-5 -67l-3 -62h-31c0 18.667 -1 34.334 -3 47.001s-5.66699 30.667 -11 54c-22 6.66699 -45 11.167 -69 13.5s-50.667 3.5 -80 3.5c-22 0 -43.5 -0.166992 -64.5 -0.5s-40.833 -1.83301 -59.5 -4.5c-2 -10.667 -3.33301 -19.834 -4 -27.501
s-1 -20.167 -1 -37.5v-463c0 -41.333 3.66699 -66 11 -74c10 -10.667 38 -16 84 -16v-30c-22 0 -40 0.333008 -54 1c-54.667 2.66699 -84.667 4 -90 4c-22.667 0 -51 -0.833008 -85 -2.5s-52.667 -2.5 -56 -2.5v30c46 0 73.333 4.66699 82 14s13 34.666 13 75.999v459
c0 41.333 -3.66699 66 -11 74c-10 10.667 -38 16 -84 16v30c26 0 60.667 -0.833008 104 -2.5s69.666 -2.5 78.999 -2.5c42.667 0 73 0.333008 91 1c89.333 3.33301 156.666 5 201.999 5c15.333 28.667 28 59.334 38 92.001h31z" />
    <glyph glyph-name="section" unicode="&#xa7;" 
d="M465 256c0 -26.667 -6.83594 -51.332 -20.5029 -73.999s-32.834 -43.334 -57.501 -62.001c20.667 -10 35.834 -23.833 45.501 -41.5s14.5 -38.167 14.5 -61.5c0 -52 -25.167 -100.667 -75.5 -146s-106.166 -68 -167.499 -68c-22.667 0 -43.5 1.83301 -62.5 5.5
s-40.167 10.167 -63.5 19.5c-6.66699 2.66699 -13.5 5.66699 -20.5 9s-11.5 7.66602 -13.5 12.999l8 69l4 76h32c-0.666992 -4.66699 -1.16699 -9.83398 -1.5 -15.501s-0.5 -9.83398 -0.5 -12.501c0 -36 10.333 -63.333 31 -82c24.667 -22.667 65 -34 121 -34
c40.667 0 74.334 9.66699 101.001 29c30 21.333 45 51 45 89c0 42.667 -30.667 76.334 -92 101.001l-173 59c-62 28 -93 67.667 -93 119c0 25.333 7.83301 50 23.5 74s35.5 43.333 59.5 58c-18 12 -32.167 26.333 -42.5 43s-15.5 35.334 -15.5 56.001
c0 56 22.5 105.833 67.5 149.5s98.167 65.5 159.5 65.5c26 0 49.833 -2.5 71.5 -7.5s43.834 -14.167 66.501 -27.5c-4 -27.333 -7.16699 -52.166 -9.5 -74.499s-3.5 -46.166 -3.5 -71.499h-31l-5 83c-18 16 -36.667 27.5 -56 34.5s-41.666 10.5 -66.999 10.5
c-38.667 0 -70.834 -10 -96.501 -30s-38.5 -48.333 -38.5 -85c0 -38.667 30.667 -69.334 92 -92.001l172 -58c61.333 -28 92 -68 92 -120zM398.997 217.002c0 41.333 -31.001 73.666 -93.001 96.999l-171 54c-15.333 -13.333 -26.166 -26.333 -32.499 -39
s-9.5 -28.667 -9.5 -48c0 -36 36 -67.667 108 -95l164 -55c10.667 15.333 19 30.333 25 45s9 28.334 9 41.001z" />
    <glyph glyph-name="dieresis" unicode="&#xa8;" horiz-adv-x="611" 
d="M455 852c0 -13.333 -5 -25 -15 -35s-21.667 -15 -35 -15s-25 5 -35 15s-15 21.667 -15 35s5 25 15 35s21.667 15 35 15s25 -5 35 -15s15 -21.667 15 -35zM256 852c0 -13.333 -5 -25 -15 -35s-21.667 -15 -35 -15s-25 5 -35 15s-15 21.667 -15 35s5 25 15 35
s21.667 15 35 15s25 -5 35 -15s15 -21.667 15 -35zM572 164c-2 -12 -4.16504 -26.6689 -6.49805 -44.002s-3.5 -29.666 -3.5 -36.999v-83c-14 -2 -37 -3.33301 -69 -4s-64.333 -1 -97 -1c-24.667 0 -58.5 0.833008 -101.5 2.5s-69.167 2.5 -78.5 2.5
c-28 0 -63.5 -0.833008 -106.5 -2.5s-67.833 -2.5 -74.5 -2.5v30c27.333 0 48.5 6.83301 63.5 20.5s22.5 36.834 22.5 69.501v459c0 41.333 -3.66699 66 -11 74c-10 10.667 -38 16 -84 16v30c26 0 60.667 -0.833008 104 -2.5s69.666 -2.5 78.999 -2.5
c28.667 0 51.667 0.333008 69 1c70 2.66699 108 4 114 4c31.333 0 62 -0.166992 92 -0.5s54.667 -1.83301 74 -4.5c-10.667 -32 -16 -64.333 -16 -97l-3 -59h-31c0 18.667 -0.833008 33.167 -2.5 43.5s-5.5 28.5 -11.5 54.5c-22 6.66699 -45 11.167 -69 13.5
s-50.667 3.5 -80 3.5c-22 0 -43.5 -0.166992 -64.5 -0.5s-40.833 -1.83301 -59.5 -4.5c-3.33301 -20.667 -5 -48.334 -5 -83.001v-187c20 0 39.333 -0.166992 58 -0.5s36.667 -0.5 54 -0.5c56 0 90.167 4.33301 102.5 13s18.5 32.667 18.5 72h33v-231h-33
c0 47.333 -6.16699 75.833 -18.5 85.5s-50.5 14.5 -114.5 14.5c-19.333 0 -37.333 -0.166992 -54 -0.5s-32 -0.5 -46 -0.5v-193c0 -35.333 1.66699 -64 5 -86c13.333 -2 33.166 -3.33301 59.499 -4s51.833 -1 76.5 -1c38.667 0 68.5 0.833008 89.5 2.5s44.833 6.5 71.5 14.5
c2.66699 8 5.16699 16.333 7.5 25s3.83301 17.334 4.5 26.001l9 55h33z" />
    <glyph glyph-name="dieresis" unicode="&#x401;" horiz-adv-x="611" 
d="M455 852c0 -13.333 -5 -25 -15 -35s-21.667 -15 -35 -15s-25 5 -35 15s-15 21.667 -15 35s5 25 15 35s21.667 15 35 15s25 -5 35 -15s15 -21.667 15 -35zM256 852c0 -13.333 -5 -25 -15 -35s-21.667 -15 -35 -15s-25 5 -35 15s-15 21.667 -15 35s5 25 15 35
s21.667 15 35 15s25 -5 35 -15s15 -21.667 15 -35zM572 164c-2 -12 -4.16504 -26.6689 -6.49805 -44.002s-3.5 -29.666 -3.5 -36.999v-83c-14 -2 -37 -3.33301 -69 -4s-64.333 -1 -97 -1c-24.667 0 -58.5 0.833008 -101.5 2.5s-69.167 2.5 -78.5 2.5
c-28 0 -63.5 -0.833008 -106.5 -2.5s-67.833 -2.5 -74.5 -2.5v30c27.333 0 48.5 6.83301 63.5 20.5s22.5 36.834 22.5 69.501v459c0 41.333 -3.66699 66 -11 74c-10 10.667 -38 16 -84 16v30c26 0 60.667 -0.833008 104 -2.5s69.666 -2.5 78.999 -2.5
c28.667 0 51.667 0.333008 69 1c70 2.66699 108 4 114 4c31.333 0 62 -0.166992 92 -0.5s54.667 -1.83301 74 -4.5c-10.667 -32 -16 -64.333 -16 -97l-3 -59h-31c0 18.667 -0.833008 33.167 -2.5 43.5s-5.5 28.5 -11.5 54.5c-22 6.66699 -45 11.167 -69 13.5
s-50.667 3.5 -80 3.5c-22 0 -43.5 -0.166992 -64.5 -0.5s-40.833 -1.83301 -59.5 -4.5c-3.33301 -20.667 -5 -48.334 -5 -83.001v-187c20 0 39.333 -0.166992 58 -0.5s36.667 -0.5 54 -0.5c56 0 90.167 4.33301 102.5 13s18.5 32.667 18.5 72h33v-231h-33
c0 47.333 -6.16699 75.833 -18.5 85.5s-50.5 14.5 -114.5 14.5c-19.333 0 -37.333 -0.166992 -54 -0.5s-32 -0.5 -46 -0.5v-193c0 -35.333 1.66699 -64 5 -86c13.333 -2 33.166 -3.33301 59.499 -4s51.833 -1 76.5 -1c38.667 0 68.5 0.833008 89.5 2.5s44.833 6.5 71.5 14.5
c2.66699 8 5.16699 16.333 7.5 25s3.83301 17.334 4.5 26.001l9 55h33z" />
    <glyph glyph-name="copyright" unicode="&#xa9;" horiz-adv-x="747" 
d="M724 336c0 -98 -34.167 -181.833 -102.5 -251.5s-151.166 -104.5 -248.499 -104.5c-96.667 0 -179 34.667 -247 104s-102 153.333 -102 252s34 183 102 253s150.333 105 247 105c97.333 0 180.166 -34.833 248.499 -104.5s102.5 -154.167 102.5 -253.5zM669 336
c0 83.333 -29.002 154.666 -87.002 213.999s-127.667 89 -209 89s-150.666 -29.667 -207.999 -89s-86 -130.666 -86 -213.999c0 -82.667 28.833 -153.5 86.5 -212.5s126.834 -88.5 207.501 -88.5c81.333 0 151 29.333 209 88s87 129.667 87 213zM532.998 227
c-11.333 -29.333 -32.334 -52 -63.001 -68s-63 -24 -97 -24c-55.333 0 -100.166 18.5 -134.499 55.5s-51.5 83.833 -51.5 140.5c0 60 18 108.667 54 146s83.667 56 143 56c27.333 0 51.333 -2.33301 72 -7s42.334 -11.667 65.001 -21v-104h-32
c-4.66699 29.333 -14.334 52.333 -29.001 69c-16.667 18.667 -39.334 28 -68.001 28c-38 0 -68 -15.667 -90 -47c-19.333 -28 -29 -62 -29 -102c0 -52.667 11.333 -95 34 -127s54.334 -48 95.001 -48c20 0 38.667 4.16699 56 12.5s31 20.833 41 37.5l8 14z" />
    <glyph glyph-name="ordfeminine" unicode="&#xaa;" horiz-adv-x="709" 
d="M673 84l-20 -44.999c-30 -17.333 -66.833 -31.5 -110.5 -42.5s-82.167 -16.5 -115.5 -16.5c-116 0 -211 31.333 -285 94c-80 67.333 -120 158.333 -120 273c0 111.333 39.333 200.666 118 267.999c72.667 62.667 161.667 94 267 94c34.667 0 69.5 -2.66699 104.5 -8
s86.833 -17.666 155.5 -36.999c-3.33301 -16.667 -7.33301 -41.667 -12 -75s-8 -58.333 -10 -75h-29v24.5c0 7.66699 0.333008 15.167 1 22.5c0 17.333 -2.66699 30.666 -8 39.999s-18.333 19 -39 29c-24 12 -46.667 20.667 -68 26c-28 7.33301 -59 11 -93 11
c-82.667 0 -149.834 -26.5 -201.501 -79.5s-77.5 -123.833 -77.5 -212.5h303l63 1l3 -6l-20 -45l-97 2h-250c8.66699 -89.333 42.334 -161 101.001 -215s134.667 -81 228 -81c72 0 139.667 21 203 63z" />
    <glyph glyph-name="ordfeminine" unicode="&#x404;" horiz-adv-x="709" 
d="M673 84l-20 -44.999c-30 -17.333 -66.833 -31.5 -110.5 -42.5s-82.167 -16.5 -115.5 -16.5c-116 0 -211 31.333 -285 94c-80 67.333 -120 158.333 -120 273c0 111.333 39.333 200.666 118 267.999c72.667 62.667 161.667 94 267 94c34.667 0 69.5 -2.66699 104.5 -8
s86.833 -17.666 155.5 -36.999c-3.33301 -16.667 -7.33301 -41.667 -12 -75s-8 -58.333 -10 -75h-29v24.5c0 7.66699 0.333008 15.167 1 22.5c0 17.333 -2.66699 30.666 -8 39.999s-18.333 19 -39 29c-24 12 -46.667 20.667 -68 26c-28 7.33301 -59 11 -93 11
c-82.667 0 -149.834 -26.5 -201.501 -79.5s-77.5 -123.833 -77.5 -212.5h303l63 1l3 -6l-20 -45l-97 2h-250c8.66699 -89.333 42.334 -161 101.001 -215s134.667 -81 228 -81c72 0 139.667 21 203 63z" />
    <glyph glyph-name="guillemotleft" unicode="&#xab;" 
d="M450 415l-42 -59l-78 -108l119 -162l-26 -15l-19 18l-55 58l-80 77l-19 18v12l99 96l77 78zM250 415c-14.667 -18 -28.667 -37.667 -42 -59l-79 -108l120 -162l-26 -15l-19 18l-55 58l-80 77l-19 18v12l99 96l77 78z" />
    <glyph glyph-name="logicalnot" unicode="&#xac;" horiz-adv-x="606" 
d="M551 120h-56v210h-444v56h500v-266z" />
    <glyph glyph-name="minus" unicode="&#xad;" horiz-adv-x="333" 
d="M319 564h-312v53h312v-53z" />
    <glyph glyph-name="registered" unicode="&#xae;" horiz-adv-x="747" 
d="M724 338c0 -98.667 -34 -183 -102 -253s-150.333 -105 -247 -105c-97.333 0 -180.166 34.833 -248.499 104.5s-102.5 154.167 -102.5 253.5c0 98 34.167 181.833 102.5 251.5s151.166 104.5 248.499 104.5c96.667 0 179 -34.667 247 -104s102 -153.333 102 -252zM669 338
c0 82.667 -28.833 153.499 -86.5 212.499s-126.834 88.5 -207.501 88.5c-81.333 0 -151 -29.333 -209 -88s-87 -129.667 -87 -213s29 -154.666 87 -213.999s127.667 -89 209 -89c80.667 0 149.834 29.5 207.501 88.5s86.5 130.5 86.5 214.5zM562 154.999
l-68.999 -0.000976562c-10.667 3.33301 -16.334 5 -17.001 5c-4.66699 2 -9.33398 6 -14.001 12c-9.33301 12.667 -26 46 -50 100c-10.667 24.667 -18 39.167 -22 43.5s-9.33301 7.5 -16 9.5s-13 3 -19 3h-13h-15v-121c0 -11.333 1.5 -19.166 4.5 -23.499
s10.167 -6.5 21.5 -6.5l17 -1v-21h-157v21h14c13.333 1.33301 21 2.66602 23 3.99902c4.66699 3.33301 7 11 7 23v285c0 13.333 -1.5 21.5 -4.5 24.5s-10.833 4.5 -23.5 4.5h-15v21h153c56.667 0 95.834 -6.66699 117.501 -20s32.5 -37.666 32.5 -72.999
c0 -28 -9.33301 -51 -28 -69s-42 -29.333 -70 -34c18.667 -4 35 -15.333 49 -34c6.66699 -9.33301 16.834 -28.833 30.501 -58.5s21.5 -46.167 23.5 -49.5c9.33301 -14 22.666 -22 39.999 -24v-21zM447.001 435.998c0 26 -7.16699 45.833 -21.5 59.5s-34.5 20.5 -60.5 20.5
l-21 -2c-6.66699 0 -11.167 -2.33301 -13.5 -7s-3.5 -10.667 -3.5 -18v-12v-123l19 -1c32 0 56 5.33301 72 16c19.333 12.667 29 35 29 67z" />
    <glyph glyph-name="macron" unicode="&#xaf;" horiz-adv-x="337" 
d="M318 852c0 -13.333 -5 -25 -15 -35s-21.667 -15 -35 -15s-25 5 -35 15s-15 21.667 -15 35s5 25 15 35s21.667 15 35 15s25 -5 35 -15s15 -21.667 15 -35zM119 852c0 -13.333 -5 -25 -15 -35s-21.667 -15 -35 -15s-25 5 -35 15s-15 21.667 -15 35s5 25 15 35
s21.667 15 35 15s25 -5 35 -15s15 -21.667 15 -35zM311 -5c-22 0 -39.999 0.333008 -53.999 1c-54.667 2.66699 -84.667 4 -90 4c-22.667 0 -51 -0.833008 -85 -2.5s-52.667 -2.5 -56 -2.5v30c46 0 73.333 4.66699 82 14s13 34.666 13 75.999v459
c0 41.333 -3.66699 66 -11 74c-10 10.667 -38 16 -84 16v30c19.333 0 45.666 -0.833008 78.999 -2.5s54 -2.5 62 -2.5c22 0 40 0.333008 54 1c54.667 2.66699 84.667 4 90 4v-30c-46 0 -73.333 -4.66699 -82 -14s-13 -34.666 -13 -75.999v-459c0 -41.333 3.66699 -66 11 -74
c10 -10.667 38 -16 84 -16v-30z" />
    <glyph glyph-name="macron" unicode="&#x407;" horiz-adv-x="337" 
d="M318 852c0 -13.333 -5 -25 -15 -35s-21.667 -15 -35 -15s-25 5 -35 15s-15 21.667 -15 35s5 25 15 35s21.667 15 35 15s25 -5 35 -15s15 -21.667 15 -35zM119 852c0 -13.333 -5 -25 -15 -35s-21.667 -15 -35 -15s-25 5 -35 15s-15 21.667 -15 35s5 25 15 35
s21.667 15 35 15s25 -5 35 -15s15 -21.667 15 -35zM311 -5c-22 0 -39.999 0.333008 -53.999 1c-54.667 2.66699 -84.667 4 -90 4c-22.667 0 -51 -0.833008 -85 -2.5s-52.667 -2.5 -56 -2.5v30c46 0 73.333 4.66699 82 14s13 34.666 13 75.999v459
c0 41.333 -3.66699 66 -11 74c-10 10.667 -38 16 -84 16v30c19.333 0 45.666 -0.833008 78.999 -2.5s54 -2.5 62 -2.5c22 0 40 0.333008 54 1c54.667 2.66699 84.667 4 90 4v-30c-46 0 -73.333 -4.66699 -82 -14s-13 -34.666 -13 -75.999v-459c0 -41.333 3.66699 -66 11 -74
c10 -10.667 38 -16 84 -16v-30z" />
    <glyph glyph-name="degree" unicode="&#xb0;" horiz-adv-x="400" 
d="M350 539c0 -41.333 -14.667 -76.666 -44 -105.999s-64.666 -44 -105.999 -44s-76.666 14.667 -105.999 44s-44 64.666 -44 105.999s14.667 76.666 44 105.999s64.666 44 105.999 44s76.666 -14.667 105.999 -44s44 -64.666 44 -105.999zM310 539
c0 30 -10.832 55.833 -32.499 77.5s-47.834 32.5 -78.501 32.5c-30 0 -55.667 -10.667 -77 -32s-32 -47.333 -32 -78s10.667 -56.667 32 -78s47.333 -32 78 -32c30 0 55.833 10.833 77.5 32.5s32.5 47.5 32.5 77.5z" />
    <glyph glyph-name="plusminus" unicode="&#xb1;" horiz-adv-x="606" 
d="M555 283h-224v-170h-56v170h-224v56h224v173h56v-173h224v-56zM555 0h-504v56h504v-56z" />
    <glyph glyph-name="twosuperior" unicode="&#xb2;" horiz-adv-x="337" 
d="M311 -5c-22 0 -39.999 0.333008 -53.999 1c-54.667 2.66699 -84.667 4 -90 4c-22.667 0 -51 -0.833008 -85 -2.5s-52.667 -2.5 -56 -2.5v30c46 0 73.333 4.66699 82 14s13 34.666 13 75.999v459c0 41.333 -3.66699 66 -11 74c-10 10.667 -38 16 -84 16v30
c19.333 0 45.666 -0.833008 78.999 -2.5s54 -2.5 62 -2.5c22 0 40 0.333008 54 1c54.667 2.66699 84.667 4 90 4v-30c-46 0 -73.333 -4.66699 -82 -14s-13 -34.666 -13 -75.999v-459c0 -41.333 3.66699 -66 11 -74c10 -10.667 38 -16 84 -16v-30z" />
    <glyph glyph-name="twosuperior" unicode="&#x406;" horiz-adv-x="337" 
d="M311 -5c-22 0 -39.999 0.333008 -53.999 1c-54.667 2.66699 -84.667 4 -90 4c-22.667 0 -51 -0.833008 -85 -2.5s-52.667 -2.5 -56 -2.5v30c46 0 73.333 4.66699 82 14s13 34.666 13 75.999v459c0 41.333 -3.66699 66 -11 74c-10 10.667 -38 16 -84 16v30
c19.333 0 45.666 -0.833008 78.999 -2.5s54 -2.5 62 -2.5c22 0 40 0.333008 54 1c54.667 2.66699 84.667 4 90 4v-30c-46 0 -73.333 -4.66699 -82 -14s-13 -34.666 -13 -75.999v-459c0 -41.333 3.66699 -66 11 -74c10 -10.667 38 -16 84 -16v-30z" />
    <glyph glyph-name="threesuperior" unicode="&#xb3;" horiz-adv-x="291" 
d="M199 631c0 -14 -5.66699 -26.667 -17 -38s-24.333 -17 -39 -17s-27.5 5.5 -38.5 16.5s-16.5 23.833 -16.5 38.5s5.33301 27.667 16 39s23.667 17 39 17c14.667 0 27.667 -5.66699 39 -17s17 -24.333 17 -39zM273 -5c-17.333 0 -41 0.833984 -71 2.50098s-48 2.5 -54 2.5
c-19.333 0 -44 -0.833008 -74 -2.5s-47 -2.5 -51 -2.5v30c38.667 0 62.667 8.33301 72 25c7.33301 13.333 11 46.666 11 99.999v202c0 18.667 -8 32.167 -24 40.5s-35 12.5 -57 12.5v30c40 6 67.333 10.333 82 13c26 5.33301 53.667 12.333 83 21
c3.33301 -3.33301 5 -10 5 -20l-5 -153v-146c0 -54 4.16699 -88.333 12.5 -103s31.833 -22 70.5 -22v-30z" />
    <glyph glyph-name="threesuperior" unicode="&#x456;" horiz-adv-x="291" 
d="M199 631c0 -14 -5.66699 -26.667 -17 -38s-24.333 -17 -39 -17s-27.5 5.5 -38.5 16.5s-16.5 23.833 -16.5 38.5s5.33301 27.667 16 39s23.667 17 39 17c14.667 0 27.667 -5.66699 39 -17s17 -24.333 17 -39zM273 -5c-17.333 0 -41 0.833984 -71 2.50098s-48 2.5 -54 2.5
c-19.333 0 -44 -0.833008 -74 -2.5s-47 -2.5 -51 -2.5v30c38.667 0 62.667 8.33301 72 25c7.33301 13.333 11 46.666 11 99.999v202c0 18.667 -8 32.167 -24 40.5s-35 12.5 -57 12.5v30c40 6 67.333 10.333 82 13c26 5.33301 53.667 12.333 83 21
c3.33301 -3.33301 5 -10 5 -20l-5 -153v-146c0 -54 4.16699 -88.333 12.5 -103s31.833 -22 70.5 -22v-30z" />
    <glyph glyph-name="acute" unicode="&#xb4;" horiz-adv-x="425" 
d="M417 559c-3.33301 -28.667 -5.66895 -55.9971 -7.00195 -81.9971s-2 -46.333 -2 -61v-17.5c0 -4.33301 0.333008 -7.83301 1 -10.5c0 -13.333 0.166992 -22.833 0.5 -28.5s1.5 -17.834 3.5 -36.501h-28l-5 52l-8 25c-2.66699 9.33301 -12 15.833 -28 19.5
s-35.667 5.5 -59 5.5h-86c-3.33301 -8.66699 -5.66602 -21.167 -6.99902 -37.5s-2 -34.833 -2 -55.5v-18v-164c0 -54 4.16699 -88.333 12.5 -103s31.833 -22 70.5 -22v-30c-17.333 0 -41 0.833008 -71 2.5s-48 2.5 -54 2.5c-19.333 0 -44 -0.833008 -74 -2.5
s-47 -2.5 -51 -2.5v30c38.667 0 62.667 8.33301 72 25c7.33301 13.333 11 46.666 11 99.999v164c0 53.333 -3.33301 85.666 -10 96.999c-9.33301 15.333 -33.666 23 -72.999 23v30c38.667 -3.33301 74 -5 106 -5c27.333 0 71.833 0.666992 133.5 2s94.5 2 98.5 2
c6.66699 18.667 13 39.667 19 63l8 33h29z" />
    <glyph glyph-name="acute" unicode="&#x491;" horiz-adv-x="425" 
d="M417 559c-3.33301 -28.667 -5.66895 -55.9971 -7.00195 -81.9971s-2 -46.333 -2 -61v-17.5c0 -4.33301 0.333008 -7.83301 1 -10.5c0 -13.333 0.166992 -22.833 0.5 -28.5s1.5 -17.834 3.5 -36.501h-28l-5 52l-8 25c-2.66699 9.33301 -12 15.833 -28 19.5
s-35.667 5.5 -59 5.5h-86c-3.33301 -8.66699 -5.66602 -21.167 -6.99902 -37.5s-2 -34.833 -2 -55.5v-18v-164c0 -54 4.16699 -88.333 12.5 -103s31.833 -22 70.5 -22v-30c-17.333 0 -41 0.833008 -71 2.5s-48 2.5 -54 2.5c-19.333 0 -44 -0.833008 -74 -2.5
s-47 -2.5 -51 -2.5v30c38.667 0 62.667 8.33301 72 25c7.33301 13.333 11 46.666 11 99.999v164c0 53.333 -3.33301 85.666 -10 96.999c-9.33301 15.333 -33.666 23 -72.999 23v30c38.667 -3.33301 74 -5 106 -5c27.333 0 71.833 0.666992 133.5 2s94.5 2 98.5 2
c6.66699 18.667 13 39.667 19 63l8 33h29z" />
    <glyph glyph-name="mu" unicode="&#xb5;" horiz-adv-x="603" 
d="M581 -5c-31.333 3.33301 -59.666 5.00488 -84.999 5.00488c-17.333 0 -31 -0.333008 -41 -1s-24.333 -2 -43 -4c1.33301 6 2.33301 14.667 3 26s1 19 1 23v38c-6.66699 -4.66699 -16.667 -12.834 -30 -24.501s-24 -21.5 -32 -29.5
c-10.667 -10.667 -16.334 -16 -17.001 -16c-10 -8 -23.167 -14 -39.5 -18s-36.5 -6 -60.5 -6c-17.333 0 -30.333 0.666992 -39 2c-12 3.33301 -21 5.66602 -27 6.99902l8 -131l2 -69c-10 -8.66699 -15.667 -13.334 -17 -14.001c-16 -12 -31.333 -20 -46 -24h-22v593
c0 18.667 -8 32.167 -24 40.5s-35 12.5 -57 12.5v30c40 6 67.333 10.333 82 13c26 5.33301 53.667 12.333 83 21c3.33301 -3.33301 5 -10 5 -20l-5 -153v-126c0 -43.333 6.33301 -74 19 -92c16 -22 45 -33 87 -33c23.333 0 49 9.5 77 28.5s44.333 39.5 49 61.5
c0.666992 5.33301 1.5 10.666 2.5 15.999s1.5 11.666 1.5 18.999v182c0 18.667 -8 32.167 -24 40.5s-35 12.5 -57 12.5v30c40 6 67.333 10.333 82 13c26 5.33301 53.667 12.333 83 21c3.33301 -3.33301 5 -10 5 -20l-5 -153v-208c-0.666992 -8.66699 -1 -15 -1 -19
c0 -8 1.16699 -15 3.5 -21s6.83301 -11 13.5 -15c14 -4.66699 29.667 -7 47 -7l18 -1v-30z" />
    <glyph glyph-name="paragraph" unicode="&#xb6;" horiz-adv-x="628" 
d="M589 -150c-18.667 0 -52.0029 0.833008 -100.003 2.5s-82 2.5 -102 2.5c-40 0 -76.667 -0.5 -110 -1.5s-64 -2.16699 -92 -3.5v30c46 0 73.333 4.66699 82 14s13 34.666 13 75.999v375c-56.667 0 -109 16.333 -157 49c-56 38.667 -84 88 -84 148
c0 44 16.333 79.667 49 107c36 30 87 45 153 45c24.667 0 57.834 -0.833008 99.501 -2.5s66.834 -2.5 75.501 -2.5c27.333 0 49.333 0.333008 66 1c66.667 2.66699 102.334 4 107.001 4v-30c-46 0 -73.333 -4.66699 -82 -14s-13 -34.666 -13 -75.999v-604
c0 -41.333 3.66699 -66 11 -74c10 -10.667 38 -16 84 -16v-30zM279.997 382v273c-2.66699 0.666992 -7.33398 1 -14.001 1c-29.333 0 -54.666 -9.66699 -75.999 -29c-26.667 -24.667 -40 -59.667 -40 -105c0 -36 12.333 -66.667 37 -92s55.667 -41.333 93 -48zM420.997 -110
v765h-68v-765h68z" />
    <glyph glyph-name="periodcentered" unicode="&#xb7;" horiz-adv-x="250" 
d="M184 262c0 -15.333 -5.66699 -29 -17 -41s-25 -18 -41 -18c-15.333 0 -29 6 -41 18s-18 25.667 -18 41s6 28.666 18 39.999s25.667 17 41 17c16 0 29.667 -5.66699 41 -17s17 -24.666 17 -39.999z" />
    <glyph glyph-name="periodcentered" unicode="&#x2219;" horiz-adv-x="250" 
d="M184 262c0 -15.333 -5.66699 -29 -17 -41s-25 -18 -41 -18c-15.333 0 -29 6 -41 18s-18 25.667 -18 41s6 28.666 18 39.999s25.667 17 41 17c16 0 29.667 -5.66699 41 -17s17 -24.666 17 -39.999z" />
    <glyph glyph-name="cedilla" unicode="&#xb8;" horiz-adv-x="479" 
d="M399 626c0 -13.333 -5 -25 -15 -35s-21.667 -15 -35 -15s-25 5 -35 15s-15 21.667 -15 35s5 25 15 35s21.667 15 35 15s25 -5 35 -15s15 -21.667 15 -35zM200 626c0 -13.333 -5 -25 -15 -35s-21.667 -15 -35 -15s-25 5 -35 15s-15 21.667 -15 35s5 25 15 35
s21.667 15 35 15s25 -5 35 -15s15 -21.667 15 -35zM454 286l0.00195312 -16v-13c-1.33301 -6 -2 -10.333 -2 -13c-30 -5.33301 -59 -9 -87 -11s-59.333 -3 -94 -3h-146c0 -60.667 15.167 -108.667 45.5 -144s75.5 -53 135.5 -53c25.333 0 52 7 80 21
c7.33301 3.33301 22.333 11.666 45 24.999l10 -11l-17 -34c-24.667 -16.667 -50.834 -29.834 -78.501 -39.501s-55.5 -14.5 -83.5 -14.5c-73.333 0 -130 21.333 -170 64s-60 99.667 -60 171c0 38.667 3.33301 69.334 10 92.001c12.667 42.667 38 78.334 76 107.001
c20.667 15.333 44.167 28.333 70.5 39s51.166 16 74.499 16c56 0 101.833 -16.5 137.5 -49.5s53.5 -77.5 53.5 -133.5zM364.002 267c0 49.333 -7.33398 87.667 -22.001 115c-19.333 35.333 -51.333 53 -96 53c-41.333 0 -72.666 -17.667 -93.999 -53
c-18 -30 -27 -67.333 -27 -112c22 -2.66699 47 -4 75 -4l107 -2z" />
    <glyph glyph-name="cedilla" unicode="&#x451;" horiz-adv-x="479" 
d="M399 626c0 -13.333 -5 -25 -15 -35s-21.667 -15 -35 -15s-25 5 -35 15s-15 21.667 -15 35s5 25 15 35s21.667 15 35 15s25 -5 35 -15s15 -21.667 15 -35zM200 626c0 -13.333 -5 -25 -15 -35s-21.667 -15 -35 -15s-25 5 -35 15s-15 21.667 -15 35s5 25 15 35
s21.667 15 35 15s25 -5 35 -15s15 -21.667 15 -35zM454 286l0.00195312 -16v-13c-1.33301 -6 -2 -10.333 -2 -13c-30 -5.33301 -59 -9 -87 -11s-59.333 -3 -94 -3h-146c0 -60.667 15.167 -108.667 45.5 -144s75.5 -53 135.5 -53c25.333 0 52 7 80 21
c7.33301 3.33301 22.333 11.666 45 24.999l10 -11l-17 -34c-24.667 -16.667 -50.834 -29.834 -78.501 -39.501s-55.5 -14.5 -83.5 -14.5c-73.333 0 -130 21.333 -170 64s-60 99.667 -60 171c0 38.667 3.33301 69.334 10 92.001c12.667 42.667 38 78.334 76 107.001
c20.667 15.333 44.167 28.333 70.5 39s51.166 16 74.499 16c56 0 101.833 -16.5 137.5 -49.5s53.5 -77.5 53.5 -133.5zM364.002 267c0 49.333 -7.33398 87.667 -22.001 115c-19.333 35.333 -51.333 53 -96 53c-41.333 0 -72.666 -17.667 -93.999 -53
c-18 -30 -27 -67.333 -27 -112c22 -2.66699 47 -4 75 -4l107 -2z" />
    <glyph glyph-name="onesuperior" unicode="&#xb9;" horiz-adv-x="1165" 
d="M1147 557c0 -45.333 -15.999 -82.667 -47.999 -112s-73 -44 -123 -44c-22.667 0 -42.334 3.16699 -59.001 9.5s-32.334 17.166 -47.001 32.499c-24.667 28 -37 60.667 -37 98c0 23.333 3.66699 44.333 11 63s19.333 35.334 36 50.001c32.667 26.667 72.334 40 119.001 40
c42 0 77.167 -13.167 105.5 -39.5s42.5 -58.833 42.5 -97.5zM1138 311.999h-297v41h297v-41zM809.001 663.999l-16.002 -1c-32.667 0 -54.5 -4.16699 -65.5 -12.5s-16.5 -26.5 -16.5 -54.5v-579l3 -37l-79 14l-483 587v-488c0 -28 5.5 -46.167 16.5 -54.5
s32.833 -12.5 65.5 -12.5l16 -1v-30c-16.667 0 -39.167 0.833008 -67.5 2.5s-45.5 2.5 -51.5 2.5c-18.667 0 -42.334 -0.833008 -71.001 -2.5s-45 -2.5 -49 -2.5v30l16 1c32 0 53.167 4 63.5 12s15.5 26.333 15.5 55v503c0 28.667 -4.66699 47.167 -14 55.5
s-28.666 12.5 -57.999 12.5h-14v30c28.667 -2.66699 47.5 -4.16699 56.5 -4.5s19.167 -0.5 30.5 -0.5c25.333 0 54 1.66699 86 5l472 -595v497c0 28 -5.16699 46.167 -15.5 54.5s-31.5 12.5 -63.5 12.5l-16 1v30c18.667 0 42.334 -0.833008 71.001 -2.5s45 -2.5 49 -2.5
c17.333 0 40.333 0.833008 69 2.5s45.334 2.5 50.001 2.5v-30zM1085 530.999c0 16.667 -1.66797 33.167 -5.00098 49.5s-9 31.833 -17 46.5c-17.333 31.333 -43.666 47 -78.999 47c-32 0 -55.667 -10.667 -71 -32c-12.667 -18 -19 -43 -19 -75
c0 -38.667 7.33301 -70.667 22 -96c19.333 -33.333 48 -50 86 -50c14 0 27 3.66699 39 11s21.333 16.666 28 27.999s11 22.333 13 33s3 23.334 3 38.001z" />
    <glyph glyph-name="onesuperior" unicode="&#x2116;" horiz-adv-x="1165" 
d="M1147 557c0 -45.333 -15.999 -82.667 -47.999 -112s-73 -44 -123 -44c-22.667 0 -42.334 3.16699 -59.001 9.5s-32.334 17.166 -47.001 32.499c-24.667 28 -37 60.667 -37 98c0 23.333 3.66699 44.333 11 63s19.333 35.334 36 50.001c32.667 26.667 72.334 40 119.001 40
c42 0 77.167 -13.167 105.5 -39.5s42.5 -58.833 42.5 -97.5zM1138 311.999h-297v41h297v-41zM809.001 663.999l-16.002 -1c-32.667 0 -54.5 -4.16699 -65.5 -12.5s-16.5 -26.5 -16.5 -54.5v-579l3 -37l-79 14l-483 587v-488c0 -28 5.5 -46.167 16.5 -54.5
s32.833 -12.5 65.5 -12.5l16 -1v-30c-16.667 0 -39.167 0.833008 -67.5 2.5s-45.5 2.5 -51.5 2.5c-18.667 0 -42.334 -0.833008 -71.001 -2.5s-45 -2.5 -49 -2.5v30l16 1c32 0 53.167 4 63.5 12s15.5 26.333 15.5 55v503c0 28.667 -4.66699 47.167 -14 55.5
s-28.666 12.5 -57.999 12.5h-14v30c28.667 -2.66699 47.5 -4.16699 56.5 -4.5s19.167 -0.5 30.5 -0.5c25.333 0 54 1.66699 86 5l472 -595v497c0 28 -5.16699 46.167 -15.5 54.5s-31.5 12.5 -63.5 12.5l-16 1v30c18.667 0 42.334 -0.833008 71.001 -2.5s45 -2.5 49 -2.5
c17.333 0 40.333 0.833008 69 2.5s45.334 2.5 50.001 2.5v-30zM1085 530.999c0 16.667 -1.66797 33.167 -5.00098 49.5s-9 31.833 -17 46.5c-17.333 31.333 -43.666 47 -78.999 47c-32 0 -55.667 -10.667 -71 -32c-12.667 -18 -19 -43 -19 -75
c0 -38.667 7.33301 -70.667 22 -96c19.333 -33.333 48 -50 86 -50c14 0 27 3.66699 39 11s21.333 16.666 28 27.999s11 22.333 13 33s3 23.334 3 38.001z" />
    <glyph glyph-name="ordmasculine" unicode="&#xba;" horiz-adv-x="444" 
d="M419 49l-20.0029 -33.001c-53.333 -24 -100 -36 -140 -36c-63.333 0 -116 19.667 -158 59c-46 42.667 -69 100 -69 172c0 41.333 7.66699 80 23 116c8 20 17 35.167 27 45.5s24.333 21.333 43 33s38.334 22.834 59.001 33.501c26.667 14 46.667 22.167 60 24.5
s23.833 3.83301 31.5 4.5s15.5 1 23.5 1c22 0 41.333 -2.16699 58 -6.5s37.334 -11.833 62.001 -22.5c-2.66699 -12.667 -5 -27 -7 -43s-3 -30.333 -3 -43l-3 -35h-30l-2 25c0 9.33301 -2.16699 20.333 -6.5 33s-16.5 22.667 -36.5 30s-42 11 -66 11
c-52 0 -89.167 -14 -111.5 -42s-33.5 -68.667 -33.5 -122v-4h151l39 1l4 -9l-14 -35c-10 0.666992 -18.667 1.16699 -26 1.5s-13.333 0.5 -18 0.5h-13h-120c7.33301 -58.667 29 -103.667 65 -135c32.667 -28 72.334 -42 119.001 -42c18.667 0 39 4 61 12l41 17z" />
    <glyph glyph-name="ordmasculine" unicode="&#x454;" horiz-adv-x="444" 
d="M419 49l-20.0029 -33.001c-53.333 -24 -100 -36 -140 -36c-63.333 0 -116 19.667 -158 59c-46 42.667 -69 100 -69 172c0 41.333 7.66699 80 23 116c8 20 17 35.167 27 45.5s24.333 21.333 43 33s38.334 22.834 59.001 33.501c26.667 14 46.667 22.167 60 24.5
s23.833 3.83301 31.5 4.5s15.5 1 23.5 1c22 0 41.333 -2.16699 58 -6.5s37.334 -11.833 62.001 -22.5c-2.66699 -12.667 -5 -27 -7 -43s-3 -30.333 -3 -43l-3 -35h-30l-2 25c0 9.33301 -2.16699 20.333 -6.5 33s-16.5 22.667 -36.5 30s-42 11 -66 11
c-52 0 -89.167 -14 -111.5 -42s-33.5 -68.667 -33.5 -122v-4h151l39 1l4 -9l-14 -35c-10 0.666992 -18.667 1.16699 -26 1.5s-13.333 0.5 -18 0.5h-13h-120c7.33301 -58.667 29 -103.667 65 -135c32.667 -28 72.334 -42 119.001 -42c18.667 0 39 4 61 12l41 17z" />
    <glyph glyph-name="guillemotright" unicode="&#xbb;" 
d="M450 242c-8.66699 -6 -22.333 -18 -41 -36l-29 -28l-104 -107l-25 15l118 162l-15 23l-101 144l24 13l94 -95l79 -79v-12zM252.001 242c-8.66699 -4.66699 -18.5 -11.832 -29.5 -21.499s-23.833 -21.834 -38.5 -36.501l-108 -113l-26 15l119 162l-16 23l-100 144l24 13
l94 -95l81 -79v-12z" />
    <glyph glyph-name="onequarter" unicode="&#xbc;" horiz-adv-x="234" 
d="M194 634c0 -14.667 -5.33301 -27.667 -16 -39s-23.667 -17 -39 -17c-14.667 0 -27.667 5.66699 -39 17s-17 24.333 -17 39c0 14 5.66699 26.667 17 38s24.333 17 39 17s27.5 -5.5 38.5 -16.5s16.5 -23.833 16.5 -38.5zM191 449l-4.99902 -152.999v-315
c0 -30 -2.83301 -58.167 -8.5 -84.5s-15.167 -51.5 -28.5 -75.5c-15.333 -34.667 -38.333 -61.334 -69 -80.001c-26.667 -16 -54.667 -24 -84 -24l-10 34c48 0 80.333 22.667 97 68c7.33301 20 13.666 60.667 18.999 122v411c0 18.667 -8 32.167 -24 40.5s-35 12.5 -57 12.5
v30c40 6 67.333 10.333 82 13c26 5.33301 53.667 12.333 83 21c3.33301 -3.33301 5 -10 5 -20z" />
    <glyph glyph-name="onequarter" unicode="&#x458;" horiz-adv-x="234" 
d="M194 634c0 -14.667 -5.33301 -27.667 -16 -39s-23.667 -17 -39 -17c-14.667 0 -27.667 5.66699 -39 17s-17 24.333 -17 39c0 14 5.66699 26.667 17 38s24.333 17 39 17s27.5 -5.5 38.5 -16.5s16.5 -23.833 16.5 -38.5zM191 449l-4.99902 -152.999v-315
c0 -30 -2.83301 -58.167 -8.5 -84.5s-15.167 -51.5 -28.5 -75.5c-15.333 -34.667 -38.333 -61.334 -69 -80.001c-26.667 -16 -54.667 -24 -84 -24l-10 34c48 0 80.333 22.667 97 68c7.33301 20 13.666 60.667 18.999 122v411c0 18.667 -8 32.167 -24 40.5s-35 12.5 -57 12.5
v30c40 6 67.333 10.333 82 13c26 5.33301 53.667 12.333 83 21c3.33301 -3.33301 5 -10 5 -20z" />
    <glyph glyph-name="onehalf" unicode="&#xbd;" horiz-adv-x="525" 
d="M503 233c0 -80 -31.6689 -143.333 -95.002 -190c-57.333 -42 -126.333 -63 -207 -63c-29.333 0 -57.666 3.16699 -84.999 9.5s-56 15.833 -86 28.5c2 18 3.66699 38.333 5 61s2 44 2 64v28h34v-47c0 -14 0.833008 -24.833 2.5 -32.5s5.5 -14.167 11.5 -19.5
c18.667 -16 41.834 -27.667 69.501 -35s56.167 -11 85.5 -11c48 0 89 13 123 39c36.667 28 55 65.667 55 113c0 66 -34 106.667 -102 122l-191 30c-68.667 22 -103 73.667 -103 155c0 66 24.167 119.833 72.5 161.5s105.833 62.5 172.5 62.5c24 0 49.833 -3 77.5 -9
s66.5 -18.333 116.5 -37c-2.66699 -10.667 -4.66699 -19.667 -6 -27s-2 -14.333 -2 -21c0 -10 -0.666992 -21 -2 -33c-3.33301 -30 -5 -48.667 -5 -56h-34v14c0 10 -0.166992 21.167 -0.5 33.5s-3.5 23.166 -9.5 32.499c-12.667 19.333 -33 33.833 -61 43.5
s-56 14.5 -84 14.5c-42.667 0 -78.667 -13.167 -108 -39.5s-44 -60.833 -44 -103.5c0 -59.333 34.333 -97.666 103 -114.999l191 -35c69.333 -22 104 -68 104 -138z" />
    <glyph glyph-name="onehalf" unicode="&#x405;" horiz-adv-x="525" 
d="M503 233c0 -80 -31.6689 -143.333 -95.002 -190c-57.333 -42 -126.333 -63 -207 -63c-29.333 0 -57.666 3.16699 -84.999 9.5s-56 15.833 -86 28.5c2 18 3.66699 38.333 5 61s2 44 2 64v28h34v-47c0 -14 0.833008 -24.833 2.5 -32.5s5.5 -14.167 11.5 -19.5
c18.667 -16 41.834 -27.667 69.501 -35s56.167 -11 85.5 -11c48 0 89 13 123 39c36.667 28 55 65.667 55 113c0 66 -34 106.667 -102 122l-191 30c-68.667 22 -103 73.667 -103 155c0 66 24.167 119.833 72.5 161.5s105.833 62.5 172.5 62.5c24 0 49.833 -3 77.5 -9
s66.5 -18.333 116.5 -37c-2.66699 -10.667 -4.66699 -19.667 -6 -27s-2 -14.333 -2 -21c0 -10 -0.666992 -21 -2 -33c-3.33301 -30 -5 -48.667 -5 -56h-34v14c0 10 -0.166992 21.167 -0.5 33.5s-3.5 23.166 -9.5 32.499c-12.667 19.333 -33 33.833 -61 43.5
s-56 14.5 -84 14.5c-42.667 0 -78.667 -13.167 -108 -39.5s-44 -60.833 -44 -103.5c0 -59.333 34.333 -97.666 103 -114.999l191 -35c69.333 -22 104 -68 104 -138z" />
    <glyph glyph-name="threequarters" unicode="&#xbe;" horiz-adv-x="424" 
d="M391 148c0 -52 -22.666 -93.668 -67.999 -125.001c-41.333 -28.667 -92 -43 -152 -43c-24.667 0 -47.334 2 -68.001 6s-44 11.667 -70 23c6 42 9 86.667 9 134h30v-26c0 -26.667 1.33301 -43.167 4 -49.5s14.334 -15.5 35.001 -27.5
c11.333 -6.66699 24.833 -12.167 40.5 -16.5s32.167 -6.5 49.5 -6.5c32 0 59.5 8.5 82.5 25.5s34.5 38.833 34.5 65.5c0 32 -16 54 -48 66l-147 40c-56.667 21.333 -85 57.666 -85 108.999c0 50 19.333 87.667 58 113c33.333 22 76.666 33 129.999 33
c22 0 43.667 -2.16699 65 -6.5s43 -11.166 65 -20.499c-4 -22 -6 -59 -6 -111h-28c0 18 -2 33.333 -6 46s-12 23.334 -24 32.001s-25.833 15.334 -41.5 20.001s-30.5 7 -44.5 7c-31.333 0 -55.5 -8.16699 -72.5 -24.5s-25.5 -34.833 -25.5 -55.5
c0 -12.667 3.66699 -24.334 11 -35.001c12.667 -16 65.667 -35 159 -57c75.333 -18 113 -56.667 113 -116z" />
    <glyph glyph-name="threequarters" unicode="&#x455;" horiz-adv-x="424" 
d="M391 148c0 -52 -22.666 -93.668 -67.999 -125.001c-41.333 -28.667 -92 -43 -152 -43c-24.667 0 -47.334 2 -68.001 6s-44 11.667 -70 23c6 42 9 86.667 9 134h30v-26c0 -26.667 1.33301 -43.167 4 -49.5s14.334 -15.5 35.001 -27.5
c11.333 -6.66699 24.833 -12.167 40.5 -16.5s32.167 -6.5 49.5 -6.5c32 0 59.5 8.5 82.5 25.5s34.5 38.833 34.5 65.5c0 32 -16 54 -48 66l-147 40c-56.667 21.333 -85 57.666 -85 108.999c0 50 19.333 87.667 58 113c33.333 22 76.666 33 129.999 33
c22 0 43.667 -2.16699 65 -6.5s43 -11.166 65 -20.499c-4 -22 -6 -59 -6 -111h-28c0 18 -2 33.333 -6 46s-12 23.334 -24 32.001s-25.833 15.334 -41.5 20.001s-30.5 7 -44.5 7c-31.333 0 -55.5 -8.16699 -72.5 -24.5s-25.5 -34.833 -25.5 -55.5
c0 -12.667 3.66699 -24.334 11 -35.001c12.667 -16 65.667 -35 159 -57c75.333 -18 113 -56.667 113 -116z" />
    <glyph glyph-name="questiondown" unicode="&#xbf;" horiz-adv-x="287" 
d="M293 626c0 -13.333 -5 -25 -15 -35s-21.667 -15 -35 -15s-25 5 -35 15s-15 21.667 -15 35s5 25 15 35s21.667 15 35 15s25 -5 35 -15s15 -21.667 15 -35zM94 626c0 -13.333 -5 -25 -15 -35s-21.667 -15 -35 -15s-25 5 -35 15s-15 21.667 -15 35s5 25 15 35
s21.667 15 35 15s25 -5 35 -15s15 -21.667 15 -35zM273 -5c-17.333 0 -41 0.833984 -71 2.50098s-48 2.5 -54 2.5c-19.333 0 -44 -0.833008 -74 -2.5s-47 -2.5 -51 -2.5v30c38.667 0 62.667 8.33301 72 25c7.33301 13.333 11 46.666 11 99.999v202
c0 18.667 -8 32.167 -24 40.5s-35 12.5 -57 12.5v30c40 6 67.333 10.333 82 13c26 5.33301 53.667 12.333 83 21c3.33301 -3.33301 5 -10 5 -20l-5 -153v-146c0 -54 4.16699 -88.333 12.5 -103s31.833 -22 70.5 -22v-30z" />
    <glyph glyph-name="questiondown" unicode="&#x457;" horiz-adv-x="287" 
d="M293 626c0 -13.333 -5 -25 -15 -35s-21.667 -15 -35 -15s-25 5 -35 15s-15 21.667 -15 35s5 25 15 35s21.667 15 35 15s25 -5 35 -15s15 -21.667 15 -35zM94 626c0 -13.333 -5 -25 -15 -35s-21.667 -15 -35 -15s-25 5 -35 15s-15 21.667 -15 35s5 25 15 35
s21.667 15 35 15s25 -5 35 -15s15 -21.667 15 -35zM273 -5c-17.333 0 -41 0.833984 -71 2.50098s-48 2.5 -54 2.5c-19.333 0 -44 -0.833008 -74 -2.5s-47 -2.5 -51 -2.5v30c38.667 0 62.667 8.33301 72 25c7.33301 13.333 11 46.666 11 99.999v202
c0 18.667 -8 32.167 -24 40.5s-35 12.5 -57 12.5v30c40 6 67.333 10.333 82 13c26 5.33301 53.667 12.333 83 21c3.33301 -3.33301 5 -10 5 -20l-5 -153v-146c0 -54 4.16699 -88.333 12.5 -103s31.833 -22 70.5 -22v-30z" />
    <glyph glyph-name="Agrave" unicode="&#xc0;" horiz-adv-x="778" 
d="M756 -5c-18.667 0 -43.8301 0.833008 -75.4971 2.5s-50.834 2.5 -57.501 2.5c-20.667 0 -47 -0.833008 -79 -2.5s-50 -2.5 -54 -2.5v30c17.333 0 31.5 0.833008 42.5 2.5s21.167 5 30.5 10s14 12.5 14 22.5c0 5.33301 -1.66699 12 -5 20l-61 146h-284
c-22.667 -50.667 -35.334 -79.334 -38.001 -86.001c-19.333 -46 -29 -73.333 -29 -82c0 -16 14 -25.667 42 -29l43 -4v-30c-16 0 -37.667 0.833008 -65 2.5s-44 2.5 -50 2.5c-17.333 0 -39.833 -0.833008 -67.5 -2.5s-43.5 -2.5 -47.5 -2.5v30l45 8c16 4 30 19.333 42 46
l49 103l135 302c29.333 64.667 45.333 100.334 48 107.001c15.333 36 29.666 72.333 42.999 109h32l241 -569c8 -20 15 -35.667 21 -47c9.33301 -17.333 19.833 -31.5 31.5 -42.5s29.5 -16.5 53.5 -16.5v-30zM493.004 269l-125 298l-125 -298h250z" />
    <glyph glyph-name="Agrave" unicode="&#x410;" horiz-adv-x="778" 
d="M756 -5c-18.667 0 -43.8301 0.833008 -75.4971 2.5s-50.834 2.5 -57.501 2.5c-20.667 0 -47 -0.833008 -79 -2.5s-50 -2.5 -54 -2.5v30c17.333 0 31.5 0.833008 42.5 2.5s21.167 5 30.5 10s14 12.5 14 22.5c0 5.33301 -1.66699 12 -5 20l-61 146h-284
c-22.667 -50.667 -35.334 -79.334 -38.001 -86.001c-19.333 -46 -29 -73.333 -29 -82c0 -16 14 -25.667 42 -29l43 -4v-30c-16 0 -37.667 0.833008 -65 2.5s-44 2.5 -50 2.5c-17.333 0 -39.833 -0.833008 -67.5 -2.5s-43.5 -2.5 -47.5 -2.5v30l45 8c16 4 30 19.333 42 46
l49 103l135 302c29.333 64.667 45.333 100.334 48 107.001c15.333 36 29.666 72.333 42.999 109h32l241 -569c8 -20 15 -35.667 21 -47c9.33301 -17.333 19.833 -31.5 31.5 -42.5s29.5 -16.5 53.5 -16.5v-30zM493.004 269l-125 298l-125 -298h250z" />
    <glyph glyph-name="Aacute" unicode="&#xc1;" horiz-adv-x="611" 
d="M584 230c0 -68.667 -28.0029 -125.665 -84.0029 -170.998c-52.667 -42.667 -113.334 -64 -182.001 -64c-21.333 0 -38.666 0.333008 -51.999 1c-52 2.66699 -80 4 -84 4c-17.333 0 -41.833 -0.833008 -73.5 -2.5s-51.167 -2.5 -58.5 -2.5v30c30 4 49.333 11.167 58 21.5
s13 26.833 13 49.5v478c0 39.333 -5.83301 64.166 -17.5 74.499s-37.5 15.5 -77.5 15.5v30c26 0 60.667 -0.833008 104 -2.5s69.666 -2.5 78.999 -2.5c28 0 50.333 0.333008 67 1c67.333 2.66699 104.333 4 111 4c30 0 59.5 -0.166992 88.5 -0.5s53.167 -1.83301 72.5 -4.5
c-10.667 -32 -16 -64 -16 -96l-3 -60h-31c0 18.667 -0.833008 33.167 -2.5 43.5s-5.5 28.5 -11.5 54.5c-22 6.66699 -44.5 11.167 -67.5 13.5s-48.5 3.5 -76.5 3.5c-21.333 0 -41.666 -0.166992 -60.999 -0.5s-38.666 -1.83301 -57.999 -4.5
c-2.66699 -16.667 -4.16699 -30 -4.5 -40s-0.5 -18.667 -0.5 -26v-180c16.667 0 43.834 0.833008 81.501 2.5s64.167 2.5 79.5 2.5c56.667 0 103.334 -12.667 140.001 -38c44.667 -30.667 67 -75.334 67 -134.001zM480.997 202.002c0 52.667 -13.832 92.501 -41.499 119.501
s-67.167 40.5 -118.5 40.5c-18 0 -33.5 -1.16699 -46.5 -3.5s-30.5 -6.5 -52.5 -12.5c-2.66699 -8.66699 -4.33398 -17.834 -5.00098 -27.501s-1 -21.5 -1 -35.5v-11v-226c11.333 -2 25.5 -4 42.5 -6s32.833 -3 47.5 -3c50.667 0 92.5 15.5 125.5 46.5s49.5 70.5 49.5 118.5
z" />
    <glyph glyph-name="Aacute" unicode="&#x411;" horiz-adv-x="611" 
d="M584 230c0 -68.667 -28.0029 -125.665 -84.0029 -170.998c-52.667 -42.667 -113.334 -64 -182.001 -64c-21.333 0 -38.666 0.333008 -51.999 1c-52 2.66699 -80 4 -84 4c-17.333 0 -41.833 -0.833008 -73.5 -2.5s-51.167 -2.5 -58.5 -2.5v30c30 4 49.333 11.167 58 21.5
s13 26.833 13 49.5v478c0 39.333 -5.83301 64.166 -17.5 74.499s-37.5 15.5 -77.5 15.5v30c26 0 60.667 -0.833008 104 -2.5s69.666 -2.5 78.999 -2.5c28 0 50.333 0.333008 67 1c67.333 2.66699 104.333 4 111 4c30 0 59.5 -0.166992 88.5 -0.5s53.167 -1.83301 72.5 -4.5
c-10.667 -32 -16 -64 -16 -96l-3 -60h-31c0 18.667 -0.833008 33.167 -2.5 43.5s-5.5 28.5 -11.5 54.5c-22 6.66699 -44.5 11.167 -67.5 13.5s-48.5 3.5 -76.5 3.5c-21.333 0 -41.666 -0.166992 -60.999 -0.5s-38.666 -1.83301 -57.999 -4.5
c-2.66699 -16.667 -4.16699 -30 -4.5 -40s-0.5 -18.667 -0.5 -26v-180c16.667 0 43.834 0.833008 81.501 2.5s64.167 2.5 79.5 2.5c56.667 0 103.334 -12.667 140.001 -38c44.667 -30.667 67 -75.334 67 -134.001zM480.997 202.002c0 52.667 -13.832 92.501 -41.499 119.501
s-67.167 40.5 -118.5 40.5c-18 0 -33.5 -1.16699 -46.5 -3.5s-30.5 -6.5 -52.5 -12.5c-2.66699 -8.66699 -4.33398 -17.834 -5.00098 -27.501s-1 -21.5 -1 -35.5v-11v-226c11.333 -2 25.5 -4 42.5 -6s32.833 -3 47.5 -3c50.667 0 92.5 15.5 125.5 46.5s49.5 70.5 49.5 118.5
z" />
    <glyph glyph-name="Acircumflex" unicode="&#xc2;" horiz-adv-x="611" 
d="M577 227c0 -66.667 -28.832 -122 -86.499 -166s-126.834 -66 -207.501 -66c-15.333 0 -35.833 0.833008 -61.5 2.5s-41.167 2.5 -46.5 2.5c-16.667 0 -38.167 -0.833008 -64.5 -2.5s-41.166 -2.5 -44.499 -2.5v30c20 5.33301 33 13 39 23s9 25.667 9 47v479
c0 40 -5.33301 65 -16 75s-34.667 15 -72 15v30c23.333 0 55.333 -0.833008 96 -2.5s65.334 -2.5 74.001 -2.5c26.667 0 48 0.333008 64 1c65.333 2.66699 100.666 4 105.999 4c52 0 93 -10 123 -30c36 -24 54 -60.667 54 -110c0 -43.333 -17.333 -80.333 -52 -111
c-30.667 -27.333 -69 -45 -115 -53c57.333 0 103.666 -12.333 138.999 -37c41.333 -28.667 62 -70.667 62 -126zM444.001 534c0 44.667 -14.668 76.667 -44.001 96c-24 16 -59.667 24 -107 24c-12 0 -24.5 -0.5 -37.5 -1.5s-26.833 -4.16699 -41.5 -9.5
c-2 -10 -3.33301 -21 -4 -33s-1 -25.667 -1 -41v-165c9.33301 -1.33301 20.333 -2.33301 33 -3s25.334 -1 38.001 -1c48.667 0 87 9.66699 115 29c32.667 22.667 49 57.667 49 105zM474 210c0 54 -16.5 93 -49.5 117s-82.5 36 -148.5 36h-67v-317c11.333 -2 25 -4 41 -6
s32.333 -3 49 -3c53.333 0 95.833 15.5 127.5 46.5s47.5 73.167 47.5 126.5z" />
    <glyph glyph-name="Acircumflex" unicode="&#x412;" horiz-adv-x="611" 
d="M577 227c0 -66.667 -28.832 -122 -86.499 -166s-126.834 -66 -207.501 -66c-15.333 0 -35.833 0.833008 -61.5 2.5s-41.167 2.5 -46.5 2.5c-16.667 0 -38.167 -0.833008 -64.5 -2.5s-41.166 -2.5 -44.499 -2.5v30c20 5.33301 33 13 39 23s9 25.667 9 47v479
c0 40 -5.33301 65 -16 75s-34.667 15 -72 15v30c23.333 0 55.333 -0.833008 96 -2.5s65.334 -2.5 74.001 -2.5c26.667 0 48 0.333008 64 1c65.333 2.66699 100.666 4 105.999 4c52 0 93 -10 123 -30c36 -24 54 -60.667 54 -110c0 -43.333 -17.333 -80.333 -52 -111
c-30.667 -27.333 -69 -45 -115 -53c57.333 0 103.666 -12.333 138.999 -37c41.333 -28.667 62 -70.667 62 -126zM444.001 534c0 44.667 -14.668 76.667 -44.001 96c-24 16 -59.667 24 -107 24c-12 0 -24.5 -0.5 -37.5 -1.5s-26.833 -4.16699 -41.5 -9.5
c-2 -10 -3.33301 -21 -4 -33s-1 -25.667 -1 -41v-165c9.33301 -1.33301 20.333 -2.33301 33 -3s25.334 -1 38.001 -1c48.667 0 87 9.66699 115 29c32.667 22.667 49 57.667 49 105zM474 210c0 54 -16.5 93 -49.5 117s-82.5 36 -148.5 36h-67v-317c11.333 -2 25 -4 41 -6
s32.333 -3 49 -3c53.333 0 95.833 15.5 127.5 46.5s47.5 73.167 47.5 126.5z" />
    <glyph glyph-name="Atilde" unicode="&#xc3;" horiz-adv-x="573" 
d="M558 689c-10.667 -32 -15.999 -64.332 -15.999 -96.999l-3 -62h-31c0 18.667 -1 34.334 -3 47.001s-5.66699 30.667 -11 54c-22 6.66699 -45 11.167 -69 13.5s-50.667 3.5 -80 3.5c-22 0 -43.5 -0.166992 -64.5 -0.5s-40.833 -1.83301 -59.5 -4.5
c-2 -10.667 -3.33301 -19.834 -4 -27.501s-1 -20.167 -1 -37.5v-463c0 -41.333 3.66699 -66 11 -74c10 -10.667 38 -16 84 -16v-30c-22 0 -40 0.333008 -54 1c-54.667 2.66699 -84.667 4 -90 4c-22.667 0 -51 -0.833008 -85 -2.5s-52.667 -2.5 -56 -2.5v30
c46 0 73.333 4.66699 82 14s13 34.666 13 75.999v459c0 41.333 -3.66699 66 -11 74c-10 10.667 -38 16 -84 16v30c26 0 60.667 -0.833008 104 -2.5s69.666 -2.5 78.999 -2.5c28.667 0 51.667 0.333008 69 1c70 2.66699 108 4 114 4c31.333 0 62 -0.166992 92 -0.5
s54.667 -1.83301 74 -4.5z" />
    <glyph glyph-name="Atilde" unicode="&#x413;" horiz-adv-x="573" 
d="M558 689c-10.667 -32 -15.999 -64.332 -15.999 -96.999l-3 -62h-31c0 18.667 -1 34.334 -3 47.001s-5.66699 30.667 -11 54c-22 6.66699 -45 11.167 -69 13.5s-50.667 3.5 -80 3.5c-22 0 -43.5 -0.166992 -64.5 -0.5s-40.833 -1.83301 -59.5 -4.5
c-2 -10.667 -3.33301 -19.834 -4 -27.501s-1 -20.167 -1 -37.5v-463c0 -41.333 3.66699 -66 11 -74c10 -10.667 38 -16 84 -16v-30c-22 0 -40 0.333008 -54 1c-54.667 2.66699 -84.667 4 -90 4c-22.667 0 -51 -0.833008 -85 -2.5s-52.667 -2.5 -56 -2.5v30
c46 0 73.333 4.66699 82 14s13 34.666 13 75.999v459c0 41.333 -3.66699 66 -11 74c-10 10.667 -38 16 -84 16v30c26 0 60.667 -0.833008 104 -2.5s69.666 -2.5 78.999 -2.5c28.667 0 51.667 0.333008 69 1c70 2.66699 108 4 114 4c31.333 0 62 -0.166992 92 -0.5
s54.667 -1.83301 74 -4.5z" />
    <glyph glyph-name="Adieresis" unicode="&#xc4;" horiz-adv-x="758" 
d="M745 25c-6.66699 -10.667 -12.668 -38.3311 -18.001 -82.998l-6 -65h-31c0 19.333 -1.16699 36.333 -3.5 51s-5.83301 33 -10.5 55c-22 6.66699 -46.333 11.167 -73 13.5s-58.667 3.5 -96 3.5h-262c-19.333 0 -41.333 -0.166992 -66 -0.5s-50 -3.5 -76 -9.5
c-12 -2.66699 -20 -5.66699 -24 -9s-6.66699 -10 -8 -20l-9 -84h-31l-6 64c-5.33301 45.333 -11.333 73.333 -18 84c16.667 0 32.834 1.16699 48.501 3.5s25.834 4.83301 30.501 7.5c32.667 23.333 63.667 81 93 173c20.667 65.333 40 146 58 242l20 123
c0 3.33301 0.333008 7.66602 1 12.999s1 10.666 1 15.999c0 22 -7.66699 37.667 -23 47s-44.333 14 -87 14v30c19.333 0 47.666 -0.833008 84.999 -2.5s59.333 -2.5 66 -2.5h291c22.667 0 40.667 0.333008 54 1c54.667 2.66699 83.667 4 87 4v-30
c-46 0 -73.333 -4.66699 -82 -14s-13 -34.666 -13 -75.999v-458c0 -40.667 4.33301 -65.334 13 -74.001c11.333 -11.333 43 -17 95 -17zM541.999 147.003l0.000976562 414.001v14v11c0 22 -1.66699 41 -5 57c-12 2 -26.5 3.33301 -43.5 4s-32.5 1 -46.5 1h-45
c-14.667 0 -28.834 -0.166992 -42.501 -0.5s-30.167 -1.83301 -49.5 -4.5c-20.667 -139.333 -43 -257.5 -67 -354.5s-52.333 -177.5 -85 -241.5c34 0 69.333 -0.166992 106 -0.5s74.667 -0.5 114 -0.5l159 1c2 14.667 3.33301 34.167 4 58.5s1 38.166 1 41.499z" />
    <glyph glyph-name="Adieresis" unicode="&#x414;" horiz-adv-x="758" 
d="M745 25c-6.66699 -10.667 -12.668 -38.3311 -18.001 -82.998l-6 -65h-31c0 19.333 -1.16699 36.333 -3.5 51s-5.83301 33 -10.5 55c-22 6.66699 -46.333 11.167 -73 13.5s-58.667 3.5 -96 3.5h-262c-19.333 0 -41.333 -0.166992 -66 -0.5s-50 -3.5 -76 -9.5
c-12 -2.66699 -20 -5.66699 -24 -9s-6.66699 -10 -8 -20l-9 -84h-31l-6 64c-5.33301 45.333 -11.333 73.333 -18 84c16.667 0 32.834 1.16699 48.501 3.5s25.834 4.83301 30.501 7.5c32.667 23.333 63.667 81 93 173c20.667 65.333 40 146 58 242l20 123
c0 3.33301 0.333008 7.66602 1 12.999s1 10.666 1 15.999c0 22 -7.66699 37.667 -23 47s-44.333 14 -87 14v30c19.333 0 47.666 -0.833008 84.999 -2.5s59.333 -2.5 66 -2.5h291c22.667 0 40.667 0.333008 54 1c54.667 2.66699 83.667 4 87 4v-30
c-46 0 -73.333 -4.66699 -82 -14s-13 -34.666 -13 -75.999v-458c0 -40.667 4.33301 -65.334 13 -74.001c11.333 -11.333 43 -17 95 -17zM541.999 147.003l0.000976562 414.001v14v11c0 22 -1.66699 41 -5 57c-12 2 -26.5 3.33301 -43.5 4s-32.5 1 -46.5 1h-45
c-14.667 0 -28.834 -0.166992 -42.501 -0.5s-30.167 -1.83301 -49.5 -4.5c-20.667 -139.333 -43 -257.5 -67 -354.5s-52.333 -177.5 -85 -241.5c34 0 69.333 -0.166992 106 -0.5s74.667 -0.5 114 -0.5l159 1c2 14.667 3.33301 34.167 4 58.5s1 38.166 1 41.499z" />
    <glyph glyph-name="Aring" unicode="&#xc5;" horiz-adv-x="611" 
d="M572 164c-2 -12 -4.16504 -26.6689 -6.49805 -44.002s-3.5 -29.666 -3.5 -36.999v-83c-14 -2 -37 -3.33301 -69 -4s-64.333 -1 -97 -1c-24.667 0 -58.5 0.833008 -101.5 2.5s-69.167 2.5 -78.5 2.5c-28 0 -63.5 -0.833008 -106.5 -2.5s-67.833 -2.5 -74.5 -2.5v30
c27.333 0 48.5 6.83301 63.5 20.5s22.5 36.834 22.5 69.501v459c0 41.333 -3.66699 66 -11 74c-10 10.667 -38 16 -84 16v30c26 0 60.667 -0.833008 104 -2.5s69.666 -2.5 78.999 -2.5c28.667 0 51.667 0.333008 69 1c70 2.66699 108 4 114 4c31.333 0 62 -0.166992 92 -0.5
s54.667 -1.83301 74 -4.5c-10.667 -32 -16 -64.333 -16 -97l-3 -59h-31c0 18.667 -0.833008 33.167 -2.5 43.5s-5.5 28.5 -11.5 54.5c-22 6.66699 -45 11.167 -69 13.5s-50.667 3.5 -80 3.5c-22 0 -43.5 -0.166992 -64.5 -0.5s-40.833 -1.83301 -59.5 -4.5
c-3.33301 -20.667 -5 -48.334 -5 -83.001v-187c20 0 39.333 -0.166992 58 -0.5s36.667 -0.5 54 -0.5c56 0 90.167 4.33301 102.5 13s18.5 32.667 18.5 72h33v-231h-33c0 47.333 -6.16699 75.833 -18.5 85.5s-50.5 14.5 -114.5 14.5c-19.333 0 -37.333 -0.166992 -54 -0.5
s-32 -0.5 -46 -0.5v-193c0 -35.333 1.66699 -64 5 -86c13.333 -2 33.166 -3.33301 59.499 -4s51.833 -1 76.5 -1c38.667 0 68.5 0.833008 89.5 2.5s44.833 6.5 71.5 14.5c2.66699 8 5.16699 16.333 7.5 25s3.83301 17.334 4.5 26.001l9 55h33z" />
    <glyph glyph-name="Aring" unicode="&#x415;" horiz-adv-x="611" 
d="M572 164c-2 -12 -4.16504 -26.6689 -6.49805 -44.002s-3.5 -29.666 -3.5 -36.999v-83c-14 -2 -37 -3.33301 -69 -4s-64.333 -1 -97 -1c-24.667 0 -58.5 0.833008 -101.5 2.5s-69.167 2.5 -78.5 2.5c-28 0 -63.5 -0.833008 -106.5 -2.5s-67.833 -2.5 -74.5 -2.5v30
c27.333 0 48.5 6.83301 63.5 20.5s22.5 36.834 22.5 69.501v459c0 41.333 -3.66699 66 -11 74c-10 10.667 -38 16 -84 16v30c26 0 60.667 -0.833008 104 -2.5s69.666 -2.5 78.999 -2.5c28.667 0 51.667 0.333008 69 1c70 2.66699 108 4 114 4c31.333 0 62 -0.166992 92 -0.5
s54.667 -1.83301 74 -4.5c-10.667 -32 -16 -64.333 -16 -97l-3 -59h-31c0 18.667 -0.833008 33.167 -2.5 43.5s-5.5 28.5 -11.5 54.5c-22 6.66699 -45 11.167 -69 13.5s-50.667 3.5 -80 3.5c-22 0 -43.5 -0.166992 -64.5 -0.5s-40.833 -1.83301 -59.5 -4.5
c-3.33301 -20.667 -5 -48.334 -5 -83.001v-187c20 0 39.333 -0.166992 58 -0.5s36.667 -0.5 54 -0.5c56 0 90.167 4.33301 102.5 13s18.5 32.667 18.5 72h33v-231h-33c0 47.333 -6.16699 75.833 -18.5 85.5s-50.5 14.5 -114.5 14.5c-19.333 0 -37.333 -0.166992 -54 -0.5
s-32 -0.5 -46 -0.5v-193c0 -35.333 1.66699 -64 5 -86c13.333 -2 33.166 -3.33301 59.499 -4s51.833 -1 76.5 -1c38.667 0 68.5 0.833008 89.5 2.5s44.833 6.5 71.5 14.5c2.66699 8 5.16699 16.333 7.5 25s3.83301 17.334 4.5 26.001l9 55h33z" />
    <glyph glyph-name="AE" unicode="&#xc6;" horiz-adv-x="1005" 
d="M1002 -5c-10 2 -23.6631 3.33398 -40.9961 4.00098s-27 1 -29 1c-14.667 0 -25.834 -0.333008 -33.501 -1s-20.167 -2 -37.5 -4c-4 6.66699 -11.667 15 -23 25l-16 14l-267 298l-10 -7v-210c0 -41.333 3.66699 -66 11 -74c10 -10.667 38 -16 84 -16v-30
c-22 0 -40 0.333008 -54 1c-54.667 2.66699 -84.667 4 -90 4c-20.667 0 -47.334 -0.833008 -80.001 -2.5s-53 -2.5 -61 -2.5v30c46 0 73.333 4.66699 82 14s13 34.666 13 75.999v210l-10 7l-257 -298l-25 -34c-25.333 -0 -52.166 -0.166992 -80.499 -0.5
s-53.166 -1.83301 -74.499 -4.5v30c18 0 33.667 4.33301 47 13c3.33301 2 15.666 13 36.999 33l268 309l-207 241c-24.667 19.333 -42.834 31.333 -54.501 36s-32.834 7 -63.501 7v30c26.667 -2.66699 44.667 -4.16699 54 -4.5s19.333 -0.5 30 -0.5
c25.333 0 53.666 1.66699 84.999 5c0 -14 1 -25.333 3 -34s6.66699 -16.667 14 -24l173 -221c0.666992 -0.666992 10.334 -11 29.001 -31c12 -12.667 22.667 -22.334 32 -29.001v219c0 41.333 -3.66699 66 -11 74c-10 10.667 -38 16 -84 16v30
c22 0 50.167 -0.833008 84.5 -2.5s54.166 -2.5 59.499 -2.5h17h15h14h12c14 0 28.333 0.333008 43 1s28 2 40 4v-30c-46 0 -73.333 -4.66699 -82 -14s-13 -34.666 -13 -75.999v-219c11.333 7.33301 21.833 16.5 31.5 27.5l29.5 32.5l183 221
c5.33301 5.33301 9.5 12.333 12.5 21s4.5 21 4.5 37c18.667 -2 32.667 -3.33301 42 -4s23.666 -1 42.999 -1c10 0 19.5 0.166992 28.5 0.5s27.5 1.83301 55.5 4.5v-30c-29.333 0 -50.166 -2.33301 -62.499 -7s-30.833 -16.667 -55.5 -36l-217 -241l278 -309l28 -26
c16 -13.333 34.667 -20 56 -20v-30z" />
    <glyph glyph-name="AE" unicode="&#x416;" horiz-adv-x="1005" 
d="M1002 -5c-10 2 -23.6631 3.33398 -40.9961 4.00098s-27 1 -29 1c-14.667 0 -25.834 -0.333008 -33.501 -1s-20.167 -2 -37.5 -4c-4 6.66699 -11.667 15 -23 25l-16 14l-267 298l-10 -7v-210c0 -41.333 3.66699 -66 11 -74c10 -10.667 38 -16 84 -16v-30
c-22 0 -40 0.333008 -54 1c-54.667 2.66699 -84.667 4 -90 4c-20.667 0 -47.334 -0.833008 -80.001 -2.5s-53 -2.5 -61 -2.5v30c46 0 73.333 4.66699 82 14s13 34.666 13 75.999v210l-10 7l-257 -298l-25 -34c-25.333 -0 -52.166 -0.166992 -80.499 -0.5
s-53.166 -1.83301 -74.499 -4.5v30c18 0 33.667 4.33301 47 13c3.33301 2 15.666 13 36.999 33l268 309l-207 241c-24.667 19.333 -42.834 31.333 -54.501 36s-32.834 7 -63.501 7v30c26.667 -2.66699 44.667 -4.16699 54 -4.5s19.333 -0.5 30 -0.5
c25.333 0 53.666 1.66699 84.999 5c0 -14 1 -25.333 3 -34s6.66699 -16.667 14 -24l173 -221c0.666992 -0.666992 10.334 -11 29.001 -31c12 -12.667 22.667 -22.334 32 -29.001v219c0 41.333 -3.66699 66 -11 74c-10 10.667 -38 16 -84 16v30
c22 0 50.167 -0.833008 84.5 -2.5s54.166 -2.5 59.499 -2.5h17h15h14h12c14 0 28.333 0.333008 43 1s28 2 40 4v-30c-46 0 -73.333 -4.66699 -82 -14s-13 -34.666 -13 -75.999v-219c11.333 7.33301 21.833 16.5 31.5 27.5l29.5 32.5l183 221
c5.33301 5.33301 9.5 12.333 12.5 21s4.5 21 4.5 37c18.667 -2 32.667 -3.33301 42 -4s23.666 -1 42.999 -1c10 0 19.5 0.166992 28.5 0.5s27.5 1.83301 55.5 4.5v-30c-29.333 0 -50.166 -2.33301 -62.499 -7s-30.833 -16.667 -55.5 -36l-217 -241l278 -309l28 -26
c16 -13.333 34.667 -20 56 -20v-30z" />
    <glyph glyph-name="Ccedilla" unicode="&#xc7;" horiz-adv-x="536" 
d="M504 206c0 -62.667 -26.833 -115.999 -80.5 -159.999s-114.5 -66 -182.5 -66c-34.667 0 -67 5 -97 15s-58.667 24.667 -86 44l-20 45l9 10c26 -20.667 54.5 -36.667 85.5 -48s62.167 -17 93.5 -17c49.333 0 90.833 15.167 124.5 45.5s50.5 72.166 50.5 125.499
c0 51.333 -16.167 89.333 -48.5 114s-79.5 37 -141.5 37c-25.333 0 -47 -3.33301 -65 -10l-7 6l12 48c15.333 -3.33301 34 -5 56 -5c48.667 0 87 10.333 115 31c32.667 24 49 61 49 111c0 42.667 -14.333 76 -43 100c-26 21.333 -59 32 -99 32
c-26.667 0 -50.334 -5.33301 -71.001 -16s-36.667 -24.667 -48 -42c-6 -8.66699 -10.833 -19.667 -14.5 -33s-5.5 -29 -5.5 -47h-34c0.666992 4.66699 1.33398 12.667 2.00098 24s1 25.666 1 42.999v22c0 7.33301 -0.333008 13 -1 17s-3 14.333 -7 31
c25.333 10 46.333 17.667 63 23c46 15.333 86.667 23 122 23c72 0 127.333 -11.667 166 -35c45.333 -27.333 68 -69 68 -125c0 -44 -17.667 -82.333 -53 -115c-32 -29.333 -70 -47.666 -114 -54.999c56.667 0 103 -13.667 139 -41c41.333 -31.333 62 -75.333 62 -132z" />
    <glyph glyph-name="Ccedilla" unicode="&#x417;" horiz-adv-x="536" 
d="M504 206c0 -62.667 -26.833 -115.999 -80.5 -159.999s-114.5 -66 -182.5 -66c-34.667 0 -67 5 -97 15s-58.667 24.667 -86 44l-20 45l9 10c26 -20.667 54.5 -36.667 85.5 -48s62.167 -17 93.5 -17c49.333 0 90.833 15.167 124.5 45.5s50.5 72.166 50.5 125.499
c0 51.333 -16.167 89.333 -48.5 114s-79.5 37 -141.5 37c-25.333 0 -47 -3.33301 -65 -10l-7 6l12 48c15.333 -3.33301 34 -5 56 -5c48.667 0 87 10.333 115 31c32.667 24 49 61 49 111c0 42.667 -14.333 76 -43 100c-26 21.333 -59 32 -99 32
c-26.667 0 -50.334 -5.33301 -71.001 -16s-36.667 -24.667 -48 -42c-6 -8.66699 -10.833 -19.667 -14.5 -33s-5.5 -29 -5.5 -47h-34c0.666992 4.66699 1.33398 12.667 2.00098 24s1 25.666 1 42.999v22c0 7.33301 -0.333008 13 -1 17s-3 14.333 -7 31
c25.333 10 46.333 17.667 63 23c46 15.333 86.667 23 122 23c72 0 127.333 -11.667 166 -35c45.333 -27.333 68 -69 68 -125c0 -44 -17.667 -82.333 -53 -115c-32 -29.333 -70 -47.666 -114 -54.999c56.667 0 103 -13.667 139 -41c41.333 -31.333 62 -75.333 62 -132z" />
    <glyph glyph-name="Egrave" unicode="&#xc8;" horiz-adv-x="833" 
d="M806 -5c-22 0 -39.999 0.333984 -53.999 1.00098c-54.667 2.66699 -84.667 4 -90 4c-22.667 0 -51 -0.833008 -85 -2.5s-52.667 -2.5 -56 -2.5v30c46 0 73.333 4.66699 82 14s13 34.666 13 75.999v468l-336 -458c-21.333 -29.333 -37.333 -52.333 -48 -69
c-15.333 -24 -26.333 -44.333 -33 -61c-11.333 2 -20.333 3.33301 -27 4s-18.334 1 -35.001 1c-13.333 0 -30.666 -0.833008 -51.999 -2.5s-36 -2.5 -44 -2.5v30c29.333 2.66699 49 10 59 22c8 9.33301 12 26 12 50v477c0 41.333 -3.66699 66 -11 74
c-10 10.667 -38 16 -84 16v30c19.333 0 45.666 -0.833008 78.999 -2.5s54 -2.5 62 -2.5c22 0 40 0.333008 54 1c54.667 2.66699 84.667 4 90 4v-30c-46 0 -73.333 -4.66699 -82 -14s-13 -34.666 -13 -75.999v-468l336 458c21.333 29.333 37.333 52.333 48 69
c15.333 24 26.333 44.333 33 61c8 -2 19.667 -3.33301 35 -4s24.333 -1 27 -1c12.667 0 33.667 0.833008 63 2.5s48.333 2.5 57 2.5v-30c-45.333 0 -72.5 -4.83301 -81.5 -14.5s-13.5 -34.834 -13.5 -75.501v-459c0 -41.333 3.66699 -66 11 -74c10 -10.667 38 -16 84 -16
v-30z" />
    <glyph glyph-name="Egrave" unicode="&#x418;" horiz-adv-x="833" 
d="M806 -5c-22 0 -39.999 0.333984 -53.999 1.00098c-54.667 2.66699 -84.667 4 -90 4c-22.667 0 -51 -0.833008 -85 -2.5s-52.667 -2.5 -56 -2.5v30c46 0 73.333 4.66699 82 14s13 34.666 13 75.999v468l-336 -458c-21.333 -29.333 -37.333 -52.333 -48 -69
c-15.333 -24 -26.333 -44.333 -33 -61c-11.333 2 -20.333 3.33301 -27 4s-18.334 1 -35.001 1c-13.333 0 -30.666 -0.833008 -51.999 -2.5s-36 -2.5 -44 -2.5v30c29.333 2.66699 49 10 59 22c8 9.33301 12 26 12 50v477c0 41.333 -3.66699 66 -11 74
c-10 10.667 -38 16 -84 16v30c19.333 0 45.666 -0.833008 78.999 -2.5s54 -2.5 62 -2.5c22 0 40 0.333008 54 1c54.667 2.66699 84.667 4 90 4v-30c-46 0 -73.333 -4.66699 -82 -14s-13 -34.666 -13 -75.999v-468l336 458c21.333 29.333 37.333 52.333 48 69
c15.333 24 26.333 44.333 33 61c8 -2 19.667 -3.33301 35 -4s24.333 -1 27 -1c12.667 0 33.667 0.833008 63 2.5s48.333 2.5 57 2.5v-30c-45.333 0 -72.5 -4.83301 -81.5 -14.5s-13.5 -34.834 -13.5 -75.501v-459c0 -41.333 3.66699 -66 11 -74c10 -10.667 38 -16 84 -16
v-30z" />
    <glyph glyph-name="Eacute" unicode="&#xc9;" horiz-adv-x="833" 
d="M558 907c0 -45.333 -12.001 -82.333 -36.001 -111c-26 -31.333 -61.667 -47 -107 -47c-43.333 0 -77.333 15.167 -102 45.5s-37 67.833 -37 112.5h30c0 -4 1.33301 -9.83301 4 -17.5s4 -12.167 4 -13.5c8 -22.667 21.333 -39.5 40 -50.5s40.667 -16.5 66 -16.5
c28.667 0 52.334 9.16699 71.001 27.5s31 41.833 37 70.5h30zM805.999 -5c-22 0 -39.999 0.333984 -53.999 1.00098c-54.667 2.66699 -84.667 4 -90 4c-22.667 0 -51 -0.833008 -85 -2.5s-52.667 -2.5 -56 -2.5v30c46 0 73.333 4.66699 82 14s13 34.666 13 75.999v468
l-336 -458c-21.333 -29.333 -37.333 -52.333 -48 -69c-15.333 -24 -26.333 -44.333 -33 -61c-11.333 2 -20.333 3.33301 -27 4s-18.334 1 -35.001 1c-13.333 0 -30.666 -0.833008 -51.999 -2.5s-36 -2.5 -44 -2.5v30c29.333 2.66699 49 10 59 22c8 9.33301 12 26 12 50v477
c0 41.333 -3.66699 66 -11 74c-10 10.667 -38 16 -84 16v30c19.333 0 45.666 -0.833008 78.999 -2.5s54 -2.5 62 -2.5c22 0 40 0.333008 54 1c54.667 2.66699 84.667 4 90 4v-30c-46 0 -73.333 -4.66699 -82 -14s-13 -34.666 -13 -75.999v-468l336 458
c21.333 29.333 37.333 52.333 48 69c15.333 24 26.333 44.333 33 61c8 -2 19.667 -3.33301 35 -4s24.333 -1 27 -1c12.667 0 33.667 0.833008 63 2.5s48.333 2.5 57 2.5v-30c-45.333 0 -72.5 -4.83301 -81.5 -14.5s-13.5 -34.834 -13.5 -75.501v-459
c0 -41.333 3.66699 -66 11 -74c10 -10.667 38 -16 84 -16v-30z" />
    <glyph glyph-name="Eacute" unicode="&#x419;" horiz-adv-x="833" 
d="M558 907c0 -45.333 -12.001 -82.333 -36.001 -111c-26 -31.333 -61.667 -47 -107 -47c-43.333 0 -77.333 15.167 -102 45.5s-37 67.833 -37 112.5h30c0 -4 1.33301 -9.83301 4 -17.5s4 -12.167 4 -13.5c8 -22.667 21.333 -39.5 40 -50.5s40.667 -16.5 66 -16.5
c28.667 0 52.334 9.16699 71.001 27.5s31 41.833 37 70.5h30zM805.999 -5c-22 0 -39.999 0.333984 -53.999 1.00098c-54.667 2.66699 -84.667 4 -90 4c-22.667 0 -51 -0.833008 -85 -2.5s-52.667 -2.5 -56 -2.5v30c46 0 73.333 4.66699 82 14s13 34.666 13 75.999v468
l-336 -458c-21.333 -29.333 -37.333 -52.333 -48 -69c-15.333 -24 -26.333 -44.333 -33 -61c-11.333 2 -20.333 3.33301 -27 4s-18.334 1 -35.001 1c-13.333 0 -30.666 -0.833008 -51.999 -2.5s-36 -2.5 -44 -2.5v30c29.333 2.66699 49 10 59 22c8 9.33301 12 26 12 50v477
c0 41.333 -3.66699 66 -11 74c-10 10.667 -38 16 -84 16v30c19.333 0 45.666 -0.833008 78.999 -2.5s54 -2.5 62 -2.5c22 0 40 0.333008 54 1c54.667 2.66699 84.667 4 90 4v-30c-46 0 -73.333 -4.66699 -82 -14s-13 -34.666 -13 -75.999v-468l336 458
c21.333 29.333 37.333 52.333 48 69c15.333 24 26.333 44.333 33 61c8 -2 19.667 -3.33301 35 -4s24.333 -1 27 -1c12.667 0 33.667 0.833008 63 2.5s48.333 2.5 57 2.5v-30c-45.333 0 -72.5 -4.83301 -81.5 -14.5s-13.5 -34.834 -13.5 -75.501v-459
c0 -41.333 3.66699 -66 11 -74c10 -10.667 38 -16 84 -16v-30z" />
    <glyph glyph-name="Ecircumflex" unicode="&#xca;" horiz-adv-x="726" 
d="M723 -5c-25.333 3.33301 -48.665 5 -69.998 5c-14.667 0 -25.834 -0.333008 -33.501 -1s-20.167 -2 -37.5 -4c-4 6.66699 -11.667 15 -23 25l-16 14l-317 298l-10 -7v-210c0 -41.333 3.66699 -66 11 -74c10 -10.667 38 -16 84 -16v-30c-22 0 -40 0.333008 -54 1
c-54.667 2.66699 -84.667 4 -90 4c-22.667 0 -51 -0.833008 -85 -2.5s-52.667 -2.5 -56 -2.5v30c46 0 73.333 4.66699 82 14s13 34.666 13 75.999v459c0 41.333 -3.66699 66 -11 74c-10 10.667 -38 16 -84 16v30c19.333 0 45.666 -0.833008 78.999 -2.5s54 -2.5 62 -2.5
c22 0 40 0.333008 54 1c54.667 2.66699 84.667 4 90 4v-30c-46 0 -73.333 -4.66699 -82 -14s-13 -34.666 -13 -75.999v-219c24 16.667 47.667 36.667 71 60l223 221c5.33301 5.33301 9.5 12.333 12.5 21s4.5 21 4.5 37c18.667 -2 32.667 -3.33301 42 -4s23.666 -1 42.999 -1
c10 0 19.5 0.166992 28.5 0.5s27.5 1.83301 55.5 4.5v-30c-29.333 0 -50.166 -2.33301 -62.499 -7s-30.833 -16.667 -55.5 -36l-267 -241l328 -309l28 -26c16 -13.333 34.667 -20 56 -20v-30z" />
    <glyph glyph-name="Ecircumflex" unicode="&#x41a;" horiz-adv-x="726" 
d="M723 -5c-25.333 3.33301 -48.665 5 -69.998 5c-14.667 0 -25.834 -0.333008 -33.501 -1s-20.167 -2 -37.5 -4c-4 6.66699 -11.667 15 -23 25l-16 14l-317 298l-10 -7v-210c0 -41.333 3.66699 -66 11 -74c10 -10.667 38 -16 84 -16v-30c-22 0 -40 0.333008 -54 1
c-54.667 2.66699 -84.667 4 -90 4c-22.667 0 -51 -0.833008 -85 -2.5s-52.667 -2.5 -56 -2.5v30c46 0 73.333 4.66699 82 14s13 34.666 13 75.999v459c0 41.333 -3.66699 66 -11 74c-10 10.667 -38 16 -84 16v30c19.333 0 45.666 -0.833008 78.999 -2.5s54 -2.5 62 -2.5
c22 0 40 0.333008 54 1c54.667 2.66699 84.667 4 90 4v-30c-46 0 -73.333 -4.66699 -82 -14s-13 -34.666 -13 -75.999v-219c24 16.667 47.667 36.667 71 60l223 221c5.33301 5.33301 9.5 12.333 12.5 21s4.5 21 4.5 37c18.667 -2 32.667 -3.33301 42 -4s23.666 -1 42.999 -1
c10 0 19.5 0.166992 28.5 0.5s27.5 1.83301 55.5 4.5v-30c-29.333 0 -50.166 -2.33301 -62.499 -7s-30.833 -16.667 -55.5 -36l-267 -241l328 -309l28 -26c16 -13.333 34.667 -20 56 -20v-30z" />
    <glyph glyph-name="Edieresis" unicode="&#xcb;" horiz-adv-x="758" 
d="M739 -5c-18.667 0 -44.3311 0.833008 -76.998 2.5s-52 2.5 -58 2.5c-20 0 -45.667 -0.833008 -77 -2.5s-49 -2.5 -53 -2.5v30c21.333 0 36.333 1 45 3s17.5 5.33301 26.5 10s13.5 12 13.5 22c0 5.33301 -1.66699 12 -5 20l-194 476l-121 -314
c-24.667 -64 -42.834 -107.333 -54.501 -130s-25.5 -44 -41.5 -64c-23.333 -28.667 -49.666 -48 -78.999 -58c-20 -6.66699 -45.667 -10 -77 -10v78l11 6c9.33301 -6.66699 17.666 -11.5 24.999 -14.5s15.333 -4.5 24 -4.5c24 0 50 22.333 78 67c24 38 49 89.667 75 155
l96 246c11.333 27.333 18.333 45.333 21 54c6.66699 18.667 10 30.667 10 36c0 8.66699 -6.33301 18.334 -19 29.001c-15.333 12.667 -33.333 19 -54 19c-6 0 -10.333 -0.333008 -13 -1v29l103 21c2.66699 0.666992 6 1 10 1c10 0 19.333 -3.33301 28 -10
c5.33301 -4 12.666 -12 21.999 -24c6 -8 12 -18.167 18 -30.5s11.667 -25.833 17 -40.5l193 -465c8 -18.667 16.5 -36.334 25.5 -53.001s17.167 -28.667 24.5 -36c4.66699 -4.66699 12.667 -8.66699 24 -12s22.333 -5 33 -5v-30z" />
    <glyph glyph-name="Edieresis" unicode="&#x41b;" horiz-adv-x="758" 
d="M739 -5c-18.667 0 -44.3311 0.833008 -76.998 2.5s-52 2.5 -58 2.5c-20 0 -45.667 -0.833008 -77 -2.5s-49 -2.5 -53 -2.5v30c21.333 0 36.333 1 45 3s17.5 5.33301 26.5 10s13.5 12 13.5 22c0 5.33301 -1.66699 12 -5 20l-194 476l-121 -314
c-24.667 -64 -42.834 -107.333 -54.501 -130s-25.5 -44 -41.5 -64c-23.333 -28.667 -49.666 -48 -78.999 -58c-20 -6.66699 -45.667 -10 -77 -10v78l11 6c9.33301 -6.66699 17.666 -11.5 24.999 -14.5s15.333 -4.5 24 -4.5c24 0 50 22.333 78 67c24 38 49 89.667 75 155
l96 246c11.333 27.333 18.333 45.333 21 54c6.66699 18.667 10 30.667 10 36c0 8.66699 -6.33301 18.334 -19 29.001c-15.333 12.667 -33.333 19 -54 19c-6 0 -10.333 -0.333008 -13 -1v29l103 21c2.66699 0.666992 6 1 10 1c10 0 19.333 -3.33301 28 -10
c5.33301 -4 12.666 -12 21.999 -24c6 -8 12 -18.167 18 -30.5s11.667 -25.833 17 -40.5l193 -465c8 -18.667 16.5 -36.334 25.5 -53.001s17.167 -28.667 24.5 -36c4.66699 -4.66699 12.667 -8.66699 24 -12s22.333 -5 33 -5v-30z" />
    <glyph glyph-name="Igrave" unicode="&#xcc;" horiz-adv-x="946" 
d="M922 -5c-22 0 -39.9971 0.334961 -53.9971 1.00195c-54.667 2.66699 -84.667 4 -90 4c-22.667 0 -51 -0.833008 -85 -2.5s-52.667 -2.5 -56 -2.5v30c46 0 73.333 4.66699 82 14s13 34.666 13 75.999v459l-276 -587h-20l-279 587v-481c0 -28 5.5 -46.167 16.5 -54.5
s32.833 -12.5 65.5 -12.5l16 -1v-30c-16.667 0 -39.167 0.833008 -67.5 2.5s-45.5 2.5 -51.5 2.5c-18.667 0 -42.334 -0.833008 -71.001 -2.5s-45 -2.5 -49 -2.5v30l16 1c32 0 53.167 4 63.5 12s15.5 26.333 15.5 55v503c0 28 -5.16699 46.167 -15.5 54.5
s-31.5 12.5 -63.5 12.5l-16 1v30c29.333 -2.66699 49.333 -4.16699 60 -4.5s22.334 -0.5 35.001 -0.5c19.333 0 34.166 0.333008 44.499 1s27.166 2 50.499 4l264 -557l206 424c10.667 22.667 20.834 45.667 30.501 69s17.5 44.666 23.5 63.999
c29.333 -2.66699 49.333 -4.16699 60 -4.5s22.334 -0.5 35.001 -0.5c19.333 0 34.166 0.333008 44.499 1s27.166 2 50.499 4v-30h-15c-30.667 0 -51.334 -4.33301 -62.001 -13s-16 -27 -16 -55v-481c0 -41.333 3.66699 -66 11 -74c10 -10.667 38 -16 84 -16v-30z" />
    <glyph glyph-name="Igrave" unicode="&#x41c;" horiz-adv-x="946" 
d="M922 -5c-22 0 -39.9971 0.334961 -53.9971 1.00195c-54.667 2.66699 -84.667 4 -90 4c-22.667 0 -51 -0.833008 -85 -2.5s-52.667 -2.5 -56 -2.5v30c46 0 73.333 4.66699 82 14s13 34.666 13 75.999v459l-276 -587h-20l-279 587v-481c0 -28 5.5 -46.167 16.5 -54.5
s32.833 -12.5 65.5 -12.5l16 -1v-30c-16.667 0 -39.167 0.833008 -67.5 2.5s-45.5 2.5 -51.5 2.5c-18.667 0 -42.334 -0.833008 -71.001 -2.5s-45 -2.5 -49 -2.5v30l16 1c32 0 53.167 4 63.5 12s15.5 26.333 15.5 55v503c0 28 -5.16699 46.167 -15.5 54.5
s-31.5 12.5 -63.5 12.5l-16 1v30c29.333 -2.66699 49.333 -4.16699 60 -4.5s22.334 -0.5 35.001 -0.5c19.333 0 34.166 0.333008 44.499 1s27.166 2 50.499 4l264 -557l206 424c10.667 22.667 20.834 45.667 30.501 69s17.5 44.666 23.5 63.999
c29.333 -2.66699 49.333 -4.16699 60 -4.5s22.334 -0.5 35.001 -0.5c19.333 0 34.166 0.333008 44.499 1s27.166 2 50.499 4v-30h-15c-30.667 0 -51.334 -4.33301 -62.001 -13s-16 -27 -16 -55v-481c0 -41.333 3.66699 -66 11 -74c10 -10.667 38 -16 84 -16v-30z" />
    <glyph glyph-name="Iacute" unicode="&#xcd;" horiz-adv-x="832" 
d="M806 -5c-22 0 -39.998 0.333008 -53.998 1c-54.667 2.66699 -84.667 4 -90 4c-22.667 0 -51 -0.833008 -85 -2.5s-52.667 -2.5 -56 -2.5v30c46 0 73.333 4.66699 82 14s13 34.666 13 75.999v232h-400v-232c0 -41.333 3.66699 -66 11 -74c10 -10.667 38 -16 84 -16v-30
c-22 0 -40 0.333008 -54 1c-54.667 2.66699 -84.667 4 -90 4c-22.667 0 -51 -0.833008 -85 -2.5s-52.667 -2.5 -56 -2.5v30c46 0 73.333 4.66699 82 14s13 34.666 13 75.999v459c0 41.333 -3.66699 66 -11 74c-10 10.667 -38 16 -84 16v30
c19.333 0 45.666 -0.833008 78.999 -2.5s54 -2.5 62 -2.5c22 0 40 0.333008 54 1c54.667 2.66699 84.667 4 90 4v-30c-46 0 -73.333 -4.66699 -82 -14s-13 -34.666 -13 -75.999v-185h400v185c0 41.333 -3.66699 66 -11 74c-10 10.667 -38 16 -84 16v30
c19.333 0 45.666 -0.833008 78.999 -2.5s54 -2.5 62 -2.5c22 0 40 0.333008 54 1c54.667 2.66699 84.667 4 90 4v-30c-46 0 -73.333 -4.66699 -82 -14s-13 -34.666 -13 -75.999v-459c0 -41.333 3.66699 -66 11 -74c10 -10.667 38 -16 84 -16v-30z" />
    <glyph glyph-name="Iacute" unicode="&#x41d;" horiz-adv-x="832" 
d="M806 -5c-22 0 -39.998 0.333008 -53.998 1c-54.667 2.66699 -84.667 4 -90 4c-22.667 0 -51 -0.833008 -85 -2.5s-52.667 -2.5 -56 -2.5v30c46 0 73.333 4.66699 82 14s13 34.666 13 75.999v232h-400v-232c0 -41.333 3.66699 -66 11 -74c10 -10.667 38 -16 84 -16v-30
c-22 0 -40 0.333008 -54 1c-54.667 2.66699 -84.667 4 -90 4c-22.667 0 -51 -0.833008 -85 -2.5s-52.667 -2.5 -56 -2.5v30c46 0 73.333 4.66699 82 14s13 34.666 13 75.999v459c0 41.333 -3.66699 66 -11 74c-10 10.667 -38 16 -84 16v30
c19.333 0 45.666 -0.833008 78.999 -2.5s54 -2.5 62 -2.5c22 0 40 0.333008 54 1c54.667 2.66699 84.667 4 90 4v-30c-46 0 -73.333 -4.66699 -82 -14s-13 -34.666 -13 -75.999v-185h400v185c0 41.333 -3.66699 66 -11 74c-10 10.667 -38 16 -84 16v30
c19.333 0 45.666 -0.833008 78.999 -2.5s54 -2.5 62 -2.5c22 0 40 0.333008 54 1c54.667 2.66699 84.667 4 90 4v-30c-46 0 -73.333 -4.66699 -82 -14s-13 -34.666 -13 -75.999v-459c0 -41.333 3.66699 -66 11 -74c10 -10.667 38 -16 84 -16v-30z" />
    <glyph glyph-name="Icircumflex" unicode="&#xce;" horiz-adv-x="786" 
d="M764 367c0 -108 -37.168 -199.5 -111.501 -274.5s-166.166 -112.5 -275.499 -112.5c-104 0 -188.667 32.667 -254 98c-67.333 67.333 -101 157.333 -101 270c0 104 34.167 190.167 102.5 258.5s159.5 102.5 273.5 102.5c110 0 197.667 -29 263 -87
c68.667 -61.333 103 -146.333 103 -255zM656.999 336c0 102.667 -22.333 182.335 -67 239.002c-48 60.667 -117.333 91 -208 91c-84 0 -148 -27 -192 -81c-40.667 -49.333 -61 -117.333 -61 -204c0 -98.667 21.667 -180.334 65 -245.001c50 -75.333 121.667 -113 215 -113
c80.667 0 142.667 29 186 87c41.333 55.333 62 130.666 62 225.999z" />
    <glyph glyph-name="Icircumflex" unicode="&#x41e;" horiz-adv-x="786" 
d="M764 367c0 -108 -37.168 -199.5 -111.501 -274.5s-166.166 -112.5 -275.499 -112.5c-104 0 -188.667 32.667 -254 98c-67.333 67.333 -101 157.333 -101 270c0 104 34.167 190.167 102.5 258.5s159.5 102.5 273.5 102.5c110 0 197.667 -29 263 -87
c68.667 -61.333 103 -146.333 103 -255zM656.999 336c0 102.667 -22.333 182.335 -67 239.002c-48 60.667 -117.333 91 -208 91c-84 0 -148 -27 -192 -81c-40.667 -49.333 -61 -117.333 -61 -204c0 -98.667 21.667 -180.334 65 -245.001c50 -75.333 121.667 -113 215 -113
c80.667 0 142.667 29 186 87c41.333 55.333 62 130.666 62 225.999z" />
    <glyph glyph-name="Idieresis" unicode="&#xcf;" horiz-adv-x="832" 
d="M806 -5c-19.333 0 -45.6689 0.835938 -79.002 2.50293s-54 2.5 -62 2.5c-22 0 -50.167 -0.833008 -84.5 -2.5s-54.166 -2.5 -59.499 -2.5v30c46 0 73.333 4.66699 82 14s13 34.666 13 75.999v446v12c0 28 -1.66699 51.333 -5 70c-12 2 -30 3.33301 -54 4s-47.333 1 -70 1
h-142c-22 0 -43.5 -0.166992 -64.5 -0.5s-40.833 -1.83301 -59.5 -4.5c-2 -10.667 -3.33301 -22.334 -4 -35.001s-1 -28.334 -1 -47.001v-446c0 -41.333 3.66699 -66 11 -74c10 -10.667 38 -16 84 -16v-30c-22 0 -40 0.333008 -54 1c-54.667 2.66699 -84.667 4 -90 4
c-22.667 0 -51 -0.833008 -85 -2.5s-52.667 -2.5 -56 -2.5v30c46 0 73.333 4.66699 82 14s13 34.666 13 75.999v459c0 41.333 -3.66699 66 -11 74c-10 10.667 -38 16 -84 16v30c54 0 127.333 -0.833008 220 -2.5s149.334 -2.5 170.001 -2.5c62 0 111.667 0.333008 149 1
c150 2.66699 230.333 4 241 4v-30c-46 0 -73.333 -4.66699 -82 -14s-13 -34.666 -13 -75.999v-459c0 -41.333 3.66699 -66 11 -74c10 -10.667 38 -16 84 -16v-30z" />
    <glyph glyph-name="Idieresis" unicode="&#x41f;" horiz-adv-x="832" 
d="M806 -5c-19.333 0 -45.6689 0.835938 -79.002 2.50293s-54 2.5 -62 2.5c-22 0 -50.167 -0.833008 -84.5 -2.5s-54.166 -2.5 -59.499 -2.5v30c46 0 73.333 4.66699 82 14s13 34.666 13 75.999v446v12c0 28 -1.66699 51.333 -5 70c-12 2 -30 3.33301 -54 4s-47.333 1 -70 1
h-142c-22 0 -43.5 -0.166992 -64.5 -0.5s-40.833 -1.83301 -59.5 -4.5c-2 -10.667 -3.33301 -22.334 -4 -35.001s-1 -28.334 -1 -47.001v-446c0 -41.333 3.66699 -66 11 -74c10 -10.667 38 -16 84 -16v-30c-22 0 -40 0.333008 -54 1c-54.667 2.66699 -84.667 4 -90 4
c-22.667 0 -51 -0.833008 -85 -2.5s-52.667 -2.5 -56 -2.5v30c46 0 73.333 4.66699 82 14s13 34.666 13 75.999v459c0 41.333 -3.66699 66 -11 74c-10 10.667 -38 16 -84 16v30c54 0 127.333 -0.833008 220 -2.5s149.334 -2.5 170.001 -2.5c62 0 111.667 0.333008 149 1
c150 2.66699 230.333 4 241 4v-30c-46 0 -73.333 -4.66699 -82 -14s-13 -34.666 -13 -75.999v-459c0 -41.333 3.66699 -66 11 -74c10 -10.667 38 -16 84 -16v-30z" />
    <glyph glyph-name="Eth" unicode="&#xd0;" horiz-adv-x="604" 
d="M584 539c0 -61.333 -22.6641 -111.998 -67.9971 -151.998s-100.333 -60 -165 -60c-29.333 0 -51 2 -65 6l-11 37c8.66699 -2.66699 18.5 -4.83398 29.5 -6.50098s22.5 -2.5 34.5 -2.5c41.333 0 75.833 13.5 103.5 40.5s41.5 61.5 41.5 103.5
c0 50.667 -14.333 88.667 -43 114s-68.667 38 -120 38c-16.667 0 -33.334 -1.33301 -50.001 -4c-22 -4.66699 -38.333 -8 -49 -10c-2.66699 -7.33301 -4.33398 -15.333 -5.00098 -24s-1 -20 -1 -34v-11v-459c0 -41.333 3.66699 -66 11 -74c10 -10.667 38 -16 84 -16v-30
c-22 0 -40 0.333008 -54 1c-54.667 2.66699 -84.667 4 -90 4c-22.667 0 -51 -0.833008 -85 -2.5s-52.667 -2.5 -56 -2.5v30c46 0 73.333 4.66699 82 14s13 34.666 13 75.999v459c0 41.333 -3.66699 66 -11 74c-10 10.667 -38 16 -84 16v30
c26.667 0 60.667 -0.833008 102 -2.5s66 -2.5 74 -2.5c27.333 0 49.333 0.333008 66 1c67.333 2.66699 103.666 4 108.999 4c55.333 0 102 -11.667 140 -35c44.667 -27.333 67 -67.333 67 -120z" />
    <glyph glyph-name="Eth" unicode="&#x420;" horiz-adv-x="604" 
d="M584 539c0 -61.333 -22.6641 -111.998 -67.9971 -151.998s-100.333 -60 -165 -60c-29.333 0 -51 2 -65 6l-11 37c8.66699 -2.66699 18.5 -4.83398 29.5 -6.50098s22.5 -2.5 34.5 -2.5c41.333 0 75.833 13.5 103.5 40.5s41.5 61.5 41.5 103.5
c0 50.667 -14.333 88.667 -43 114s-68.667 38 -120 38c-16.667 0 -33.334 -1.33301 -50.001 -4c-22 -4.66699 -38.333 -8 -49 -10c-2.66699 -7.33301 -4.33398 -15.333 -5.00098 -24s-1 -20 -1 -34v-11v-459c0 -41.333 3.66699 -66 11 -74c10 -10.667 38 -16 84 -16v-30
c-22 0 -40 0.333008 -54 1c-54.667 2.66699 -84.667 4 -90 4c-22.667 0 -51 -0.833008 -85 -2.5s-52.667 -2.5 -56 -2.5v30c46 0 73.333 4.66699 82 14s13 34.666 13 75.999v459c0 41.333 -3.66699 66 -11 74c-10 10.667 -38 16 -84 16v30
c26.667 0 60.667 -0.833008 102 -2.5s66 -2.5 74 -2.5c27.333 0 49.333 0.333008 66 1c67.333 2.66699 103.666 4 108.999 4c55.333 0 102 -11.667 140 -35c44.667 -27.333 67 -67.333 67 -120z" />
    <glyph glyph-name="Ntilde" unicode="&#xd1;" horiz-adv-x="709" 
d="M673 84l-19.999 -44.999c-30 -17.333 -66.833 -31.5 -110.5 -42.5s-82.167 -16.5 -115.5 -16.5c-116 0 -211 31.333 -285 94c-80 67.333 -120 158.333 -120 273c0 111.333 39.333 200.666 118 267.999c72.667 62.667 161.667 94 267 94c34.667 0 69.5 -2.66699 104.5 -8
s86.833 -17.666 155.5 -36.999c-3.33301 -16.667 -7.33301 -41.667 -12 -75s-8 -58.333 -10 -75h-29v24.5c0 7.66699 0.333008 15.167 1 22.5c0 17.333 -2.66699 30.666 -8 39.999s-18.333 19 -39 29c-24 12 -46.667 20.667 -68 26c-28 7.33301 -59 11 -93 11
c-82.667 0 -149.834 -27.167 -201.501 -81.5s-77.5 -126.5 -77.5 -216.5c0 -100.667 30.167 -182.167 90.5 -244.5s140.5 -93.5 240.5 -93.5c72 0 139.667 21 203 63z" />
    <glyph glyph-name="Ntilde" unicode="&#x421;" horiz-adv-x="709" 
d="M673 84l-19.999 -44.999c-30 -17.333 -66.833 -31.5 -110.5 -42.5s-82.167 -16.5 -115.5 -16.5c-116 0 -211 31.333 -285 94c-80 67.333 -120 158.333 -120 273c0 111.333 39.333 200.666 118 267.999c72.667 62.667 161.667 94 267 94c34.667 0 69.5 -2.66699 104.5 -8
s86.833 -17.666 155.5 -36.999c-3.33301 -16.667 -7.33301 -41.667 -12 -75s-8 -58.333 -10 -75h-29v24.5c0 7.66699 0.333008 15.167 1 22.5c0 17.333 -2.66699 30.666 -8 39.999s-18.333 19 -39 29c-24 12 -46.667 20.667 -68 26c-28 7.33301 -59 11 -93 11
c-82.667 0 -149.834 -27.167 -201.501 -81.5s-77.5 -126.5 -77.5 -216.5c0 -100.667 30.167 -182.167 90.5 -244.5s140.5 -93.5 240.5 -93.5c72 0 139.667 21 203 63z" />
    <glyph glyph-name="Ograve" unicode="&#xd2;" horiz-adv-x="613" 
d="M595 694c0 -15.333 -0.833008 -35.832 -2.5 -61.499s-2.5 -40.834 -2.5 -45.501l-1 -56h-30c0 10.667 -1.5 24.167 -4.5 40.5s-5.16699 28.5 -6.5 36.5c0 12.667 -2.66699 20.834 -8 24.501s-14.333 5.5 -27 5.5l-156 5c-2.66699 -26.667 -4 -60 -4 -100v-428
c0 -41.333 3.66699 -66 11 -74c10 -10.667 38 -16 84 -16v-30c-22 0 -40 0.333008 -54 1c-54.667 2.66699 -84.667 4 -90 4c-22.667 0 -51 -0.833008 -85 -2.5s-52.667 -2.5 -56 -2.5v30c46 0 73.333 4.66699 82 14s13 34.666 13 75.999v428v14v12v47
c-2 12.667 -3.33301 21.667 -4 27l-154 -5c-12 0 -20.833 -2 -26.5 -6s-8.5 -12 -8.5 -24c-3.33301 -16.667 -6 -31 -8 -43s-3 -23.333 -3 -34h-30l-1 56c0 14.667 -0.833008 34.5 -2.5 59.5s-2.5 40.833 -2.5 47.5c43.333 0 99 -0.833008 167 -2.5s108.333 -2.5 121 -2.5
c44.667 0 80.667 0.333008 108 1c110 2.66699 170.333 4 181 4z" />
    <glyph glyph-name="Ograve" unicode="&#x422;" horiz-adv-x="613" 
d="M595 694c0 -15.333 -0.833008 -35.832 -2.5 -61.499s-2.5 -40.834 -2.5 -45.501l-1 -56h-30c0 10.667 -1.5 24.167 -4.5 40.5s-5.16699 28.5 -6.5 36.5c0 12.667 -2.66699 20.834 -8 24.501s-14.333 5.5 -27 5.5l-156 5c-2.66699 -26.667 -4 -60 -4 -100v-428
c0 -41.333 3.66699 -66 11 -74c10 -10.667 38 -16 84 -16v-30c-22 0 -40 0.333008 -54 1c-54.667 2.66699 -84.667 4 -90 4c-22.667 0 -51 -0.833008 -85 -2.5s-52.667 -2.5 -56 -2.5v30c46 0 73.333 4.66699 82 14s13 34.666 13 75.999v428v14v12v47
c-2 12.667 -3.33301 21.667 -4 27l-154 -5c-12 0 -20.833 -2 -26.5 -6s-8.5 -12 -8.5 -24c-3.33301 -16.667 -6 -31 -8 -43s-3 -23.333 -3 -34h-30l-1 56c0 14.667 -0.833008 34.5 -2.5 59.5s-2.5 40.833 -2.5 47.5c43.333 0 99 -0.833008 167 -2.5s108.333 -2.5 121 -2.5
c44.667 0 80.667 0.333008 108 1c110 2.66699 170.333 4 181 4z" />
    <glyph glyph-name="Oacute" unicode="&#xd3;" horiz-adv-x="667" 
d="M659 679c-12 -15.333 -25.335 -36.9971 -40.002 -64.9971c-12 -22.667 -30.333 -60.334 -55 -113.001l-82 -177c-51.333 -109.333 -84 -177.333 -98 -204c-28 -53.333 -53.5 -89.833 -76.5 -109.5s-53.167 -29.5 -90.5 -29.5c-7.33301 0 -16 1.66699 -26 5
s-18 6.66602 -24 9.99902l24 75h13c5.33301 -6 13.333 -11.667 24 -17s19.667 -8 27 -8c16.667 0 32.334 8 47.001 24s32 42.667 52 80c4 9.33301 6 16.333 6 21c0 4 -0.666992 7 -2 9l-184 323c-23.333 41.333 -46.333 74 -69 98c-34 36 -66 52.333 -96 49v29l106 21
c2.66699 0.666992 6 1 10 1c10 0 18.833 -3 26.5 -9s15.834 -14.333 24.501 -25c16 -20 30.667 -41.667 44 -65l187 -342c11.333 25.333 27.333 63.666 48 114.999l56 144l65 175h83v-15z" />
    <glyph glyph-name="Oacute" unicode="&#x423;" horiz-adv-x="667" 
d="M659 679c-12 -15.333 -25.335 -36.9971 -40.002 -64.9971c-12 -22.667 -30.333 -60.334 -55 -113.001l-82 -177c-51.333 -109.333 -84 -177.333 -98 -204c-28 -53.333 -53.5 -89.833 -76.5 -109.5s-53.167 -29.5 -90.5 -29.5c-7.33301 0 -16 1.66699 -26 5
s-18 6.66602 -24 9.99902l24 75h13c5.33301 -6 13.333 -11.667 24 -17s19.667 -8 27 -8c16.667 0 32.334 8 47.001 24s32 42.667 52 80c4 9.33301 6 16.333 6 21c0 4 -0.666992 7 -2 9l-184 323c-23.333 41.333 -46.333 74 -69 98c-34 36 -66 52.333 -96 49v29l106 21
c2.66699 0.666992 6 1 10 1c10 0 18.833 -3 26.5 -9s15.834 -14.333 24.501 -25c16 -20 30.667 -41.667 44 -65l187 -342c11.333 25.333 27.333 63.666 48 114.999l56 144l65 175h83v-15z" />
    <glyph glyph-name="Ocircumflex" unicode="&#xd4;" horiz-adv-x="814" 
d="M792 380c0 -77.333 -27.9971 -138.668 -83.9971 -184.001c-48 -38.667 -110 -61.667 -186 -69c-11.333 -0.666992 -23.5 -1.16699 -36.5 -1.5s-23.167 -0.5 -30.5 -0.5c0 -45.333 3.33301 -73.333 10 -84s25 -16 55 -16h32v-30c-16 0 -43.833 0.666992 -83.5 2
s-60.167 2 -61.5 2c-16 0 -43.833 -0.666992 -83.5 -2s-60.167 -2 -61.5 -2v30h32c29.333 0 47.5 5.5 54.5 16.5s10.5 38.833 10.5 83.5c-7.33301 0 -19.833 0.333008 -37.5 1s-31.5 1 -41.5 1c-70 0 -129.333 19.333 -178 58c-53.333 42.667 -80 99.667 -80 171
c0 76 28 131.667 84 167c41.333 26 103.333 43 186 51c11.333 0.666992 21.166 1.16699 29.499 1.5s15.166 0.5 20.499 0.5h17c0 36 -3.83301 59.5 -11.5 70.5s-25.5 16.5 -53.5 16.5h-32v31c22 0 50.667 -0.833008 86 -2.5s55 -2.5 59 -2.5c22 0 40 0.333008 54 1
c56.667 2.66699 87 4 91 4v-31h-32c-28 0 -45.833 -5.16699 -53.5 -15.5s-11.5 -34.166 -11.5 -71.499c7.33301 0 19.833 -0.333008 37.5 -1s31.5 -1 41.5 -1c75.333 0 134.666 -13.333 177.999 -40c53.333 -32.667 80 -84 80 -154zM692.003 356.998
c0 58 -19 103.333 -57 136c-34.667 29.333 -79 44 -133 44l-47 -3v-368l61 -3c48.667 0 90.167 17.833 124.5 53.5s51.5 82.5 51.5 140.5zM359.003 166.998v367c-18.667 2.66699 -39 4 -61 4c-52.667 0 -93.667 -11.333 -123 -34c-35.333 -27.333 -53 -69 -53 -125
c0 -61.333 18.833 -112.5 56.5 -153.5s82.5 -61.5 134.5 -61.5z" />
    <glyph glyph-name="Ocircumflex" unicode="&#x424;" horiz-adv-x="814" 
d="M792 380c0 -77.333 -27.9971 -138.668 -83.9971 -184.001c-48 -38.667 -110 -61.667 -186 -69c-11.333 -0.666992 -23.5 -1.16699 -36.5 -1.5s-23.167 -0.5 -30.5 -0.5c0 -45.333 3.33301 -73.333 10 -84s25 -16 55 -16h32v-30c-16 0 -43.833 0.666992 -83.5 2
s-60.167 2 -61.5 2c-16 0 -43.833 -0.666992 -83.5 -2s-60.167 -2 -61.5 -2v30h32c29.333 0 47.5 5.5 54.5 16.5s10.5 38.833 10.5 83.5c-7.33301 0 -19.833 0.333008 -37.5 1s-31.5 1 -41.5 1c-70 0 -129.333 19.333 -178 58c-53.333 42.667 -80 99.667 -80 171
c0 76 28 131.667 84 167c41.333 26 103.333 43 186 51c11.333 0.666992 21.166 1.16699 29.499 1.5s15.166 0.5 20.499 0.5h17c0 36 -3.83301 59.5 -11.5 70.5s-25.5 16.5 -53.5 16.5h-32v31c22 0 50.667 -0.833008 86 -2.5s55 -2.5 59 -2.5c22 0 40 0.333008 54 1
c56.667 2.66699 87 4 91 4v-31h-32c-28 0 -45.833 -5.16699 -53.5 -15.5s-11.5 -34.166 -11.5 -71.499c7.33301 0 19.833 -0.333008 37.5 -1s31.5 -1 41.5 -1c75.333 0 134.666 -13.333 177.999 -40c53.333 -32.667 80 -84 80 -154zM692.003 356.998
c0 58 -19 103.333 -57 136c-34.667 29.333 -79 44 -133 44l-47 -3v-368l61 -3c48.667 0 90.167 17.833 124.5 53.5s51.5 82.5 51.5 140.5zM359.003 166.998v367c-18.667 2.66699 -39 4 -61 4c-52.667 0 -93.667 -11.333 -123 -34c-35.333 -27.333 -53 -69 -53 -125
c0 -61.333 18.833 -112.5 56.5 -153.5s82.5 -61.5 134.5 -61.5z" />
    <glyph glyph-name="Otilde" unicode="&#xd5;" horiz-adv-x="667" 
d="M648 -5c-26.667 3.33301 -50.666 4.99805 -71.999 4.99805c-22 0 -46.333 -1.66699 -73 -5l-16 26l-168 282l-45 -64l-75 -112l-82 -132c-12 2 -20.667 3.33301 -26 4s-13.666 1 -24.999 1c-16 0 -33.333 -1.66699 -52 -5v30c28.667 0 49.667 7.66699 63 23
c10.667 15.333 20 28 28 38l29 38l160 217l-81 137l-43 67c-17.333 26.667 -30 45 -38 55c-24.667 30.667 -53.334 46 -86.001 46c-7.33301 0 -13 -0.333008 -17 -1l-2 28l144 21c10.667 -4.66699 21 -13 31 -25c6 -7.33301 13.667 -18.666 23 -33.999l39 -63l89 -153
l185 270h101v-30c-24.667 0 -42.667 -4 -54 -12c-4 -2.66699 -12.333 -12 -25 -28l-82 -101l-102 -138l191 -305c13.333 -19.333 20.666 -29.666 21.999 -30.999c10 -12 26.667 -18 50 -18l9 -1v-30z" />
    <glyph glyph-name="Otilde" unicode="&#x425;" horiz-adv-x="667" 
d="M648 -5c-26.667 3.33301 -50.666 4.99805 -71.999 4.99805c-22 0 -46.333 -1.66699 -73 -5l-16 26l-168 282l-45 -64l-75 -112l-82 -132c-12 2 -20.667 3.33301 -26 4s-13.666 1 -24.999 1c-16 0 -33.333 -1.66699 -52 -5v30c28.667 0 49.667 7.66699 63 23
c10.667 15.333 20 28 28 38l29 38l160 217l-81 137l-43 67c-17.333 26.667 -30 45 -38 55c-24.667 30.667 -53.334 46 -86.001 46c-7.33301 0 -13 -0.333008 -17 -1l-2 28l144 21c10.667 -4.66699 21 -13 31 -25c6 -7.33301 13.667 -18.666 23 -33.999l39 -63l89 -153
l185 270h101v-30c-24.667 0 -42.667 -4 -54 -12c-4 -2.66699 -12.333 -12 -25 -28l-82 -101l-102 -138l191 -305c13.333 -19.333 20.666 -29.666 21.999 -30.999c10 -12 26.667 -18 50 -18l9 -1v-30z" />
    <glyph glyph-name="Odieresis" unicode="&#xd6;" horiz-adv-x="832" 
d="M819 25c-6.66699 -10.667 -12.666 -38.333 -17.999 -83l-6 -65h-31c0 19.333 -1.16699 36.333 -3.5 51s-5.83301 33 -10.5 55c-22 6.66699 -46.333 11.167 -73 13.5s-58.667 3.5 -96 3.5h-165c-61.333 0 -138.666 -0.833008 -231.999 -2.5s-146 -2.5 -158 -2.5v30
c46 0 73.333 4.66699 82 14s13 34.666 13 75.999v459c0 41.333 -3.66699 66 -11 74c-10 10.667 -38 16 -84 16v30c19.333 0 45.666 -0.833008 78.999 -2.5s54 -2.5 62 -2.5c22 0 40 0.333008 54 1c54.667 2.66699 84.667 4 90 4v-30c-46 0 -73.333 -4.66699 -82 -14
s-13 -34.666 -13 -75.999v-441c0 -36 1.66699 -65 5 -87c14 -2 32.667 -3.33301 56 -4s47 -1 71 -1h136h31h26c13.333 0 26.333 0.333008 39 1s23 2 31 4c2 12 3.33301 27 4 45s1 32 1 42v441c0 41.333 -3.66699 66 -11 74c-10 10.667 -38 16 -84 16v30
c19.333 0 45.666 -0.833008 78.999 -2.5s54 -2.5 62 -2.5c22 0 40 0.333008 54 1c54.667 2.66699 84.667 4 90 4v-30c-46 0 -73.333 -4.66699 -82 -14s-13 -34.666 -13 -75.999v-458c0 -40.667 4.33301 -65.334 13 -74.001c11.333 -11.333 43 -17 95 -17z" />
    <glyph glyph-name="Odieresis" unicode="&#x426;" horiz-adv-x="832" 
d="M819 25c-6.66699 -10.667 -12.666 -38.333 -17.999 -83l-6 -65h-31c0 19.333 -1.16699 36.333 -3.5 51s-5.83301 33 -10.5 55c-22 6.66699 -46.333 11.167 -73 13.5s-58.667 3.5 -96 3.5h-165c-61.333 0 -138.666 -0.833008 -231.999 -2.5s-146 -2.5 -158 -2.5v30
c46 0 73.333 4.66699 82 14s13 34.666 13 75.999v459c0 41.333 -3.66699 66 -11 74c-10 10.667 -38 16 -84 16v30c19.333 0 45.666 -0.833008 78.999 -2.5s54 -2.5 62 -2.5c22 0 40 0.333008 54 1c54.667 2.66699 84.667 4 90 4v-30c-46 0 -73.333 -4.66699 -82 -14
s-13 -34.666 -13 -75.999v-441c0 -36 1.66699 -65 5 -87c14 -2 32.667 -3.33301 56 -4s47 -1 71 -1h136h31h26c13.333 0 26.333 0.333008 39 1s23 2 31 4c2 12 3.33301 27 4 45s1 32 1 42v441c0 41.333 -3.66699 66 -11 74c-10 10.667 -38 16 -84 16v30
c19.333 0 45.666 -0.833008 78.999 -2.5s54 -2.5 62 -2.5c22 0 40 0.333008 54 1c54.667 2.66699 84.667 4 90 4v-30c-46 0 -73.333 -4.66699 -82 -14s-13 -34.666 -13 -75.999v-458c0 -40.667 4.33301 -65.334 13 -74.001c11.333 -11.333 43 -17 95 -17z" />
    <glyph glyph-name="multiply" unicode="&#xd7;" horiz-adv-x="758" 
d="M731 -5c-22 0 -40 0.332031 -54 0.999023c-54.667 2.66699 -84.667 4 -90 4c-22.667 0 -51 -0.833008 -85 -2.5s-52.667 -2.5 -56 -2.5v30c46 0 73.333 4.66699 82 14s13 34.666 13 75.999v233l-31 -23c-16 -12 -33.667 -26.167 -53 -42.5s-43.5 -27.333 -72.5 -33
s-58.5 -8.5 -88.5 -8.5c-80 0 -134.667 23.333 -164 70c-20.667 32.667 -31 84 -31 154v109c0 40.667 -4 65.834 -12 75.501s-32.333 14.5 -73 14.5v30c18 0 42 -0.833008 72 -2.5s49.667 -2.5 59 -2.5c22 0 40 0.333008 54 1c54.667 2.66699 84.667 4 90 4v-30
c-46 0 -73.333 -4.66699 -82 -14s-13 -34.666 -13 -75.999v-94c0 -62 9.33301 -105.333 28 -130c22.667 -29.333 65.334 -44 128.001 -44c35.333 0 73 11.667 113 35s63.333 49 70 77c4 17.333 6 31.666 6 42.999v113c0 41.333 -3.66699 66 -11 74c-10 10.667 -38 16 -84 16
v30c19.333 0 45.666 -0.833008 78.999 -2.5s54 -2.5 62 -2.5c22 0 40 0.333008 54 1c54.667 2.66699 84.667 4 90 4v-30c-46 0 -73.333 -4.66699 -82 -14s-13 -34.666 -13 -75.999v-459c0 -41.333 3.66699 -66 11 -74c10 -10.667 38 -16 84 -16v-30z" />
    <glyph glyph-name="multiply" unicode="&#x427;" horiz-adv-x="758" 
d="M731 -5c-22 0 -40 0.332031 -54 0.999023c-54.667 2.66699 -84.667 4 -90 4c-22.667 0 -51 -0.833008 -85 -2.5s-52.667 -2.5 -56 -2.5v30c46 0 73.333 4.66699 82 14s13 34.666 13 75.999v233l-31 -23c-16 -12 -33.667 -26.167 -53 -42.5s-43.5 -27.333 -72.5 -33
s-58.5 -8.5 -88.5 -8.5c-80 0 -134.667 23.333 -164 70c-20.667 32.667 -31 84 -31 154v109c0 40.667 -4 65.834 -12 75.501s-32.333 14.5 -73 14.5v30c18 0 42 -0.833008 72 -2.5s49.667 -2.5 59 -2.5c22 0 40 0.333008 54 1c54.667 2.66699 84.667 4 90 4v-30
c-46 0 -73.333 -4.66699 -82 -14s-13 -34.666 -13 -75.999v-94c0 -62 9.33301 -105.333 28 -130c22.667 -29.333 65.334 -44 128.001 -44c35.333 0 73 11.667 113 35s63.333 49 70 77c4 17.333 6 31.666 6 42.999v113c0 41.333 -3.66699 66 -11 74c-10 10.667 -38 16 -84 16
v30c19.333 0 45.666 -0.833008 78.999 -2.5s54 -2.5 62 -2.5c22 0 40 0.333008 54 1c54.667 2.66699 84.667 4 90 4v-30c-46 0 -73.333 -4.66699 -82 -14s-13 -34.666 -13 -75.999v-459c0 -41.333 3.66699 -66 11 -74c10 -10.667 38 -16 84 -16v-30z" />
    <glyph glyph-name="Oslash" unicode="&#xd8;" horiz-adv-x="1056" 
d="M1029 -5c-70 0 -164.832 0.831055 -284.499 2.49805s-192.5 2.5 -218.5 2.5c-78.667 0 -178 -0.833008 -298 -2.5s-187.333 -2.5 -202 -2.5v30c46 0 73.333 4.66699 82 14s13 34.666 13 75.999v459c0 41.333 -3.66699 66 -11 74c-10 10.667 -38 16 -84 16v30
c19.333 0 45.666 -0.833008 78.999 -2.5s54 -2.5 62 -2.5c22 0 40 0.333008 54 1c54.667 2.66699 84.667 4 90 4v-30c-46 0 -73.333 -4.66699 -82 -14s-13 -34.666 -13 -75.999v-441c0 -36 1.66699 -65 5 -87c14 -2 32.667 -3.33301 56 -4s47 -1 71 -1h35h13
c14 0 27.667 0.333008 41 1s26 2 38 4c3.33301 22 5 51 5 87v441c0 41.333 -3.66699 66 -11 74c-10 10.667 -38 16 -84 16v30c19.333 0 45.666 -0.833008 78.999 -2.5s54 -2.5 62 -2.5c22 0 40 0.333008 54 1c54.667 2.66699 84.667 4 90 4v-30
c-46 0 -73.333 -4.66699 -82 -14s-13 -34.666 -13 -75.999v-441l5 -87c14.667 -2 34.834 -3.33301 60.501 -4s47.834 -1 66.501 -1h31h26c13.333 0 26.333 0.333008 39 1s23 2 31 4c2 12 3.33301 27 4 45s1 32 1 42v441c0 41.333 -3.66699 66 -11 74
c-10 10.667 -38 16 -84 16v30c19.333 0 45.666 -0.833008 78.999 -2.5s54 -2.5 62 -2.5c22 0 40 0.333008 54 1c54.667 2.66699 84.667 4 90 4v-30c-46 0 -73.333 -4.66699 -82 -14s-13 -34.666 -13 -75.999v-459c0 -41.333 3.66699 -66 11 -74c10 -10.667 38 -16 84 -16
v-30z" />
    <glyph glyph-name="Oslash" unicode="&#x428;" horiz-adv-x="1056" 
d="M1029 -5c-70 0 -164.832 0.831055 -284.499 2.49805s-192.5 2.5 -218.5 2.5c-78.667 0 -178 -0.833008 -298 -2.5s-187.333 -2.5 -202 -2.5v30c46 0 73.333 4.66699 82 14s13 34.666 13 75.999v459c0 41.333 -3.66699 66 -11 74c-10 10.667 -38 16 -84 16v30
c19.333 0 45.666 -0.833008 78.999 -2.5s54 -2.5 62 -2.5c22 0 40 0.333008 54 1c54.667 2.66699 84.667 4 90 4v-30c-46 0 -73.333 -4.66699 -82 -14s-13 -34.666 -13 -75.999v-441c0 -36 1.66699 -65 5 -87c14 -2 32.667 -3.33301 56 -4s47 -1 71 -1h35h13
c14 0 27.667 0.333008 41 1s26 2 38 4c3.33301 22 5 51 5 87v441c0 41.333 -3.66699 66 -11 74c-10 10.667 -38 16 -84 16v30c19.333 0 45.666 -0.833008 78.999 -2.5s54 -2.5 62 -2.5c22 0 40 0.333008 54 1c54.667 2.66699 84.667 4 90 4v-30
c-46 0 -73.333 -4.66699 -82 -14s-13 -34.666 -13 -75.999v-441l5 -87c14.667 -2 34.834 -3.33301 60.501 -4s47.834 -1 66.501 -1h31h26c13.333 0 26.333 0.333008 39 1s23 2 31 4c2 12 3.33301 27 4 45s1 32 1 42v441c0 41.333 -3.66699 66 -11 74
c-10 10.667 -38 16 -84 16v30c19.333 0 45.666 -0.833008 78.999 -2.5s54 -2.5 62 -2.5c22 0 40 0.333008 54 1c54.667 2.66699 84.667 4 90 4v-30c-46 0 -73.333 -4.66699 -82 -14s-13 -34.666 -13 -75.999v-459c0 -41.333 3.66699 -66 11 -74c10 -10.667 38 -16 84 -16
v-30z" />
    <glyph glyph-name="Ugrave" unicode="&#xd9;" horiz-adv-x="1056" 
d="M1042 25c-6.66699 -10.667 -12.666 -38.334 -17.999 -83.001l-6 -65h-31c0 19.333 -1.16699 36.333 -3.5 51s-5.83301 33 -10.5 55c-22 6.66699 -46.333 11.167 -73 13.5s-58.667 3.5 -96 3.5h-278c-78.667 0 -178 -0.833008 -298 -2.5s-187.333 -2.5 -202 -2.5v30
c46 0 73.333 4.66699 82 14s13 34.666 13 75.999v459c0 41.333 -3.66699 66 -11 74c-10 10.667 -38 16 -84 16v30c19.333 0 45.666 -0.833008 78.999 -2.5s54 -2.5 62 -2.5c22 0 40 0.333008 54 1c54.667 2.66699 84.667 4 90 4v-30c-46 0 -73.333 -4.66699 -82 -14
s-13 -34.666 -13 -75.999v-441c0 -36 1.66699 -65 5 -87c14 -2 32.667 -3.33301 56 -4s47 -1 71 -1h35h13c14 0 27.667 0.333008 41 1s26 2 38 4c3.33301 22 5 51 5 87v441c0 41.333 -3.66699 66 -11 74c-10 10.667 -38 16 -84 16v30c19.333 0 45.666 -0.833008 78.999 -2.5
s54 -2.5 62 -2.5c22 0 40 0.333008 54 1c54.667 2.66699 84.667 4 90 4v-30c-46 0 -73.333 -4.66699 -82 -14s-13 -34.666 -13 -75.999v-441l5 -87c14.667 -2 34.834 -3.33301 60.501 -4s47.834 -1 66.501 -1h31h26c13.333 0 26.333 0.333008 39 1s23 2 31 4
c2 12 3.33301 27 4 45s1 32 1 42v441c0 41.333 -3.66699 66 -11 74c-10 10.667 -38 16 -84 16v30c19.333 0 45.666 -0.833008 78.999 -2.5s54 -2.5 62 -2.5c22 0 40 0.333008 54 1c54.667 2.66699 84.667 4 90 4v-30c-46 0 -73.333 -4.66699 -82 -14
s-13 -34.666 -13 -75.999v-458c0 -40.667 4.33301 -65.334 13 -74.001c11.333 -11.333 43 -17 95 -17z" />
    <glyph glyph-name="Ugrave" unicode="&#x429;" horiz-adv-x="1056" 
d="M1042 25c-6.66699 -10.667 -12.666 -38.334 -17.999 -83.001l-6 -65h-31c0 19.333 -1.16699 36.333 -3.5 51s-5.83301 33 -10.5 55c-22 6.66699 -46.333 11.167 -73 13.5s-58.667 3.5 -96 3.5h-278c-78.667 0 -178 -0.833008 -298 -2.5s-187.333 -2.5 -202 -2.5v30
c46 0 73.333 4.66699 82 14s13 34.666 13 75.999v459c0 41.333 -3.66699 66 -11 74c-10 10.667 -38 16 -84 16v30c19.333 0 45.666 -0.833008 78.999 -2.5s54 -2.5 62 -2.5c22 0 40 0.333008 54 1c54.667 2.66699 84.667 4 90 4v-30c-46 0 -73.333 -4.66699 -82 -14
s-13 -34.666 -13 -75.999v-441c0 -36 1.66699 -65 5 -87c14 -2 32.667 -3.33301 56 -4s47 -1 71 -1h35h13c14 0 27.667 0.333008 41 1s26 2 38 4c3.33301 22 5 51 5 87v441c0 41.333 -3.66699 66 -11 74c-10 10.667 -38 16 -84 16v30c19.333 0 45.666 -0.833008 78.999 -2.5
s54 -2.5 62 -2.5c22 0 40 0.333008 54 1c54.667 2.66699 84.667 4 90 4v-30c-46 0 -73.333 -4.66699 -82 -14s-13 -34.666 -13 -75.999v-441l5 -87c14.667 -2 34.834 -3.33301 60.501 -4s47.834 -1 66.501 -1h31h26c13.333 0 26.333 0.333008 39 1s23 2 31 4
c2 12 3.33301 27 4 45s1 32 1 42v441c0 41.333 -3.66699 66 -11 74c-10 10.667 -38 16 -84 16v30c19.333 0 45.666 -0.833008 78.999 -2.5s54 -2.5 62 -2.5c22 0 40 0.333008 54 1c54.667 2.66699 84.667 4 90 4v-30c-46 0 -73.333 -4.66699 -82 -14
s-13 -34.666 -13 -75.999v-458c0 -40.667 4.33301 -65.334 13 -74.001c11.333 -11.333 43 -17 95 -17z" />
    <glyph glyph-name="Uacute" unicode="&#xda;" horiz-adv-x="684" 
d="M664 226c0 -67.333 -28.001 -123.335 -84.001 -168.002c-52.667 -42 -113.334 -63 -182.001 -63c-21.333 0 -38.666 0.333008 -51.999 1c-52 2.66699 -80 4 -84 4c-17.333 0 -41.833 -0.833008 -73.5 -2.5s-51.167 -2.5 -58.5 -2.5v30c30 4 49.333 11.167 58 21.5
s13 26.833 13 49.5v447c0 12.667 -0.166992 24.834 -0.5 36.501s-1.83301 32.167 -4.5 61.5l-96 -3c-12 0 -20.833 -2 -26.5 -6s-8.5 -12 -8.5 -24c-3.33301 -16.667 -6 -31 -8 -43s-3 -23.333 -3 -34h-30l-1 56c0 14.667 -0.833008 34.5 -2.5 59.5s-2.5 40.833 -2.5 47.5
c38 0 86.333 -0.833008 145 -2.5s93 -2.5 103 -2.5c19.333 0 35 0.333008 47 1c48 2.66699 74 4 78 4v-30c-46 0 -73.333 -4.66699 -82 -14s-13 -34.666 -13 -75.999v-184c16.667 0 43.834 0.833008 81.501 2.5s64.167 2.5 79.5 2.5c56 0 102.667 -12.667 140 -38
c44.667 -30 67 -73.667 67 -131zM563.999 198.998c0 52 -14.168 91.499 -42.501 118.499s-68.166 40.5 -119.499 40.5c-16.667 0 -31.5 -1 -44.5 -3s-31.5 -6 -55.5 -12c-2.66699 -9.33301 -4.33398 -18.666 -5.00098 -27.999s-1 -21 -1 -35v-11v-225c10.667 -2 25 -4 43 -6
s34 -3 48 -3c50.667 0 92.834 15.5 126.501 46.5s50.5 70.167 50.5 117.5z" />
    <glyph glyph-name="Uacute" unicode="&#x42a;" horiz-adv-x="684" 
d="M664 226c0 -67.333 -28.001 -123.335 -84.001 -168.002c-52.667 -42 -113.334 -63 -182.001 -63c-21.333 0 -38.666 0.333008 -51.999 1c-52 2.66699 -80 4 -84 4c-17.333 0 -41.833 -0.833008 -73.5 -2.5s-51.167 -2.5 -58.5 -2.5v30c30 4 49.333 11.167 58 21.5
s13 26.833 13 49.5v447c0 12.667 -0.166992 24.834 -0.5 36.501s-1.83301 32.167 -4.5 61.5l-96 -3c-12 0 -20.833 -2 -26.5 -6s-8.5 -12 -8.5 -24c-3.33301 -16.667 -6 -31 -8 -43s-3 -23.333 -3 -34h-30l-1 56c0 14.667 -0.833008 34.5 -2.5 59.5s-2.5 40.833 -2.5 47.5
c38 0 86.333 -0.833008 145 -2.5s93 -2.5 103 -2.5c19.333 0 35 0.333008 47 1c48 2.66699 74 4 78 4v-30c-46 0 -73.333 -4.66699 -82 -14s-13 -34.666 -13 -75.999v-184c16.667 0 43.834 0.833008 81.501 2.5s64.167 2.5 79.5 2.5c56 0 102.667 -12.667 140 -38
c44.667 -30 67 -73.667 67 -131zM563.999 198.998c0 52 -14.168 91.499 -42.501 118.499s-68.166 40.5 -119.499 40.5c-16.667 0 -31.5 -1 -44.5 -3s-31.5 -6 -55.5 -12c-2.66699 -9.33301 -4.33398 -18.666 -5.00098 -27.999s-1 -21 -1 -35v-11v-225c10.667 -2 25 -4 43 -6
s34 -3 48 -3c50.667 0 92.834 15.5 126.501 46.5s50.5 70.167 50.5 117.5z" />
    <glyph glyph-name="Ucircumflex" unicode="&#xdb;" horiz-adv-x="906" 
d="M880 -5c-22 0 -39.999 0.333008 -53.999 1c-54.667 2.66699 -84.667 4 -90 4c-22.667 0 -51 -0.833008 -85 -2.5s-52.667 -2.5 -56 -2.5v30c46 0 73.333 4.66699 82 14s13 34.666 13 75.999v459c0 41.333 -3.66699 66 -11 74c-10 10.667 -38 16 -84 16v30
c19.333 0 45.666 -0.833008 78.999 -2.5s54 -2.5 62 -2.5c22 0 40 0.333008 54 1c54.667 2.66699 84.667 4 90 4v-30c-46 0 -73.333 -4.66699 -82 -14s-13 -34.666 -13 -75.999v-459c0 -41.333 3.66699 -66 11 -74c10 -10.667 38 -16 84 -16v-30zM584.001 226
c0 -67.333 -28 -123.334 -84 -168.001c-52.667 -42 -113.334 -63 -182.001 -63c-21.333 0 -38.666 0.333008 -51.999 1c-52 2.66699 -80 4 -84 4c-17.333 0 -41.833 -0.833008 -73.5 -2.5s-51.167 -2.5 -58.5 -2.5v30c30 4 49.333 11.167 58 21.5s13 26.833 13 49.5v478
c0 41.333 -3.66699 66 -11 74c-10 10.667 -38 16 -84 16v30c19.333 0 45.666 -0.833008 78.999 -2.5s54 -2.5 62 -2.5c22 0 40 0.333008 54 1c54.667 2.66699 84.667 4 90 4v-30c-46 0 -73.333 -4.66699 -82 -14s-13 -34.666 -13 -75.999v-184
c16.667 0 43.834 0.833008 81.501 2.5s64.167 2.5 79.5 2.5c56 0 102.667 -12.667 140 -38c44.667 -30 67 -73.667 67 -131zM484.001 198.999c0 52 -14.168 91.499 -42.501 118.499s-68.166 40.5 -119.499 40.5c-16.667 0 -31.5 -1 -44.5 -3s-31.5 -6 -55.5 -12
c-2.66699 -9.33301 -4.33398 -18.666 -5.00098 -27.999s-1 -21 -1 -35v-11v-225c10.667 -2 25 -4 43 -6s34 -3 48 -3c50.667 0 92.834 15.5 126.501 46.5s50.5 70.167 50.5 117.5z" />
    <glyph glyph-name="Ucircumflex" unicode="&#x42b;" horiz-adv-x="906" 
d="M880 -5c-22 0 -39.999 0.333008 -53.999 1c-54.667 2.66699 -84.667 4 -90 4c-22.667 0 -51 -0.833008 -85 -2.5s-52.667 -2.5 -56 -2.5v30c46 0 73.333 4.66699 82 14s13 34.666 13 75.999v459c0 41.333 -3.66699 66 -11 74c-10 10.667 -38 16 -84 16v30
c19.333 0 45.666 -0.833008 78.999 -2.5s54 -2.5 62 -2.5c22 0 40 0.333008 54 1c54.667 2.66699 84.667 4 90 4v-30c-46 0 -73.333 -4.66699 -82 -14s-13 -34.666 -13 -75.999v-459c0 -41.333 3.66699 -66 11 -74c10 -10.667 38 -16 84 -16v-30zM584.001 226
c0 -67.333 -28 -123.334 -84 -168.001c-52.667 -42 -113.334 -63 -182.001 -63c-21.333 0 -38.666 0.333008 -51.999 1c-52 2.66699 -80 4 -84 4c-17.333 0 -41.833 -0.833008 -73.5 -2.5s-51.167 -2.5 -58.5 -2.5v30c30 4 49.333 11.167 58 21.5s13 26.833 13 49.5v478
c0 41.333 -3.66699 66 -11 74c-10 10.667 -38 16 -84 16v30c19.333 0 45.666 -0.833008 78.999 -2.5s54 -2.5 62 -2.5c22 0 40 0.333008 54 1c54.667 2.66699 84.667 4 90 4v-30c-46 0 -73.333 -4.66699 -82 -14s-13 -34.666 -13 -75.999v-184
c16.667 0 43.834 0.833008 81.501 2.5s64.167 2.5 79.5 2.5c56 0 102.667 -12.667 140 -38c44.667 -30 67 -73.667 67 -131zM484.001 198.999c0 52 -14.168 91.499 -42.501 118.499s-68.166 40.5 -119.499 40.5c-16.667 0 -31.5 -1 -44.5 -3s-31.5 -6 -55.5 -12
c-2.66699 -9.33301 -4.33398 -18.666 -5.00098 -27.999s-1 -21 -1 -35v-11v-225c10.667 -2 25 -4 43 -6s34 -3 48 -3c50.667 0 92.834 15.5 126.501 46.5s50.5 70.167 50.5 117.5z" />
    <glyph glyph-name="Udieresis" unicode="&#xdc;" horiz-adv-x="604" 
d="M584 226c0 -67.333 -28 -123.334 -84 -168.001c-52.667 -42 -113.334 -63 -182.001 -63c-21.333 0 -38.666 0.333008 -51.999 1c-52 2.66699 -80 4 -84 4c-17.333 0 -41.833 -0.833008 -73.5 -2.5s-51.167 -2.5 -58.5 -2.5v30c30 4 49.333 11.167 58 21.5
s13 26.833 13 49.5v478c0 41.333 -3.66699 66 -11 74c-10 10.667 -38 16 -84 16v30c19.333 0 45.666 -0.833008 78.999 -2.5s54 -2.5 62 -2.5c22 0 40 0.333008 54 1c54.667 2.66699 84.667 4 90 4v-30c-46 0 -73.333 -4.66699 -82 -14s-13 -34.666 -13 -75.999v-184
c17.333 0 44.833 0.833008 82.5 2.5s63.834 2.5 78.501 2.5c56 0 102.667 -12.667 140 -38c44.667 -30 67 -73.667 67 -131zM484 198.999c0 52 -14.168 91.499 -42.501 118.499s-68.166 40.5 -119.499 40.5c-16.667 0 -31.5 -1 -44.5 -3s-31.5 -6 -55.5 -12
c-2.66699 -9.33301 -4.33398 -18.666 -5.00098 -27.999s-1 -21 -1 -35v-11v-225c10.667 -2 25 -4 43 -6s34 -3 48 -3c50.667 0 92.834 15.5 126.501 46.5s50.5 70.167 50.5 117.5z" />
    <glyph glyph-name="Udieresis" unicode="&#x42c;" horiz-adv-x="604" 
d="M584 226c0 -67.333 -28 -123.334 -84 -168.001c-52.667 -42 -113.334 -63 -182.001 -63c-21.333 0 -38.666 0.333008 -51.999 1c-52 2.66699 -80 4 -84 4c-17.333 0 -41.833 -0.833008 -73.5 -2.5s-51.167 -2.5 -58.5 -2.5v30c30 4 49.333 11.167 58 21.5
s13 26.833 13 49.5v478c0 41.333 -3.66699 66 -11 74c-10 10.667 -38 16 -84 16v30c19.333 0 45.666 -0.833008 78.999 -2.5s54 -2.5 62 -2.5c22 0 40 0.333008 54 1c54.667 2.66699 84.667 4 90 4v-30c-46 0 -73.333 -4.66699 -82 -14s-13 -34.666 -13 -75.999v-184
c17.333 0 44.833 0.833008 82.5 2.5s63.834 2.5 78.501 2.5c56 0 102.667 -12.667 140 -38c44.667 -30 67 -73.667 67 -131zM484 198.999c0 52 -14.168 91.499 -42.501 118.499s-68.166 40.5 -119.499 40.5c-16.667 0 -31.5 -1 -44.5 -3s-31.5 -6 -55.5 -12
c-2.66699 -9.33301 -4.33398 -18.666 -5.00098 -27.999s-1 -21 -1 -35v-11v-225c10.667 -2 25 -4 43 -6s34 -3 48 -3c50.667 0 92.834 15.5 126.501 46.5s50.5 70.167 50.5 117.5z" />
    <glyph glyph-name="Yacute" unicode="&#xdd;" horiz-adv-x="709" 
d="M686 344c0 -112.667 -40.002 -202.669 -120.002 -270.002c-74.667 -62.667 -167.667 -94 -279 -94c-35.333 0 -74.5 5.33301 -117.5 16s-80.167 25 -111.5 43l-20 45l9 10c63.333 -42.667 138.666 -64 225.999 -64c88.667 0 161.667 27.333 219 82s86 126.334 86 215.001
h-303l-63 -1l-3 6l20 45l97 -2h251c0 84.667 -28 154.334 -84 209.001s-124.667 82 -206 82c-35.333 0 -69.166 -6 -101.499 -18s-57.166 -27.667 -74.499 -47c-8 -8.66699 -13.5 -19 -16.5 -31s-5.83301 -30.667 -8.5 -56h-29c0 16.667 -0.333008 41.667 -1 75
s-1 58.333 -1 75c44.667 14 87.334 25 128.001 33s78.667 12 114 12c108 0 198.333 -31.333 271 -94c78.667 -68 118 -158.333 118 -271z" />
    <glyph glyph-name="Yacute" unicode="&#x42d;" horiz-adv-x="709" 
d="M686 344c0 -112.667 -40.002 -202.669 -120.002 -270.002c-74.667 -62.667 -167.667 -94 -279 -94c-35.333 0 -74.5 5.33301 -117.5 16s-80.167 25 -111.5 43l-20 45l9 10c63.333 -42.667 138.666 -64 225.999 -64c88.667 0 161.667 27.333 219 82s86 126.334 86 215.001
h-303l-63 -1l-3 6l20 45l97 -2h251c0 84.667 -28 154.334 -84 209.001s-124.667 82 -206 82c-35.333 0 -69.166 -6 -101.499 -18s-57.166 -27.667 -74.499 -47c-8 -8.66699 -13.5 -19 -16.5 -31s-5.83301 -30.667 -8.5 -56h-29c0 16.667 -0.333008 41.667 -1 75
s-1 58.333 -1 75c44.667 14 87.334 25 128.001 33s78.667 12 114 12c108 0 198.333 -31.333 271 -94c78.667 -68 118 -158.333 118 -271z" />
    <glyph glyph-name="Thorn" unicode="&#xde;" horiz-adv-x="1091" 
d="M1069 367c0 -108 -37.166 -199.5 -111.499 -274.5s-166.166 -112.5 -275.499 -112.5c-104 0 -188.667 32.667 -254 98c-67.333 67.333 -101 157 -101 269h-111v-232c0 -41.333 3.66699 -66 11 -74c10 -10.667 38 -16 84 -16v-30c-22 0 -40 0.333008 -54 1
c-54.667 2.66699 -84.667 4 -90 4c-22.667 0 -51 -0.833008 -85 -2.5s-52.667 -2.5 -56 -2.5v30c46 0 73.333 4.66699 82 14s13 34.666 13 75.999v459c0 41.333 -3.66699 66 -11 74c-10 10.667 -38 16 -84 16v30c19.333 0 45.666 -0.833008 78.999 -2.5s54 -2.5 62 -2.5
c22 0 40 0.333008 54 1c54.667 2.66699 84.667 4 90 4v-30c-46 0 -73.333 -4.66699 -82 -14s-13 -34.666 -13 -75.999v-185h113c9.33301 94.667 46.666 171 111.999 229c68 60.667 155.333 91 262 91c110 0 197.667 -29 263 -87c68.667 -61.333 103 -146.333 103 -255z
M962.001 336c0 102.667 -22.333 182.335 -67 239.002c-48 60.667 -117.333 91 -208 91c-84 0 -148 -27 -192 -81c-40.667 -49.333 -61 -117.333 -61 -204c0 -98.667 21.667 -180.334 65 -245.001c50 -75.333 121.667 -113 215 -113c80.667 0 142.667 29 186 87
c41.333 55.333 62 130.666 62 225.999z" />
    <glyph glyph-name="Thorn" unicode="&#x42e;" horiz-adv-x="1091" 
d="M1069 367c0 -108 -37.166 -199.5 -111.499 -274.5s-166.166 -112.5 -275.499 -112.5c-104 0 -188.667 32.667 -254 98c-67.333 67.333 -101 157 -101 269h-111v-232c0 -41.333 3.66699 -66 11 -74c10 -10.667 38 -16 84 -16v-30c-22 0 -40 0.333008 -54 1
c-54.667 2.66699 -84.667 4 -90 4c-22.667 0 -51 -0.833008 -85 -2.5s-52.667 -2.5 -56 -2.5v30c46 0 73.333 4.66699 82 14s13 34.666 13 75.999v459c0 41.333 -3.66699 66 -11 74c-10 10.667 -38 16 -84 16v30c19.333 0 45.666 -0.833008 78.999 -2.5s54 -2.5 62 -2.5
c22 0 40 0.333008 54 1c54.667 2.66699 84.667 4 90 4v-30c-46 0 -73.333 -4.66699 -82 -14s-13 -34.666 -13 -75.999v-185h113c9.33301 94.667 46.666 171 111.999 229c68 60.667 155.333 91 262 91c110 0 197.667 -29 263 -87c68.667 -61.333 103 -146.333 103 -255z
M962.001 336c0 102.667 -22.333 182.335 -67 239.002c-48 60.667 -117.333 91 -208 91c-84 0 -148 -27 -192 -81c-40.667 -49.333 -61 -117.333 -61 -204c0 -98.667 21.667 -180.334 65 -245.001c50 -75.333 121.667 -113 215 -113c80.667 0 142.667 29 186 87
c41.333 55.333 62 130.666 62 225.999z" />
    <glyph glyph-name="germandbls" unicode="&#xdf;" horiz-adv-x="668" 
d="M642 -5c-19.333 0 -45.668 0.833008 -79.001 2.5s-54 2.5 -62 2.5c-22 0 -50.167 -0.833008 -84.5 -2.5s-54.166 -2.5 -59.499 -2.5v30c46 0 73.333 4.66699 82 14s13 34.666 13 75.999v459v11c0 14 -0.333008 25.333 -1 34s-2.33398 16.667 -5.00098 24
c-17.333 4.66699 -34.5 8.33398 -51.5 11.001s-37.167 4 -60.5 4c-39.333 0 -72 -11.667 -98 -35c-29.333 -26 -44 -61 -44 -105c0 -42 14.667 -75.667 44 -101c26 -22 58.667 -35 98 -39c16 -1.33301 32 -2.33301 48 -3s30 -1.33398 42 -2.00098l-6 -16l-238 -306l-36 -51
c-24 0 -48.333 -0.166992 -73 -0.5s-47.334 -1.83301 -68.001 -4.5v30c11.333 2 21.833 5 31.5 9s18.167 10.333 25.5 19l227 296c-57.333 0 -104.166 16.5 -140.499 49.5s-54.5 74.167 -54.5 123.5c0 48.667 18.5 89.5 55.5 122.5s84.833 49.5 143.5 49.5
c27.333 0 62 -0.833008 104 -2.5s66.667 -2.5 74 -2.5c27.333 0 49.333 0.333008 66 1c66.667 2.66699 102.334 4 107.001 4v-30c-46 0 -73.333 -4.66699 -82 -14s-13 -34.666 -13 -75.999v-459c0 -41.333 3.66699 -66 11 -74c10 -10.667 38 -16 84 -16v-30z" />
    <glyph glyph-name="germandbls" unicode="&#x42f;" horiz-adv-x="668" 
d="M642 -5c-19.333 0 -45.668 0.833008 -79.001 2.5s-54 2.5 -62 2.5c-22 0 -50.167 -0.833008 -84.5 -2.5s-54.166 -2.5 -59.499 -2.5v30c46 0 73.333 4.66699 82 14s13 34.666 13 75.999v459v11c0 14 -0.333008 25.333 -1 34s-2.33398 16.667 -5.00098 24
c-17.333 4.66699 -34.5 8.33398 -51.5 11.001s-37.167 4 -60.5 4c-39.333 0 -72 -11.667 -98 -35c-29.333 -26 -44 -61 -44 -105c0 -42 14.667 -75.667 44 -101c26 -22 58.667 -35 98 -39c16 -1.33301 32 -2.33301 48 -3s30 -1.33398 42 -2.00098l-6 -16l-238 -306l-36 -51
c-24 0 -48.333 -0.166992 -73 -0.5s-47.334 -1.83301 -68.001 -4.5v30c11.333 2 21.833 5 31.5 9s18.167 10.333 25.5 19l227 296c-57.333 0 -104.166 16.5 -140.499 49.5s-54.5 74.167 -54.5 123.5c0 48.667 18.5 89.5 55.5 122.5s84.833 49.5 143.5 49.5
c27.333 0 62 -0.833008 104 -2.5s66.667 -2.5 74 -2.5c27.333 0 49.333 0.333008 66 1c66.667 2.66699 102.334 4 107.001 4v-30c-46 0 -73.333 -4.66699 -82 -14s-13 -34.666 -13 -75.999v-459c0 -41.333 3.66699 -66 11 -74c10 -10.667 38 -16 84 -16v-30z" />
    <glyph glyph-name="agrave" unicode="&#xe0;" 
d="M469 -5c-17.333 2 -29.999 3.33203 -37.999 3.99902s-20.333 1 -37 1h-24.5c-6.33301 0 -24.833 -1.66699 -55.5 -5c1.33301 6 2.33301 14.667 3 26s1 19 1 23v38l-108 -80c-11.333 -8 -20.5 -13.667 -27.5 -17s-15.833 -5 -26.5 -5c-40 0 -71 11.333 -93 34
s-33 54.334 -33 95.001c0 40 12 72 36 96c28.667 28.667 81 49.667 157 63l95 18c0 42 -9.33301 74.167 -28 96.5s-48.334 33.5 -89.001 33.5c-16 0 -29.333 -1.16699 -40 -3.5s-21.667 -7.16602 -33 -14.499c-4 -6 -9 -15.333 -15 -28s-11.667 -25.667 -17 -39l-26 7v32
c-0.666992 7.33301 -1 12.666 -1 15.999c0 10.667 3 18 9 22c27.333 18 51 31.333 71 40c32 14 62 21 90 21c63.333 0 107.333 -18.333 132 -55c20.667 -30.667 31 -78.667 31 -144v-183c0 -26.667 4.66699 -43.667 14 -51s27 -11 53 -11v-30zM318.001 121.999
l-0.000976562 131.997c-48.667 -7.33301 -89.667 -16.666 -123 -27.999s-55.666 -28.666 -66.999 -51.999c-8 -16 -12 -37.333 -12 -64c0 -21.333 7.66699 -38.666 23 -51.999s33.666 -20 54.999 -20c20.667 0 42.334 8.66699 65.001 26l35 28
c6 6.66699 10.333 11.667 13 15c5.33301 6.66699 9 11.667 11 15z" />
    <glyph glyph-name="agrave" unicode="&#x430;" 
d="M469 -5c-17.333 2 -29.999 3.33203 -37.999 3.99902s-20.333 1 -37 1h-24.5c-6.33301 0 -24.833 -1.66699 -55.5 -5c1.33301 6 2.33301 14.667 3 26s1 19 1 23v38l-108 -80c-11.333 -8 -20.5 -13.667 -27.5 -17s-15.833 -5 -26.5 -5c-40 0 -71 11.333 -93 34
s-33 54.334 -33 95.001c0 40 12 72 36 96c28.667 28.667 81 49.667 157 63l95 18c0 42 -9.33301 74.167 -28 96.5s-48.334 33.5 -89.001 33.5c-16 0 -29.333 -1.16699 -40 -3.5s-21.667 -7.16602 -33 -14.499c-4 -6 -9 -15.333 -15 -28s-11.667 -25.667 -17 -39l-26 7v32
c-0.666992 7.33301 -1 12.666 -1 15.999c0 10.667 3 18 9 22c27.333 18 51 31.333 71 40c32 14 62 21 90 21c63.333 0 107.333 -18.333 132 -55c20.667 -30.667 31 -78.667 31 -144v-183c0 -26.667 4.66699 -43.667 14 -51s27 -11 53 -11v-30zM318.001 121.999
l-0.000976562 131.997c-48.667 -7.33301 -89.667 -16.666 -123 -27.999s-55.666 -28.666 -66.999 -51.999c-8 -16 -12 -37.333 -12 -64c0 -21.333 7.66699 -38.666 23 -51.999s33.666 -20 54.999 -20c20.667 0 42.334 8.66699 65.001 26l35 28
c6 6.66699 10.333 11.667 13 15c5.33301 6.66699 9 11.667 11 15z" />
    <glyph glyph-name="aacute" unicode="&#xe1;" horiz-adv-x="546" 
d="M513 241c0 -75.333 -24.332 -137.667 -72.999 -187s-111.334 -74 -188.001 -74c-63.333 0 -115.833 23.167 -157.5 69.5s-62.5 104.5 -62.5 174.5c0 103.333 12.667 188 38 254c28.667 75.333 75.667 130 141 164c20.667 10.667 62.334 28.667 125.001 54
c48.667 19.333 84.667 38.333 108 57l17 -23c-22 -46 -49 -80 -81 -102c-16.667 -11.333 -56.334 -30 -119.001 -56c-58 -24 -101 -52.667 -129 -86c-22 -26.667 -38.667 -62.334 -50 -107.001c33.333 25.333 59.333 44 78 56c34.667 22.667 76.667 34 126 34
c64.667 0 118.667 -21.667 162 -65s65 -97.666 65 -162.999zM420.001 197.999c0 66.667 -14.332 123 -42.999 169s-66.334 69 -113.001 69c-48 0 -84 -18 -108 -54c-20.667 -31.333 -31 -73 -31 -125c0 -64 11.333 -117.333 34 -160c29.333 -55.333 73.333 -83 132 -83
c42.667 0 75.667 19 99 57c20 32.667 30 75 30 127z" />
    <glyph glyph-name="aacute" unicode="&#x431;" horiz-adv-x="546" 
d="M513 241c0 -75.333 -24.332 -137.667 -72.999 -187s-111.334 -74 -188.001 -74c-63.333 0 -115.833 23.167 -157.5 69.5s-62.5 104.5 -62.5 174.5c0 103.333 12.667 188 38 254c28.667 75.333 75.667 130 141 164c20.667 10.667 62.334 28.667 125.001 54
c48.667 19.333 84.667 38.333 108 57l17 -23c-22 -46 -49 -80 -81 -102c-16.667 -11.333 -56.334 -30 -119.001 -56c-58 -24 -101 -52.667 -129 -86c-22 -26.667 -38.667 -62.334 -50 -107.001c33.333 25.333 59.333 44 78 56c34.667 22.667 76.667 34 126 34
c64.667 0 118.667 -21.667 162 -65s65 -97.666 65 -162.999zM420.001 197.999c0 66.667 -14.332 123 -42.999 169s-66.334 69 -113.001 69c-48 0 -84 -18 -108 -54c-20.667 -31.333 -31 -73 -31 -125c0 -64 11.333 -117.333 34 -160c29.333 -55.333 73.333 -83 132 -83
c42.667 0 75.667 19 99 57c20 32.667 30 75 30 127z" />
    <glyph glyph-name="acircumflex" unicode="&#xe2;" 
d="M463 153c0 -42.667 -18.5 -79.499 -55.5 -110.499s-80.833 -46.5 -131.5 -46.5c-8.66699 0 -15.334 0.333008 -20.001 1l-96 3l-124 -4v29c32.667 0 53 8.33301 61 25c6 12.667 9 46 9 100v164c0 53.333 -3.33301 85.666 -10 96.999
c-9.33301 15.333 -33.666 23 -72.999 23v30c20 0 49.167 -0.833008 87.5 -2.5s59.833 -2.5 64.5 -2.5l131 3c38 0 67.667 -6.66699 89 -20c25.333 -16 38 -41.333 38 -76c0 -24.667 -8.5 -46.167 -25.5 -64.5s-38.5 -31.833 -64.5 -40.5
c35.333 -5.33301 63 -15.666 83 -30.999c24.667 -18.667 37 -44.334 37 -77.001zM346 353.001c0 27.333 -8.66895 46.334 -26.002 57.001s-41 16 -71 16c-10.667 0 -21.167 -0.333008 -31.5 -1s-19.166 -2.33398 -26.499 -5.00098c-0.666992 -4.66699 -1 -11.667 -1 -21v-23
v-104l50 -2c30.667 0 55.334 6.33301 74.001 19c21.333 14.667 32 36 32 64zM373.998 142.002c0 32.667 -10.834 56.501 -32.501 71.501s-54.167 22.5 -97.5 22.5h-54v-197c8 -1.33301 17.5 -2.5 28.5 -3.5s24.833 -1.5 41.5 -1.5c34.667 0 62.334 9.66699 83.001 29
s31 45.666 31 78.999z" />
    <glyph glyph-name="acircumflex" unicode="&#x432;" 
d="M463 153c0 -42.667 -18.5 -79.499 -55.5 -110.499s-80.833 -46.5 -131.5 -46.5c-8.66699 0 -15.334 0.333008 -20.001 1l-96 3l-124 -4v29c32.667 0 53 8.33301 61 25c6 12.667 9 46 9 100v164c0 53.333 -3.33301 85.666 -10 96.999
c-9.33301 15.333 -33.666 23 -72.999 23v30c20 0 49.167 -0.833008 87.5 -2.5s59.833 -2.5 64.5 -2.5l131 3c38 0 67.667 -6.66699 89 -20c25.333 -16 38 -41.333 38 -76c0 -24.667 -8.5 -46.167 -25.5 -64.5s-38.5 -31.833 -64.5 -40.5
c35.333 -5.33301 63 -15.666 83 -30.999c24.667 -18.667 37 -44.334 37 -77.001zM346 353.001c0 27.333 -8.66895 46.334 -26.002 57.001s-41 16 -71 16c-10.667 0 -21.167 -0.333008 -31.5 -1s-19.166 -2.33398 -26.499 -5.00098c-0.666992 -4.66699 -1 -11.667 -1 -21v-23
v-104l50 -2c30.667 0 55.334 6.33301 74.001 19c21.333 14.667 32 36 32 64zM373.998 142.002c0 32.667 -10.834 56.501 -32.501 71.501s-54.167 22.5 -97.5 22.5h-54v-197c8 -1.33301 17.5 -2.5 28.5 -3.5s24.833 -1.5 41.5 -1.5c34.667 0 62.334 9.66699 83.001 29
s31 45.666 31 78.999z" />
    <glyph glyph-name="atilde" unicode="&#xe3;" horiz-adv-x="425" 
d="M413 323l-28.002 0.00292969l-5 52l-8 25c-2.66699 9.33301 -12 15.833 -28 19.5s-35.667 5.5 -59 5.5h-86c-3.33301 -8.66699 -5.66602 -21.167 -6.99902 -37.5s-2 -34.833 -2 -55.5v-18v-164c0 -54 4.16699 -88.333 12.5 -103s31.833 -22 70.5 -22v-30
c-17.333 0 -41 0.833008 -71 2.5s-48 2.5 -54 2.5c-19.333 0 -44 -0.833008 -74 -2.5s-47 -2.5 -51 -2.5v30c38.667 0 62.667 8.33301 72 25c7.33301 13.333 11 46.666 11 99.999v164c0 53.333 -3.33301 85.666 -10 96.999c-9.33301 15.333 -33.666 23 -72.999 23v30
c38.667 -3.33301 74 -5 106 -5c43.333 0 78.333 0.333008 105 1c106.667 2.66699 165 4 175 4v-76c0 -13.333 0.166992 -22.833 0.5 -28.5s1.5 -17.834 3.5 -36.501z" />
    <glyph glyph-name="atilde" unicode="&#x433;" horiz-adv-x="425" 
d="M413 323l-28.002 0.00292969l-5 52l-8 25c-2.66699 9.33301 -12 15.833 -28 19.5s-35.667 5.5 -59 5.5h-86c-3.33301 -8.66699 -5.66602 -21.167 -6.99902 -37.5s-2 -34.833 -2 -55.5v-18v-164c0 -54 4.16699 -88.333 12.5 -103s31.833 -22 70.5 -22v-30
c-17.333 0 -41 0.833008 -71 2.5s-48 2.5 -54 2.5c-19.333 0 -44 -0.833008 -74 -2.5s-47 -2.5 -51 -2.5v30c38.667 0 62.667 8.33301 72 25c7.33301 13.333 11 46.666 11 99.999v164c0 53.333 -3.33301 85.666 -10 96.999c-9.33301 15.333 -33.666 23 -72.999 23v30
c38.667 -3.33301 74 -5 106 -5c43.333 0 78.333 0.333008 105 1c106.667 2.66699 165 4 175 4v-76c0 -13.333 0.166992 -22.833 0.5 -28.5s1.5 -17.834 3.5 -36.501z" />
    <glyph glyph-name="adieresis" unicode="&#xe4;" horiz-adv-x="556" 
d="M551 26c-5.33301 -9.33301 -10.333 -34 -15 -74c-1.33301 -12.667 -3 -31.667 -5 -57h-29c0 36.667 -2.66699 68.334 -8 95.001c-13.333 3.33301 -33 5.83301 -59 7.5s-52 2.5 -78 2.5h-162c-36 0 -65 -2.66699 -87 -8c-8 -1.33301 -14.5 -3 -19.5 -5
s-7.83301 -5 -8.5 -9l-6 -83h-29c-1.33301 24.667 -2.66602 43.334 -3.99902 56.001c-4 39.333 -9.33301 64.333 -16 75c14 0 27.833 0.666992 41.5 2s22.167 3 25.5 5c18.667 13.333 36.667 48.333 54 105s33.333 131 48 223c1.33301 9.33301 2 16 2 20
c0 19.333 -6.83301 33.166 -20.5 41.499s-36.834 12.5 -69.501 12.5v29l123 -5h187c19.333 0 35 0.333008 47 1c48 2.66699 74 4 78 4v-30c-39.333 0 -63 -6.83301 -71 -20.5s-12 -46.834 -12 -99.501v-164c0 -43.333 2 -72.5 6 -87.5s15.333 -25.5 34 -31.5
c10.667 -2 18.667 -3.33301 24 -4s15 -1 29 -1zM374 100v270.999v19v16c-1.33301 6.66699 -2 11.334 -2 14.001c-14 2 -27.333 3 -40 3h-12h-28h-23c-7.33301 0 -16.333 -1 -27 -3c-12.667 -90 -26 -165.5 -40 -226.5s-31 -112.167 -51 -153.5h126h95
c0.666992 8.66699 1.16699 19.167 1.5 31.5s0.5 21.833 0.5 28.5z" />
    <glyph glyph-name="adieresis" unicode="&#x434;" horiz-adv-x="556" 
d="M551 26c-5.33301 -9.33301 -10.333 -34 -15 -74c-1.33301 -12.667 -3 -31.667 -5 -57h-29c0 36.667 -2.66699 68.334 -8 95.001c-13.333 3.33301 -33 5.83301 -59 7.5s-52 2.5 -78 2.5h-162c-36 0 -65 -2.66699 -87 -8c-8 -1.33301 -14.5 -3 -19.5 -5
s-7.83301 -5 -8.5 -9l-6 -83h-29c-1.33301 24.667 -2.66602 43.334 -3.99902 56.001c-4 39.333 -9.33301 64.333 -16 75c14 0 27.833 0.666992 41.5 2s22.167 3 25.5 5c18.667 13.333 36.667 48.333 54 105s33.333 131 48 223c1.33301 9.33301 2 16 2 20
c0 19.333 -6.83301 33.166 -20.5 41.499s-36.834 12.5 -69.501 12.5v29l123 -5h187c19.333 0 35 0.333008 47 1c48 2.66699 74 4 78 4v-30c-39.333 0 -63 -6.83301 -71 -20.5s-12 -46.834 -12 -99.501v-164c0 -43.333 2 -72.5 6 -87.5s15.333 -25.5 34 -31.5
c10.667 -2 18.667 -3.33301 24 -4s15 -1 29 -1zM374 100v270.999v19v16c-1.33301 6.66699 -2 11.334 -2 14.001c-14 2 -27.333 3 -40 3h-12h-28h-23c-7.33301 0 -16.333 -1 -27 -3c-12.667 -90 -26 -165.5 -40 -226.5s-31 -112.167 -51 -153.5h126h95
c0.666992 8.66699 1.16699 19.167 1.5 31.5s0.5 21.833 0.5 28.5z" />
    </font>
</defs>
</svg>
