<svg display="none" xmlns="http://www.w3.org/2000/svg">
		<symbol id="wifi-router">
			<path  d="M56.7098 41.9906V16.7847H52.9455V41.9906H11.299V16.7847H7.53467V41.9906H0V64.5916H64.2444V41.9906H56.7098ZM60.4801 60.8272H3.76432V45.7549H60.4801V60.8272Z"/><path  d="M11.3 49.5254H7.5332V53.2897H11.3V49.5254Z"/><path  d="M18.8342 49.5254H15.0674V53.2897H18.8342V49.5254Z"/><path  d="M26.3694 49.5254H22.6025V53.2897H26.3694V49.5254Z"/><path  d="M56.7107 53.2925H37.874V57.0568H56.7107V53.2925Z"/><path  d="M24.5195 21.2155L27.1813 23.8773C29.9057 21.153 34.3385 21.153 37.0629 23.8773L39.7247 21.2155C35.5327 17.0232 28.7115 17.0232 24.5195 21.2155Z"/><path  d="M18.25 14.9462L20.9118 17.608C27.093 11.4269 37.1503 11.4269 43.3316 17.608L45.9933 14.9462C38.3445 7.29723 25.8989 7.29723 18.25 14.9462Z"/><path  d="M32.1222 0.347168C24.506 0.347168 17.3531 3.30555 11.9814 8.67736L14.6432 11.3391C24.2811 1.70107 39.9633 1.70107 49.6012 11.3391L52.263 8.67736C46.8913 3.30555 39.7384 0.347168 32.1222 0.347168Z"/>
		</symbol>

		<symbol id="vr">
			<g clip-path="url(#clip0)"><path  d="M21.9141 20.2734H17.3992C16.5756 20.2734 15.8001 19.953 15.2153 19.3708L13.6463 17.8019C13.3444 17.4984 12.9274 17.3256 12.5 17.3256C12.0724 17.3256 11.6554 17.4984 11.356 17.7994L9.78584 19.3695C9.19991 19.953 8.42438 20.2734 7.60078 20.2734H3.0859C1.40858 20.2734 0 18.9177 0 17.1875V7.7734C0 6.05011 1.40228 4.6875 3.0859 4.6875H21.9141C23.5914 4.6875 25 6.04343 25 7.7734V17.1875C25 18.911 23.5977 20.2734 21.9141 20.2734ZM12.5 15.8607C13.3146 15.8607 14.11 16.1909 14.6824 16.7662L16.2502 18.3342C16.5571 18.6396 16.9655 18.8086 17.3992 18.8086H21.9141C22.7949 18.8086 23.5352 18.0956 23.5352 17.1875V7.7734C23.5352 6.86493 22.7943 6.15234 21.9141 6.15234H3.0859C2.20509 6.15234 1.46484 6.86531 1.46484 7.7734V17.1875C1.46484 18.0962 2.20566 18.8086 3.0859 18.8086H7.60078C8.03432 18.8086 8.44288 18.6396 8.75111 18.3327L10.3201 16.7639C10.89 16.1909 11.6854 15.8607 12.5 15.8607Z"/><path  d="M7.00826 15.5664C5.30672 15.5664 3.92236 14.1821 3.92236 12.4805C3.92236 10.779 5.30672 9.39445 7.00826 9.39445C8.71 9.39445 10.0944 10.779 10.0944 12.4805C10.0944 14.1821 8.71 15.5664 7.00826 15.5664ZM7.00826 10.8593C6.11448 10.8593 5.38721 11.5866 5.38721 12.4805C5.38721 13.3743 6.11448 14.1016 7.00826 14.1016C7.90224 14.1016 8.62951 13.3743 8.62951 12.4805C8.62951 11.5866 7.90224 10.8593 7.00826 10.8593Z"/><path  d="M17.9916 15.5664C16.2899 15.5664 14.9055 14.1821 14.9055 12.4805C14.9055 10.779 16.2899 9.39445 17.9916 9.39445C19.6932 9.39445 21.0775 10.779 21.0775 12.4805C21.0775 14.1821 19.6932 15.5664 17.9916 15.5664ZM17.9916 10.8593C17.0976 10.8593 16.3704 11.5866 16.3704 12.4805C16.3704 13.3743 17.0976 14.1016 17.9916 14.1016C18.8854 14.1016 19.6127 13.3743 19.6127 12.4805C19.6127 11.5866 18.8854 10.8593 17.9916 10.8593Z"/></g><defs ><clipPath id="clip0"><path fill="white" d="M0 0H25V25H0z"/></clipPath></defs>
		</symbol>

		<symbol id="tv-wifi">
			<path  d="M27.4291 4.26448C32.5653 4.26448 37.394 6.24949 41.0258 9.85394L44.0641 6.83863C39.6208 2.42862 33.713 0 27.4291 0C21.1453 0 15.2376 2.42862 10.7942 6.83863L13.8325 9.85394C17.4643 6.24949 22.2931 4.26448 27.4291 4.26448Z"/><path  d="M38.025 12.8317C35.1947 10.0228 31.4315 8.47571 27.4287 8.47571C23.426 8.47571 19.6629 10.0228 16.8325 12.8318L19.8708 15.8471C21.8896 13.8435 24.5738 12.7401 27.4287 12.7401C30.2838 12.7401 32.9678 13.8436 34.9866 15.8472L38.025 12.8317Z"/><path  d="M49.2579 7.71484L44.9999 11.9405H48.5547C49.7393 11.9405 50.7031 12.8971 50.7031 14.0728V39.6599C50.7031 40.8356 49.7393 41.7921 48.5547 41.7921H6.44531C5.26066 41.7921 4.29688 40.8356 4.29688 39.6599V14.0728C4.29688 12.8971 5.26066 11.9405 6.44531 11.9405H9.85821L5.61623 7.73073C2.45276 8.13596 0 10.8245 0 14.0728V39.6599C0 43.187 2.89137 46.0566 6.44531 46.0566H25.3516V50.3211H14.1797V54.5856H40.8203V50.3211H29.6484V46.0566H48.5547C52.1086 46.0566 55 43.187 55 39.6599V14.0728C55 10.7815 52.4821 8.06368 49.2579 7.71484Z"/><path  d="M22.8713 18.8249L25.9097 21.8405C26.3155 21.4377 26.855 21.2159 27.4288 21.2159C28.0028 21.2159 28.5423 21.4377 28.948 21.8403L31.9865 18.825C30.769 17.6168 29.1505 16.9514 27.4288 16.9514C25.7073 16.9514 24.0888 17.6168 22.8713 18.8249Z"/>
		</symbol>

		<symbol id="tel">
			<path  d="M12.5 0C12.0314 0 2.81904 0 2.5 0C1.1215 0 0 1.31426 0 2.92969V22.0703C0 23.6857 1.1215 25 2.5 25H12.5C13.8785 25 15 23.6857 15 22.0703V2.92969C15 1.31426 13.8785 0 12.5 0ZM13.3333 22.0703C13.3333 22.6088 12.9595 23.0469 12.5 23.0469H2.5C2.0405 23.0469 1.66667 22.6088 1.66667 22.0703V2.92969C1.66667 2.39121 2.0405 1.95312 2.5 1.95312H3.98454L4.15812 2.55757C4.27221 2.95498 4.59013 3.22266 4.94792 3.22266H10.0521C10.4099 3.22266 10.7278 2.95498 10.8419 2.55757L11.0155 1.95312H12.5C12.9595 1.95312 13.3333 2.39121 13.3333 2.92969V22.0703Z"/>
		</symbol>

		<symbol id="syringe">
			<path  d="M52.7214 13.6807L54.9999 11.4022L43.5977 0L41.3192 2.27851L43.6002 4.55997L37.5174 10.6431L33.7157 6.84142L31.4368 9.11993L33.7182 11.4014L15.4079 29.7117L15.0932 37.6282L0 52.7214L2.27851 54.9999L17.3717 39.9067L25.2882 39.592L43.5985 21.2817L45.88 23.5631L48.1585 21.2846L44.3568 17.4829L50.4399 11.3997L52.7214 13.6807ZM23.9009 36.4222L18.3574 36.6425L18.5777 31.0994L31.4359 18.2411L36.7592 23.5639L23.9009 36.4222ZM39.0377 21.2854L33.7145 15.9622L35.9967 13.6799L41.32 19.0031L39.0377 21.2854ZM42.0782 15.2039L39.796 12.9217L45.8791 6.83848L48.1614 9.12077L42.0782 15.2039Z"/>
		</symbol>

		<symbol id="stroke">
			<path  d="M27.5 0C12.2916 0 0 12.2879 0 27.5C0 42.7088 12.2883 55 27.5 55C42.7084 55 55 42.7121 55 27.5C55 12.2912 42.7117 0 27.5 0ZM3.22266 27.5C3.22266 21.3853 5.49592 15.7922 9.24043 11.5192L18.1877 20.4666L16.6178 22.7481C14.2828 25.397 12.998 28.797 12.998 32.334C12.998 40.3304 19.5036 46.8359 27.5 46.8359C32.148 46.8359 36.2918 44.6376 38.9475 41.2264L43.4808 45.7597C39.2077 49.5042 33.6147 51.7773 27.5 51.7773C14.1134 51.7773 3.22266 40.8866 3.22266 27.5ZM38.1957 35.9169L22.3628 20.084L27.5 12.618L35.8417 24.7412L35.9101 24.8176C37.7603 26.8861 38.7793 29.5555 38.7793 32.334C38.7793 33.586 38.5739 34.7907 38.1957 35.9169ZM36.647 38.9257C34.5964 41.763 31.2604 43.6133 27.5 43.6133C21.2806 43.6133 16.2207 38.5534 16.2207 32.334C16.2207 29.5555 17.2397 26.8861 19.0898 24.8176L19.1582 24.7412L20.505 22.7837L36.647 38.9257ZM45.7596 43.4808L40.6731 38.3944C41.5254 36.5492 42.002 34.4964 42.002 32.334C42.002 28.797 40.7172 25.397 38.3822 22.748L27.5 6.93279L20.0455 17.7666L11.5192 9.24032C15.7923 5.49581 21.3853 3.22266 27.5 3.22266C40.8866 3.22266 51.7773 14.1134 51.7773 27.5C51.7773 33.6147 49.5041 39.2078 45.7596 43.4808Z"/>
		</symbol>

		<symbol id="stethoscope">
			<g clip-path="url(#clip0)"><path  d="M55 15.123C55 10.341 51.1093 6.45035 46.3274 6.45035C41.5454 6.45035 37.6547 10.341 37.6547 15.123C37.6547 19.3544 40.7016 22.8851 44.716 23.6429V38.8317C44.716 45.9698 38.9085 51.7773 31.7704 51.7773C24.6323 51.7773 18.8248 45.9698 18.8248 38.8317V33.6948C27.5638 32.8795 34.427 25.5051 34.427 16.5572V0H27.9779V3.22266H31.2044V16.5572C31.2044 19.3317 30.3924 21.9204 28.9938 24.0977H5.4332C4.03461 21.9204 3.22266 19.3317 3.22266 16.5572V3.22266H6.44909V0H0V16.5572C0 25.5056 6.86367 32.8795 15.6022 33.6948V38.8317C15.6022 47.7469 22.8553 55 31.7704 55C40.6856 55 47.9387 47.7469 47.9387 38.8317V23.6429C51.9532 22.8851 55 19.3544 55 15.123ZM17.2135 30.5481C13.8222 30.5481 10.7095 29.335 8.28491 27.3204H26.1421C23.7176 29.335 20.6049 30.5481 17.2135 30.5481ZM46.3274 20.573C43.3225 20.573 40.8774 18.1279 40.8774 15.123C40.8774 12.1181 43.3225 9.67342 46.3274 9.67342C49.3327 9.67342 51.7773 12.1181 51.7773 15.123C51.7773 18.1279 49.3327 20.573 46.3274 20.573Z"/><path  d="M44.7148 13.5117H47.94V16.7343H44.7148V13.5117Z"/></g><defs ><clipPath id="clip0"><path fill="white" d="M0 0H55V55H0z"/></clipPath></defs>
		</symbol>

		<symbol id="stenocardia">
			<path  d="M55 16.0338C55 7.19275 47.8072 0 38.9662 0C36.4018 0 33.9508 0.587876 31.6815 1.74741C30.1367 2.53658 28.7177 3.58509 27.5 4.82923C26.2824 3.58509 24.8634 2.53669 23.3185 1.74741C21.0491 0.587876 18.5982 0 16.0338 0C7.19275 0 0 7.19275 0 16.0338C0 22.2956 3.30714 28.9464 9.82946 35.8013C15.2754 41.5249 21.9426 46.2959 26.5768 49.2904L27.5 49.887L28.4232 49.2904C29.4571 48.6224 30.486 47.9344 31.494 47.2373C33.7803 48.7085 36.4995 49.5627 39.4145 49.5627C47.5078 49.5627 54.0921 42.9784 54.0921 34.8851C54.0921 32.0032 53.2567 29.313 51.816 27.0429C53.9289 23.2737 55 19.5747 55 16.0338ZM27.5 45.8302C23.0895 42.9198 17.1611 38.5714 12.2941 33.4562C6.39372 27.2552 3.40206 21.3934 3.40206 16.0338C3.40206 9.06865 9.06865 3.40206 16.0338 3.40206C20.0438 3.40206 23.7273 5.24405 26.14 8.4556L27.5 10.2661L28.86 8.4556C31.2727 5.24405 34.9563 3.40206 38.9663 3.40206C45.9315 3.40206 51.5981 9.06865 51.5981 16.0338C51.5981 18.6282 50.8832 21.3686 49.4709 24.2044C46.842 21.7279 43.3027 20.2077 39.4146 20.2077C31.3213 20.2077 24.7371 26.792 24.7371 34.8853C24.7371 38.7921 26.2716 42.3469 28.7693 44.9797C28.3484 45.2653 27.9254 45.5495 27.5 45.8302ZM39.4145 46.1608C33.1971 46.1608 28.139 41.1026 28.139 34.8852C28.139 28.6678 33.1972 23.6096 39.4145 23.6096C45.6317 23.6096 50.69 28.6678 50.69 34.8852C50.69 41.1026 45.6319 46.1608 39.4145 46.1608Z"/><path  d="M41.1181 27.8979H37.716V33.1843H32.4297V36.5864H37.716V41.8726H41.1181V36.5864H46.4044V33.1843H41.1181V27.8979Z"/>
		</symbol>

		<symbol id="shower">
			<path  d="M28.7113 13.0744C28.0684 9.91974 25.578 7.42847 22.4229 6.78604V0H10.5993V6.78604C7.44425 7.42847 4.95341 9.91932 4.31097 13.0744H0.923828V22.7478H32.0984V13.0744H28.7113ZM19.2002 3.22266V6.62407H13.822V3.22266H19.2002ZM12.2107 9.84673H20.8116C22.9151 9.84673 24.7081 11.1962 25.3736 13.0744H7.64861C8.3137 11.1962 10.1071 9.84673 12.2107 9.84673ZM28.8758 19.5252H4.14648V16.2971H28.8758V19.5252Z"/><path  d="M5.22266 51.7773H8.44783V55H5.22266V51.7773Z"/><path  d="M11.6738 51.7773H14.899V55H11.6738V51.7773Z"/><path  d="M18.123 51.7773H21.3486V55H18.123V51.7773Z"/><path  d="M24.5742 51.7773H27.7994V55H24.5742V51.7773Z"/><path  d="M5.22266 45.3269H8.44783V48.5496H5.22266V45.3269Z"/><path  d="M11.6738 45.3269H14.899V48.5496H11.6738V45.3269Z"/><path  d="M18.123 45.3269H21.3486V48.5496H18.123V45.3269Z"/><path  d="M24.5742 45.3269H27.7994V48.5496H24.5742V45.3269Z"/><path  d="M5.22266 38.8762H8.44783V42.0989H5.22266V38.8762Z"/><path  d="M11.6738 38.8762H14.899V42.0989H11.6738V38.8762Z"/><path  d="M18.123 38.8762H21.3486V42.0989H18.123V38.8762Z"/><path  d="M24.5742 38.8762H27.7994V42.0989H24.5742V38.8762Z"/><path  d="M5.22266 32.4258H8.44783V35.6484H5.22266V32.4258Z"/><path  d="M11.6738 32.4258H14.899V35.6484H11.6738V32.4258Z"/><path  d="M18.123 32.4258H21.3486V35.6484H18.123V32.4258Z"/><path  d="M24.5742 32.4258H27.7994V35.6484H24.5742V32.4258Z"/><path  d="M5.22266 25.9756H8.44783V29.1982H5.22266V25.9756Z"/><path  d="M11.6738 25.9756H14.899V29.1982H11.6738V25.9756Z"/><path  d="M18.123 25.9756H21.3486V29.1982H18.123V25.9756Z"/><path  d="M24.5742 25.9756H27.7994V29.1982H24.5742V25.9756Z"/>
		</symbol>

		<symbol id="shield">
			<path  d="M42.0324 7.54349C35.7455 7.54349 29.7018 5.23617 25.0145 1.04672L23.8436 0L22.6728 1.04672C17.9855 5.23628 11.9417 7.54359 5.6548 7.54359H0V19.9327C0 27.107 2.03887 34.0968 5.89628 40.146C9.75369 46.1953 15.2308 50.9925 21.7356 54.0192L23.8436 55L25.9515 54.0192C32.4562 50.9925 37.9335 46.1954 41.7909 40.146C45.6483 34.0968 47.6871 27.107 47.6871 19.9327V7.54349H42.0324ZM44.4632 19.9326C44.4632 26.4917 42.5991 32.8819 39.0726 38.4126C35.546 43.9431 30.5385 48.329 24.5914 51.0962L23.8436 51.4441L23.0956 51.0961C17.1485 48.3289 12.1411 43.9431 8.61448 38.4124C5.08793 32.8818 3.22395 26.4916 3.22395 19.9325V10.7673H5.6549C12.3058 10.7673 18.7149 8.47483 23.8437 4.2857C28.9723 8.47462 35.3814 10.7673 42.0325 10.7673H44.4634V19.9326H44.4632Z"/><path  d="M28.7505 22.5956V17.0697H18.936V22.5956H13.4102V32.4101H18.936V37.936H28.7505V32.4102H34.2764V22.5957H28.7505V22.5956ZM31.0526 29.1864H25.5267V34.7123H22.1599V29.1864H16.634V25.8195H22.1599V20.2936H25.5267V25.8195H31.0526V29.1864Z"/>
		</symbol>

		<symbol id="robot-foot">
			<path  d="M17.7246 6.44531C15.0591 6.44531 12.8906 8.61383 12.8906 11.2793C12.8906 13.9447 15.0591 16.1133 17.7246 16.1133C20.3901 16.1133 22.5586 13.9447 22.5586 11.2793C22.5586 8.61383 20.3901 6.44531 17.7246 6.44531ZM17.7246 12.8906C16.8361 12.8906 16.1133 12.1678 16.1133 11.2793C16.1133 10.3908 16.8361 9.66796 17.7246 9.66796C18.6131 9.66796 19.3359 10.3908 19.3359 11.2793C19.3359 12.1678 18.6131 12.8906 17.7246 12.8906Z"/><path  d="M35.2659 44.9864L23.9013 41.4594V33.2089C23.9294 33.1143 23.9558 33.0191 23.9796 32.9225L28.6726 14.0021C28.8879 13.1294 29.0038 12.2177 29.0038 11.2793C29.0038 5.05988 23.944 0 17.7246 0C12.002 0 7.26149 4.28376 6.54048 9.81308C2.82068 10.5246 0 13.8006 0 17.7247V41.5723C0 46.0147 3.6142 49.6289 8.05663 49.6289H11.5478V55H39.4775V50.7031C39.4775 48.2304 37.6276 45.7193 35.2659 44.9864ZM17.7246 3.22276C22.167 3.22276 25.7812 6.83696 25.7812 11.2794C25.7812 15.7218 22.167 19.336 17.7246 19.336C13.2822 19.336 9.66795 15.7218 9.66795 11.2794C9.66795 6.83696 13.2823 3.22276 17.7246 3.22276ZM8.05663 46.4063C5.39117 46.4063 3.22265 44.2378 3.22265 41.5723V17.7247C3.22265 15.5682 4.64223 13.7376 6.5958 13.1168C6.645 13.4159 6.7059 13.711 6.7782 14.0017C6.77648 14.0021 11.4694 32.9225 11.4694 32.9225C11.4934 33.019 11.5197 33.1143 11.5477 33.2089V46.4063H8.05663ZM14.5975 32.1467L11.8013 20.8741C13.524 21.9414 15.5534 22.5587 17.7246 22.5587C19.8958 22.5587 21.9252 21.9414 23.6478 20.8741L20.8518 32.1467C20.8186 32.2804 20.7749 32.4089 20.7263 32.5347H20.6786V32.6576C20.1748 33.8174 19.0261 34.5899 17.7246 34.5899C16.4231 34.5899 15.2743 33.8174 14.7705 32.6574V32.5346H14.7229C14.6742 32.4089 14.6306 32.2803 14.5975 32.1467ZM20.6787 37.0981V41.0352H14.7705V37.098C15.6611 37.5564 16.6673 37.8125 17.7246 37.8125C18.7818 37.8125 19.7881 37.5564 20.6787 37.0981ZM36.255 51.7774H36.2549H14.7706V44.2578H22.0458L34.3108 48.0643C35.3284 48.38 36.255 49.6378 36.255 50.7031V51.7774Z"/>
		</symbol>

		<symbol id="refresh">
			<path  d="M0.688669 26.7507C0.383317 24.1043 0.637777 21.5495 1.32991 19.1881C3.63023 11.3406 10.8467 5.56942 19.4068 5.46764V0.337718C19.4068 0.0527224 19.763 -0.0999537 19.9971 0.0730793L30.5521 7.82903C30.7251 7.96135 30.7251 8.22598 30.5521 8.34812L20.0073 16.1041C19.763 16.2771 19.4169 16.1244 19.4169 15.8394V10.7197C13.7883 10.8113 8.98407 14.2821 6.91785 19.1881C6.13412 21.0406 5.73716 23.0865 5.84912 25.2341C6.0018 28.1858 7.11124 30.9035 8.86193 33.102C9.79834 34.2725 9.57442 35.9825 8.36319 36.868C7.21303 37.7128 5.60484 37.4787 4.71932 36.3591C2.55132 33.6516 1.10598 30.3538 0.688669 26.7507ZM31.1628 16.898C32.9237 19.0863 34.0331 21.8142 34.1756 24.7659C34.2876 26.9237 33.8805 28.9696 33.1069 30.8119C31.0407 35.7179 26.2365 39.1989 20.6078 39.2803V34.1606C20.6078 33.8756 20.2516 33.7229 20.0175 33.8959L9.46245 41.6519C9.28942 41.7842 9.28942 42.0488 9.46245 42.171L20.0073 49.9269C20.2516 50.0999 20.5976 49.9473 20.5976 49.6623V44.5324C29.1577 44.4408 36.3843 38.6696 38.6745 30.8119C39.3666 28.4505 39.6109 25.8957 39.3157 23.2493C38.9086 19.6462 37.4632 16.3484 35.2952 13.6409C34.3996 12.5213 32.8015 12.2872 31.6514 13.132C30.4503 14.0175 30.2264 15.7275 31.1628 16.898Z"/>
		</symbol>

		<symbol id="pregnancy">
			<path  d="M46.9232 8.07678C41.7149 2.8685 34.8169 0 27.5 0C20.1831 0 13.2851 2.8685 8.07678 8.07678C2.8685 13.2851 0 20.1831 0 27.5C0 34.8169 2.8685 41.7149 8.07678 46.9232C13.2851 52.1315 20.1831 55 27.5 55C34.8169 55 41.7149 52.1315 46.9232 46.9232C52.1315 41.7149 55 34.8169 55 27.5C55 20.1831 52.1315 13.2851 46.9232 8.07678ZM27.5 51.7773C14.1134 51.7773 3.22266 40.8866 3.22266 27.5C3.22266 23.3727 4.25911 19.4832 6.0836 16.0764L7.79732 17.3616C8.69362 18.0339 8.98064 19.2491 8.47961 20.2507C7.1104 22.9891 8.21819 26.3133 10.9566 27.6825L17.6029 31.0059C16.8258 31.3873 16.1024 31.8967 15.4696 32.5295C12.3283 35.6708 12.3283 40.7817 15.4696 43.9234L21.327 49.7804L28.7849 43.5659L27.2327 42.0137C27.2701 42.0141 27.3074 42.015 27.3443 42.015C28.257 42.015 29.1739 41.9281 30.0832 41.7527C32.9256 41.2055 35.5101 39.8342 37.5565 37.7873L38.8477 36.4966C42.7489 32.595 43.5642 26.5722 40.9592 21.8008C41.6444 20.5969 42.002 19.2445 42.002 17.832C42.002 13.3895 38.3878 9.77539 33.9453 9.77539C29.5028 9.77539 25.8887 13.3895 25.8887 17.832C25.8887 19.0846 26.1761 20.2717 26.6885 21.3304L24.4053 23.5997L17.8094 20.2633L14.5905 25.8962L12.398 24.8002C11.2554 24.2287 10.7909 22.8347 11.362 21.6921C12.56 19.2961 11.8739 16.3906 9.73133 14.7835L7.79732 13.3329C12.2092 7.21405 19.3968 3.22266 27.5 3.22266C40.8866 3.22266 51.7773 14.1134 51.7773 27.5C51.7773 40.8866 40.8866 51.7773 27.5 51.7773ZM29.1113 17.832C29.1113 15.1666 31.2799 12.998 33.9453 12.998C36.6107 12.998 38.7793 15.1666 38.7793 17.832C38.7793 19.693 37.8704 20.6586 37.0727 21.6938L37.7139 22.6555C40.1284 26.2772 39.6466 31.1402 36.5688 34.2176L35.278 35.5088C32.0893 38.6975 27.3846 39.6571 23.2153 37.9963L22.306 37.087L20.027 39.3655L24.0109 43.3489L21.5247 45.4206L17.7485 41.6444C15.8636 39.7595 15.8636 36.693 17.7485 34.808C19.1765 33.3801 21.3665 32.9903 23.1977 33.8379L23.2035 33.8257L26.2709 35.377L32.1863 29.4852L29.912 27.2017L25.6466 31.4499L17.4775 27.3397L19.0879 24.5216L25.0272 27.5256L28.6653 23.9093C30.0802 25.1405 31.9265 25.8887 33.9453 25.8887V22.666C31.2799 22.666 29.1113 20.4974 29.1113 17.832Z"/>
		</symbol>

		<symbol id="microwave">
			<path  d="M0.377441 0.866211V42.3038H4.14478V46.0726H7.9091V42.3038H57.0902V46.0726H60.8546V42.3038H64.6219V0.866211H0.377441ZM60.8576 38.5396H4.14176V4.63053H60.8576V38.5396Z"/><path  d="M49.5032 8.40088H45.7363V12.1652H49.5032V8.40088Z"/><path  d="M57.094 8.40088H53.3271V12.1652H57.094V8.40088Z"/><path  d="M49.5032 15.936H45.7363V19.7004H49.5032V15.936Z"/><path  d="M57.094 15.936H53.3271V19.7004H57.094V15.936Z"/><path  d="M49.5032 23.4707H45.7363V27.235H49.5032V23.4707Z"/><path  d="M57.094 23.4707H53.3271V27.235H57.094V23.4707Z"/><path  d="M57.0945 31.0044H45.7363V34.7687H57.0945V31.0044Z"/><path  d="M7.90625 8.39453V34.7688H41.9734V8.39453H7.90625ZM38.209 31.0046H11.6706V12.1589H38.209V31.0046Z"/>
		</symbol>

		<symbol id="mark">
			<path  d="M12.5 0C7.65371 0 3.71094 3.94277 3.71094 8.78906C3.71094 10.4265 4.1645 12.0244 5.0229 13.4107L11.9997 24.6538C12.1333 24.8691 12.3688 25 12.622 25C12.624 25 12.6259 25 12.6278 25C12.8833 24.998 13.1192 24.8631 13.2504 24.6439L20.0494 13.292C20.8604 11.935 21.2891 10.3779 21.2891 8.78906C21.2891 3.94277 17.3463 0 12.5 0ZM18.7923 12.5399L12.6109 22.8606L6.26792 12.639C5.55342 11.4851 5.16602 10.1538 5.16602 8.78906C5.16602 4.75049 8.46143 1.45508 12.5 1.45508C16.5386 1.45508 19.8291 4.75049 19.8291 8.78906C19.8291 10.1133 19.4672 11.4105 18.7923 12.5399Z"/><path  d="M12.5 4.39453C10.0769 4.39453 8.10547 6.36592 8.10547 8.78906C8.10547 11.1967 10.0448 13.1836 12.5 13.1836C14.9855 13.1836 16.8945 11.1703 16.8945 8.78906C16.8945 6.36592 14.9231 4.39453 12.5 4.39453ZM12.5 11.7285C10.8761 11.7285 9.56055 10.4085 9.56055 8.78906C9.56055 7.17363 10.8846 5.84961 12.5 5.84961C14.1154 5.84961 15.4346 7.17363 15.4346 8.78906C15.4346 10.3849 14.1496 11.7285 12.5 11.7285Z"/>
		</symbol>

		<symbol id="loupe" fill="none">
			<circle r="8.3805" transform="matrix(0.963498 -0.267716 0.267718 0.963497 11.5494 11.5494)" stroke="#9C9C9C" stroke-width="2"/>
			<path d="M18.0776 17.5242L22.8554 22.5435" stroke="#9C9C9C" stroke-width="2" stroke-linecap="round" stroke-linejoin="round"/>
		</symbol>

		<symbol id="kidney-disease">
			<path  d="M44.1662 28.0908H10.8329C6.85057 28.0908 3.61068 24.9912 3.61068 21.1813C3.61068 17.3715 6.85057 14.2719 10.8329 14.2719H17.4996V16.1542L25.1474 17.3736C27.0755 21.79 31.6368 24.9018 36.944 24.9018C43.4249 24.9018 48.7939 20.2618 49.6131 14.2719H53.0551V11.083H49.6131C48.7939 5.09316 43.4249 0.453125 36.944 0.453125C31.6368 0.453125 27.0755 3.56491 25.1474 7.9813L17.4996 9.20075V11.083H10.8329C5.01257 11.083 0.277344 15.6131 0.277344 21.1813C0.277344 26.7496 5.01257 31.2797 10.8329 31.2797H44.1662C48.1486 31.2797 51.3885 34.3793 51.3885 38.1891C51.3885 41.999 48.1486 45.0985 44.1662 45.0985H26.733C25.991 42.3508 23.378 40.3151 20.2773 40.3151H0.277344V53.0709H20.2773C23.378 53.0709 25.9911 51.0352 26.733 48.2875H44.1662C49.9866 48.2875 54.7218 43.7574 54.7218 38.1891C54.7218 32.6209 49.9866 28.0908 44.1662 28.0908ZM36.944 3.64208C42.1517 3.64208 46.3885 7.69535 46.3885 12.6775C46.3885 17.6596 42.1517 21.7128 36.944 21.7128C31.7364 21.7128 27.4996 17.6596 27.4996 12.6775C27.4996 7.69535 31.7364 3.64208 36.944 3.64208ZM20.8329 11.9022L24.2408 11.3588C24.192 11.7921 24.1662 12.232 24.1662 12.6775C24.1662 13.123 24.192 13.5628 24.2408 13.9961L20.8329 13.4527V11.9022ZM6.94401 49.882H3.61068V43.5041H6.94401V49.882ZM14.5076 49.882H10.2773V43.5041H14.5076C13.9383 44.443 13.6107 45.5317 13.6107 46.693C13.6107 47.8543 13.9383 48.943 14.5076 49.882ZM20.2773 49.882C18.4393 49.882 16.944 48.4514 16.944 46.693C16.944 44.9346 18.4393 43.5041 20.2773 43.5041C22.1153 43.5041 23.6107 44.9346 23.6107 46.693C23.6107 48.4514 22.1153 49.882 20.2773 49.882Z"/><path  d="M36.9431 18.5239C40.3128 18.5239 43.0543 15.9012 43.0543 12.6775C43.0543 9.45377 40.3128 6.83105 36.9431 6.83105C33.5735 6.83105 30.832 9.45377 30.832 12.6775C30.832 15.9012 33.5735 18.5239 36.9431 18.5239ZM36.9431 10.02C38.4748 10.02 39.7209 11.2122 39.7209 12.6775C39.7209 14.1428 38.4748 15.335 36.9431 15.335C35.4115 15.335 34.1654 14.1428 34.1654 12.6775C34.1654 11.2122 35.4115 10.02 36.9431 10.02Z"/>
		</symbol>

		<symbol id="hover">
			<path  d="M33.66 10.6856L27.5073 3.92419C26.2899 2.70673 24.3066 2.70512 23.0777 3.93401C22.6883 4.32344 22.4232 4.7898 22.2857 5.28731C21.0617 4.34967 19.2961 4.44294 18.1686 5.57042C17.7808 5.95985 17.5157 6.42622 17.3749 6.92204C16.151 5.9877 14.3853 6.07928 13.2595 7.20676C12.8782 7.58806 12.6164 8.04292 12.474 8.52731L9.57438 5.62765C8.35693 4.41019 6.37365 4.40858 5.14477 5.63746C3.9257 6.85492 3.9257 8.83819 5.14477 10.0573L16.2851 21.1976L9.67747 22.235C7.89217 22.4903 6.54547 24.0416 6.54547 25.8465C6.54547 27.1998 7.64672 28.3011 9.00002 28.3011H24.4293C26.8331 28.3011 29.0929 27.365 30.7931 25.6649L33.3671 23.0909C35.0656 21.394 36 19.1358 36 16.7352C36 14.4934 35.1687 12.3449 33.66 10.6856ZM32.2101 21.934L29.6362 24.5079C28.2453 25.8988 26.3962 26.6646 24.4292 26.6646H8.99994C8.54831 26.6646 8.18173 26.2981 8.18173 25.8464C8.18173 24.8515 8.92462 23.9957 9.92116 23.8533L18.1276 22.5639C18.4319 22.5164 18.6823 22.3021 18.7789 22.0091C18.8737 21.7179 18.7969 21.3955 18.5792 21.1779L6.30163 8.90032C5.72074 8.31944 5.72074 7.3736 6.30983 6.78289C6.60108 6.49326 6.98238 6.3476 7.36368 6.3476C7.74498 6.3476 8.1262 6.49326 8.41752 6.7845L16.6043 14.9713C16.9234 15.2904 17.4421 15.2904 17.7612 14.9713C17.9199 14.8109 18.0002 14.6015 18.0002 14.392C18.0002 14.1825 17.92 13.9731 17.7596 13.8127L14.4165 10.4696C13.8356 9.88874 13.8356 8.94451 14.4263 8.3538C15.0056 7.77453 15.9531 7.77453 16.5323 8.3538L19.877 11.6985C20.1961 12.0176 20.7149 12.0176 21.034 11.6985C21.1927 11.5381 21.2729 11.3287 21.2729 11.1192C21.2729 10.9098 21.1928 10.7004 21.0324 10.54L19.3256 8.83321C18.7447 8.25232 18.7447 7.30809 19.3354 6.71739C19.9147 6.13812 20.8622 6.13812 21.4414 6.71739L23.1563 8.43227C23.1596 8.43388 23.1579 8.43388 23.1579 8.43388L23.1595 8.43549C23.1611 8.4371 23.1611 8.43711 23.1611 8.43711C23.1628 8.43872 23.1628 8.43872 23.1628 8.43872H23.1644C23.166 8.43872 23.166 8.44033 23.166 8.44033C23.4867 8.74469 23.994 8.73817 24.3065 8.42399C24.6256 8.1049 24.6256 7.58614 24.3065 7.26705L24.2362 7.19671C23.9547 6.91529 23.7993 6.54051 23.7993 6.14287C23.7993 5.74523 23.953 5.37214 24.2444 5.0809C24.8269 4.50162 25.7695 4.50323 26.3242 5.05305L32.4508 11.7867C33.6829 13.1434 34.3636 14.9008 34.3636 16.7352C34.3636 18.6989 33.5994 20.5447 32.2101 21.934Z"/><path  d="M14.0662 4.82375C12.8749 2.18757 10.2437 0.482422 7.36364 0.482422C3.30382 0.482422 0 3.78624 0 7.84606C0 10.7261 1.70507 13.3574 4.34125 14.5503C4.45086 14.5994 4.56546 14.6223 4.67837 14.6223C4.98925 14.6223 5.28709 14.4423 5.42455 14.1412C5.60948 13.7288 5.42616 13.2445 5.01548 13.0579C2.96348 12.1301 1.63642 10.0846 1.63642 7.84606C1.63642 4.68791 4.20548 2.11876 7.36372 2.11876C9.60227 2.11876 11.6477 3.44583 12.5756 5.49783C12.7605 5.91019 13.2465 6.09513 13.6572 5.9069C14.0695 5.72043 14.2527 5.23611 14.0662 4.82375Z"/>
		</symbol>

		<symbol id="hot-water">
			<path  d="M55 20.757H0V23.9796H3.22517V31.3997C3.22517 38.4795 8.98483 44.2391 16.0646 44.2391H38.9354C46.0147 44.2391 51.7748 38.4795 51.7748 31.3997V23.9796H55V20.757ZM48.5522 31.3997C48.5522 36.7024 44.2381 41.0165 38.9354 41.0165H16.0646C10.7619 41.0165 6.44783 36.7024 6.44783 31.3997V23.9796H48.5522V31.3997Z"/><path  d="M16.4297 17.5305H19.6523C19.6523 16.5817 19.8865 16.1995 20.2742 15.5663C20.7626 14.7686 21.3711 13.7757 21.3711 11.9185C21.3711 10.0613 20.7631 9.06849 20.2742 8.2708C19.8865 7.6376 19.6523 7.25491 19.6523 6.30615C19.6523 5.35698 19.8865 4.97471 20.2742 4.34109C20.7631 3.5434 21.3711 2.55058 21.3711 0.693359H18.1484C18.1484 1.64211 17.9143 2.0248 17.5261 2.658C17.0377 3.4557 16.4297 4.44851 16.4297 6.30615C16.4297 8.16338 17.0377 9.15619 17.5261 9.95388C17.9139 10.5871 18.1484 10.9698 18.1484 11.9185C18.1484 12.8673 17.9143 13.2495 17.5261 13.8828C17.0377 14.6809 16.4297 15.6733 16.4297 17.5305Z"/><path  d="M25.0312 17.5305H28.2539C28.2539 16.5817 28.4881 16.1995 28.8758 15.5663C29.3646 14.7686 29.9727 13.7757 29.9727 11.9185C29.9727 10.0613 29.3646 9.06849 28.8762 8.2708C28.4881 7.6376 28.2539 7.25491 28.2539 6.30615C28.2539 5.35698 28.4881 4.97471 28.8762 4.34109C29.3646 3.54382 29.9727 2.551 29.9727 0.693359H26.75C26.75 1.64253 26.5159 2.0248 26.1277 2.658C25.6393 3.45612 25.0312 4.44893 25.0312 6.30615C25.0312 8.16338 25.6393 9.15619 26.1277 9.95388C26.5159 10.5875 26.75 10.9698 26.75 11.9185C26.75 12.8673 26.5159 13.2495 26.1281 13.8832C25.6393 14.6809 25.0312 15.6733 25.0312 17.5305Z"/><path  d="M33.6289 17.5305H36.8516C36.8516 16.5817 37.0857 16.1995 37.4739 15.5663C37.9623 14.7686 38.5703 13.7757 38.5703 11.9185C38.5703 10.0613 37.9623 9.06849 37.4739 8.2708C37.0861 7.6376 36.8516 7.25491 36.8516 6.30615C36.8516 5.35698 37.0857 4.97471 37.4739 4.34109C37.9623 3.5434 38.5703 2.55058 38.5703 0.693359H35.3477C35.3477 1.64211 35.1135 2.0248 34.7258 2.658C34.2369 3.4557 33.6289 4.44851 33.6289 6.30615C33.6289 8.16338 34.2369 9.15619 34.7258 9.95388C35.1135 10.5871 35.3477 10.9698 35.3477 11.9185C35.3477 12.8673 35.1135 13.2495 34.7258 13.8828C34.2374 14.6809 33.6289 15.6733 33.6289 17.5305Z"/>
		</symbol>

		<symbol id="hopper">
			<path  stroke="#9C9C9C" d="M29.9132 1.69537C29.7632 1.37701 29.4428 1.17395 29.0908 1.17395H0.90929C0.557355 1.17395 0.237061 1.37701 0.0868545 1.69537C-0.0632304 2.01372 -0.0161924 2.39003 0.207723 2.66158L11.0411 15.8012V27.9171C11.0411 28.2317 11.2037 28.5238 11.4709 28.6897C11.6173 28.7805 11.7835 28.8263 11.9503 28.8263C12.0882 28.8263 12.2265 28.7949 12.354 28.7317L18.4408 25.7149C18.7501 25.5616 18.9458 25.2466 18.9463 24.9014L18.9581 15.8015L29.7921 2.66146C30.0162 2.39003 30.0633 2.0136 29.9132 1.69537ZM17.3479 14.8962C17.214 15.0586 17.1405 15.2627 17.1403 15.4734L17.1286 24.3358L12.8597 26.4516V15.4746C12.8597 15.2635 12.7864 15.059 12.652 14.8962L2.83736 2.9923H27.1626L17.3479 14.8962Z"/>
		</symbol>

		<symbol id="home-tel">
			<path  d="M26.4697 4.51001V0.742676H7.43328V4.50988H0V56.1965H64.2444V4.51001H26.4697ZM11.1976 4.507H22.7054V44.8977H11.1976V4.507ZM30.2401 52.4322H3.76432V8.27433H7.43328V48.662H26.4697V8.27433H30.2401V52.4322ZM60.4801 52.4322H34.0044V8.27433H60.4801V52.4322Z"/><path  d="M37.001 12.0381V26.0573H55.9481V12.0381H37.001ZM52.1837 22.293H40.7653V15.8022H52.1837V22.293Z"/><path  d="M40.7668 44.897H37V48.6613H40.7668V44.897Z"/><path  d="M48.3586 44.897H44.5918V48.6613H48.3586V44.897Z"/><path  d="M55.9495 44.897H52.1826V48.6613H55.9495V44.897Z"/><path  d="M40.7668 37.3633H37V41.1276H40.7668V37.3633Z"/><path  d="M48.3586 37.3633H44.5918V41.1276H48.3586V37.3633Z"/><path  d="M55.9495 37.3633H52.1826V41.1276H55.9495V37.3633Z"/><path  d="M40.7668 29.8281H37V33.5924H40.7668V29.8281Z"/><path  d="M48.3586 29.8281H44.5918V33.5924H48.3586V29.8281Z"/><path  d="M55.9495 29.8281H52.1826V33.5924H55.9495V29.8281Z"/>
		</symbol>

		<symbol id="help-hands">
			<path  d="M50.166 6.01562C47.5006 6.01562 45.332 8.18415 45.332 10.8496V23.158C43.6313 22.5597 41.6602 22.9391 40.3026 24.2968L28.2439 36.3553C27.9737 36.6256 27.7261 36.9126 27.5 37.2128C27.2738 36.9125 27.0263 36.6256 26.7559 36.3552L14.6975 24.2968C13.3398 22.9391 11.3688 22.5597 9.66797 23.158V10.8496C9.66797 8.18415 7.49944 6.01562 4.83398 6.01562C2.16853 6.01562 0 8.18415 0 10.8496V31.4964L9.66797 47.3949V55H45.332V47.3949L55 31.4964V10.8496C55 8.18415 52.8315 6.01562 50.166 6.01562ZM3.22266 30.5934V10.8496C3.22266 9.96112 3.9455 9.23828 4.83398 9.23828C5.72247 9.23828 6.44531 9.96112 6.44531 10.8496V27.7686C6.46229 28.9884 6.93247 30.2042 7.86113 31.1329L19.9148 43.1867L22.1936 40.908L10.14 28.8542C9.51178 28.2258 9.51178 27.2037 10.14 26.5754C10.7683 25.9472 11.7905 25.9472 12.4188 26.5754L24.4771 38.6337C25.3873 39.5444 25.8887 40.7596 25.8887 42.0557V51.7773H12.8906V46.4919L3.22266 30.5934ZM51.7773 30.5934L42.1094 46.4919V51.7773H29.1113V42.0557C29.1113 40.7596 29.6127 39.5444 30.5229 38.6338L42.5814 26.5754C42.8857 26.2711 43.2904 26.1034 43.7207 26.1034C44.151 26.1034 44.5557 26.2711 44.86 26.5754C45.1643 26.8797 45.332 27.2844 45.332 27.7148C45.332 28.1453 45.1643 28.5498 44.86 28.8542L32.8059 40.9085L35.0846 43.1872L47.1389 31.1329C48.0393 30.2326 48.5396 29.0396 48.5534 27.7686C48.5547 27.7686 48.5547 10.8496 48.5547 10.8496C48.5547 9.96112 49.2775 9.23828 50.166 9.23828C51.0545 9.23828 51.7773 9.96112 51.7773 10.8496V30.5934Z"/><path  d="M21.0527 26.8555H33.9434V19.873H40.9258V6.98242H33.9434V0H21.0527V6.98242H14.0703V19.873H21.0527V26.8555ZM17.293 16.6504V10.2051H24.2754V3.22266H30.7207V10.2051H37.7031V16.6504H30.7207V23.6328H24.2754V16.6504H17.293Z"/>
		</symbol>

		<symbol id="heartbeat">
			<path  d="M61.8777 16.7601C61.4512 7.72384 54.4788 0.0703807 45.5852 0.000486099C40.4262 -0.0396561 35.9373 2.40713 32.615 7.07684C31.9543 8.00484 31.4032 8.93283 30.9503 9.79423C30.4974 8.93283 29.9462 8.00484 29.2855 7.07684C25.9901 2.44491 21.5508 1.38377e-05 16.441 1.38377e-05C16.3994 1.38377e-05 16.3574 1.38377e-05 16.3154 0.000486099C7.42363 0.0699085 0.449282 7.72148 0.0228306 16.7601C-0.513658 28.1454 8.45127 35.7695 22.0212 47.3106C24.4883 49.4089 27.0395 51.5785 29.7564 53.9554L30.9503 55L32.1446 53.9554C34.861 51.5785 37.4122 49.4089 39.8793 47.3106C53.4497 35.7695 62.4146 28.1454 61.8777 16.7601ZM37.5298 44.5474C35.4164 46.3444 33.2421 48.1938 30.9503 50.1848C28.6584 48.1938 26.4841 46.3444 24.3712 44.5474C17.2783 38.5153 11.6471 33.7308 8.0149 29.0153H17.7496L20.2243 21.5913L27.1396 38.8789L32.0714 29.0153H53.8856C50.2501 33.7355 44.6062 38.5294 37.5298 44.5474ZM56.263 25.3883H29.8296L27.5075 30.033L19.9145 11.0509L15.1352 25.3883H5.63754C4.1367 22.5769 3.50812 19.8487 3.64602 16.931C3.99549 9.5241 9.57289 3.68034 16.3437 3.62698H16.4419C20.3513 3.62698 23.6581 5.46691 26.2716 9.09718C28.349 11.9827 29.193 14.956 29.2024 14.9905L30.9503 21.3637L32.699 14.9872C32.7302 14.8734 35.9255 3.62698 45.4614 3.62698C45.4931 3.62698 45.5252 3.62698 45.5568 3.62745C52.3276 3.68034 57.9055 9.5241 58.2545 16.931C58.3924 19.8487 57.7638 22.5769 56.263 25.3883Z"/>
		</symbol>

		<symbol id="hairdryer">
			<path  d="M52.5257 3.2231C52.4576 3.23355 45.6523 4.26449 41.0359 4.26449C39.2036 4.26449 36.2204 3.55883 32.7662 2.74164C27.6026 1.52019 21.1762 0 14.9326 0C6.69927 0 0.000976562 6.64781 0.000976562 14.819C0.000976562 19.418 2.12288 23.5343 5.44619 26.2546C5.60077 26.6203 5.78887 26.9713 6.01102 27.3043C6.93108 29.1728 10.8507 38.8844 10.8507 48.1888C10.8507 51.7159 13.7421 54.5855 17.296 54.5855C20.85 54.5855 23.7413 51.7159 23.7413 48.1888C23.7413 44.5532 23.2986 40.9742 22.6781 37.7405H24.8155V33.4761H21.7218C21.3713 32.1074 21.0079 30.8494 20.661 29.7352C20.6138 29.5837 20.5656 29.4326 20.5175 29.2813C24.8894 28.7589 29.1395 27.7543 32.7663 26.8964C36.2205 26.0792 39.2037 25.3735 41.036 25.3735C45.6461 25.3735 52.4576 26.4045 52.5258 26.4149L55.0008 26.7925V2.84527L52.5257 3.2231ZM11.1729 24.6917C7.15903 23.181 4.29785 19.3257 4.29785 14.8191C4.29785 10.3124 7.15893 6.45708 11.1729 4.94649V24.6917ZM17.296 50.321C16.1114 50.321 15.1476 49.3645 15.1476 48.1888C15.1476 41.0068 13.0569 33.6951 11.4297 29.2251C12.5538 29.4943 13.7266 29.638 14.9327 29.638C15.3254 29.638 15.7187 29.6319 16.1124 29.6204C16.2638 30.0751 16.4124 30.5341 16.5557 30.9944C17.8735 35.2267 19.4444 41.6452 19.4444 48.1888C19.4443 49.3645 18.4807 50.321 17.296 50.321ZM38.0282 21.4007C36.1967 21.7012 34.0815 22.2014 31.7699 22.7482C26.979 23.8815 21.0532 25.2833 15.4697 25.3695V4.26865C21.0532 4.35479 26.9791 5.75664 31.7699 6.88993C34.0815 7.43674 36.1967 7.93686 38.0282 8.23719V21.4007ZM50.7039 21.8596C48.5128 21.5813 45.2264 21.2207 42.325 21.1305V8.50766C45.2264 8.41747 48.5128 8.0568 50.7039 7.77854V21.8596Z"/>
		</symbol>

		<symbol id="gastrointestinal">
			<path  d="M54.7893 41.5456C54.365 39.9577 53.3483 38.6305 51.9262 37.808C49.4727 36.3885 46.4368 36.8597 44.5141 38.766L36.0365 33.8624C36.3831 32.9035 36.5728 31.8704 36.5728 30.7937C36.5728 26.3491 33.3539 22.6451 29.1258 21.8827V12.0875C31.7392 11.3775 33.6669 8.98613 33.6669 6.15119C33.6669 2.75941 30.9075 0 27.5157 0C24.1236 0 21.3641 2.75941 21.3641 6.15119C21.3641 8.98613 23.2919 11.3775 25.9053 12.0875V21.8827C21.6768 22.6451 18.4583 26.3491 18.4583 30.7937C18.4583 31.8625 18.6459 32.888 18.987 33.8405L10.4985 38.7228C9.747 37.9709 8.81 37.4241 7.75633 37.14C6.16976 36.712 4.51184 36.9273 3.08724 37.7468C1.66305 38.5659 0.642962 39.8906 0.214951 41.4768C-0.21306 43.0633 0.00262436 44.7213 0.82172 46.1459C1.64081 47.57 2.96597 48.5901 4.55213 49.0181C5.08546 49.1621 5.62635 49.233 6.16388 49.233C7.22636 49.233 8.2754 48.9552 9.2208 48.4114C10.6454 47.5923 11.6655 46.2675 12.0935 44.681C12.3776 43.6273 12.3763 42.5422 12.1044 41.5149L20.5975 36.6302C22.26 38.5978 24.7437 39.8507 27.5157 39.8507C30.2794 39.8507 32.7564 38.6049 34.4189 36.6474L42.8998 41.5531C42.6254 42.5799 42.6216 43.6651 42.9032 44.7196C43.327 46.307 44.3437 47.6347 45.7662 48.4571C46.7334 49.0169 47.7913 49.2825 48.8357 49.2825C50.9615 49.2825 53.0319 48.181 54.1707 46.2126C54.9936 44.7905 55.2131 43.133 54.7893 41.5456ZM8.9833 43.8422C8.77936 44.5979 8.29345 45.229 7.61492 45.6192C6.9364 46.0099 6.14668 46.1127 5.39094 45.9084C4.63479 45.7048 4.00369 45.2185 3.61344 44.54C3.2232 43.8615 3.12081 43.0713 3.32474 42.316C3.52826 41.5603 4.01418 40.9287 4.69312 40.5385C5.14379 40.2796 5.64314 40.1474 6.1492 40.1474C6.40558 40.1474 6.66323 40.181 6.9171 40.2498C7.67283 40.4533 8.30394 40.9392 8.69418 41.6182C9.08443 42.2967 9.18723 43.0864 8.9833 43.8422ZM24.5847 6.15119C24.5847 4.53524 25.8994 3.22057 27.5153 3.22057C29.1313 3.22057 30.4459 4.53524 30.4459 6.15119C30.4459 7.76714 29.1313 9.0818 27.5153 9.0818C25.8994 9.0818 24.5847 7.76714 24.5847 6.15119ZM27.5153 36.6298C24.2973 36.6298 21.6789 34.0118 21.6789 30.7937C21.6789 27.5752 24.2973 24.9572 27.5153 24.9572C30.7334 24.9572 33.3518 27.5752 33.3518 30.7937C33.3518 34.0118 30.7338 36.6298 27.5153 36.6298ZM51.3828 44.6C50.5738 45.9986 48.7774 46.4786 47.3788 45.6692C46.7011 45.2772 46.2169 44.6449 46.0146 43.8887C45.8128 43.1326 45.9173 42.3429 46.3092 41.6652C46.8518 40.7273 47.8383 40.2028 48.8508 40.2028C49.3485 40.2028 49.8529 40.3291 50.3136 40.596C50.9909 40.9879 51.4755 41.6203 51.6774 42.3764C51.8792 43.1326 51.7747 43.9223 51.3828 44.6Z"/>
		</symbol>

		<symbol id="flabby">
			<path  d="M49.5954 21.2573C49.5023 20.1194 48.9499 19.0501 48.0794 18.3218L36.1011 8.12839C33.8047 6.17406 30.8797 5.09791 27.8643 5.09791H16.6673C15.6011 5.09791 14.585 4.6968 13.8062 3.9687L9.56194 0L7.35023 2.3651L11.5945 6.3338C12.9753 7.6249 14.7767 8.33603 16.6672 8.33603H27.8642C30.1113 8.33603 32.2912 9.13815 34.0024 10.5945L45.9863 20.7928L45.9997 20.8039C46.2108 20.9798 46.345 21.2414 46.368 21.5217C46.3801 21.6689 46.3692 21.952 46.1608 22.193C45.8263 22.5798 45.2345 22.628 44.841 22.3005L37.3919 16.0982C35.6672 14.6622 33.4814 13.8714 31.237 13.8714H22.4294C20.2141 13.8714 18.4117 15.6737 18.4117 17.8892C18.4117 20.1046 20.214 21.9069 22.4294 21.9069H30.8844C31.3143 21.9069 31.6642 22.2566 31.6642 22.6867C31.6642 23.1165 31.3145 23.4664 30.8844 23.4664H16.8478C14.7415 23.4664 12.7814 22.3318 11.7325 20.5052L10.6577 18.6335C9.83984 17.2094 8.82513 15.9098 7.64199 14.771L3.24565 10.5396L1 12.8723L5.39645 17.1038C6.35905 18.0301 7.18437 19.0873 7.84974 20.2459L8.9245 22.1175C10.5491 24.9467 13.5852 26.7042 16.8477 26.7042H30.8845C33.0998 26.7042 34.9023 24.9019 34.9023 22.6864C34.9023 20.4711 33.1 18.6687 30.8845 18.6687H22.4295C21.9996 18.6687 21.6498 18.3191 21.6498 17.8889C21.6498 17.4588 21.9994 17.1092 22.4295 17.1092H31.2372C32.726 17.1092 34.176 17.6337 35.3201 18.5863L42.7693 24.7886C44.5093 26.2373 47.1294 26.0229 48.6101 24.3109C49.3378 23.4696 49.6878 22.3851 49.5954 21.2573Z"/><path  d="M24.0322 32.6562C14.7604 35.1757 6.45024 38.8783 0 43.3637L1.84862 46.0223C7.9983 41.7458 15.9628 38.2045 24.8813 35.781C34.2821 33.2265 44.4154 31.9312 55.0001 31.9312V28.6932C44.1286 28.6932 33.7097 30.0267 24.0322 32.6562Z"/>
		</symbol>

		<symbol id="envelope">
			<path  fill="#A8A9AD" d="M17.8674 6.70303L12.5002 9.83399L7.13286 6.70308C6.66699 6.4314 6.06904 6.58863 5.79726 7.05455C5.52548 7.52041 5.68286 8.11836 6.14873 8.39014L12.0081 11.8081C12.3121 11.9854 12.6881 11.9855 12.9922 11.8081L18.8516 8.39009C19.3174 8.11836 19.4748 7.52037 19.203 7.0545C18.9313 6.58858 18.3332 6.43126 17.8674 6.70303Z"/><path  fill="#A8A9AD" d="M22.0703 0.710938H2.92969C1.31426 0.710938 0 2.0252 0 3.64063V15.3594C0 16.9748 1.31426 18.2891 2.92969 18.2891H22.0703C23.6857 18.2891 25 16.9748 25 15.3594V3.64063C25 2.0252 23.6857 0.710938 22.0703 0.710938ZM23.0469 15.3594C23.0469 15.8979 22.6088 16.3359 22.0703 16.3359H2.92969C2.39121 16.3359 1.95312 15.8979 1.95312 15.3594V3.64063C1.95312 3.10215 2.39121 2.66406 2.92969 2.66406H22.0703C22.6088 2.66406 23.0469 3.10215 23.0469 3.64063V15.3594Z"/>
		</symbol>

		<symbol id="dumbbell">
			<path  d="M56.7158 8.2749V0.740234H37.8821V12.8641H26.3622V0.740234H7.52865V8.2749H0V28.7522H7.52865V36.2869H26.3623V24.163H37.8823V36.2869H56.7158V28.7522H64.2444V8.2749H56.7158ZM7.52865 24.9879H3.76432V12.0392H7.52865V24.9879ZM15.0633 32.5225H11.293V4.50456H15.0633V32.5225ZM22.598 32.5227H18.8276V4.50456H22.598V32.5227ZM37.8823 20.3988H26.3623V16.6284H37.8823V20.3988ZM45.4168 32.5225H41.6465V4.50456H45.4168V32.5225ZM52.9515 32.5227H49.1811V4.50456H52.9515V32.5227ZM60.4801 24.988H56.7158V12.0392H60.4801V24.988Z"/>
		</symbol>

		<symbol id="dropper">
			<path  d="M38.418 25.391V20.016H35.1953V25.391C33.0185 26.0473 31.4355 27.9964 31.4355 30.2929C31.4355 32.5894 33.0185 34.5385 35.1953 35.1948V41.1864C35.1953 46.0031 31.0992 49.9218 26.0645 49.9218C21.3563 49.9218 17.4697 46.4948 16.9853 42.1114H20.1562V35.9452H29.8242V7.58092H21.2305V6.03939C21.2305 2.92271 18.58 0.387085 15.3223 0.387085C12.0645 0.387085 9.41406 2.92271 9.41406 6.03939V7.58092H0.820312V35.9452H10.4883V42.1114H13.7486C14.2434 48.1974 19.5781 53.0049 26.0645 53.0049C32.8762 53.0049 38.418 47.7031 38.418 41.1864V35.1948C40.5948 34.5385 42.1777 32.5894 42.1777 30.2929C42.1777 27.9964 40.5948 26.0473 38.418 25.391ZM12.6367 6.03939C12.6367 4.62271 13.8415 3.47016 15.3223 3.47016C16.8031 3.47016 18.0078 4.62271 18.0078 6.03939V7.58092H12.6367V6.03939ZM4.04297 10.664H26.6016V25.8499C23.7907 28.493 19.2546 28.4807 16.461 25.8109C13.1029 22.6015 8.00533 22.0472 4.04297 24.1427V10.664ZM4.04297 32.8621V27.9532C6.85388 25.31 11.39 25.3224 14.1835 27.9921C16.2152 29.9338 18.8839 30.9047 21.5527 30.9047C23.2952 30.9047 25.0364 30.488 26.6016 29.6603V32.8621H4.04297ZM16.9336 39.0283H13.7109V35.9452H16.9336V39.0283ZM36.8066 32.3483C35.622 32.3483 34.6582 31.4262 34.6582 30.2929C34.6582 29.1596 35.622 28.2375 36.8066 28.2375C37.9913 28.2375 38.9551 29.1596 38.9551 30.2929C38.9551 31.4262 37.9913 32.3483 36.8066 32.3483Z"/>
		</symbol>

		<symbol id="doctor">
			<path  d="M44.3652 50.321H35.7715V54.5855H44.3652V50.321Z"/><path  d="M46.9455 35.2865C43.9503 32.314 40.3851 30.1134 36.4954 28.7813C40.6614 25.9336 43.3984 21.1677 43.3984 15.7786C43.3984 15.0257 43.3451 14.2782 43.2393 13.5398H43.3984V0H11.6016V13.5398H11.7607C11.6548 14.2782 11.6016 15.0257 11.6016 15.7786C11.6016 21.1677 14.3386 25.9336 18.5047 28.7814C14.615 30.1134 11.0498 32.314 8.0546 35.2867C2.86054 40.4416 0 47.2954 0 54.5855H4.29688C4.29688 46.3769 8.64768 39.1589 15.1801 35.0803L25.3516 46.7864V54.5855H29.6484V46.7894L39.8531 35.1008C46.3669 39.1831 50.7031 46.3908 50.7031 54.5855H55C55 47.2954 52.1395 40.4416 46.9455 35.2865ZM15.8984 4.26449H39.1016V9.27527H15.8984V4.26449ZM15.8984 15.7786C15.8984 15.0218 15.973 14.2732 16.1184 13.5398H38.8815C39.0269 14.2732 39.1015 15.0218 39.1015 15.7786C39.1015 22.1275 33.8971 27.2928 27.4999 27.2928C21.1027 27.2928 15.8984 22.1275 15.8984 15.7786ZM27.504 42.7335L19.1379 33.1052C21.7336 32.1064 24.5532 31.5572 27.5 31.5572C30.4603 31.5572 33.2925 32.1113 35.898 33.1188L27.504 42.7335Z"/>
		</symbol>

		<symbol id="diabetes">
			<path  d="M46.9455 8.05449C41.7513 2.86054 34.8455 0 27.5 0C20.1545 0 13.2487 2.86054 8.05449 8.05449C2.86054 13.2487 0 20.1545 0 27.5C0 34.8455 2.86054 41.7513 8.05449 46.9455C13.2487 52.1395 20.1545 55 27.5 55C34.8455 55 41.7513 52.1395 46.9455 46.9455C52.1395 41.7513 55 34.8455 55 27.5C55 20.1545 52.1395 13.2487 46.9455 8.05449ZM44.6667 44.6667C40.0812 49.2521 33.9847 51.7773 27.5 51.7773C21.0153 51.7773 14.9187 49.2521 10.3333 44.6667C5.74793 40.0812 3.22266 33.9847 3.22266 27.5C3.22266 21.0153 5.74793 14.9187 10.3333 10.3333C14.9187 5.74793 21.0153 3.22266 27.5 3.22266C33.9847 3.22266 40.0812 5.74793 44.6667 10.3333C49.2521 14.9187 51.7773 21.0153 51.7773 27.5C51.7773 33.9847 49.2521 40.0812 44.6667 44.6667Z"/><path  d="M29.1133 8.59375H25.8906V15.0391H29.1133V8.59375Z"/><path  d="M16.6524 11.9331L19.875 17.5146L22.6657 15.9034L19.4431 10.3218L16.6524 11.9331Z"/><path  d="M10.3208 19.443L15.9023 22.6655L17.5137 19.8748L11.9321 16.6523L10.3208 19.443Z"/><path  d="M15.0391 25.8887H8.59375V29.1113H15.0391V25.8887Z"/><path  d="M46.4062 25.8887H39.9609V29.1113H46.4062V25.8887Z"/><path  d="M43.0659 16.6513L37.4844 19.874L39.0956 22.6648L44.6771 19.4421L43.0659 16.6513Z"/><path  d="M35.5585 10.3222L32.3359 15.9038L35.1267 17.5151L38.3492 11.9335L35.5585 10.3222Z"/><path  d="M29.1094 33.6854V20.5176H25.8867V33.6854C24.0112 34.3505 22.6641 36.1416 22.6641 38.2422C22.6641 40.9076 24.8326 43.0762 27.498 43.0762C30.1635 43.0762 32.332 40.9076 32.332 38.2422C32.332 36.1416 30.9849 34.3505 29.1094 33.6854ZM27.498 39.8535C26.6096 39.8535 25.8867 39.1307 25.8867 38.2422C25.8867 37.3537 26.6096 36.6309 27.498 36.6309C28.3865 36.6309 29.1094 37.3537 29.1094 38.2422C29.1094 39.1307 28.3865 39.8535 27.498 39.8535Z"/>
		</symbol>

		<symbol id="dermatology">
			<path  d="M43.7121 27.0037V19.2135C43.7121 8.61953 35.0926 0 24.4986 0C13.9047 0 5.28516 8.61953 5.28516 19.2135V27.0037C2.26445 27.6826 0 30.3875 0 33.6102C0 37.0219 2.5373 39.8535 5.82441 40.3154C6.77295 44.231 8.95147 47.7812 12.0463 50.4185C15.5149 53.3726 19.9364 55 24.4986 55C29.0608 55 33.4823 53.3726 36.951 50.4185C40.0458 47.7812 42.2243 44.231 43.1729 40.3154C46.46 39.8535 48.9973 37.0219 48.9973 33.6102C48.9973 30.3875 46.7328 27.6826 43.7121 27.0037ZM8.50781 19.2135C8.50781 10.3963 15.6814 3.22266 24.4986 3.22266C33.3158 3.22266 40.4895 10.3963 40.4895 19.2135V24.6404C37.8146 23.6951 35.431 22.3062 33.3749 20.4929C31.2866 18.6517 30.337 17.036 30.3306 17.0253L29.1403 14.9359L27.6611 16.8309C27.6031 16.905 22.0666 23.8165 8.50781 26.747V19.2135ZM42.2254 37.1594H40.4884L40.2596 38.4989C38.9458 46.1925 32.3168 51.7773 24.4986 51.7773C16.6805 51.7773 10.0515 46.1925 8.7377 38.4989L8.50889 37.1594H6.77188C4.81465 37.1594 3.22266 35.5674 3.22266 33.6102C3.22266 31.8796 4.46768 30.4348 6.11016 30.1243C6.32393 30.0835 6.54522 30.062 6.77188 30.062H8.39609C8.43369 30.0545 8.47021 30.047 8.50781 30.0395C19.7871 27.7535 26.1347 22.8551 28.7611 20.3489C30.511 22.4974 34.2171 26.1046 40.4895 28.0328V30.062H42.2254C44.1826 30.062 45.7746 31.654 45.7746 33.6102C45.7746 35.5674 44.1826 37.1594 42.2254 37.1594Z"/><path  d="M14.5547 41.8051H17.7773V45.0098H14.5547V41.8051Z"/><path  d="M11.2773 34.7152H14.5V37.9199H11.2773V34.7152Z"/><path  d="M17.6133 36.0938H20.8359V39.2985H17.6133V36.0938Z"/><path  d="M31.2227 41.8051H34.4453V45.0098H31.2227V41.8051Z"/><path  d="M34.5 34.7152H37.7227V37.9199H34.5V34.7152Z"/><path  d="M28.1602 36.0938H31.3828V39.2985H28.1602V36.0938Z"/>
		</symbol>

		<symbol id="cross">
			<path  stroke="white" stroke-width="5.422" d="M2.6665 30.6666L30.9998 2.33325"/><path  stroke="white" stroke-width="5.422" d="M31.3335 30.6666L3.00016 2.33325"/>
		</symbol>

		<symbol id="cream">
			<path  d="M51.7748 20.7976V13.2722H48.5497V12.6344C48.5497 5.87227 43.0485 0.371094 36.2864 0.371094H32.3394V1.98242C32.3394 4.65076 30.1683 6.82144 27.5 6.82144H14.5124C10.6188 6.82144 7.36134 9.59637 6.61274 13.2722H3.22517V20.7976H0V44.5337H55V20.7976H51.7748ZM14.5124 10.0441H27.5C31.3936 10.0441 34.6515 7.26959 35.4001 3.59375H36.2864C41.2714 3.59375 45.327 7.64935 45.327 12.6344V13.2722H9.94995C10.6155 11.3936 12.4089 10.0441 14.5124 10.0441ZM6.44783 16.4949H48.5522V20.7976H6.44783V16.4949ZM51.7773 41.311H3.22266V24.0203H51.7773V41.311Z"/>
		</symbol>

		<symbol id="confirm">
			<g clip-path="url(#clip0)"><path  d="M46.0118 34.2982C48.3101 30.8078 49.6499 26.6331 49.6499 22.1503C49.6499 9.93652 39.7129 0 27.4992 0C15.2854 0 5.34885 9.93652 5.34885 22.1503C5.34885 26.6331 6.68869 30.8078 8.98651 34.2982L0.322266 46.9341L10.2365 45.0857L12.0854 55L20.2562 43.0833C22.5271 43.8713 24.9638 44.3006 27.4992 44.3006C30.0349 44.3006 32.4716 43.8713 34.7422 43.0833L42.9134 55L44.7618 45.0857L54.6761 46.9341L46.0118 34.2982ZM13.8373 46.7126L12.8289 41.3046L7.42134 42.3133L11.0703 36.9913C12.818 38.9241 14.9014 40.5471 17.2269 41.7699L13.8373 46.7126ZM8.59039 22.1503C8.59039 11.7241 17.0729 3.24154 27.4992 3.24154C37.9258 3.24154 46.4083 11.7241 46.4083 22.1503C46.4083 32.5769 37.9258 41.0595 27.4992 41.0595C17.0729 41.0595 8.59039 32.5769 8.59039 22.1503ZM42.1694 41.3046L41.161 46.7126L37.7718 41.7699C40.0973 40.5471 42.1807 38.9241 43.9284 36.9913L47.5774 42.3129L42.1694 41.3046Z"/><path  d="M23.5506 27.0148L18.2802 21.7448L15.9883 24.0368L23.5506 31.5991L39.0106 16.1396L36.7186 13.8477L23.5506 27.0148Z"/></g><defs ><clipPath id="clip0"><path fill="white" d="M0 0H55V55H0z"/></clipPath></defs>
		</symbol>

		<symbol id="chair">
			<path  d="M57.4656 15.4677V9.62581C57.4656 4.43343 53.2413 0.208984 48.0488 0.208984H17.7074C12.5149 0.208984 8.29053 4.43343 8.29053 9.62581V15.4677C3.99682 16.3421 0.755859 20.1471 0.755859 24.6951V49.2827H8.29053V56.8189H12.0549V49.2827H53.7013V56.8189H57.4656V49.2827H65.0003V24.6951C65.0003 20.1471 61.7593 16.3421 57.4656 15.4677ZM12.0549 9.62581C12.0549 6.50896 14.5905 3.97331 17.7074 3.97331H48.0489C51.1658 3.97331 53.7014 6.50896 53.7014 9.62581V15.4677C49.4077 16.3421 46.1668 20.1472 46.1668 24.6951V34.2164H19.5895V24.6951C19.5895 20.1471 16.3486 16.3421 12.0549 15.4677V9.62581ZM61.236 45.5184H4.52018V24.6951C4.52018 21.5784 7.05583 19.0426 10.1727 19.0426C13.2895 19.0426 15.8252 21.5783 15.8252 24.6951V37.9807H49.9311V24.6951C49.9311 21.5784 52.4667 19.0426 55.5836 19.0426C58.7005 19.0426 61.236 21.5784 61.236 24.6951V45.5184Z"/><path  d="M12.0553 24.0669H8.29102V27.8337H12.0553V24.0669Z"/><path  d="M57.4655 24.0669H53.7012V27.8337H57.4655V24.0669Z"/>
		</symbol>

		<symbol id="calendar">
			<path  fill="#A8A9AD" d="M22.0703 1.95312H20.8984V0H18.9453V1.95312H6.05469V0H4.10156V1.95312H2.92969C1.31426 1.95312 0 3.26738 0 4.88281V22.0703C0 23.6857 1.31426 25 2.92969 25H22.0703C23.6857 25 25 23.6857 25 22.0703V4.88281C25 3.26738 23.6857 1.95312 22.0703 1.95312ZM23.0469 22.0703C23.0469 22.6088 22.6088 23.0469 22.0703 23.0469H2.92969C2.39121 23.0469 1.95312 22.6088 1.95312 22.0703V9.17969H23.0469V22.0703ZM23.0469 7.22656H1.95312V4.88281C1.95312 4.34434 2.39121 3.90625 2.92969 3.90625H4.10156V5.85938H6.05469V3.90625H18.9453V5.85938H20.8984V3.90625H22.0703C22.6088 3.90625 23.0469 4.34434 23.0469 4.88281V7.22656Z"/><path  fill="#A8A9AD" d="M5.66406 11.2305H3.71094V13.1836H5.66406V11.2305Z"/><path  fill="#A8A9AD" d="M9.57031 11.2305H7.61719V13.1836H9.57031V11.2305Z"/><path  fill="#A8A9AD" d="M13.4766 11.2305H11.5234V13.1836H13.4766V11.2305Z"/><path  fill="#A8A9AD" d="M17.3828 11.2305H15.4297V13.1836H17.3828V11.2305Z"/><path  fill="#A8A9AD" d="M21.2891 11.2305H19.3359V13.1836H21.2891V11.2305Z"/><path  fill="#A8A9AD" d="M5.66406 15.1367H3.71094V17.0898H5.66406V15.1367Z"/><path  fill="#A8A9AD" d="M9.57031 15.1367H7.61719V17.0898H9.57031V15.1367Z"/><path  fill="#A8A9AD" d="M13.4766 15.1367H11.5234V17.0898H13.4766V15.1367Z"/><path  fill="#A8A9AD" d="M17.3828 15.1367H15.4297V17.0898H17.3828V15.1367Z"/><path  fill="#A8A9AD" d="M5.66406 19.043H3.71094V20.9961H5.66406V19.043Z"/><path  fill="#A8A9AD" d="M9.57031 19.043H7.61719V20.9961H9.57031V19.043Z"/><path  fill="#A8A9AD" d="M13.4766 19.043H11.5234V20.9961H13.4766V19.043Z"/><path  fill="#A8A9AD" d="M17.3828 19.043H15.4297V20.9961H17.3828V19.043Z"/><path  fill="#A8A9AD" d="M21.2891 15.1367H19.3359V17.0898H21.2891V15.1367Z"/>
		</symbol>

		<symbol id="cafe">
			<path  d="M15.8505 0.391602V9.49122H12.0802V0.391602H8.31592V9.49122H4.54557V0.391602H0.78125V15.3307C0.78125 18.302 2.20078 21.0961 4.54858 22.862V64.636H15.8476V22.862C18.1953 21.0963 19.6148 18.3019 19.6148 15.3307V0.391602H15.8505ZM15.8506 15.3307C15.8506 17.3407 14.767 19.2164 13.0227 20.2258L12.0833 20.7694V60.8717H8.31291V20.7694L7.37346 20.2258C5.6292 19.2164 4.54557 17.3406 4.54557 15.3306V13.2555H15.8506V15.3307Z"/><path  d="M29.0345 0.391602H27.1523V64.636H38.4513V34.5201C40.8554 32.0644 42.2187 28.7486 42.2187 25.2939V13.5758C42.2187 6.30598 36.3043 0.391602 29.0345 0.391602ZM38.4543 25.2939C38.4543 27.969 37.3096 30.5281 35.3138 32.3148L34.687 32.8759V60.8717H30.9167V4.34477C35.2118 5.21947 38.4543 9.02621 38.4543 13.5758V25.2939Z"/>
		</symbol>

		<symbol id="blood-drops">
			<path  d="M13.3262 40.9231C12.9682 40.5404 12.6653 40.1418 12.4101 39.7419C11.2084 37.8624 11.0384 35.9679 11.0241 35.7761C11.0233 35.7732 11.0233 35.7698 11.0233 35.7677L9.40988 35.8722L7.79688 35.9679C7.80862 36.1672 7.94206 37.9778 8.93697 40.1049C10.297 43.0103 12.6158 45.0878 15.6441 46.1129L16.1624 44.5813L16.6806 43.0514C15.2182 42.5554 14.1322 41.7829 13.3262 40.9231Z"/><path  d="M44.9719 10.8379C41.1992 5.61993 37.4889 1.50097 37.3324 1.32767L36.1331 0L34.9339 1.32767C34.7971 1.48083 31.9122 4.68124 28.6535 8.997C25.1673 4.54025 22.3093 1.36879 22.2728 1.32767L21.0731 0L19.8738 1.32767C19.8256 1.38138 14.9673 6.77387 10.1794 13.3958C3.61662 22.473 0.289062 29.4777 0.289062 34.2147C0.289062 45.6753 9.61253 55 21.0731 55C29.1125 55 36.1008 50.4123 39.5568 43.7182C47.1141 42.1354 52.8083 35.4186 52.8083 27.3964C52.8083 23.6001 50.1714 18.0288 44.9719 10.8379ZM41.0674 39.9001C40.4619 40.1405 39.8358 40.3378 39.1913 40.4876C38.5921 40.6277 37.9782 40.728 37.3509 40.7838C36.9501 40.8207 36.5435 40.8388 36.1331 40.8388C28.7202 40.8388 22.6899 34.8085 22.6899 27.3964C22.6899 24.1657 25.4635 19.1559 28.716 14.4315C29.0404 13.9627 29.3677 13.4961 29.6987 13.0337C30.0294 12.5726 30.3626 12.1156 30.6953 11.6653C32.6524 9.02302 34.6171 6.61568 36.1331 4.85706C40.7649 10.2311 49.5756 21.6375 49.5756 27.3964C49.5756 33.0671 46.0453 37.9292 41.0674 39.9001ZM21.0731 51.7673C11.3951 51.7673 3.52179 43.8927 3.52179 34.2147C3.52179 26.6121 15.2434 11.5575 21.0744 4.85035C22.6316 6.64127 24.6088 9.02721 26.6716 11.7086C21.8838 18.4791 19.4567 23.7553 19.4567 27.3964C19.4567 36.411 26.6477 43.7786 35.5956 44.0631C32.4346 48.7099 27.1047 51.7673 21.0731 51.7673Z"/><path  d="M30.1027 28.0052L28.4893 28.1022L28.4884 28.1018V28.1022L26.875 28.1983C26.8901 28.4484 27.3093 34.3599 33.1747 36.3451L33.6921 34.8139H33.6925L33.6921 34.8135L34.2103 33.2823C30.4946 32.026 30.1241 28.278 30.1027 28.0052Z"/>
		</symbol>

		<symbol id="blood-drop">
			<path  d="M27.9744 16.0868C23.9746 8.6525 18.5162 0 18.5162 0C18.5162 0 13.0583 8.6525 9.05849 16.0868C3.59718 26.2374 0.828125 33.3855 0.828125 37.3325C0.828125 47.0743 8.76308 55 18.5162 55C28.2698 55 36.2048 47.0743 36.2048 37.3325C36.2048 33.3855 33.4357 26.2374 27.9744 16.0868ZM18.5162 51.7811C10.5402 51.7811 4.05078 45.2993 4.05078 37.3325C4.05078 31.0684 13.4913 14.306 18.5162 6.07227C23.5416 14.3052 32.9821 31.0663 32.9821 37.3325C32.9821 45.2993 26.4927 51.7811 18.5162 51.7811Z"/><path  d="M20.1309 30.9009H16.9082V35.5146H12.2891V38.7334H16.9082V43.3471H20.1309V38.7334H24.75V35.5146H20.1309V30.9009Z"/>
		</symbol>

		<symbol id="bed">
			<path  d="M48.5547 21.3225H48.4473V6.39674C48.4473 2.86958 45.5559 0 42.002 0H12.8906C9.33668 0 6.44531 2.86958 6.44531 6.39674V21.3225C2.89137 21.3225 0 24.192 0 27.7192V39.4466H4.29688V43.2846H8.59375V39.4466H46.4062V43.2846H50.7031V39.4466H55V27.7192C55 24.192 52.1086 21.3225 48.5547 21.3225ZM10.7422 6.39674C10.7422 5.22102 11.706 4.26449 12.8906 4.26449H42.002C43.1866 4.26449 44.1504 5.22102 44.1504 6.39674V21.3225H40.0684V18.1241C40.0684 14.5969 37.177 11.7274 33.623 11.7274H21.1621C17.6082 11.7274 14.7168 14.5969 14.7168 18.1241V21.3225H10.7422V6.39674ZM35.7715 18.1241V21.3225H19.0137V18.1241C19.0137 16.9484 19.9775 15.9918 21.1621 15.9918H33.623C34.8077 15.9918 35.7715 16.9484 35.7715 18.1241ZM50.7031 35.1821H4.29688V27.7192C4.29688 26.5435 5.26066 25.587 6.44531 25.587H48.5547C49.7393 25.587 50.7031 26.5435 50.7031 27.7192V35.1821Z"/>
		</symbol>

		<symbol id="beat">
			<path  d="M31.8617 13.5489L29.9208 18.6605L22.9547 0.209717L17.0003 13.5489H0V17.1359H19.3272L22.6775 9.63062L29.9112 28.7902L34.3367 17.1359H55V13.5489H31.8617Z"/>
		</symbol>

		<symbol id="arrow">
			<path  d="M0 9.15552L14.8762 0V6.09604H54V12.1011H14.8762V18.0152L0 9.15552Z"/>
		</symbol>
</svg>